<svg width="105" height="64" viewBox="0 0 105 64" fill="none" xmlns="http://www.w3.org/2000/svg">
<g clip-path="url(#clip0_34_2116)">
<path fill-rule="evenodd" clip-rule="evenodd" d="M49.6483 12.7408C52.0896 9.65001 56.8957 5.19228 59.0502 1.88148C56.9691 1.20465 54.7812 0.8479 52.5933 0.8479C41.1835 0.8479 31.9316 10.0968 31.9316 21.5029C31.9316 32.4221 40.4064 41.3576 51.1358 42.1045C50.9657 41.3843 50.8123 40.7108 50.6655 40.0706C41.2569 39.1071 33.9161 31.1618 33.9161 21.5029C33.9161 11.1937 42.2775 2.83504 52.5899 2.83504C52.8934 2.83504 53.1936 2.84171 53.4904 2.85505C50.0885 6.77599 47.7539 9.91008 46.1997 12.5507C42.6877 14.3445 41.3603 16.2649 42.2208 18.3188C43.0879 20.3859 43.6749 19.7191 45.4192 20.1392C45.9362 20.2626 46.4598 20.4993 46.9367 20.9894C43.4915 19.5491 43.218 22.5298 43.6215 23.9968C44.1318 25.8506 45.9562 26.5707 46.3664 27.2076C49.6716 32.3155 50.3553 33.7291 52.3831 42.1678C53.1836 42.1845 53.974 42.1511 54.7545 42.0745C54.0974 38.3502 51.7861 32.8823 49.9418 29.6215C52.203 32.4588 54.9012 38.3069 55.7917 41.9444C65.5472 40.4341 73.2549 31.7453 73.2549 21.5029C73.2549 14.4412 69.7096 8.20633 64.2998 4.48211C63.7962 4.92221 63.2759 5.37565 62.749 5.83576C67.8752 9.16323 71.2671 14.9379 71.2671 21.5029C71.2671 30.0116 65.5739 37.1866 57.7862 39.4372C55.4315 34.1859 53.7639 30.5117 52.79 28.4179C51.5427 25.7339 53.5271 25.9773 53.4637 23.5067C53.4337 22.3197 52.9168 21.6362 51.9129 21.4562C51.2091 21.3728 50.8556 21.3295 50.8556 21.3295C51.5093 21.1661 51.9329 20.836 52.1263 20.3359C52.183 18.3821 51.566 17.5152 52.5632 15.8015C54.5043 12.4474 58.1064 8.4664 63.3727 3.84529C62.5755 3.36851 61.7451 2.94507 60.8913 2.57498C57.2525 6.10583 53.3937 9.33661 49.6483 12.7408Z" fill="#FFC836"/>
</g>
<path d="M65.1116 63.5763C64.4729 63.5763 63.8341 63.4485 63.2379 63.2356C62.6417 62.9801 62.0881 62.6394 61.6197 62.2136C61.1513 61.7877 60.768 61.2341 60.4699 60.5954C60.1718 59.9566 60.0441 59.2752 60.0441 58.5087C60.0441 57.8274 60.1718 57.1886 60.4273 56.5924C60.6828 55.9962 61.0235 55.4426 61.4919 54.9742C61.9604 54.5058 62.4714 54.1225 63.1102 53.867C63.7489 53.5689 64.3877 53.4412 65.1542 53.4412C65.793 53.4412 66.4317 53.5689 67.0705 53.8244C67.6667 54.0799 68.2203 54.4206 68.6887 54.889C69.1571 55.3575 69.5404 55.8685 69.8385 56.5072C70.1366 57.146 70.2643 57.8274 70.2643 58.5513C70.2643 59.1901 70.1366 59.8288 69.8811 60.4676C69.6256 61.0638 69.2849 61.6174 68.8165 62.0858C68.3481 62.5542 67.837 62.9375 67.1983 63.193C66.5169 63.4059 65.8356 63.5763 65.1116 63.5763ZM65.1116 55.3575C64.6858 55.3575 64.3025 55.4426 63.9193 55.613C63.536 55.7833 63.1953 55.9962 62.9398 56.2943C62.6417 56.5924 62.4288 56.8905 62.2585 57.2738C62.0881 57.657 62.003 58.0403 62.003 58.4661C62.003 58.892 62.0881 59.2752 62.2585 59.6585C62.4288 60.0418 62.6417 60.3398 62.9398 60.6379C63.2379 60.936 63.536 61.149 63.9193 61.3193C64.3025 61.4896 64.6858 61.5748 65.1116 61.5748C65.5375 61.5748 65.9207 61.4896 66.304 61.3193C66.6873 61.149 66.9853 60.936 67.2834 60.6379C67.5815 60.3398 67.7945 60.0418 67.9648 59.6585C68.1351 59.2752 68.2203 58.892 68.2203 58.4661C68.2203 58.0403 68.1351 57.657 67.9648 57.2738C67.7945 56.8905 67.5815 56.5498 67.2834 56.2943C66.9853 55.9962 66.6873 55.7833 66.304 55.613C65.9207 55.4426 65.4949 55.3575 65.1116 55.3575Z" fill="white"/>
<path d="M54.5082 63.4059V53.4412H56.4671V63.4059H54.5082Z" fill="white"/>
<path d="M46.9703 63.6189C46.5445 63.6189 46.1186 63.5763 45.6928 63.4485C45.2669 63.3208 44.8837 63.1504 44.543 62.9375C44.2875 62.7672 44.0746 62.5968 43.8616 62.4265C43.6487 62.2561 43.521 62.0858 43.4358 62.0006L44.9262 60.6379C45.0114 60.7231 45.0966 60.8083 45.2669 60.936C45.3947 61.0638 45.565 61.149 45.7779 61.2767C45.9483 61.4045 46.1612 61.4896 46.3741 61.5748C46.5871 61.66 46.8 61.7026 46.9703 61.7026C47.1407 61.7026 47.311 61.7026 47.4387 61.66C47.6091 61.6174 47.7368 61.5748 47.8646 61.4896C47.9923 61.4045 48.1201 61.3193 48.2053 61.149C48.2904 61.0212 48.333 60.8509 48.333 60.6379C48.333 60.5528 48.2904 60.4676 48.2479 60.3824C48.2053 60.2973 48.1201 60.2121 47.9923 60.0843C47.8646 59.9992 47.6942 59.8714 47.4387 59.7437C47.2258 59.6159 46.9277 59.4882 46.5871 59.3604C46.2038 59.1901 45.8205 59.0623 45.4799 58.8494C45.1392 58.6791 44.8411 58.4661 44.5856 58.2106C44.3301 57.9551 44.1597 57.6996 43.9894 57.4015C43.8617 57.1034 43.7765 56.7628 43.7765 56.3369C43.7765 55.9111 43.8617 55.5278 43.9894 55.1871C44.1597 54.8464 44.3727 54.5058 44.6282 54.2503C44.9263 53.9948 45.2243 53.7818 45.6502 53.6541C46.0334 53.5263 46.4593 53.4412 46.9703 53.4412C47.2258 53.4412 47.4813 53.4837 47.7794 53.5263C48.0775 53.6115 48.333 53.6967 48.6311 53.7818C48.8866 53.867 49.1847 53.9948 49.3976 54.1651C49.6531 54.2929 49.8235 54.4632 49.9938 54.5909L48.7589 56.124C48.5885 55.9962 48.3756 55.8685 48.2053 55.7833C48.0349 55.6981 47.8646 55.613 47.6517 55.5278C47.4387 55.4426 47.2258 55.4 47.0129 55.4C46.6296 55.4 46.289 55.4852 46.076 55.6556C45.8631 55.8259 45.7354 56.0388 45.7354 56.3369C45.7354 56.4647 45.7779 56.5924 45.8631 56.7202C45.9483 56.8479 46.0334 56.9331 46.2038 57.0183C46.3315 57.1034 46.5019 57.1886 46.6722 57.2738C46.8426 57.3589 47.0555 57.4015 47.2258 57.4867C47.7794 57.6996 48.2904 57.9125 48.6737 58.168C49.057 58.381 49.355 58.6365 49.6105 58.892C49.866 59.1475 50.0364 59.403 50.1216 59.7011C50.2067 59.9992 50.2919 60.2973 50.2919 60.6379C50.2919 61.0638 50.2067 61.447 50.0364 61.8303C49.866 62.2136 49.6106 62.5117 49.3125 62.8097C49.0144 63.0653 48.6737 63.2782 48.2479 63.4485C47.9072 63.5337 47.4813 63.6189 46.9703 63.6189Z" fill="white"/>
<path d="M34.3229 55.4426V57.4441H37.5593V59.4456H34.3229V61.447H38.7517V63.4059H32.364V53.4412H38.7517V55.4H34.3229V55.4426Z" fill="white"/>
<path d="M100.571 55.4426V57.4441H103.807V59.4456H100.571V61.447H105V63.4059H98.6121V53.4412H105V55.4H100.571V55.4426Z" fill="white"/>
<path d="M19.2057 53.4412H20.0573L25.423 59.403V53.5263H27.3819V63.5763H26.4876L21.122 57.6144V63.4911H19.1631V53.4412H19.2057Z" fill="white"/>
<path d="M12.3495 63.4059V53.4412H14.3084V63.4059H12.3495Z" fill="white"/>
<path d="M83.3979 63.4059V53.4412H85.3568V63.4059H83.3979Z" fill="white"/>
<path d="M3.8326 58.1256L8.26139 63.4486H5.70632L2.51248 59.616C2.42731 59.7012 2.34214 59.829 2.25697 59.9567C2.1718 60.0845 2.04404 60.1696 1.95888 60.2974V63.4912H0V53.4413H1.95888V57.2313L5.36563 53.4413H8.00588L3.8326 58.1256Z" fill="white"/>
<path d="M90.7939 55.4322V57.4232H94.0134V59.4143H90.7939V63.3963H88.8452V53.4412H95.1996V55.3898H90.7939V55.4322Z" fill="white"/>
<path d="M79.8707 63.485H73.8186V53.4412H75.793V61.5106H79.8278V63.485H79.8707Z" fill="white"/>
<defs>
<clipPath id="clip0_34_2116">
<rect width="41.3233" height="41.3233" fill="white" transform="matrix(-1 0 0 1 73.2549 0.8479)"/>
</clipPath>
</defs>
</svg>
