<svg width="49" height="49" viewBox="0 0 49 49" fill="none" xmlns="http://www.w3.org/2000/svg">
<path fill-rule="evenodd" clip-rule="evenodd" d="M3.89517 11.8863C6.37708 9.26939 7.25596 8.53535 8.31258 8.1963C9.04494 8.00366 9.81321 7.99237 10.5509 8.16339C11.522 8.44647 11.7754 8.66043 14.9618 11.8303C17.7597 14.6151 18.0362 14.9179 18.3061 15.4511C18.8282 16.4109 18.9121 17.5489 18.5365 18.5749C18.26 19.3485 17.8518 19.862 16.1566 21.5671L15.0506 22.6763C14.7597 22.9715 14.6907 23.42 14.8795 23.7889C17.3346 27.9778 20.8172 31.4717 24.998 33.9404C25.4802 34.1989 26.0744 34.115 26.4661 33.7331L27.5293 32.6863C28.1863 32.0121 28.882 31.3769 29.613 30.7837C30.7591 30.0745 32.1898 30.0061 33.3984 30.6027C33.9876 30.8792 34.1851 31.0602 37.0719 33.9371C40.0344 36.8996 40.1298 36.9951 40.4623 37.6765C41.083 38.8051 41.0768 40.1743 40.4458 41.2973C40.1167 41.9293 39.9323 42.1597 38.2602 43.8681C37.2496 44.9017 36.2852 45.8431 36.1469 45.9813C34.7659 47.1227 32.9957 47.6833 31.2094 47.5449C27.9415 47.2458 24.7787 46.2346 21.9434 44.5824C15.659 41.2528 10.3095 36.4012 6.38367 30.471C5.52518 29.2313 4.76154 27.9284 4.09925 26.5737C2.33461 23.5486 1.42234 20.1019 1.45933 16.5999C1.59207 14.7616 2.47243 13.058 3.89517 11.8863Z" stroke="black" stroke-width="2" stroke-linecap="round" stroke-linejoin="round"/>
<path d="M31.7118 0.516796C31.192 0.330225 30.6194 0.600374 30.4328 1.12019C30.2462 1.64001 30.5164 2.21265 31.0362 2.39922L31.7118 0.516796ZM46.5678 17.6709C46.7631 18.1875 47.3402 18.448 47.8568 18.2526C48.3734 18.0573 48.6339 17.4802 48.4386 16.9636L46.5678 17.6709ZM27.9735 7.8987C27.4348 7.77703 26.8994 8.11512 26.7777 8.65384C26.6561 9.19255 26.9942 9.7279 27.5329 9.84957L27.9735 7.8987ZM39.3228 21.4445C39.4534 21.9811 39.9943 22.3103 40.5309 22.1796C41.0676 22.049 41.3967 21.5081 41.266 20.9715L39.3228 21.4445ZM31.0362 2.39922C38.1996 4.97029 43.8762 10.5519 46.5678 17.6709L48.4386 16.9636C45.5399 9.2968 39.4265 3.2857 31.7118 0.516796L31.0362 2.39922ZM27.5329 9.84957C33.3457 11.1623 37.9133 15.6544 39.3228 21.4445L41.266 20.9715C39.6769 14.4434 34.5271 9.3788 27.9735 7.8987L27.5329 9.84957Z" fill="black"/>
</svg>
