<svg width="32" height="32" viewBox="0 0 32 32" fill="none" xmlns="http://www.w3.org/2000/svg">
<path d="M31 1H1V31H31V1Z" stroke="#454E9F" stroke-width="2" stroke-linecap="round" stroke-linejoin="round"/>
<path d="M1 31.0005H31L24.715 23.973C24.5038 23.7285 24.2424 23.5324 23.9486 23.398C23.6548 23.2636 23.3356 23.194 23.0125 23.194C22.6894 23.194 22.3702 23.2636 22.0764 23.398C21.7826 23.5324 21.5212 23.7285 21.31 23.973L18.6175 26.973L11.5375 19.0605C11.323 18.8214 11.0605 18.6302 10.7672 18.4993C10.4738 18.3684 10.1562 18.3008 9.835 18.3008C9.51379 18.3008 9.19619 18.3684 8.90285 18.4993C8.60952 18.6302 8.34704 18.8214 8.13251 19.0605L1 27.0405" stroke="#454E9F" stroke-width="2" stroke-linecap="round" stroke-linejoin="round"/>
<path d="M21.1376 12.5125C22.1358 12.5125 22.9451 11.7032 22.9451 10.705C22.9451 9.70671 22.1358 8.89746 21.1376 8.89746C20.1393 8.89746 19.3301 9.70671 19.3301 10.705C19.3301 11.7032 20.1393 12.5125 21.1376 12.5125Z" stroke="#454E9F" stroke-width="2" stroke-linecap="round" stroke-linejoin="round"/>
</svg>
