<svg width="32" height="31" viewBox="0 0 32 31" fill="none" xmlns="http://www.w3.org/2000/svg">
<path d="M24.0575 22.6785C23.4127 24.205 22.4478 25.5753 21.2281 26.697C20.0084 27.8186 18.5622 28.6655 16.9872 29.1804C15.4122 29.6953 13.745 29.8662 12.0983 29.6817C10.4515 29.4971 8.86355 28.9613 7.44159 28.1105L1 29.8169L2.82014 22.9345C1.71631 20.5188 1.47848 17.7965 2.14668 15.226C2.81489 12.6555 4.34834 10.3936 6.48887 8.82129" stroke="black" stroke-width="2" stroke-linecap="round" stroke-linejoin="round"/>
<path d="M31 24.2844L29.1799 17.402C30.3252 14.8742 30.5271 12.0197 29.7491 9.35579C28.9712 6.69188 27.2648 4.39475 24.9391 2.88057C22.6134 1.36638 19.8222 0.735267 17.0713 1.10165C14.3204 1.46803 11.7918 2.80764 9.94344 4.87776C8.09513 6.94787 7.04944 9.61157 6.99582 12.3862C6.9422 15.1609 7.88421 17.863 9.65117 20.003C11.4181 22.143 13.8932 23.5792 16.6279 24.0516C19.3625 24.524 22.176 24.0012 24.5584 22.578L31 24.2844Z" stroke="black" stroke-width="2" stroke-linecap="round" stroke-linejoin="round"/>
<path d="M15 9H23" stroke="black" stroke-width="2" stroke-linecap="round" stroke-linejoin="round"/>
<path d="M15 13H23" stroke="black" stroke-width="2" stroke-linecap="round" stroke-linejoin="round"/>
<path d="M15 17H20" stroke="black" stroke-width="2" stroke-linecap="round" stroke-linejoin="round"/>
</svg>
