<svg width="127" height="23" viewBox="0 0 127 23" fill="none" xmlns="http://www.w3.org/2000/svg">
<path d="M11.129 0L13.6277 7.68997H21.7134L15.1719 12.4426L17.6705 20.1326L11.129 15.3799L4.58755 20.1326L7.08617 12.4426L0.544694 7.68997H8.63041L11.129 0Z" fill="#F4D189"/>
<path d="M37.0968 0L39.5954 7.68997H47.6811L41.1397 12.4426L43.6383 20.1326L37.0968 15.3799L30.5553 20.1326L33.0539 12.4426L26.5125 7.68997H34.5982L37.0968 0Z" fill="#F4D189"/>
<path d="M63.0646 0L65.5632 7.68997H73.6489L67.1074 12.4426L69.6061 20.1326L63.0646 15.3799L56.5231 20.1326L59.0217 12.4426L52.4802 7.68997H60.566L63.0646 0Z" fill="#F4D189"/>
<path d="M89.0322 0L91.5309 7.68997H99.6166L93.0751 12.4426L95.5737 20.1326L89.0322 15.3799L82.4907 20.1326L84.9894 12.4426L78.4479 7.68997H86.5336L89.0322 0Z" fill="#F4D189"/>
<path d="M115 0L117.499 7.68997H125.584L119.043 12.4426L121.541 20.1326L115 15.3799L108.459 20.1326L110.957 12.4426L104.416 7.68997H112.501L115 0Z" fill="#F4D189"/>
</svg>
