<svg width="35" height="36" viewBox="0 0 35 36" fill="none" xmlns="http://www.w3.org/2000/svg">
<path d="M32.2656 15.4219C31.4844 14.6406 30.3125 14.7188 29.5312 15.4219L20.625 24.875V2.375C20.625 1.35938 19.7656 0.5 18.75 0.5H16.25C15.1562 0.5 14.375 1.35938 14.375 2.375V24.875L5.39062 15.4219C4.60938 14.7188 3.4375 14.6406 2.65625 15.4219L0.9375 17.1406C0.234375 17.8438 0.234375 19.0938 0.9375 19.7969L16.1719 34.9531C16.875 35.7344 18.0469 35.7344 18.8281 34.9531L33.9844 19.7969C34.6875 19.0938 34.6875 17.9219 33.9844 17.1406L32.2656 15.4219Z" fill="#ffffff"/>
</svg>
