<svg width="157" height="183" viewBox="0 0 157 183" fill="none" xmlns="http://www.w3.org/2000/svg">
<path fill-rule="evenodd" clip-rule="evenodd" d="M78.1628 0C62.6333 0 49.9176 4.38416 36.2773 16.5887C25.7293 26.0264 8.6212 32.0469 1.53522 34.254L1.27935 34.3337L0 34.7322L1.38919e-06 36.0722L1.73649e-06 36.3402C2.14818e-05 56.3117 1.04803 75.5181 4.70261 93.3423C4.90871 94.3475 5.79711 95.0633 6.82322 95.0633C8.21629 95.0633 9.25109 93.7745 8.97177 92.4097C5.51578 75.5235 4.42819 57.2181 4.37231 37.9374C12.2528 35.381 28.611 29.3119 39.1912 19.8454C52.0386 8.35038 63.7195 4.37001 78.1628 4.37001C92.6062 4.37001 104.287 8.35038 117.134 19.8454C127.715 29.3119 144.073 35.381 151.953 37.9374C151.901 56.1287 150.93 73.4517 147.917 89.5338C147.664 90.888 148.695 92.15 150.073 92.15C151.113 92.15 152.01 91.4149 152.202 90.3923C155.39 73.4055 156.326 55.2145 156.326 36.3402V36.0722V34.7322L155.046 34.3337L154.79 34.254C147.704 32.0469 130.596 26.0264 120.048 16.5887C106.408 4.38416 93.6924 0 78.1628 0ZM136.112 134.738C136.983 133.292 135.922 131.48 134.233 131.48C133.448 131.48 132.723 131.896 132.317 132.569C121.273 150.856 104.255 166.212 78.1628 177.552C52.0708 166.212 35.0528 150.856 24.0085 132.569C23.6026 131.896 22.8779 131.48 22.0927 131.48C20.4037 131.48 19.3422 133.292 20.214 134.738C31.8665 154.075 49.8697 170.199 77.3032 181.94L77.4465 182.001L78.1628 182.308L78.8792 182.001L79.0225 181.94C106.456 170.2 124.459 154.075 136.112 134.738Z" fill="#4E4E4E"/>
<path d="M11.8783 116.185V122.74H8.11426V104.099H14.4644C16.308 104.099 17.7761 104.671 18.8686 105.815C19.9696 106.959 20.5201 108.444 20.5201 110.27C20.5201 112.097 19.9781 113.539 18.8942 114.598C17.8102 115.656 16.308 116.185 14.3876 116.185H11.8783ZM11.8783 113.048H14.4644C15.1814 113.048 15.7362 112.814 16.1288 112.344C16.5214 111.875 16.7177 111.192 16.7177 110.296C16.7177 109.365 16.5171 108.627 16.116 108.081C15.7148 107.526 15.1771 107.244 14.5028 107.236H11.8783V113.048Z" fill="#CCCCCC"/>
<path d="M27.1038 122.74H23.3398V104.099H27.1038V122.74Z" fill="#CCCCCC"/>
<path d="M35.8256 115.135H34.1868V122.74H30.4228V104.099H34.1868V111.55H35.4543L38.6934 104.099H43.2768L38.719 112.78L43.7889 122.74H39.3079L35.8256 115.135Z" fill="#CCCCCC"/>
<path d="M62.0006 107.236H55.3047V122.74H51.5407V104.099H62.0006V107.236Z" fill="#CCCCCC"/>
<path d="M70.7223 118.925H65.5884L64.5898 122.74H60.6081L66.4334 104.099H69.8773L75.741 122.74H71.7209L70.7223 118.925ZM66.4078 115.788H69.8901L68.149 109.144L66.4078 115.788Z" fill="#CCCCCC"/>
<path d="M81.3901 116.185V122.74H77.6261V104.099H83.9762C85.8198 104.099 87.2879 104.671 88.3804 105.815C89.4814 106.959 90.0319 108.444 90.0319 110.27C90.0319 112.097 89.49 113.539 88.406 114.598C87.322 115.656 85.8198 116.185 83.8994 116.185H81.3901ZM81.3901 113.048H83.9762C84.6932 113.048 85.248 112.814 85.6406 112.344C86.0332 111.875 86.2295 111.192 86.2295 110.296C86.2295 109.365 86.0289 108.627 85.6278 108.081C85.2266 107.526 84.6889 107.244 84.0146 107.236H81.3901V113.048Z" fill="#CCCCCC"/>
<path d="M99.3042 118.925H94.1703L93.1717 122.74H89.19L95.0153 104.099H98.4592L104.323 122.74H100.303L99.3042 118.925ZM94.9897 115.788H98.472L96.7309 109.144L94.9897 115.788Z" fill="#CCCCCC"/>
<path d="M119.28 122.74H115.528V114.764H109.972V122.74H106.208V104.099H109.972V111.64H115.528V104.099H119.28V122.74Z" fill="#CCCCCC"/>
<path d="M134.134 107.236H129.525V122.74H125.748V107.236H121.216V104.099H134.134V107.236Z" fill="#CCCCCC"/>
<path d="M140.359 122.74H136.595V104.099H140.359V122.74Z" fill="#CCCCCC"/>
<path d="M147.583 122.74H143.819V104.099H147.583V122.74ZM140.772 101.257C140.772 100.788 140.947 100.399 141.297 100.092C141.638 99.7762 142.056 99.6183 142.551 99.6183C143.046 99.6183 143.465 99.7762 143.806 100.092C144.156 100.399 144.331 100.788 144.331 101.257C144.331 101.718 144.156 102.106 143.806 102.422C143.465 102.729 143.046 102.883 142.551 102.883C142.056 102.883 141.638 102.729 141.297 102.422C140.947 102.106 140.772 101.718 140.772 101.257ZM147.032 101.257C147.032 100.796 147.203 100.412 147.544 100.105C147.894 99.789 148.317 99.6311 148.812 99.6311C149.307 99.6311 149.725 99.789 150.067 100.105C150.417 100.412 150.592 100.796 150.592 101.257C150.592 101.701 150.425 102.085 150.092 102.409C149.768 102.725 149.341 102.883 148.812 102.883C148.283 102.883 147.852 102.725 147.519 102.409C147.195 102.085 147.032 101.701 147.032 101.257Z" fill="#CCCCCC"/>
<path d="M83.4854 87.7188H75.3826V37.4182L61.4532 43.6545V36.007L82.2108 26.9484H83.4854V87.7188Z" fill="#CCCCCC"/>
</svg>
