<?xml version="1.0" encoding="utf-8"?>
<!-- Generator: Adobe Illustrator 25.2.2, SVG Export Plug-In . SVG Version: 6.00 Build 0)  -->
<svg version="1.1" id="Calque_1" xmlns="http://www.w3.org/2000/svg" xmlns:xlink="http://www.w3.org/1999/xlink" x="0px" y="0px"
	 viewBox="0 0 425.2 92.73" style="enable-background:new 0 0 425.2 92.73;" xml:space="preserve">
<style type="text/css">
	.st0{fill-rule:evenodd;clip-rule:evenodd;fill:#154780;}
	.st1{fill:#154780;}
</style>
<g>
	<g>
		<polygon class="st0" points="282.39,61.24 258.36,0.09 287.5,0.09 302.62,47.54 317.9,0.09 347.04,0.09 322.93,61.24 		"/>
		<polygon class="st0" points="0,61.24 0.01,0.09 26.73,0.09 53.16,30.52 53.16,0.09 79.84,0.09 79.84,61.24 53.16,61.24 
			26.48,29.65 26.48,61.24 		"/>
		<path class="st0" d="M85.07,61.24l24.07-61.14h40.54l24.07,61.14h-28.98l-5.23-14.41h-20.27l-5.07,14.41H85.07z M123.7,31.07h11.4
			l-5.7-17.18L123.7,31.07"/>
		<path class="st0" d="M253.92,42.66l-0.01-0.01c0-0.06,0.01-0.12,0.01-0.19c0-3.59-2.66-6.55-6.12-7.05l-0.01-0.01
			c3.6-1.39,6.15-4.87,6.15-8.96v-0.05V9.6c0-5.3-4.3-9.6-9.6-9.6c-0.2,0-0.39,0.01-0.58,0.02L179.54,0h-0.1v61.34l26.65-0.03h0.09
			V43.79h17.56l0.01,0.01c1.7,0.04,3.09,1.36,3.23,3.04l0.02,0.02v14.46l26.91-0.03H254L253.92,42.66z M227.16,18.74v5.18
			l-0.07,0.07v0.06l0,0c-0.03,1.75-1.41,3.17-3.12,3.26l-0.04,0.04h-17.93V15.41h17.75l0,0c0.04,0,0.07,0,0.1,0
			c1.83,0,3.31,1.49,3.31,3.31V18.74z"/>
		<g>
			<path class="st1" d="M156.69,76.94h6.9c7.89,0,11.52,2.02,11.52,7.7s-3.63,7.73-11.52,7.73h-6.9V76.94z M164.79,79.86h-3.68v9.59
				h3.68c4.14,0,5.84-1.31,5.84-4.78C170.63,81.15,168.92,79.86,164.79,79.86z"/>
			<path class="st1" d="M201.93,76.94l7.79,15.43h-4.37l-1.4-2.87h-8.46l-1.38,2.87h-4.39l7.8-15.43H201.93z M196.76,86.72h5.91
				l-2.97-6.14L196.76,86.72z"/>
			<path class="st1" d="M236.77,88.21c0-2.9-11.75-1.06-11.75-7.04c0-2.92,2.9-4.51,8.35-4.51c2.53,0,4.44,0.28,6.85,0.85v3.33
				l-0.53,0.07c-1.4-0.97-3.73-1.45-6.25-1.45c-2.41,0-4,0.39-4,1.43c0,2.62,11.75,0.97,11.75,7.01c0,3.38-3.75,4.76-8.6,4.76
				c-3.01,0-5.2-0.34-7.61-0.87v-3.47l0.55-0.05c0.97,0.74,3.5,1.59,6.88,1.59C235.3,89.87,236.77,89.27,236.77,88.21z"/>
			<path class="st1" d="M281.05,76.94h4.44v12.3h9.8v3.13h-14.23V76.94z"/>
			<path class="st1" d="M316.15,92.37h-4.44V76.94h4.44V92.37z"/>
			<path class="st1" d="M344.28,76.67c3.36,0,5.68,0.51,7.57,1.08v3.4l-0.51,0.07c-1.08-0.9-3.5-1.68-6.25-1.68
				c-5.79,0-7.24,2.9-7.24,5.27c0,2.35,1.49,4.99,7.24,4.99c2.94,0,4.94-0.71,6.25-1.68l0.51,0.07v3.4
				c-1.89,0.58-4.19,1.08-7.57,1.08c-7.38,0-10.9-3.31-10.9-7.84C333.38,80.3,336.94,76.67,344.28,76.67z"/>
			<path class="st1" d="M373.83,76.94v5.73h9.38v-5.73h4.42v15.43h-4.42V85.8h-9.38v6.58h-4.44V76.94H373.83z"/>
			<path class="st1" d="M404.1,76.94h16.3v3.08h-5.93v12.35h-4.44V80.03h-5.93V76.94z"/>
		</g>
		<path class="st0" d="M336.52,61.3l24.07-61.14h40.54L425.2,61.3h-28.98L391,46.9h-20.27l-5.07,14.41H336.52z M375.16,31.14h11.4
			l-5.7-17.18L375.16,31.14z"/>
	</g>
</g>
</svg>
