<svg width="27" height="21" viewBox="0 0 27 21" fill="none" xmlns="http://www.w3.org/2000/svg">
<path d="M18.5687 15.055H2.00391L4.51372 1H21.0785L18.5687 15.055Z" stroke="white" stroke-width="2" stroke-linecap="round" stroke-linejoin="round"/>
<path d="M24.5922 15.0549H18.5686L20.0745 6.52153H22.8353C23.3331 6.5188 23.8244 6.63418 24.269 6.85821C24.7135 7.08224 25.0986 7.40853 25.3926 7.81028C25.6865 8.21202 25.881 8.67776 25.96 9.16926C26.039 9.66076 26.0003 10.164 25.8471 10.6376L24.5922 15.0549Z" stroke="white" stroke-width="2" stroke-linecap="round" stroke-linejoin="round"/>
<path d="M6.72731 19.4973C7.39543 19.4973 7.93704 18.9557 7.93704 18.2876C7.93704 17.6195 7.39543 17.0779 6.72731 17.0779C6.0592 17.0779 5.51758 17.6195 5.51758 18.2876C5.51758 18.9557 6.0592 19.4973 6.72731 19.4973Z" stroke="white" stroke-width="2" stroke-linecap="round" stroke-linejoin="round"/>
<path d="M17.1131 19.4973C17.7812 19.4973 18.3228 18.9557 18.3228 18.2876C18.3228 17.6195 17.7812 17.0779 17.1131 17.0779C16.4449 17.0779 15.9033 17.6195 15.9033 18.2876C15.9033 18.9557 16.4449 19.4973 17.1131 19.4973Z" stroke="white" stroke-width="2" stroke-linecap="round" stroke-linejoin="round"/>
<path d="M1 6.52161H8.52945" stroke="white" stroke-width="2" stroke-linecap="round" stroke-linejoin="round"/>
</svg>
