<svg width="37" height="45" viewBox="0 0 37 45" fill="none" xmlns="http://www.w3.org/2000/svg">
<path d="M35.3975 26.4808L28.1696 18.4543L26.8896 19.6118L34.1176 27.6491C34.8597 28.4495 35.2684 29.4988 35.2684 30.5914V45H36.9894V30.5914C37.0001 29.0661 36.4301 27.595 35.3975 26.4808Z" fill="#F1F1F1"/>
<path d="M25.814 27.6923V14.5709V4.32692C25.814 1.9363 23.8887 0 21.5116 0H18.6076H18.0698H4.30233C1.92529 0 0 1.9363 0 4.32692V13.8462V14.5709V40.6731C0 43.0637 1.92529 45 4.30233 45H21.5116C22.9422 45 24.2866 44.2861 25.0826 43.0853C25.373 43.399 25.6741 43.7019 26.0076 43.9724L26.9863 44.7945L28.0834 43.4639L27.1047 42.6418C24.8459 40.7596 23.9747 37.6767 24.9105 34.8858C25.0073 34.5938 24.9427 34.2692 24.7384 34.0421L19.3927 27.9952C18.8334 27.357 18.8657 26.3942 19.4573 25.7993C19.7692 25.4964 20.1887 25.3341 20.6189 25.3341C21.0491 25.345 21.4686 25.5288 21.759 25.8534L30.3529 35.2212L31.6113 34.0421L25.7924 27.6923H25.814ZM18.7366 24.1767C18.3494 24.4471 17.8977 24.869 17.7148 25.1286C16.4134 26.1346 14.7892 26.7404 13.0253 26.7404C8.7875 26.7404 5.33488 23.268 5.33488 19.006C5.33488 14.744 8.7875 11.2716 13.0253 11.2716C17.2631 11.2716 20.7157 14.744 20.7157 19.006C20.7157 20.9964 19.9628 22.8029 18.7366 24.1767ZM24.093 14.6575V25.8425L23.0174 24.6635C22.4797 24.0685 21.7483 23.7007 20.9523 23.6142C21.7375 22.262 22.1892 20.6827 22.1892 19.006C22.1892 13.9219 18.0805 9.78966 13.0253 9.78966C7.97006 9.78966 3.86134 13.9219 3.86134 19.006C3.86134 24.0901 7.97006 28.2224 13.0253 28.2224C14.5741 28.2224 16.0262 27.8329 17.3061 27.1514C17.3276 27.3245 17.3599 27.5517 17.4137 27.8221C17.4674 28.1034 17.7041 28.5577 17.7041 28.5577C17.8224 28.7632 17.9515 28.9579 18.1128 29.1418L18.7904 29.9099C19.9413 31.2188 18.7904 29.9099 19.9413 31.2188L23.125 34.8317C22.5227 37.0709 22.8131 39.4615 23.9532 41.4844C23.609 42.5553 22.6195 43.28 21.5116 43.28H4.30233C2.8718 43.28 1.72093 42.1226 1.72093 40.6839V39.8185H21.5116V38.0877H1.72093V14.6575V13.8462V6.92308H18.0698H18.6076H24.093V14.6575ZM24.093 5.19231H18.6076H18.0698H1.72093V4.32692C1.72093 2.88822 2.8718 1.73077 4.30233 1.73077H18.0698H18.6076H21.5116C22.9422 1.73077 24.093 2.88822 24.093 4.32692V5.19231Z" fill="#F1F1F1"/>
<path d="M15.9507 16.0637L11.6698 20.369L10.0995 18.7897C9.80909 18.4976 9.34659 18.4976 9.05618 18.7897C8.76578 19.0817 8.76578 19.5469 9.05618 19.839L11.1428 21.9375C11.2826 22.0781 11.4762 22.1539 11.6698 22.1539C11.8527 22.1539 12.0463 22.0781 12.1969 21.9375L16.994 17.113C17.2844 16.8209 17.2844 16.3558 16.994 16.0637C16.7036 15.7825 16.2303 15.7825 15.9507 16.0637Z" fill="#F1F1F1"/>
</svg>
