<svg width="46" height="44" viewBox="0 0 46 44" fill="none" xmlns="http://www.w3.org/2000/svg">
<path d="M14.0934 25.9755H41.2005L46 8.76481V8.75302H38.9474L36.6474 1.61629C36.5184 1.21521 36.0842 0.991085 35.6852 1.12084L26.5791 4.0935C26.1801 4.22326 25.9571 4.65972 26.0862 5.07259L27.2832 8.75302V8.76481H26.802L24.4551 1.68706C24.3143 1.2506 23.8449 1.01468 23.4107 1.15623L14.4102 4.0935C13.976 4.23505 13.7413 4.7069 13.8821 5.14336L15.0673 8.76481V8.77661H9.39949L8.22602 4.05811C7.63929 1.69886 5.58571 0.0237932 3.22704 0.0237932H0.985714C0.434184 0.0119969 0 0.448458 0 0.991085C0 1.53371 0.434184 1.98197 0.985714 1.98197H3.23878C4.70561 1.98197 5.98469 2.96106 6.37194 4.44739L11.5587 24.8667C11.5587 24.8667 11.5587 24.8667 11.5587 24.8785C10.4791 25.6688 9.76327 26.9546 9.78674 28.4292C9.82194 30.7766 11.852 32.6994 14.1755 32.6994H39.499C40.0622 32.6994 40.5082 32.2393 40.5082 31.6849C40.5082 31.1541 40.0857 30.7294 39.5577 30.7294H14.0934C12.8143 30.7294 11.7464 29.6442 11.7464 28.3702C11.7464 27.0608 12.826 25.9755 14.0934 25.9755ZM35.1454 3.35033L36.9056 8.64685V8.65865H29.2898L28.2102 5.61521V5.60342L35.1454 3.35033C35.1337 3.33854 35.1337 3.33854 35.1454 3.35033ZM22.9061 3.35033L24.6663 8.64685V8.65865H17.0505L15.9592 5.61521V5.60342L22.9061 3.35033C22.9061 3.33854 22.9061 3.33854 22.9061 3.35033ZM43.4536 10.6286L39.7337 23.9938H13.3189L9.89235 10.6286V10.6168L43.4536 10.6286Z" fill="#F1F1F1"/>
<path d="M31.9065 35.6128C29.6534 35.6128 27.7993 37.4766 27.7993 39.7415C27.7993 42.0064 29.6534 43.8702 31.9065 43.8702C34.2534 43.8702 36.0136 42.0064 36.0136 39.7415C36.0136 37.4766 34.1595 35.6128 31.9065 35.6128ZM31.9065 42.0182C30.6274 42.0182 29.6534 40.9329 29.6534 39.7533C29.6534 38.4675 30.733 37.4884 31.9065 37.4884C33.1855 37.4884 34.1595 38.4675 34.1595 39.7533C34.1595 41.0273 33.0799 42.0182 31.9065 42.0182Z" fill="#F1F1F1"/>
<path d="M16.8278 35.6128C14.5748 35.6128 12.7207 37.4766 12.7207 39.7415C12.7207 42.0064 14.5748 43.8702 16.8278 43.8702C19.0809 43.8702 20.935 42.0064 20.935 39.7415C20.935 37.4766 19.0809 35.6128 16.8278 35.6128ZM16.8278 42.0182C15.5488 42.0182 14.5748 40.9329 14.5748 39.7533C14.5748 38.4675 15.6544 37.4884 16.8278 37.4884C18.0013 37.4884 19.0809 38.4675 19.0809 39.7533C19.0809 41.0273 18.0013 42.0182 16.8278 42.0182Z" fill="#F1F1F1"/>
</svg>
