<svg width="4" height="7" viewBox="0 0 4 7" fill="none" xmlns="http://www.w3.org/2000/svg">
<path id="Vector" d="M0.0976641 0.0945024C0.0351305 0.154197 0 0.235154 0 0.319569C0 0.403983 0.0351305 0.484941 0.0976641 0.544635L1.12068 1.53375L3.18718 3.50614L0.0976641 6.45787C0.0363671 6.51781 0.00228771 6.59839 0.00281761 6.68214C0.0033475 6.7659 0.0384465 6.84608 0.100497 6.9053C0.162548 6.96453 0.246553 6.99802 0.334304 6.99853C0.422056 6.99904 0.506478 6.96651 0.569274 6.908L3.90227 3.72583C3.9648 3.66614 3.99993 3.58518 3.99993 3.50077C3.99993 3.41635 3.9648 3.33539 3.90227 3.2757L0.569274 0.0945024C0.506731 0.0348167 0.421911 0.00128651 0.333469 0.00128651C0.245027 0.00128651 0.160207 0.0348167 0.0976641 0.0945024Z" fill="white"/>
</svg>
