<svg width="10" height="19" viewBox="0 0 10 19" fill="none" xmlns="http://www.w3.org/2000/svg">
<g id="IMAGE" clip-path="url(#clip0_15_134)">
<path id="Vector" d="M9.62347 2.29375e-05H7.22376C6.62242 -0.0341502 6.02094 0.0643714 5.45977 0.288959C4.8986 0.513546 4.39077 0.858989 3.97045 1.30204C3.55014 1.7451 3.22708 2.27549 3.02302 2.85752C2.81895 3.43956 2.73863 4.05974 2.78743 4.67633V6.8317H0.377434C0.277316 6.8317 0.181299 6.87255 0.110505 6.94527C0.0397112 7.01799 -6.10352e-05 7.11661 -6.10352e-05 7.21945V10.3426C-6.10352e-05 10.4455 0.0397112 10.5441 0.110505 10.6168C0.181299 10.6895 0.277316 10.7304 0.377434 10.7304H2.78949V18.6123C2.78949 18.7151 2.82926 18.8137 2.90005 18.8865C2.97085 18.9592 3.06687 19 3.16698 19H6.31345C6.41357 19 6.50959 18.9592 6.58038 18.8865C6.65118 18.8137 6.69095 18.7151 6.69095 18.6123V10.7304H9.51033C9.5599 10.7304 9.60899 10.7204 9.65479 10.7009C9.70059 10.6814 9.7422 10.6528 9.77726 10.6168C9.81231 10.5808 9.84012 10.5381 9.85909 10.491C9.87806 10.444 9.88782 10.3935 9.88782 10.3426V7.21945C9.88782 7.11661 9.84805 7.01799 9.77726 6.94527C9.70646 6.87255 9.61045 6.8317 9.51033 6.8317H6.68992V5.00386C6.68992 4.12586 6.89564 3.68 8.00755 3.68H9.62347C9.72341 3.67972 9.81917 3.63874 9.88974 3.56605C9.96031 3.49337 9.99994 3.3949 9.99994 3.29224V0.390948C10.0003 0.33985 9.99092 0.289173 9.97219 0.241831C9.95347 0.194489 9.92582 0.151415 9.89083 0.115087C9.85585 0.0787577 9.81422 0.0498902 9.76833 0.0301435C9.72245 0.0103968 9.67322 0.000160465 9.62347 2.29375e-05Z" fill="white"/>
</g>
<defs>
<clipPath id="clip0_15_134">
<rect width="10" height="19" fill="white"/>
</clipPath>
</defs>
</svg>
