<svg width="19" height="19" viewBox="0 0 19 19" fill="none" xmlns="http://www.w3.org/2000/svg">
<g id="IMAGE">
<path id="Vector" d="M15.8333 2.375H3.16661C2.72881 2.375 2.37494 2.72967 2.37494 3.16667V15.8333C2.37494 16.2703 2.72881 16.625 3.16661 16.625H15.8333C16.2711 16.625 16.6249 16.2703 16.6249 15.8333V3.16667C16.6249 2.72967 16.2711 2.375 15.8333 2.375ZM6.60165 14.5168H4.48631V7.71637H6.60165V14.5168ZM5.54398 6.78775C4.86631 6.78775 4.31848 6.23833 4.31848 5.56225C4.31848 4.88617 4.86552 4.33675 5.54398 4.33675C6.22006 4.33675 6.76948 4.88538 6.76948 5.56225C6.76948 6.23913 6.22006 6.78775 5.54398 6.78775ZM14.5175 14.5168H12.4046V11.21C12.4046 10.4215 12.3903 9.40738 11.3057 9.40738C10.2053 9.40738 10.0383 10.2671 10.0383 11.1546V14.5176H7.9269V7.71717H9.95356V8.64658H9.98286C10.2639 8.11221 10.9542 7.54854 11.981 7.54854C14.1217 7.54854 14.5167 8.95613 14.5167 10.788L14.5175 14.5168Z" fill="white"/>
</g>
</svg>
