<svg width="19" height="19" viewBox="0 0 19 19" fill="none" xmlns="http://www.w3.org/2000/svg">
<g id="IMAGE" clip-path="url(#clip0_15_136)">
<path id="Vector" d="M13.0626 0H5.93724C4.36266 0.000280484 2.85264 0.625871 1.73924 1.73921C0.625845 2.85255 0.000219464 4.36247 -6.10352e-05 5.93697L-6.10352e-05 13.062C-6.10601e-05 14.6367 0.625441 16.1469 1.73887 17.2604C2.8523 18.374 4.36247 18.9997 5.93724 19H13.0626C14.6372 18.9997 16.1472 18.3741 17.2606 17.2608C18.374 16.1475 18.9997 14.6375 18.9999 13.063V5.93697C18.9997 4.36247 18.374 2.85255 17.2606 1.73921C16.1472 0.625871 14.6372 0.000280484 13.0626 0ZM17.2194 13.062C17.2183 14.164 16.78 15.2206 16.0007 15.9998C15.2214 16.7791 14.1647 17.2174 13.0626 17.2185H5.93724C4.83515 17.2174 3.77851 16.7791 2.99921 15.9998C2.21992 15.2206 1.78162 14.164 1.78049 13.062V5.93697C1.78189 4.83512 2.22032 3.77882 2.99959 2.99979C3.77886 2.22077 4.83533 1.78263 5.93724 1.78151H13.0626C14.1647 1.78263 15.2214 2.22091 16.0007 3.00017C16.78 3.77942 17.2183 4.836 17.2194 5.93803V13.062Z" fill="white"/>
<g id="Group">
<path id="Vector_2" d="M9.50048 4.75C8.56097 4.75 7.64254 5.02858 6.86136 5.55052C6.08018 6.07245 5.47134 6.8143 5.1118 7.68225C4.75227 8.55019 4.65819 9.50527 4.84148 10.4267C5.02477 11.3481 5.4772 12.1945 6.14153 12.8588C6.80587 13.5231 7.65228 13.9754 8.57374 14.1587C9.4952 14.342 10.4503 14.2479 11.3183 13.8884C12.1863 13.5289 12.9282 12.9201 13.4502 12.139C13.9721 11.3578 14.2507 10.4395 14.2507 9.50001C14.2507 8.87623 14.1279 8.25854 13.8891 7.68225C13.6504 7.10595 13.3005 6.58232 12.8594 6.14125C12.4183 5.70017 11.8947 5.35028 11.3183 5.11157C10.742 4.87286 10.1243 4.75 9.50048 4.75ZM9.50048 12.4727C8.91334 12.4727 8.33938 12.2986 7.85119 11.9724C7.36299 11.6463 6.98249 11.1826 6.7578 10.6402C6.53311 10.0978 6.47432 9.50094 6.58886 8.92511C6.70341 8.34928 6.98615 7.82034 7.40132 7.40519C7.81649 6.99004 8.34546 6.70732 8.92132 6.59278C9.49718 6.47824 10.0941 6.53703 10.6365 6.76171C11.179 6.98639 11.6426 7.36687 11.9688 7.85503C12.295 8.3432 12.4691 8.91712 12.4691 9.50424C12.468 10.2912 12.1549 11.0456 11.5984 11.602C11.0419 12.1585 10.2875 12.4716 9.50048 12.4727Z" fill="white"/>
</g>
<g id="Group_2">
<path id="Vector_3" d="M14.6062 5.026C14.9556 5.026 15.2389 4.74276 15.2389 4.39337C15.2389 4.04398 14.9556 3.76074 14.6062 3.76074C14.2568 3.76074 13.9735 4.04398 13.9735 4.39337C13.9735 4.74276 14.2568 5.026 14.6062 5.026Z" fill="white"/>
</g>
</g>
<defs>
<clipPath id="clip0_15_136">
<rect width="19" height="19" fill="white"/>
</clipPath>
</defs>
</svg>
