<svg width="19" height="19" viewBox="0 0 19 19" fill="none" xmlns="http://www.w3.org/2000/svg">
<g id="IMAGE">
<path id="Vector" d="M17.0944 5.7023C16.9123 5.02305 16.3779 4.48709 15.6995 4.30422C14.4597 3.9638 9.49994 3.95826 9.49994 3.95826C9.49994 3.95826 4.54094 3.95272 3.3004 4.27809C2.6354 4.45938 2.08598 5.00722 1.90231 5.68567C1.57536 6.92542 1.57219 9.49676 1.57219 9.49676C1.57219 9.49676 1.56902 12.0808 1.89361 13.3078C2.07569 13.9863 2.61006 14.5223 3.28931 14.7051C4.54173 15.0456 9.48806 15.0511 9.48806 15.0511C9.48806 15.0511 14.4479 15.0566 15.6876 14.732C16.3653 14.55 16.902 14.0148 17.0865 13.3363C17.4142 12.0974 17.4166 9.52684 17.4166 9.52684C17.4166 9.52684 17.4324 6.94205 17.0944 5.7023ZM7.91344 11.8789L7.9174 7.12888L12.0396 9.50784L7.91344 11.8789Z" fill="white"/>
</g>
</svg>
