<svg id="Layer_1" data-name="Layer 1" xmlns="http://www.w3.org/2000/svg" viewBox="0 0 112.14 45.22"><defs><style>.cls-1,.cls-2{fill:#989fa7;}.cls-1{fill-rule:evenodd;}.cls-3{fill:#c3c6cb;}</style></defs><title>Vector Smart Object11</title><path class="cls-1" d="M58.11,50.22H49.06V39.27h8.82V42H52.57v1.42H57.1V46H52.57v1.56h5.55v2.62h0Zm11.76-11-3.94,5.36,3.62,5.61h-4l-1.58-3-1.7,3H58.81l3.26-5.61-3.39-5.36h4L64.11,42l1.81-2.74h3.94Zm4.45,11h-3.5v-11h3.5v11h0Zm11.09-3.41a3.21,3.21,0,0,1-.66,2A4.22,4.22,0,0,1,83,50.13a5.71,5.71,0,0,1-2.25.45,7.09,7.09,0,0,1-2.42-.4,3.86,3.86,0,0,1-1.78-1.26,3.4,3.4,0,0,1-.67-2.16h3.29a1.52,1.52,0,0,0,1.7,1.18,1.21,1.21,0,0,0,.8-0.25,0.74,0.74,0,0,0,.3-0.58,0.76,0.76,0,0,0-.66-0.71l-0.83-.22-1-.28c-0.38-.11-0.72-0.22-1-0.33a6.14,6.14,0,0,1-.81-0.37,3.37,3.37,0,0,1-1.18-1.06,2.83,2.83,0,0,1-.45-1.64,4.75,4.75,0,0,1,0-.63,3.34,3.34,0,0,1,.38-1.14,3.14,3.14,0,0,1,.81-1,3.81,3.81,0,0,1,1.24-.65,5.31,5.31,0,0,1,1.66-.24h0.32a5.52,5.52,0,0,1,3,.8,3.57,3.57,0,0,1,1.48,2.78H81.79a0.93,0.93,0,0,0-.5-0.72,1.94,1.94,0,0,0-1-.28,0.78,0.78,0,0,0-.86.41,0.57,0.57,0,0,0,0,.18c0,0.46.69,0.84,2.05,1.12a6.66,6.66,0,0,1,2.89,1.21,3,3,0,0,1,.8,1,2.85,2.85,0,0,1,.28,1.29v0.17h0Zm10.64-4.6H93v8H89.14v-8h-3v-3h10v3h0Zm2.79,8V47H95.79v3.23h3.06Z" transform="translate(-11.62 -11.92)"/><path class="cls-1" d="M108.28,39h3.28v6.51a5.6,5.6,0,0,1-.3,1.83,4,4,0,0,1-.92,1.51,3.68,3.68,0,0,1-1.32.91,6.52,6.52,0,0,1-2.3.36A13.81,13.81,0,0,1,105,50a4.33,4.33,0,0,1-1.53-.44,3.89,3.89,0,0,1-1.13-.94,3.48,3.48,0,0,1-.7-1.26,6.71,6.71,0,0,1-.3-1.85V39h3.28v6.67a1.94,1.94,0,0,0,.48,1.4,2,2,0,0,0,2.68,0,1.94,1.94,0,0,0,.48-1.4V39h0Zm11.51,9.12H116l-0.52,1.8h-3.36l4-10.92h3.59l4,10.92h-3.44l-0.52-1.8h0Zm-0.69-2.36-1.18-3.93-1.17,3.93h2.35Z" transform="translate(-11.62 -11.92)"/><path class="cls-2" d="M34.35,42.28a7.75,7.75,0,0,1-7.44-5.59H46.08s0.05-.33.08-0.49h0v0c0-.12,0-0.22,0-0.22h0a11.59,11.59,0,0,0,0-3.11l0-.13a11.92,11.92,0,0,0-19-7.73l2.51,3.34a7.73,7.73,0,0,1,12.09,4.06H22.63c0,0.12,0,.23-0.06.33h0l0,0.29a12.06,12.06,0,0,0-.09,1.5,11.93,11.93,0,0,0,18.82,9.74l-2.41-3.4A7.72,7.72,0,0,1,34.35,42.28Z" transform="translate(-11.62 -11.92)"/><path class="cls-3" d="M53.37,32.32a19,19,0,0,0-1.52-5.54l3-1.76L52.63,21.2l-3,1.78a19.23,19.23,0,0,0-4-3.88l1.8-3.21-3.85-2.17-1.8,3.19a19,19,0,0,0-5.35-1.38V11.92H32v3.65A19,19,0,0,0,26.66,17l-1.84-3.19-4,2.58,4.6,6.14a14.74,14.74,0,0,1,9-2.93,15,15,0,0,1,15,15,16.35,16.35,0,0,1-.13,2.17l7.68,0V32.32H53.37Z" transform="translate(-11.62 -11.92)"/><path class="cls-3" d="M34.34,49.54a15,15,0,0,1-15-15,17.47,17.47,0,0,1,.19-2.27h-8v4.42H15.3a19,19,0,0,0,1.45,5.45L13.6,44l2.23,3.81L19,46a19.28,19.28,0,0,0,4.16,4.1l-1.71,3,3.85,2.17,1.71-3a19,19,0,0,0,5,1.33v3.53h4.42V53.63A19.05,19.05,0,0,0,41.9,52.2l1.74,3L47.45,53,43,46.72A14.92,14.92,0,0,1,34.34,49.54Z" transform="translate(-11.62 -11.92)"/><path class="cls-3" d="M24.1,23.71l-2.7-2.87A18.78,18.78,0,0,0,16,30.36l3.93,0.51A14.85,14.85,0,0,1,24.1,23.71Z" transform="translate(-11.62 -11.92)"/><path class="cls-2" d="M16,30.36a18.78,18.78,0,0,1,5.41-9.52L18.73,18A22.7,22.7,0,0,0,12.1,29.85Z" transform="translate(-11.62 -11.92)"/></svg>