<?xml version="1.0" encoding="utf-8"?>
<!-- Generator: Adobe Illustrator 22.0.1, SVG Export Plug-In . SVG Version: 6.00 Build 0)  -->
<svg version="1.1" id="Layer_1" xmlns="http://www.w3.org/2000/svg" xmlns:xlink="http://www.w3.org/1999/xlink" x="0px" y="0px"
	 width="193.4px" height="193.4px" viewBox="0 0 193.4 193.4" style="enable-background:new 0 0 193.4 193.4;" xml:space="preserve"
	>
<style type="text/css">
	.st0{fill:url(#SVGID_1_);}
	.st1{fill:url(#SVGID_2_);}
	.st2{fill:url(#SVGID_3_);}
	.st3{fill:url(#SVGID_4_);}
	.st4{opacity:0.65;}
	.st5{clip-path:url(#SVGID_6_);}
	.st6{fill:url(#SVGID_7_);}
	.st7{fill:url(#SVGID_8_);}
	.st8{fill:url(#SVGID_9_);}
	.st9{fill:url(#SVGID_10_);}
	.st10{fill:url(#SVGID_11_);}
	.st11{fill:url(#SVGID_12_);}
	.st12{opacity:0.44;fill:url(#SVGID_13_);enable-background:new    ;}
	.st13{opacity:0.99;}
	.st14{fill:url(#SVGID_14_);}
	.st15{fill:url(#SVGID_15_);}
	.st16{fill:url(#SVGID_16_);}
	.st17{fill:url(#SVGID_17_);}
</style>
<linearGradient id="SVGID_1_" gradientUnits="userSpaceOnUse" x1="95.1668" y1="34.1494" x2="98.3008" y2="165.6739" gradientTransform="matrix(1 0 0 -1 0 195.181)">
	<stop  offset="0" style="stop-color:#000000"/>
	<stop  offset="5.885667e-02" style="stop-color:#090B0B"/>
	<stop  offset="0.1626" style="stop-color:#222729"/>
	<stop  offset="0.2982" style="stop-color:#495558"/>
	<stop  offset="0.326" style="stop-color:#525F63"/>
	<stop  offset="0.3365" style="stop-color:#5C686C"/>
	<stop  offset="0.3641" style="stop-color:#717A7F"/>
	<stop  offset="0.3951" style="stop-color:#80878D"/>
	<stop  offset="0.4319" style="stop-color:#888F95"/>
	<stop  offset="0.489" style="stop-color:#8B9197"/>
	<stop  offset="0.7026" style="stop-color:#BCBFC3"/>
	<stop  offset="0.8981" style="stop-color:#E3E4E5"/>
	<stop  offset="1" style="stop-color:#F2F2F2"/>
</linearGradient>
<path class="st0" d="M165.1,96.7c0,37.8-30.6,68.4-68.4,68.4s-68.4-30.6-68.4-68.4c0-5.8,0.7-11.3,2-16.7
	c7.4-29.7,34.3-51.7,66.4-51.7c32,0,58.9,22,66.3,51.7C164.4,85.4,165.1,91,165.1,96.7z"/>
<linearGradient id="SVGID_2_" gradientUnits="userSpaceOnUse" x1="95.1668" y1="34.1494" x2="98.3008" y2="165.674" gradientTransform="matrix(1 0 0 -1 0 195.181)">
	<stop  offset="0.5211" style="stop-color:#F2F2F2"/>
	<stop  offset="1" style="stop-color:#F2F2F2"/>
</linearGradient>
<path class="st1" d="M165.1,96.7c0,37.8-30.6,68.4-68.4,68.4s-68.4-30.6-68.4-68.4c0-5.8,0.7-11.3,2-16.7
	c7.4-29.7,34.3-51.7,66.4-51.7c32,0,58.9,22,66.3,51.7C164.4,85.4,165.1,91,165.1,96.7z"/>
<linearGradient id="SVGID_3_" gradientUnits="userSpaceOnUse" x1="96.7" y1="32.0811" x2="96.7" y2="164.8811" gradientTransform="matrix(1 0 0 -1 0 195.181)">
	<stop  offset="0" style="stop-color:#7A7A7A"/>
	<stop  offset="1.822534e-02" style="stop-color:#A6A6A6"/>
	<stop  offset="3.858902e-02" style="stop-color:#D0D0D0"/>
	<stop  offset="5.456531e-02" style="stop-color:#EAEAEA"/>
	<stop  offset="6.405269e-02" style="stop-color:#F4F4F4"/>
	<stop  offset="0.155" style="stop-color:#C3C4C4"/>
	<stop  offset="0.2466" style="stop-color:#999A9A"/>
	<stop  offset="0.3186" style="stop-color:#7F8081"/>
	<stop  offset="0.3613" style="stop-color:#757677"/>
	<stop  offset="0.5906" style="stop-color:#EAEAEA"/>
	<stop  offset="0.6204" style="stop-color:#D6D6D7"/>
	<stop  offset="0.7025" style="stop-color:#A3A4A6"/>
	<stop  offset="0.7646" style="stop-color:#838587"/>
	<stop  offset="0.799" style="stop-color:#77797C"/>
	<stop  offset="0.8169" style="stop-color:#7E8083"/>
	<stop  offset="0.8431" style="stop-color:#929395"/>
	<stop  offset="0.8743" style="stop-color:#B2B3B3"/>
	<stop  offset="0.9092" style="stop-color:#DEDFDD"/>
	<stop  offset="0.932" style="stop-color:#FFFFFC"/>
	<stop  offset="1" style="stop-color:#FCFBFB"/>
</linearGradient>
<path class="st2" d="M30.3,96.7C30.3,60,60,30.3,96.7,30.3s66.4,29.7,66.4,66.4s-29.7,66.4-66.4,66.4S30.3,133.4,30.3,96.7z"/>
<linearGradient id="SVGID_4_" gradientUnits="userSpaceOnUse" x1="96.7" y1="32.0811" x2="96.7" y2="164.8811" gradientTransform="matrix(1 0 0 -1 0 195.181)">
	<stop  offset="0.3297" style="stop-color:#EBEBEB"/>
	<stop  offset="0.4256" style="stop-color:#EAEBEB"/>
	<stop  offset="0.5189" style="stop-color:#EBEBEB"/>
</linearGradient>
<path class="st3" d="M30.3,96.7C30.3,60,60,30.3,96.7,30.3s66.4,29.7,66.4,66.4s-29.7,66.4-66.4,66.4S30.3,133.4,30.3,96.7z"/>
<g class="st4">
	<g>
		<defs>
			<path id="SVGID_5_" d="M165.1,96.7c0,37.8-30.6,68.4-68.4,68.4s-68.4-30.6-68.4-68.4c0-5.7,0.7-11.3,2.1-16.7
				c7.4-29.7,34.3-51.7,66.3-51.7s58.9,22,66.3,51.7C164.4,85.4,165.1,91,165.1,96.7z"/>
		</defs>
		<clipPath id="SVGID_6_">
			<use xlink:href="#SVGID_5_"  style="overflow:visible;"/>
		</clipPath>
		<g class="st5">
			
				<image style="overflow:visible;enable-background:new    ;" width="194" height="194" xlink:href="608F62BD.png"  transform="matrix(1 0 0 1 -0.1614 -0.2986)">
			</image>
		</g>
	</g>
</g>
<linearGradient id="SVGID_7_" gradientUnits="userSpaceOnUse" x1="96.7" y1="42.0595" x2="96.7" y2="155.7637" gradientTransform="matrix(1 0 0 -1 0 195.181)">
	<stop  offset="0" style="stop-color:#F2F2F2"/>
	<stop  offset="0.1019" style="stop-color:#E3E4E5"/>
	<stop  offset="0.2974" style="stop-color:#BCBFC3"/>
	<stop  offset="0.511" style="stop-color:#8B9197"/>
	<stop  offset="0.523" style="stop-color:#838A90"/>
	<stop  offset="0.5865" style="stop-color:#606B6F"/>
	<stop  offset="0.6205" style="stop-color:#525F63"/>
	<stop  offset="0.6387" style="stop-color:#4C585C"/>
	<stop  offset="0.7118" style="stop-color:#3A4346"/>
	<stop  offset="0.7911" style="stop-color:#2C3335"/>
	<stop  offset="0.8802" style="stop-color:#242A2C"/>
	<stop  offset="1" style="stop-color:#222729"/>
</linearGradient>
<path class="st6" d="M40.5,96.7c0-31,25.2-56.2,56.2-56.2s56.2,25.2,56.2,56.2s-25.2,56.2-56.2,56.2S40.5,127.8,40.5,96.7z"/>
<path d="M42.5,96.7c0-29.9,24.3-54.2,54.2-54.2s54.2,24.3,54.2,54.2s-24.3,54.2-54.2,54.2S42.5,126.6,42.5,96.7z"/>
<radialGradient id="SVGID_8_" cx="96.7" cy="98.4811" r="49.1" gradientTransform="matrix(1 0 0 -1 0 195.181)" gradientUnits="userSpaceOnUse">
	<stop  offset="0" style="stop-color:#70B450"/>
	<stop  offset="0.7774" style="stop-color:#70B450"/>
	<stop  offset="0.9054" style="stop-color:#70B450"/>
	<stop  offset="0.9292" style="stop-color:#7CB95D"/>
	<stop  offset="0.9731" style="stop-color:#9AC680"/>
	<stop  offset="1" style="stop-color:#AFCF98"/>
</radialGradient>
<path class="st7" d="M47.6,96.7c0-27.1,22-49.1,49.1-49.1s49.1,22,49.1,49.1s-22,49.1-49.1,49.1C69.6,145.8,47.6,123.8,47.6,96.7z"
	/>
<radialGradient id="SVGID_9_" cx="96.7" cy="100.0811" r="44.5" gradientTransform="matrix(1 0 0 -1 0 195.181)" gradientUnits="userSpaceOnUse">
	<stop  offset="0" style="stop-color:#77C043"/>
	<stop  offset="0.5768" style="stop-color:#74BB48"/>
	<stop  offset="1" style="stop-color:#70B450"/>
</radialGradient>
<path class="st8" d="M52.2,95.1c0-24.6,19.9-44.5,44.5-44.5s44.5,19.9,44.5,44.5s-19.9,44.5-44.5,44.5
	C72.2,139.6,52.2,119.7,52.2,95.1z"/>
<linearGradient id="SVGID_10_" gradientUnits="userSpaceOnUse" x1="119.3" y1="51.6811" x2="119.3" y2="93.7617" gradientTransform="matrix(0.9804 0 0 -1 -21.1618 195.181)">
	<stop  offset="0" style="stop-color:#BED9AB"/>
	<stop  offset="0.1277" style="stop-color:#AECF97"/>
	<stop  offset="0.3602" style="stop-color:#96C178"/>
	<stop  offset="0.5873" style="stop-color:#85B662"/>
	<stop  offset="0.8042" style="stop-color:#7BB055"/>
	<stop  offset="1" style="stop-color:#77AE50"/>
</linearGradient>
<path class="st9" d="M143.9,94.4c0,27.1-21.6,49.1-48.1,49.1c-26.6,0-48.1-22-48.1-49.1c0-0.3,5.2,43.4,48.2,43.4
	C138.7,137.8,143.9,94.1,143.9,94.4z"/>
<g>
	
		<linearGradient id="SVGID_11_" gradientUnits="userSpaceOnUse" x1="-393.5777" y1="2829.2312" x2="-377.4375" y2="2829.2312" gradientTransform="matrix(-0.322 0.9468 0.9468 0.322 -2683.0859 -482.3915)">
		<stop  offset="0" style="stop-color:#B1D19B"/>
		<stop  offset="0.2097" style="stop-color:#ADCF96"/>
		<stop  offset="0.46" style="stop-color:#A2C887"/>
		<stop  offset="0.7301" style="stop-color:#8FBD6F"/>
		<stop  offset="1" style="stop-color:#77AE50"/>
	</linearGradient>
	<path class="st10" d="M123.1,73.3c-3.4-2.8-7.5-5.5-12.2-8.1c2.5-4.6,4.7-7.9,7.7-10.4c3.9,2.1,7.5,5.4,9.6,8.5
		C126.5,66.1,124.8,69.5,123.1,73.3z"/>
	
		<linearGradient id="SVGID_12_" gradientUnits="userSpaceOnUse" x1="-385.998" y1="2848.1699" x2="-361.561" y2="2848.1699" gradientTransform="matrix(-0.322 0.9468 0.9468 0.322 -2683.0859 -482.3915)">
		<stop  offset="0" style="stop-color:#B1D19B"/>
		<stop  offset="0.2097" style="stop-color:#ADCF96"/>
		<stop  offset="0.46" style="stop-color:#A2C887"/>
		<stop  offset="0.7301" style="stop-color:#8FBD6F"/>
		<stop  offset="1" style="stop-color:#77AE50"/>
	</linearGradient>
	<path class="st11" d="M127,77.3c1.7-3.8,3.4-7.2,5.1-10c2,3,3.5,6.1,4.6,9.3c0.1,0.3,0.2,0.5,0.3,0.8c0.6,1.9,1,3.9,1.3,5.8
		c0,0.3,0.1,0.6,0.1,0.9c0.1,0.7,0.1,1.4,0.1,2.1c0,0.3,0,0.6,0,0.9s0,0.6,0,0.9s0,0.6-0.1,0.9c0,0.2,0,0.5-0.1,0.7
		c0,0.3,0,0.5-0.1,0.8c0,0.3-0.1,0.7-0.2,1c0,0.3-0.1,0.6-0.1,0.9c-0.1,0.3-0.1,0.6-0.2,0.9l-0.2,0.7c-0.1,0.4-0.2,0.7-0.3,1.1
		C137.3,95.2,139.2,86.5,127,77.3z"/>
</g>
<linearGradient id="SVGID_13_" gradientUnits="userSpaceOnUse" x1="-154.7717" y1="474.4635" x2="-154.7717" y2="504.518" gradientTransform="matrix(1.2714 0 0 -1.4126 293.4768 762.2271)">
	<stop  offset="0" style="stop-color:#FFFFFF;stop-opacity:0.3"/>
	<stop  offset="1" style="stop-color:#FFFFFF"/>
</linearGradient>
<path class="st12" d="M60.8,76.5c0-14.9,16.1-27,35.9-27s35.9,12.1,35.9,27S116.5,92,96.7,92S60.8,91.4,60.8,76.5z"/>
<g class="st13">
	
		<linearGradient id="SVGID_14_" gradientUnits="userSpaceOnUse" x1="71.4193" y1="109.9243" x2="75.5312" y2="67.6054" gradientTransform="matrix(1 0 0 -1 0 195.181)">
		<stop  offset="0" style="stop-color:#FFFFFF"/>
		<stop  offset="9.587622e-02" style="stop-color:#F8FBF6"/>
		<stop  offset="0.4514" style="stop-color:#E3EEDB"/>
		<stop  offset="0.7645" style="stop-color:#D6E7CA"/>
		<stop  offset="1" style="stop-color:#D1E4C4"/>
	</linearGradient>
	<path class="st14" d="M67.9,88.5l6.1,0.8c1.1-4.3,3.4-8.2,6.5-11.1l-3.8-4.1l0,0l-4.5-4.8c-5.2,4.9-8.8,11.3-10.3,18.5L67.9,88.5
		L67.9,88.5z M73.5,88.6L68.7,88c1.3-5.1,3.9-9.6,7.6-13.3l3.3,3.5C76.7,81.1,74.6,84.7,73.5,88.6z"/>
	
		<linearGradient id="SVGID_15_" gradientUnits="userSpaceOnUse" x1="95.1799" y1="112.233" x2="99.2919" y2="69.9141" gradientTransform="matrix(1 0 0 -1 0 195.181)">
		<stop  offset="0" style="stop-color:#FFFFFF"/>
		<stop  offset="9.587622e-02" style="stop-color:#F8FBF6"/>
		<stop  offset="0.4514" style="stop-color:#E3EEDB"/>
		<stop  offset="0.7645" style="stop-color:#D6E7CA"/>
		<stop  offset="1" style="stop-color:#D1E4C4"/>
	</linearGradient>
	<path class="st15" d="M78.1,92.2L78.1,92.2L78,92.6c-0.1,0.8-0.1,1.5-0.1,2.3c0,10.3,8.3,18.6,18.6,18.6c4,0,7.7-1.3,10.7-3.4
		l-3.8-5.3c-2,1.4-4.4,2.2-7,2.2c-5.5,0-10.1-3.7-11.6-8.7h29.8c0,0,0.1-0.5,0.1-0.8l0,0l0,0c0-0.2,0-0.3,0-0.3l0,0
		c0.1-0.7,0.1-1.5,0.1-2.3c0-0.9-0.1-1.7-0.2-2.6v-0.2c-1.3-8.9-9.1-15.8-18.4-15.8c-4.2,0-8,1.4-11.1,3.7l3.9,5.2
		c2-1.5,4.5-2.4,7.2-2.4c5.5,0,10.1,3.7,11.6,8.7H78.2C78.2,91.9,78.1,92,78.1,92.2z"/>
	
		<linearGradient id="SVGID_16_" gradientUnits="userSpaceOnUse" x1="103.7142" y1="113.0623" x2="107.8262" y2="70.7434" gradientTransform="matrix(1 0 0 -1 0 195.181)">
		<stop  offset="0" style="stop-color:#FFFFFF"/>
		<stop  offset="9.587622e-02" style="stop-color:#F8FBF6"/>
		<stop  offset="0.4514" style="stop-color:#E3EEDB"/>
		<stop  offset="0.7645" style="stop-color:#D6E7CA"/>
		<stop  offset="1" style="stop-color:#D1E4C4"/>
	</linearGradient>
	<path class="st16" d="M126.1,91.6c-0.4-3-1.2-5.9-2.4-8.6l4.7-2.7l-3.5-5.9l-4.7,2.8c-1.8-2.3-3.8-4.3-6.2-6l2.8-5l-6-3.4l-2.8,5
		c-2.6-1.1-5.4-1.8-8.3-2.2V60h-6.9v5.7c-2.9,0.4-5.7,1.1-8.3,2.3l-2.9-5l-6.3,4l7.2,9.6c3.5-2.7,8.4-4.6,14-4.6
		c12.9,0,23.3,10.4,23.3,23.3c0,0.8,0,1.6-0.2,3.4h12v-6.9h-5.5V91.6z"/>
	
		<linearGradient id="SVGID_17_" gradientUnits="userSpaceOnUse" x1="86.2393" y1="111.3644" x2="90.3513" y2="69.0455" gradientTransform="matrix(1 0 0 -1 0 195.181)">
		<stop  offset="0" style="stop-color:#FFFFFF"/>
		<stop  offset="9.587622e-02" style="stop-color:#F8FBF6"/>
		<stop  offset="0.4514" style="stop-color:#E3EEDB"/>
		<stop  offset="0.7645" style="stop-color:#D6E7CA"/>
		<stop  offset="1" style="stop-color:#D1E4C4"/>
	</linearGradient>
	<path class="st17" d="M96.4,118.4c-12.9,0-23.3-10.4-23.3-23.3c0-1.3,0.2-2.5,0.3-3.5h-6.6H61v6.9h5.7c0.3,3,1.1,5.8,2.3,8.5
		l-4.9,2.9l3.5,5.9l4.9-2.9c1.8,2.4,4,4.6,6.5,6.4l-2.7,4.7l6,3.4l2.7-4.7c2.5,1,5.1,1.7,7.8,2.1v5.5h6.9v-5.5
		c3-0.3,5.8-1.1,8.5-2.2l2.7,4.7l5.9-3.4l-6.9-9.8C105.9,116.8,101.2,118.4,96.4,118.4z"/>
</g>
</svg>
