<?xml version="1.0" encoding="utf-8"?>
<!-- Generator: Adobe Illustrator 22.0.1, SVG Export Plug-In . SVG Version: 6.00 Build 0)  -->
<svg version="1.1" baseProfile="tiny" id="Layer_1" xmlns="http://www.w3.org/2000/svg" xmlns:xlink="http://www.w3.org/1999/xlink"
	 x="0px" y="0px" viewBox="0 0 527.2 612.3" xml:space="preserve">
<g>
	<path fill="#FFFFFF" d="M521,371.3c0,5.3,0,10.7,0,16c-3.5,15.2-10.2,28.4-23.7,37.5c6.7,11.4,9.5,23.3,6.8,36.2
		c-2.8,13.1-10.4,22.8-21.2,30.4c0.5,1,0.8,1.8,1.2,2.5c12.8,27.2,0.1,57-28.4,66.6c-3.1,1.1-6.3,1.9-9.5,2.8c-69.3,0-138.7,0-208,0
		c-0.8-0.3-1.5-0.7-2.3-0.8c-20.9-1.9-40.6-8-59.2-17.5c-3.5-1.8-7.1-3.5-10.5-5.2c-10.6,15.6-12.3,17-31,23.5c-30.7,0-61.3,0-92,0
		c-1.1-0.4-2.1-0.8-3.2-1.1c-15.4-4.4-25.2-14.3-29.4-29.7c-0.5-1.7-0.9-3.5-1.4-5.2c0-82.7,0-165.3,0-248c0.2-0.4,0.6-0.8,0.7-1.3
		c4.7-22.7,19.4-34.7,42.5-34.7c31.7,0,63.3,0.1,95-0.1c6.8,0,13.3,0.1,18.3,6c22.1-28.6,44.2-56.4,65.3-84.8
		c5.8-7.8,9.5-17.5,13.1-26.7c5.8-14.9,5-30.7,5.1-46.4c0-18.3,12.2-33.9,29.7-38.7c1.4-0.4,2.8-0.8,4.3-1.3c4,0,8,0,12,0
		c6.5,3.1,14.1,5,19.5,9.5c36.9,30.4,51.3,69.7,41.6,116.5c-3.5,17.2-10.4,33.6-15.7,50.4c-1.6,5-3.3,10.1-5.1,15.6
		c3.1,0,5.6,0,8.1,0c40.3,0,80.6-0.1,120.9,0c25.1,0.1,47,16,54.2,39c0.9,3,1.7,6,2.6,9c0,5.3,0,10.7,0,16c-3,11.8-7.4,23-16.9,32
		C513.5,348.3,518,359.4,521,371.3z M169,400.5c0,33.5,0.1,67-0.1,100.5c0,3.3,0.9,5.1,4,6.4c5.8,2.6,11.4,5.5,17,8.5
		c20.3,10.6,41.9,15.6,64.9,15.5c43.3-0.2,86.7-0.1,130-0.1c18,0,36,0.1,54,0c10.2-0.1,18-6.8,18.2-15.5c0.3-9.2-6.3-15.6-16.9-16.5
		c-8.8-0.7-15.2-7.6-15.1-16.2c0.1-8.6,6.8-15.4,15.6-15.7c5.2-0.2,10.3,0.1,15.5-0.1c7.5-0.3,14-5,16.2-11.3c2-5.8,0.3-12.9-5-16.6
		c-3.1-2.1-7.2-3.4-11-3.9c-8.7-1.1-15.3-7.7-15.3-16.2c0-8.7,6.9-15.6,15.9-15.9c2.7-0.1,5.3,0.1,8,0c10.5-0.4,20.1-7.3,22.9-16.4
		c4.8-15.3-6-30.8-22-31.5c-7-0.3-12.3-3-15.3-9.3c-5.2-10.9,2.4-22.1,15.3-22.8c11.5-0.6,20.9-8.9,22.9-20.1
		c1.9-10.7-4-21.6-14.7-25.6c-4.1-1.5-8.8-2.1-13.2-2.1c-48.5-0.1-97-0.1-145.5-0.1c-14.3,0-21.4-9.7-16.9-23.2
		c7.9-23.8,15.8-47.7,23.8-71.5c4.6-13.7,6-27.6,3.7-41.9c-3.6-21.4-13.9-39-30.8-52.7c-3-2.4-6-3.5-9.6-1.6
		c-3.5,1.8-4.8,4.8-4.6,8.7c0.2,3.8,0,7.7,0,11.5c0.2,32.2-9.7,60.8-29.5,86.2c-26.6,34-53,68.1-79.4,102.2c-1.8,2.3-2.9,5.6-3,8.5
		C168.9,334.5,169,367.5,169,400.5z M137,275.3c-28.8,0-56.7,0-84.7,0c-8.4,0-11,2.6-11,11.1c0,78.1,0,156.2,0,234.4
		c0,7.9,2.6,10.5,10.5,10.6c24.2,0,48.3,0,72.5,0c10.9,0,12.8-1.9,12.8-12.7c0-79.5,0-158.9,0-238.4C137,278.7,137,277.3,137,275.3z
		"/>
	<path fill="#FFFFFF" d="M73,483.3c0-8.9,7.3-16.1,16.3-16c8.7,0.1,15.7,7.3,15.7,16c0,8.9-7.3,16.1-16.3,16
		C80,499.1,73,492,73,483.3z"/>
</g>
</svg>
