<svg width="10" height="13" viewBox="0 0 10 13" fill="none" xmlns="http://www.w3.org/2000/svg">
<path id="Vector" d="M9.5 12.2V12.5H0.5V12.2H9.5ZM5.29974 10.0077C5.18819 10.1304 5.08728 10.239 5 10.3315C4.91272 10.239 4.81181 10.1304 4.70026 10.0077C4.30558 9.57375 3.78042 8.9663 3.25646 8.27097C2.73132 7.57406 2.21487 6.79869 1.83157 6.02842C1.44465 5.25087 1.21429 4.51955 1.21429 3.9C1.21429 2.06797 2.86644 0.5 5 0.5C7.13356 0.5 8.78571 2.06797 8.78571 3.9C8.78571 4.51955 8.55535 5.25087 8.16843 6.02842C7.78513 6.79869 7.26868 7.57406 6.74354 8.27097C6.21958 8.9663 5.69442 9.57375 5.29974 10.0077ZM5 2.1C3.98356 2.1 3.07143 2.86553 3.07143 3.9C3.07143 4.39342 3.28725 4.85591 3.65333 5.18904C4.01784 5.52074 4.50293 5.7 5 5.7C5.49707 5.7 5.98216 5.52074 6.34667 5.18904C6.71275 4.85591 6.92857 4.39342 6.92857 3.9C6.92857 2.86553 6.01644 2.1 5 2.1Z" fill="#FDFDFD" stroke="#FDFDFD"/>
</svg>
