<svg width="14" height="11" viewBox="0 0 14 11" fill="none" xmlns="http://www.w3.org/2000/svg">
<path id="Vector" d="M12.8616 1.80112L13.5 1.40923V9.625C13.5 10.0967 13.1024 10.5 12.6 10.5H1.4C0.897611 10.5 0.5 10.0967 0.5 9.625V1.40923L1.13843 1.80112L6.73843 5.23862L7 5.39919L7.26157 5.23862L12.8616 1.80112ZM13.3365 0.875H12.6H1.4H0.663488C0.825444 0.650439 1.09318 0.5 1.4 0.5H12.6C12.9068 0.5 13.1746 0.650439 13.3365 0.875ZM12.6 10.125H13.1V9.625V2.75V1.8564L12.3384 2.32388L7 5.60081L1.66157 2.32388L0.9 1.8564V2.75V9.625V10.125H1.4H12.6Z" fill="#FDFDFD" stroke="#FDFDFD"/>
</svg>
