<svg width="24" height="24" viewBox="0 0 24 24" fill="none" xmlns="http://www.w3.org/2000/svg">
<g id="Group 25">
<circle id="Ellipse 30" cx="12" cy="12" r="12" fill="#FDFDFD"/>
<path id="Vector" d="M14.0929 14.5152L14.0746 14.5338L14.0583 14.5543L13.2035 15.6269C11.5485 14.7432 10.0166 13.2581 9.10226 11.5602L10.1781 10.6443L10.1969 10.6283L10.214 10.6106C10.536 10.2767 10.631 9.80921 10.5004 9.39364L10.5005 9.39362L10.4978 9.38544C10.2543 8.65498 10.1281 7.86853 10.1281 7.05179C10.1281 6.39447 9.58664 5.85297 8.92933 5.85297H6.48697C6.23486 5.85297 5.91715 5.90702 5.64616 6.08817C5.3488 6.28695 5.14697 6.61561 5.14697 7.05179C5.14697 13.8858 10.8275 19.5588 17.654 19.5588C18.0772 19.5588 18.4007 19.3602 18.6007 19.0752C18.7864 18.8105 18.8529 18.4941 18.8529 18.2259V15.7906C18.8529 15.1333 18.3114 14.5918 17.654 14.5918C16.8411 14.5918 16.054 14.4598 15.3192 14.2217C15.1085 14.1511 14.8821 14.1408 14.6658 14.1922C14.4483 14.2439 14.2498 14.3558 14.0929 14.5152Z" stroke="#233355"/>
</g>
</svg>
