<svg width="28" height="29" viewBox="0 0 28 29" fill="none" xmlns="http://www.w3.org/2000/svg">
<path d="M17.977 16.4399C16.8806 16.0204 16.8959 15.5562 16.4943 15.1073C16.5065 15.1021 16.5148 15.0929 16.5148 15.071L16.4527 15.0583C16.122 14.6702 15.9942 14.2909 15.9789 13.9602C15.9946 13.6272 16.122 13.2497 16.4527 12.8621L16.5148 12.8494C16.5148 12.8279 16.5061 12.8192 16.4943 12.8131C16.8959 12.3624 16.8806 11.9004 17.977 11.4804C22.2868 9.83325 21.3986 1.17206 21.3986 1.17206H7.21359C7.21359 1.17206 6.32677 9.83281 10.6357 11.4804C11.733 11.9 11.7168 12.3642 12.1184 12.8131C12.1061 12.8192 12.0987 12.8279 12.0987 12.8494L12.1608 12.8621C12.4898 13.2501 12.6185 13.6277 12.6346 13.9602C12.618 14.2909 12.4898 14.6702 12.1608 15.0583L12.0987 15.071C12.0987 15.0929 12.1066 15.1021 12.1184 15.1073C11.7168 15.5579 11.733 16.0204 10.6357 16.4399C6.32677 18.0871 7.21359 26.7483 7.21359 26.7483H21.3986C21.3986 26.7483 22.2863 18.0871 17.977 16.4399Z" fill="#F4CD88"/>
<path d="M13.3879 16.4399C14.4842 16.0204 14.1482 15.498 14.549 15.0478L14.605 14.6304C14.934 14.2428 14.2904 14.2909 14.3066 13.9602C14.2904 13.6272 15.2411 13.2497 14.9108 12.8621L14.8495 12.8494C14.8495 12.8279 14.8583 12.8192 14.8684 12.8131C14.4667 12.3624 14.4842 11.9004 13.3874 11.4804C9.07805 9.83325 12.0662 1.13006 12.0662 1.13006L7.20992 1.17206C7.20992 1.17206 6.32311 9.83281 10.632 11.4804C11.7293 11.9 11.7131 12.3642 12.1147 12.8131C12.1025 12.8192 12.095 12.8279 12.095 12.8494L12.1572 12.8621C12.4862 13.2501 12.6148 13.6277 12.631 13.9602C12.6144 14.2909 12.4862 14.6702 12.1572 15.0583L12.095 15.071C12.095 15.0929 12.1029 15.1021 12.1147 15.1073C11.7131 15.5579 11.7293 16.0204 10.632 16.4399C6.32311 18.0871 7.20992 26.7483 7.20992 26.7483L11.5784 26.7544C11.5784 26.7544 9.07455 18.0871 13.3844 16.4399" fill="#CEA76B"/>
<path d="M18.432 10.3504H10.1812C10.1812 10.3504 13.9419 12.0597 13.9642 16.1792C13.9537 16.331 13.9305 16.5196 13.8995 16.7204C14.3571 17.7778 14.4735 18.9866 14.2302 20.0931C14.3925 21.2266 14.4 22.379 14.225 23.4977C14.1484 24.2725 14.0018 25.0364 13.7665 25.7679H15.3266C14.5894 23.0265 14.6301 20.0541 14.8051 17.2498C14.7244 16.8975 14.6715 16.5393 14.6472 16.1788C14.6703 12.0597 18.432 10.3504 18.432 10.3504Z" fill="#D78C2A"/>
<path d="M22.4874 0.756C22.4874 1.17513 22.1103 1.51419 21.6461 1.51419H6.96928C6.50466 1.51419 6.12622 1.17513 6.12622 0.756C6.12622 0.338625 6.50466 0 6.96928 0H21.6465C22.1103 0 22.4874 0.338625 22.4874 0.756ZM22.4874 27.3263C22.4874 27.7423 22.1103 28.0823 21.6461 28.0823H6.96928C6.50466 28.0823 6.12622 27.7423 6.12622 27.3263C6.12622 26.9071 6.50466 26.5685 6.96928 26.5685H21.6465C22.1103 26.5685 22.4874 26.9071 22.4874 27.3263Z" fill="#1B75BB"/>
<path d="M14.7359 15.1498C14.7359 15.1498 14.6418 24.0087 16.2776 25.7683H14.4152L14.1895 14.5587L14.7359 15.1498Z" fill="#D78C2A"/>
<path d="M14.9536 22.47C13.7986 20.8044 13.6954 18.4433 14.7156 16.7694C14.6828 16.5502 14.6588 16.345 14.6483 16.1823C14.6706 12.0628 18.4322 10.3534 18.4322 10.3534H10.1814C10.1814 10.3534 13.9421 12.0628 13.9645 16.1823C13.9403 16.5429 13.8875 16.901 13.8065 17.2533C13.9806 20.0554 14.0222 23.03 13.285 25.7714H15.756C15.6568 25.2406 15.57 24.7076 15.4957 24.1728C15.2218 23.6398 15.0386 23.0649 14.9536 22.4718" fill="#D78C2A"/>
<path d="M13.8765 15.1498C13.8765 15.1498 13.9705 24.0087 12.3347 25.7683H14.1972L14.4238 14.5587L13.8765 15.1498Z" fill="#D78C2A"/>
</svg>
