<svg width="120" height="53" viewBox="0 0 120 53" fill="none" xmlns="http://www.w3.org/2000/svg">
<g clip-path="url(#clip0_0_3)">
<path d="M116.829 0H3.11833C1.39613 0 0 1.39613 0 3.11833V49.6717C0 51.3939 1.39613 52.79 3.11833 52.79H116.829C118.551 52.79 119.948 51.3939 119.948 49.6717V3.11833C119.948 1.39613 118.551 0 116.829 0Z" fill="#090207"/>
<path d="M33.1077 32.8609C33.3872 32.8522 33.6655 32.9009 33.9254 33.004C34.1854 33.1071 34.4214 33.2625 34.619 33.4604C34.8161 33.6535 34.9715 33.8851 35.0755 34.1407C35.1795 34.3963 35.2299 34.6706 35.2235 34.9465C35.2334 35.2266 35.1847 35.5057 35.0806 35.7659C34.9765 36.0261 34.8193 36.2618 34.619 36.4578C34.4214 36.6558 34.1854 36.811 33.9254 36.9141C33.6655 37.0172 33.3872 37.066 33.1077 37.0573H31.808V39.2336H30.7651V32.881L33.1077 32.8609ZM33.1077 36.0548C33.2514 36.0564 33.3938 36.0284 33.5263 35.9726C33.6587 35.9169 33.7783 35.8344 33.8775 35.7305C33.9767 35.6265 34.0535 35.5034 34.103 35.3685C34.1526 35.2336 34.1739 35.09 34.1656 34.9465C34.1739 34.8033 34.1526 34.6599 34.103 34.5253C34.0534 34.3907 33.9765 34.2677 33.8772 34.1642C33.7779 34.0606 33.6583 33.9787 33.5259 33.9235C33.3935 33.8683 33.2511 33.841 33.1077 33.8433H31.808V36.0548H33.1077Z" fill="#FFAD17"/>
<path d="M39.0371 39.3293C38.6026 39.3373 38.1709 39.257 37.7683 39.0933C37.3657 38.9297 37.0004 38.6861 36.6946 38.3773C36.3859 38.0724 36.1423 37.7079 35.9787 37.3061C35.815 36.9043 35.7346 36.4735 35.7424 36.0397C35.7338 35.6066 35.8139 35.1762 35.9776 34.7751C36.1413 34.374 36.3853 34.0107 36.6946 33.7073C36.9985 33.3952 37.3631 33.1488 37.7661 32.9833C38.169 32.8178 38.6016 32.7366 39.0371 32.745C39.4712 32.7362 39.9024 32.8172 40.3037 32.9828C40.7051 33.1483 41.068 33.395 41.3696 33.7073C41.6805 34.0097 41.9259 34.3728 42.0905 34.774C42.2552 35.1753 42.3356 35.6061 42.3268 36.0397C42.3348 36.474 42.254 36.9053 42.0894 37.3072C41.9248 37.7092 41.6799 38.0734 41.3696 38.3773C41.066 38.6863 40.7026 38.9301 40.3015 39.0938C39.9005 39.2575 39.4702 39.3377 39.0371 39.3293ZM39.0371 38.3218C39.3331 38.3277 39.6271 38.2737 39.9016 38.1629C40.176 38.0521 40.4252 37.8867 40.634 37.677C40.8471 37.463 41.0147 37.208 41.1264 36.9275C41.2381 36.6469 41.2917 36.3466 41.2839 36.0447C41.293 35.7434 41.2401 35.4435 41.1283 35.1635C41.0165 34.8836 40.8482 34.6297 40.634 34.4176C40.4269 34.2052 40.1781 34.0379 39.9033 33.9261C39.6286 33.8143 39.3337 33.7603 39.0371 33.7677C38.7392 33.7613 38.4431 33.8157 38.1668 33.9275C37.8905 34.0392 37.6398 34.2059 37.4301 34.4176C37.2175 34.6307 37.0507 34.8848 36.9398 35.1646C36.8289 35.4444 36.7764 35.7439 36.7853 36.0447C36.7778 36.3462 36.8309 36.6461 36.9417 36.9265C37.0525 37.2069 37.2186 37.4621 37.4301 37.677C37.6419 37.8852 37.8932 38.049 38.1691 38.1588C38.4451 38.2687 38.7402 38.3224 39.0371 38.3168V38.3218Z" fill="#FFAD17"/>
<path d="M47.2082 37.4553C47.2133 37.7154 47.1588 37.9733 47.0488 38.2091C46.9388 38.4449 46.7761 38.6523 46.5734 38.8154C46.1019 39.1706 45.5207 39.3489 44.9311 39.3192C44.4383 39.3661 43.9439 39.2475 43.5261 38.982C43.1083 38.7165 42.7908 38.3194 42.6239 37.8533L43.5256 37.3495C43.5965 37.6601 43.7786 37.934 44.0375 38.1196C44.2964 38.3052 44.6143 38.3896 44.9311 38.3571C45.7271 38.3571 46.1654 37.9842 46.1654 37.4049C46.1654 36.8255 45.7372 36.4629 45.0017 36.4629H44.2309V35.5157H44.7951C45.5105 35.5157 45.9286 35.1631 45.9286 34.619C45.9286 34.0749 45.5558 33.7324 44.8757 33.7324C44.5983 33.7134 44.3225 33.788 44.0924 33.9442C43.8623 34.1003 43.6911 34.3291 43.6062 34.5939L42.7196 34.0901C42.8972 33.673 43.2002 33.3213 43.5865 33.084C43.9728 32.8466 44.4233 32.7352 44.8757 32.7652C45.4243 32.7414 45.9624 32.9208 46.387 33.2689C46.5688 33.4262 46.7139 33.6213 46.8123 33.8406C46.9106 34.0599 46.9598 34.2981 46.9563 34.5384C46.9675 34.8104 46.9052 35.0803 46.7757 35.3197C46.6462 35.5591 46.4545 35.7591 46.2208 35.8986C46.5274 36.0223 46.7876 36.239 46.9647 36.5182C47.1418 36.7974 47.2269 37.1252 47.2082 37.4553Z" fill="#FFAD17"/>
<path d="M50.4524 32.8608C50.7322 32.8503 51.011 32.8982 51.2712 33.0014C51.5314 33.1046 51.7673 33.261 51.9637 33.4604C52.1618 33.6531 52.3182 33.8844 52.423 34.14C52.5279 34.3957 52.5791 34.6702 52.5733 34.9465C52.5826 35.2269 52.5331 35.5062 52.4281 35.7665C52.3232 36.0267 52.165 36.2622 51.9637 36.4578C51.7673 36.6572 51.5314 36.8134 51.2712 36.9167C51.011 37.0199 50.7322 37.0678 50.4524 37.0572H49.1578V39.2336H48.115V32.881L50.4524 32.8608ZM50.4524 36.0547C50.5965 36.0571 50.7396 36.0297 50.8726 35.9742C51.0056 35.9187 51.1258 35.8364 51.2255 35.7324C51.3253 35.6284 51.4025 35.5048 51.4524 35.3696C51.5023 35.2343 51.5238 35.0904 51.5154 34.9465C51.5231 34.803 51.5011 34.6595 51.4509 34.5249C51.4007 34.3902 51.3233 34.2674 51.2236 34.1639C51.124 34.0604 51.0041 33.9786 50.8714 33.9234C50.7387 33.8683 50.5961 33.841 50.4524 33.8432H49.1578V36.0547H50.4524Z" fill="#FFAD17"/>
<path d="M56.3819 39.3293C55.948 39.3374 55.5171 39.2572 55.1153 39.0935C54.7134 38.9298 54.3491 38.6861 54.0444 38.3772C53.7357 38.0723 53.4921 37.7079 53.3284 37.3061C53.1648 36.9043 53.0845 36.4734 53.0923 36.0396C53.0837 35.6065 53.1637 35.1761 53.3274 34.775C53.4911 34.3739 53.7351 34.0106 54.0444 33.7072C54.3471 33.395 54.7109 33.1485 55.113 32.9829C55.5152 32.8174 55.9471 32.7364 56.3819 32.745C56.816 32.7358 57.2473 32.8166 57.6487 32.9822C58.0501 33.1478 58.4129 33.3947 58.7143 33.7072C59.0269 34.0087 59.2737 34.3714 59.4393 34.7728C59.6049 35.1742 59.6857 35.6055 59.6765 36.0396C59.6848 36.4744 59.6037 36.9062 59.4382 37.3083C59.2727 37.7104 59.0263 38.0743 58.7143 38.3772C58.4109 38.6865 58.0476 38.9304 57.6465 39.0941C57.2454 39.2578 56.815 39.3379 56.3819 39.3293ZM56.3819 38.3217C56.6778 38.328 56.972 38.274 57.2466 38.1632C57.5211 38.0523 57.7702 37.8869 57.9788 37.6769C58.1938 37.4641 58.3629 37.2095 58.4755 36.9287C58.5882 36.648 58.642 36.3471 58.6338 36.0447C58.6432 35.7429 58.5898 35.4424 58.4771 35.1623C58.3643 34.8822 58.1947 34.6286 57.9788 34.4175C57.7719 34.2049 57.5232 34.0374 57.2483 33.9255C56.9735 33.8137 56.6785 33.76 56.3819 33.7676C56.0846 33.7608 55.7891 33.8149 55.5136 33.9267C55.2381 34.0384 54.9884 34.2055 54.7799 34.4175C54.5674 34.6306 54.4006 34.8848 54.2897 35.1646C54.1788 35.4443 54.1262 35.7438 54.1351 36.0447C54.1275 36.3461 54.1807 36.646 54.2915 36.9264C54.4023 37.2068 54.5684 37.462 54.7799 37.6769C54.9905 37.8854 55.2408 38.0495 55.516 38.1594C55.7912 38.2693 56.0856 38.3228 56.3819 38.3167V38.3217Z" fill="#FFAD17"/>
<path d="M63.0317 35.3143C63.299 35.3054 63.5653 35.3497 63.8153 35.4449C64.0652 35.54 64.2938 35.684 64.4876 35.8683C64.6791 36.0456 64.8304 36.2619 64.9312 36.5026C65.0321 36.7433 65.08 37.0029 65.0719 37.2638C65.079 37.5245 65.0306 37.7839 64.9299 38.0245C64.8291 38.2651 64.6784 38.4814 64.4876 38.6592C64.2938 38.8436 64.0652 38.9875 63.8153 39.0827C63.5653 39.1778 63.299 39.2223 63.0317 39.2134H60.6287V32.8608H64.5278V33.8684H61.6714V35.3243L63.0317 35.3143ZM63.0317 38.2311C63.1627 38.2395 63.2941 38.2206 63.4175 38.1755C63.5408 38.1304 63.6535 38.0601 63.7483 37.9691C63.843 37.8782 63.9178 37.7684 63.9679 37.647C64.0179 37.5256 64.0423 37.3951 64.0392 37.2638C64.043 37.1321 64.0192 37.001 63.9694 36.8789C63.9196 36.7569 63.845 36.6466 63.7502 36.5551C63.6553 36.4636 63.5424 36.3929 63.4187 36.3475C63.295 36.3021 63.1632 36.2831 63.0317 36.2915H61.6714V38.2311H63.0317Z" fill="#FFAD17"/>
<path d="M65.3237 38.2513C66.1197 38.3621 66.5126 37.9439 66.5126 36.5384V32.8608H70.7645V39.2134H69.7216V33.8583H67.5555V36.5182C67.5555 37.6315 67.3086 38.3973 66.8754 38.7852C66.6627 38.9638 66.414 39.0945 66.1462 39.1684C65.8785 39.2423 65.5979 39.2576 65.3237 39.2134V38.2513Z" fill="#FFAD17"/>
<path d="M73.0767 38.216H75.8878V39.2235H72.0339V32.8709H75.8424V33.8784H73.0767V35.5308H75.5956V36.5384H73.0767V38.216Z" fill="#FFAD17"/>
<path d="M80.6032 32.8608H81.6459V39.2134H80.6032V36.4629H77.8828V39.2134H76.84V32.8608H77.8828V35.4654H80.6032V32.8608Z" fill="#FFAD17"/>
<path d="M85.8877 39.3293C85.454 39.3365 85.0233 39.2559 84.6215 39.0923C84.2198 38.9286 83.8554 38.6854 83.5502 38.3772C83.2415 38.0723 82.9979 37.7079 82.8342 37.3061C82.6706 36.9043 82.5902 36.4734 82.598 36.0396C82.5894 35.6065 82.6695 35.1761 82.8332 34.775C82.9969 34.3739 83.2409 34.0106 83.5502 33.7072C83.8535 33.3958 84.2173 33.1497 84.6193 32.9842C85.0213 32.8187 85.453 32.7373 85.8877 32.745C86.3218 32.7358 86.7531 32.8166 87.1545 32.9822C87.5559 33.1478 87.9187 33.3947 88.2201 33.7072C88.5327 34.0087 88.7795 34.3714 88.9451 34.7728C89.1107 35.1742 89.1914 35.6055 89.1823 36.0396C89.1906 36.4744 89.1095 36.9062 88.944 37.3083C88.7785 37.7104 88.5321 38.0743 88.2201 38.3772C87.9167 38.6865 87.5534 38.9304 87.1523 39.0941C86.7512 39.2578 86.3208 39.3379 85.8877 39.3293ZM85.8877 38.3217C86.1837 38.3285 86.478 38.2749 86.7526 38.164C87.0272 38.0532 87.2763 37.8874 87.4846 37.6769C87.6996 37.4641 87.8686 37.2095 87.9813 36.9287C88.0939 36.648 88.1478 36.3471 88.1395 36.0447C88.1489 35.7429 88.0955 35.4424 87.9828 35.1623C87.8701 34.8822 87.7004 34.6286 87.4846 34.4175C87.278 34.2044 87.0294 34.0366 86.7544 33.9247C86.4795 33.8128 86.1844 33.7593 85.8877 33.7676C85.5904 33.7608 85.2949 33.8149 85.0194 33.9267C84.7438 34.0384 84.4941 34.2055 84.2857 34.4175C84.0731 34.6306 83.9063 34.8848 83.7954 35.1646C83.6845 35.4443 83.6319 35.7438 83.6408 36.0447C83.6333 36.3461 83.6865 36.646 83.7973 36.9264C83.9081 37.2068 84.0742 37.462 84.2857 37.6769C84.4962 37.8854 84.7465 38.0495 85.0217 38.1594C85.2969 38.2693 85.5914 38.3228 85.8877 38.3167V38.3217Z" fill="#FFAD17"/>
<path d="M11.0089 22.5078C10.1777 24.5229 11.0694 19.989 10.4648 21.6514C10.0115 21.6816 10.6411 19.9738 10.4346 19.6665C10.5202 18.6589 10.3842 17.3341 10.752 16.5784C10.5102 16.5029 10.9132 16.1552 10.6915 16.1451C11.0996 15.3492 7.66888 16.5936 9.21545 14.9563C6.87292 15.8177 11.553 13.8732 12.1978 13.4147C15.6033 13.2233 19.8752 12.2863 12.5605 15.5709C12.4698 16.4323 12.5605 17.5406 12.2431 18.3164C12.3287 18.4071 12.359 19.0469 12.0769 18.9512C12.4094 20.1552 11.3565 23.8982 11.0089 22.5078ZM12.3338 13.3694C12.4396 13.4751 12.5505 13.4802 12.485 13.6868C12.8981 13.7624 12.626 12.5835 12.3338 13.3694ZM16.1624 13.2485C16.1322 13.3593 15.9207 13.4046 15.9912 13.5003C16.1524 13.6162 16.8728 13.057 16.1624 13.2485ZM14.4597 13.581C14.5705 13.581 14.631 13.5659 14.6411 13.5356C14.5403 13.5356 14.4799 13.5508 14.4597 13.581ZM14.7015 13.8832C14.7317 13.7673 14.9182 13.8832 14.9282 13.7321C14.8728 13.7724 14.6108 13.7623 14.7015 13.8832ZM15.4421 14.0495C15.5328 14.0495 15.7695 13.979 15.7292 13.8531C15.6285 13.9186 15.5177 13.9437 15.4421 14.0495ZM13.7796 13.9286C13.9005 14.0042 14.0315 14.0696 14.102 13.9286C14.0114 13.9286 13.8451 13.8077 13.7796 13.9286ZM14.2834 14.0495C14.3892 14.0042 14.5453 13.9991 14.631 13.8983C14.505 13.9437 14.3388 13.9235 14.2834 14.0495ZM12.7318 14.3468C13.0727 14.2991 13.404 14.1988 13.7141 14.0495C13.5403 13.9863 13.3506 13.981 13.1735 14.0346C12.9964 14.0882 12.8415 14.1978 12.7318 14.3468ZM12.5807 14.4273C12.6109 14.3971 12.5807 14.3568 12.5353 14.3165C12.5001 14.3568 12.5001 14.4525 12.5807 14.4273ZM13.9106 14.7145C14.1071 14.644 14.5605 14.6086 14.6008 14.3668C14.4144 14.5381 14.097 14.5331 13.9106 14.7145ZM10.5757 14.8756C10.8294 14.8156 11.0735 14.7208 11.3011 14.5936C11.0401 14.628 10.7913 14.7246 10.5757 14.8756ZM9.47742 14.9563C9.62802 14.833 9.79833 14.7359 9.98119 14.6691C9.87879 14.6652 9.77738 14.6901 9.68835 14.7408C9.59932 14.7916 9.52623 14.8662 9.47742 14.9563ZM10.7721 14.9866C10.9182 14.9693 11.0581 14.9174 11.1802 14.8354C11.0296 14.8303 10.8831 14.8846 10.7721 14.9866ZM12.6714 15.1981C12.7167 15.1981 12.6714 15.2585 12.6714 15.2686C13.7746 15.0268 13.7091 14.7649 12.6714 15.1981ZM9.9711 15.1174C10.1273 15.0922 10.3036 15.1175 10.3489 14.9361C10.2074 14.9566 10.0756 15.0198 9.9711 15.1174ZM10.4245 15.6212C10.5253 15.6212 10.8225 15.6212 10.893 15.5305C10.7314 15.5155 10.5688 15.5469 10.4245 15.6212ZM10.1071 15.712C10.2087 15.705 10.3072 15.6738 10.3943 15.6212C10.2986 15.6514 10.1374 15.5911 10.1071 15.712ZM9.80488 15.8177C9.91067 15.8177 9.34141 15.6062 9.30111 15.712C9.14998 15.9689 9.69909 15.7674 9.80488 15.8177ZM10.8628 17.4298C10.9988 17.465 11.0291 17.3794 11.15 17.3995C11.15 17.2836 10.9031 17.3995 10.8628 17.4298ZM11.558 18.6238C11.6134 18.518 11.4019 18.5532 11.4069 18.5935C11.4119 18.6338 11.4572 18.6489 11.558 18.6238ZM11.3766 19.4801C11.3414 19.3693 11.558 19.2081 11.4069 19.1225C11.4371 19.2031 11.3011 19.3945 11.3766 19.4801ZM12.0114 19.4801C12.1424 19.5356 12.0567 19.3391 12.0114 19.329C11.9964 19.3514 11.9885 19.3776 11.9885 19.4045C11.9885 19.4314 11.9964 19.4578 12.0114 19.4801ZM11.3162 19.8025C11.5026 19.8277 11.3616 19.586 11.3464 19.5104C11.2709 19.6162 11.3918 19.6967 11.3162 19.8025ZM11.82 21.2332C11.6638 21.1577 11.7847 20.7294 11.9107 20.5682C11.951 19.5607 11.6537 20.9158 11.6084 21.3239C11.6436 21.2483 11.82 21.2887 11.82 21.2332ZM10.9333 21.0518C11.0593 20.9158 10.8124 20.6489 10.9333 20.3718C10.752 20.3214 10.7872 20.8755 10.9333 21.0518ZM10.9031 21.8226C10.8952 21.8088 10.8909 21.7933 10.8909 21.7774C10.8909 21.7614 10.8952 21.7458 10.9031 21.732C10.8477 21.5657 10.7419 21.8478 10.9031 21.8226ZM10.8729 22.135C11.0643 22.135 10.9888 21.8075 10.8427 21.8327C10.7923 21.9939 10.9232 21.9637 10.8729 22.135ZM10.6613 22.0343C10.8729 22.0343 10.6916 21.9688 10.6613 21.8932C10.652 21.9398 10.652 21.9877 10.6613 22.0343ZM11.2507 22.271C11.296 22.2106 11.2507 22.1198 11.296 22.0442C11.165 21.9586 11.1399 22.2358 11.2507 22.271ZM10.8427 22.3466C10.9787 22.402 10.9787 22.2257 10.8729 22.2156C10.9283 22.3063 10.8225 22.2861 10.8477 22.3566L10.8427 22.3466ZM17.3917 21.339C15.7998 21.6967 16.8879 21.7067 15.8804 22.1803C16.1071 21.8931 16.9886 22.9763 16.2733 22.3919C15.966 23.2836 19.4521 22.0342 17.7342 22.9662C18.777 23.0015 18.1675 22.1047 18.6914 22.0896C18.9533 22.8352 17.5881 24.4776 16.3035 23.9083C12.3489 23.1426 15.5378 17.5658 18.2481 17.4348C17.8199 17.5204 16.7368 17.7925 17.83 17.8025C20.0113 16.4927 21.2707 18.3517 19.6637 20.2509C19.0541 20.3114 19.4722 20.397 19.5427 20.0091C18.8828 20.4726 17.8098 20.7446 17.3715 21.339M17.9609 23.4197C16.9534 23.8327 17.3664 24.1652 18.0365 23.5103C17.9659 23.5607 18.0063 23.4247 17.9609 23.4197ZM18.8476 17.7925C18.9685 17.7925 19.18 17.8882 19.2405 17.7321C19.0893 17.7875 18.908 17.601 18.8476 17.7925ZM19.6939 17.8227C19.8702 18.1351 20.4848 18.3265 20.0113 17.9134C20.1624 17.7622 19.6888 17.5809 19.6939 17.8227ZM16.8123 18.3265C17.0743 18.2207 17.3916 18.1652 17.5377 17.9033C17.1599 17.8227 17.034 18.1401 16.8123 18.3265ZM17.568 18.6892C16.9181 19.193 16.374 19.6968 17.5377 19.0066C17.1851 19.5104 16.8476 19.7622 16.4244 20.3012C17.432 20.4372 19.8198 18.3316 18.0214 18.4928C19.3362 18.0948 17.9357 18.0444 17.568 18.6892ZM19.0289 18.6589C19.2153 18.7043 19.0289 18.7648 19.1196 18.8857C19.442 18.79 19.1801 18.271 19.0289 18.6589ZM20.0365 19.0771C20.1372 19.0015 20.3387 18.6287 20.1271 18.6589C20.1271 18.8403 19.9659 18.9008 20.0365 19.0771ZM17.5781 20.1502C18.1624 19.9134 19.0591 19.5103 18.9483 18.7849C18.5352 19.0569 18.0667 19.7673 17.5781 20.1502ZM19.0894 19.2937C19.2506 19.4196 19.447 19.0721 19.3815 18.9663C19.2556 18.9663 19.1297 19.1526 19.0894 19.2937ZM19.5931 19.5657C19.5931 19.4549 19.6989 19.4499 19.6687 19.334C19.5679 19.2988 19.4622 19.5456 19.5931 19.5657ZM16.4748 19.6263C16.6158 19.6263 16.6763 19.5859 16.6511 19.4549C16.6088 19.4646 16.5701 19.4857 16.539 19.5159C16.5079 19.5461 16.4857 19.5843 16.4748 19.6263ZM19.3815 19.8681C19.3815 19.8076 19.6133 19.5909 19.4269 19.5657C19.4571 19.6866 19.2153 19.727 19.3815 19.8681ZM16.0919 20.3466C16.3186 20.3466 16.6461 20.1401 16.5957 19.8781C16.4244 20.0343 16.0919 20.0645 16.0919 20.3466ZM14.6764 20.5582C14.7872 20.3566 15.0592 20.135 15.0995 19.9083C14.9685 20.0997 14.6461 20.2962 14.6764 20.5582ZM18.8072 20.1955C18.8979 20.1955 19.0138 20.1955 19.0037 20.0897C18.9936 19.9839 18.8425 20.1451 18.8072 20.1955ZM16.0919 20.5129C16.1776 20.6187 16.0919 20.664 16.0214 20.7244C16.8526 20.7244 17.0894 20.1854 16.0919 20.5129ZM16.9383 20.9814C17.2103 20.9108 17.8803 20.8857 17.9055 20.528C17.6183 20.7195 17.1952 20.7446 16.9383 20.9814ZM15.6738 22.2912C15.8401 22.4423 15.8804 22.6892 16.1776 22.669C15.9307 22.4625 15.5579 21.6162 15.6738 22.2912ZM17.3917 22.9561C17.4521 22.9561 17.5529 22.9562 17.5579 22.8957C17.5629 22.8353 17.3665 22.8503 17.3917 22.9561ZM16.9685 22.9864C17.013 23.021 17.0666 23.0423 17.1228 23.0476C17.179 23.053 17.2355 23.0422 17.2858 23.0166C17.3312 22.8554 16.9735 22.8604 16.9685 22.9864ZM15.8703 23.4096C16.2632 23.4499 15.8199 23.1425 15.704 23.3037C15.8199 23.3994 15.8854 23.2634 15.8854 23.4447L15.8703 23.4096ZM23.7845 24.1804C23.7845 25.1879 22.9482 22.9562 22.3235 22.7597C20.4999 24.669 18.7065 24.5228 21.0491 21.9233C22.1725 21.2886 21.2203 20.6187 20.8576 19.8681C20.4042 17.3945 21.7644 17.2585 22.3689 19.4549C22.9331 20.9662 24.6611 17.2837 25.19 18.6137C24.8475 19.863 24.0566 20.5682 23.3765 21.5859C23.5226 22.0493 24.7971 24.4272 23.7996 24.1804M24.389 18.8252C24.6057 18.669 24.9935 18.7345 25.0993 18.4474C24.9572 18.4358 24.8147 18.4653 24.6888 18.5323C24.5629 18.5992 24.4589 18.7009 24.389 18.8252ZM21.583 19.9385C21.719 20.5531 22.379 21.4851 21.9457 20.3012C22.5855 21.3088 22.3286 19.8227 21.8248 20.2257C21.9054 19.7219 21.6032 18.926 21.583 19.9385ZM23.3361 19.6866C23.5124 19.737 23.457 19.5507 23.5779 19.4852C23.4872 19.5255 23.3512 19.5758 23.3361 19.6866ZM22.5049 20.0746C22.656 20.4524 22.6661 19.8378 22.4596 19.8176C22.4596 19.868 22.6661 20.2408 22.5049 20.0746ZM23.0943 20.6791C23.3311 21.1476 23.4117 20.6338 23.6787 20.4021C24.3638 19.5104 23.3462 20.2055 23.0943 20.6791ZM22.8677 20.8151C22.9432 20.9209 23.1649 21.193 23.044 20.8907C22.9684 20.7799 23.044 20.6589 22.8677 20.8151ZM22.5049 21.2383C22.4394 21.3945 22.6208 21.3743 22.5049 21.4902C22.8072 21.5305 22.7265 21.0519 22.5049 21.2383ZM22.7014 22.397C22.7376 22.4902 22.7887 22.5769 22.8525 22.6539C22.918 22.5733 22.9331 22.2912 22.7014 22.397ZM21.1045 22.7446C21.3009 23.1879 21.5074 22.1904 21.2001 22.6388C21.2001 22.6791 21.1699 22.7143 21.1045 22.7446ZM23.5779 22.9258C23.599 22.9315 23.6214 22.9298 23.6414 22.9209C23.6613 22.9121 23.6777 22.8967 23.6877 22.8773C23.6977 22.8579 23.7007 22.8356 23.6964 22.8142C23.692 22.7928 23.6804 22.7736 23.6636 22.7597C23.6636 22.8504 23.5427 22.815 23.5779 22.9258ZM21.0591 23.1828C21.1548 23.1828 21.4873 23.0418 21.447 22.8806C21.2807 22.941 21.0339 23.0719 21.0591 23.1828ZM23.7845 23.2433C23.6535 23.1728 23.8903 22.9964 23.724 22.9561C23.7744 23.0317 23.6283 23.2685 23.7845 23.2433ZM20.4243 23.1526C20.4848 23.1526 20.5604 23.0166 20.515 22.9864C20.515 23.077 20.3941 23.0418 20.4243 23.1526ZM23.8147 23.2433C23.8802 23.334 23.6183 23.334 23.8147 23.3894C24.0112 23.4448 23.7241 22.936 23.8147 23.2433ZM19.9256 24.0593C20.2228 24.1047 20.2228 23.5557 20.2732 23.2735C20.0314 23.5254 20.1825 23.8377 19.9256 24.0593ZM20.2732 23.8629C20.3488 23.9939 20.5301 23.9184 20.5755 23.7723C20.3639 23.7219 20.3337 23.4246 20.2732 23.8629ZM23.9054 23.8629C23.9054 23.8176 23.9054 23.7975 23.9054 23.8025C24.1069 23.7421 23.6434 23.6866 23.8903 23.878L23.9054 23.8629ZM31.734 18.2258C31.5476 19.198 31.6181 20.2962 31.3259 21.2987C31.5929 21.0015 31.4821 20.5532 31.6735 20.2156C29.8398 28.0795 29.6937 20.7193 30.3184 18.6488C31.5727 17.2635 28.0615 18.5582 27.1346 18.4524C26.9179 19.5406 26.9482 20.9713 26.5149 21.8579C26.4797 23.1224 25.6585 25.2684 25.0993 22.9914C25.0478 21.6622 25.3283 20.3411 25.9154 19.1476C26.2328 16.8353 30.2982 16.9915 31.8851 17.4701C31.7793 19.0872 31.6635 21.3693 31.734 18.2258ZM27.9456 17.6061C26.3839 17.8278 28.5451 17.6464 29.1094 17.4449C28.716 17.4458 28.3245 17.5001 27.9456 17.6061ZM30.1068 17.5658C30.3847 17.6032 30.6675 17.5756 30.933 17.4852C30.655 17.4545 30.3736 17.4819 30.1068 17.5658ZM27.8146 17.5054H27.6635C27.6635 17.586 27.7995 17.5558 27.8146 17.5054ZM27.2403 18.2861C27.6821 18.2852 28.1221 18.2295 28.5501 18.12C28.1086 18.125 27.6691 18.1807 27.2403 18.2861ZM30.4493 18.8454C30.5048 18.8454 30.5551 18.5783 30.5098 18.5431C30.5098 18.6438 30.3788 18.7396 30.4493 18.8454ZM26.1824 19.7068C25.9315 20.2086 25.8621 20.7818 25.986 21.3289C26.2882 20.5128 26.8676 17.5658 26.1824 19.7068ZM30.3889 19.0973C30.4191 19.0267 30.5048 18.9008 30.3889 18.8555C30.4242 18.9462 30.3436 19.0267 30.3889 19.0973ZM30.4493 19.3542C30.1521 21.1678 30.4846 20.1552 30.5854 18.9764C30.5199 19.0872 30.5854 19.2786 30.4493 19.3542ZM30.3184 19.3542C30.3637 19.3542 30.3838 19.1426 30.3184 19.1879C30.3939 19.2635 30.2428 19.2988 30.3184 19.3542ZM26.5905 19.3542C26.5905 19.3542 26.6711 19.3089 26.651 19.2636C26.651 19.2988 26.525 19.329 26.5905 19.3542ZM30.8121 19.5657C30.8574 19.5657 30.8423 19.6362 30.8876 19.6564C30.4393 20.135 30.7365 20.3718 30.5098 21.7572C30.8423 21.8982 30.9481 20.0292 30.933 19.4146C30.8826 19.465 30.933 19.5355 30.8121 19.5657ZM30.6761 19.6363C30.7063 19.596 30.8071 19.5304 30.6761 19.5355C30.6761 19.5355 30.6358 19.6263 30.6761 19.6363ZM26.5149 19.6363C26.5855 19.6867 26.6308 19.5405 26.5603 19.5456C26.5854 19.5959 26.5049 19.5457 26.5149 19.6363ZM30.6307 19.6665C30.6005 19.7269 30.8121 19.7017 30.797 19.6665C30.7819 19.6312 30.6911 19.6161 30.6307 19.6665ZM26.3336 20.9914C26.5123 20.6063 26.5753 20.1775 26.5149 19.7572C26.3803 20.1543 26.3189 20.5725 26.3336 20.9914ZM25.7744 20.2358C25.7744 20.2358 25.855 19.999 25.8046 20.0091C25.8046 20.1149 25.6636 20.13 25.7744 20.2358ZM25.6434 20.538C25.7039 20.538 25.7744 20.4021 25.6837 20.4021C25.7089 20.4726 25.6082 20.4523 25.6434 20.538ZM30.3184 20.7043C30.2881 20.6086 30.3587 20.5279 30.2378 20.5531C30.2882 20.5884 30.2378 20.6892 30.3184 20.7043ZM25.6233 20.7345C25.6233 20.7345 25.6837 20.5985 25.6233 20.5985C25.6887 20.664 25.5124 20.7295 25.6233 20.7345ZM30.3184 21.067C30.3838 21.067 30.409 21.0418 30.3889 20.9914C30.3687 20.9411 30.3184 20.9914 30.3184 21.067ZM30.3184 21.8478C30.4094 21.5974 30.4235 21.3254 30.3587 21.067C30.3184 21.3239 30.2025 21.606 30.3184 21.8478ZM25.9558 21.8176C26.1069 21.868 26.0263 21.747 26.0767 21.6866C26.258 21.0821 26.0011 21.5506 25.9558 21.8176ZM25.7643 21.8983C25.8701 21.8983 25.8248 21.8377 25.7643 21.8176C25.7039 21.7974 25.6888 21.8781 25.7643 21.8983ZM30.5854 22.7698C30.6046 22.7463 30.6151 22.7169 30.6151 22.6866C30.6151 22.6563 30.6046 22.6269 30.5854 22.6035C30.6458 22.6791 30.4947 22.7194 30.5854 22.7698ZM25.7643 23.4498C25.8903 23.4498 25.719 23.5002 25.7643 23.606C25.855 24.1047 26.122 22.9561 25.7492 23.5053L25.7643 23.4498ZM34.4191 16.3013C33.4115 16.397 34.9228 14.5985 34.4191 14.9915C34.1722 15.3794 33.9153 15.4953 33.875 16.0747C33.5022 14.5331 36.6306 13.0772 35.8095 15.2434C35.3611 16.0998 33.0287 17.0671 34.4342 16.3013M35.2201 14.4172C35.2201 14.6288 35.2705 14.7598 35.472 14.5684C35.472 14.4676 35.3309 14.3064 35.2201 14.4172ZM34.676 15.0621C34.7616 14.9009 35.0589 14.8757 35.1294 14.6994C35.1294 14.2409 34.5903 14.8253 34.676 15.0621ZM35.351 14.9311C35.482 14.9664 35.477 14.8555 35.487 14.79C35.3762 14.79 35.3964 14.8606 35.351 14.9311ZM35.2755 15.2031C35.0841 15.1125 35.2201 15.5961 35.2755 15.3593C35.3309 15.1226 35.0992 14.9513 35.2755 15.2031ZM34.5249 15.984C34.7465 15.984 34.7515 15.8077 34.9178 15.7271C34.414 15.6767 35.1395 15.5356 35.0186 15.3341C34.8171 15.4047 34.5148 15.3946 34.5148 15.984M34.409 15.7723C34.152 15.7723 34.3234 15.9941 34.4543 15.848C34.5501 15.445 34.2377 15.455 34.409 15.7723ZM33.6785 18.7043C33.6785 18.5733 33.5878 18.2811 33.8447 18.4474C35.2805 16.1452 34.7868 19.9587 34.4946 20.2106C34.7213 20.4171 34.6155 20.2559 34.4342 20.4221C34.681 20.5481 34.5802 20.8403 34.4039 20.5582C34.283 20.7093 34.5097 21.062 34.2981 20.9814C34.4896 21.2433 34.2125 21.6312 34.4039 21.8125C34.5349 21.2433 34.4795 20.533 34.6558 21.475C34.5853 21.475 34.6558 21.5808 34.5551 21.5556C34.5198 22.1047 35.0085 24.6689 34.4342 23.4649C34.6911 25.1475 33.2604 22.9612 33.6181 24.407C32.8574 22.6942 33.4065 20.3013 33.6785 18.7043ZM34.0715 21.3441C33.9909 21.2584 34.1924 21.1324 34.0715 21.0569C34.0715 21.0921 33.9909 21.3693 34.0715 21.3441ZM33.9203 22.548C34.1269 22.4825 34.0513 22.004 34.0261 21.732C33.7692 21.7773 33.9304 22.3112 33.9203 22.548ZM34.011 22.8503C34.1269 22.7345 34.011 22.7294 33.9203 22.684C33.9203 22.7445 33.9203 22.8352 34.011 22.8503ZM34.3889 23.2887C34.7113 23.3743 34.2528 22.8654 34.3586 23.1878C34.3797 23.2171 34.3903 23.2526 34.3889 23.2887ZM34.1471 24.0544C34.3083 24.1804 34.4292 23.9587 34.268 23.9083C34.268 23.9939 34.1319 23.9184 34.1471 24.0443V24.0544ZM41.356 22.6237C43.5726 22.1803 42.2275 25.6866 41.8597 24.4977C41.5776 25.1274 41.4466 24.2357 41.356 24.8251C41.4013 23.8175 41.4869 23.3138 40.2829 23.6463C41.0537 23.4196 39.2351 23.5103 38.9278 23.6463C39.3359 23.8176 37.3309 23.7622 36.7264 23.7471C36.6911 23.9486 36.5097 24.4472 36.5903 24.1853C36.5551 23.4548 36.2578 23.9939 36.1822 24.6236C36.3082 24.4725 36.3989 24.4574 36.4392 24.2458C36.5147 24.9108 35.5374 24.8453 35.3208 25.1677C35.6583 24.4624 34.9581 23.0065 35.8246 22.679C36.7817 22.2055 36.9581 19.7773 38.2276 18.4121C38.2829 18.2145 38.4139 18.0467 38.5921 17.9448C38.7702 17.843 38.9813 17.8155 39.1797 17.8681C39.1797 18.125 40.5449 17.9033 41.0335 17.8227C40.5172 17.7799 39.9983 17.7799 39.482 17.8227C42.968 16.6439 41.8144 20.3416 41.3962 22.6337M38.6356 18.0998C38.6961 18.1401 38.7767 17.9991 38.7112 17.9789C38.7112 18.0394 38.6557 18.0494 38.6356 18.0998ZM39.8447 18.1301C39.9101 18.1301 39.9908 18.13 40.0361 18.0847C39.9706 18.0847 39.895 18.0847 39.8447 18.1301ZM39.4618 18.1602C39.5071 18.1098 39.5626 18.2106 39.6129 18.1602C39.6633 18.1098 39.4215 18.1602 39.4618 18.1602ZM40.5651 18.1905C40.6205 18.1905 40.7263 18.1904 40.7616 18.1451C40.6507 18.1451 40.5852 18.1602 40.5651 18.1905ZM40.0059 18.251C40.138 18.2488 40.2696 18.2336 40.3988 18.2056C40.2663 18.2007 40.1338 18.2161 40.0059 18.251ZM40.5651 21.6464C40.7968 19.6615 41.3358 17.1729 38.8371 18.8504C38.2981 20.1048 38.2024 21.6161 37.3258 22.7748C38.5197 22.3063 41.0285 23.3542 40.5499 21.6464M41.7388 18.6741C41.8043 18.6741 41.7388 18.4676 41.7388 18.4928C41.7388 18.518 41.7036 18.5985 41.7388 18.6741ZM41.4416 19.9133C41.5047 19.6105 41.4891 19.2966 41.3962 19.0016C41.3682 19.3061 41.3835 19.613 41.4416 19.9133ZM41.6381 20.6035C41.754 20.3114 41.6078 19.8932 41.7287 19.596C41.5575 19.6816 41.5978 20.3819 41.6381 20.6035ZM37.1747 20.2106C37.1747 20.3063 37.2452 20.2106 37.1747 20.3264C37.1747 20.4876 37.4265 20.0191 37.1747 20.2106ZM37.2956 20.5129C37.3258 20.5129 37.5072 20.4575 37.4165 20.3769C37.4619 20.4726 37.2352 20.4625 37.2956 20.5129ZM37.084 20.5129C37.1142 20.5129 37.2351 20.4273 37.1243 20.392C37.1243 20.4222 37.0336 20.4927 37.084 20.5129ZM41.6179 21.1727C41.6179 21.0468 41.7892 20.5985 41.6179 20.6187C41.6683 20.8 41.5424 21.0015 41.6179 21.1727ZM36.7011 21.5859C36.9374 21.3704 37.0832 21.0734 37.1092 20.7547C36.9512 21.0204 36.8147 21.2983 36.7011 21.5859ZM41.2099 21.2534C41.2099 21.2534 41.2502 21.1426 41.2099 21.1426C41.1696 21.1426 41.1393 21.2282 41.2099 21.2534ZM41.1494 22.4574C41.3145 22.0701 41.4018 21.6542 41.4063 21.2332C41.4063 21.6766 41.1292 22.0241 41.1494 22.4574ZM37.2401 22.0343C37.2401 21.994 37.3913 21.9184 37.2704 21.9033C37.3309 21.9789 37.1747 21.9839 37.2401 22.0343ZM39.5928 22.6992C39.4963 22.6827 39.3971 22.6987 39.3107 22.7446C39.3359 22.7093 39.7389 22.7445 39.5928 22.6992ZM35.5374 23.5556C35.623 23.2331 35.6533 22.9158 35.8397 22.8806C35.6684 22.5834 35.4266 23.3843 35.5374 23.5556ZM38.4643 22.8806C38.3283 22.9259 38.1318 22.8805 38.0109 22.9258C38.1636 22.9413 38.3178 22.926 38.4643 22.8806ZM39.0991 23.0317C39.1797 22.9562 39.2855 23.0821 39.3409 22.9864C39.2552 22.9864 39.1293 22.9461 39.0991 23.0317ZM38.419 23.0619C38.5097 23.1022 38.7918 23.0619 38.6155 23.0015C38.6155 23.0015 38.4442 23.0014 38.419 23.0619ZM42.2476 23.1526C42.4089 23.1275 42.7514 23.0166 42.424 23.0015C42.2577 23.0015 42.2275 23.0015 42.2476 23.1526ZM38.8573 23.0469C38.8926 23.0469 38.9732 23.0468 38.9933 23.0015C39.0135 22.9561 38.8069 22.9512 38.8573 23.0469ZM40.3333 23.0469C40.4139 23.0166 40.5348 23.0771 40.5902 23.0015C40.4995 23.0519 40.4038 22.9562 40.3333 23.0469ZM38.283 23.077C38.283 23.1223 38.3787 23.0771 38.3736 23.0317C38.3556 23.0267 38.3363 23.0285 38.3196 23.0369C38.3028 23.0453 38.2898 23.0595 38.283 23.077ZM41.9756 23.077C41.9756 23.1375 42.0713 23.1426 42.1167 23.1678C42.1237 23.1494 42.1242 23.129 42.1181 23.1103C42.1119 23.0916 42.0996 23.0757 42.083 23.0651C42.0665 23.0544 42.0467 23.0497 42.0272 23.0519C42.0076 23.0541 41.9894 23.063 41.9756 23.077ZM40.1671 23.077C40.3434 23.077 40.2175 23.0216 40.1318 23.077C40.0462 23.1324 40.1318 23.1223 40.1671 23.077ZM41.3913 23.1526C41.1495 23.062 41.2753 23.3491 41.5877 23.2483C42.0511 23.1022 41.628 23.0872 41.3913 23.1526ZM36.5802 23.2282C36.6608 23.2282 36.7415 23.2282 36.7918 23.1526C36.7566 23.1526 36.5853 23.1526 36.5802 23.2282ZM36.8372 23.3491C37.21 23.2483 37.4064 23.3491 37.6784 23.1678C37.4165 23.198 36.9732 23.0468 36.8372 23.3491ZM37.8145 23.2735C38.2412 23.2941 38.6687 23.2534 39.084 23.1526C38.6576 23.145 38.2317 23.1855 37.8145 23.2735ZM41.1192 23.1979C41.1192 23.1475 41.0185 23.198 40.9983 23.1678C40.9983 23.2383 41.089 23.1677 41.1192 23.1979ZM36.3233 23.3793C36.3938 23.3189 36.3938 23.2584 36.3233 23.1979C36.3037 23.2241 36.2931 23.256 36.2931 23.2887C36.2931 23.3214 36.3037 23.3532 36.3233 23.3793ZM40.0009 23.3793C40.2143 23.395 40.4289 23.3745 40.6356 23.3188C40.5248 23.2835 40.0915 23.2685 40.0009 23.3793ZM40.7565 23.3793C40.8371 23.334 40.9933 23.3793 41.0588 23.3188C40.9782 23.3591 40.7767 23.2332 40.7565 23.3793ZM40.6054 23.5153C40.8673 23.475 41.2653 23.6765 41.4517 23.4548C41.1682 23.4344 40.8831 23.4548 40.6054 23.5153ZM41.8245 23.5757C41.8698 23.5203 42.026 23.606 42.026 23.5153C42.026 23.4247 41.7792 23.4347 41.8245 23.5757ZM42.2628 23.5456C42.2628 23.5456 42.2627 23.5456 42.3383 23.5456C42.3836 23.4045 42.1721 23.4902 42.2628 23.5456ZM35.7641 24.2256C35.826 23.9976 35.8515 23.7614 35.8397 23.5254C35.7715 23.7522 35.7459 23.9895 35.7641 24.2256ZM37.2401 23.6665C37.5525 23.732 37.9556 23.4448 38.1168 23.6665C38.278 23.5053 38.5449 23.6665 38.7213 23.5456C38.2243 23.5158 37.7257 23.5565 37.2401 23.6665ZM42.3383 24.0141C42.3317 24.0228 42.3283 24.0334 42.3283 24.0443C42.3283 24.0552 42.3317 24.0657 42.3383 24.0745C42.4542 23.3138 42.1015 23.6514 42.2325 24.1753C42.3383 24.1149 42.1922 24.1098 42.3232 24.0141M36.822 23.6766C36.9127 23.6161 37.1394 23.7773 37.1847 23.6362C37.0538 23.6917 36.9379 23.5456 36.822 23.6766ZM41.8597 23.7571C41.9202 23.6866 41.9605 23.6161 41.8295 23.6362C41.7943 23.6665 41.8295 23.7571 41.8597 23.7571ZM38.4694 23.7571C38.5399 23.7118 38.8724 23.8276 38.9378 23.6966C38.8371 23.6966 38.55 23.6614 38.4694 23.7571ZM41.6078 24.1249C41.6683 23.9586 41.8396 23.8528 41.6784 23.6865C41.6277 23.8269 41.6038 23.9757 41.6078 24.1249ZM41.5625 23.8478C41.6079 23.8478 41.5625 23.7622 41.5927 23.7471C41.5323 23.7168 41.5222 23.8377 41.5625 23.8478ZM36.3132 23.9889C36.3132 23.9486 36.4392 23.7874 36.3132 23.7571C36.3132 23.8226 36.2477 23.9385 36.3132 23.9889ZM35.9354 24.4926C36.0518 24.2826 36.0944 24.0396 36.0563 23.8025C35.9152 23.9134 35.9001 24.3415 35.9354 24.4926ZM41.5625 24.4926C41.8497 24.8705 41.8245 24.2508 41.8195 24.0694C42.2124 23.8226 41.5776 23.9737 41.5625 24.4926ZM35.5727 24.4624C35.5919 24.3641 35.5813 24.2625 35.5424 24.1703C35.5122 24.2408 35.4669 24.4221 35.5727 24.4624ZM42.2678 24.5531C42.3736 24.5179 42.3988 24.3213 42.3585 24.2307C42.3585 24.3566 42.2376 24.402 42.2678 24.5531ZM42.1217 24.5027C42.1217 24.4372 42.1217 24.3414 42.0914 24.3112C42.0562 24.3817 42.0361 24.4624 42.1217 24.5027ZM35.7389 24.7748C35.8095 24.7748 35.8448 24.7446 35.8448 24.6841C35.7339 24.664 35.6986 24.6942 35.7389 24.7748ZM35.9505 24.8805C35.9858 24.8352 36.1168 24.7747 36.0261 24.6991C35.9959 24.6991 35.9052 24.8453 35.9505 24.8805ZM35.6029 24.9561C35.6936 24.9107 35.6029 24.9964 35.6785 25.0166C35.8095 24.8503 35.4971 24.6236 35.5475 24.8604L35.6029 24.9561ZM45.4667 23.6615C45.2249 24.7446 44.7564 23.1174 45.2199 22.8856C45.2199 22.3819 44.8874 23.4649 44.7564 22.9813C45.1493 21.8881 44.6909 20.3315 45.2249 19.4247C44.9982 19.3743 45.361 19.1074 45.1645 19.1074C45.5423 18.5079 42.3383 19.4701 43.764 18.2459C41.5021 18.8202 46.4894 17.4902 46.9075 16.8152C47.6833 17.727 49.5573 16.7094 50.9981 16.9663C49.8848 17.9336 48.1367 18.13 46.968 18.6993C47.0284 18.8353 46.8319 19.1627 46.968 19.1677C46.7614 19.7672 46.9277 20.2408 46.6708 20.6791C46.7211 20.7546 46.7765 21.2333 46.4994 21.1325C46.837 21.9386 45.7992 24.7092 45.4919 23.6815M46.7413 17.1325C46.9378 17.1829 46.847 17.3593 46.9982 17.3744C47.1997 17.2283 46.9982 16.664 46.7413 17.1325ZM50.3936 17.062C49.9654 17.3945 50.4994 17.2081 50.7261 17.062C50.585 17.0116 50.5498 17.062 50.3936 17.062ZM48.7614 17.2837C48.8722 17.2837 48.9327 17.2737 48.9428 17.2535C48.8806 17.2452 48.8174 17.2556 48.7614 17.2837ZM48.9931 17.5154C48.9931 17.4197 49.1996 17.5154 49.2148 17.4046C49.1694 17.4348 48.9226 17.4045 48.9931 17.5154ZM49.6984 17.6363C49.7841 17.6111 50.0057 17.5961 49.9704 17.4852C49.869 17.5132 49.7757 17.5649 49.6984 17.6363ZM48.1316 17.5456C48.2223 17.601 48.3735 17.6464 48.4188 17.5456C48.3382 17.5456 48.177 17.4499 48.1316 17.5456ZM48.585 17.6363C48.6858 17.5859 48.8218 17.596 48.9125 17.5154C48.7916 17.5557 48.6455 17.5154 48.585 17.6363ZM47.104 17.8429C47.4218 17.8019 47.7354 17.7327 48.041 17.6363C47.88 17.5901 47.7099 17.5848 47.5463 17.6209C47.3827 17.657 47.2307 17.7333 47.104 17.8429ZM46.968 17.8882C46.968 17.8882 46.968 17.8429 46.9226 17.8126C46.8773 17.7824 46.8924 17.9133 46.968 17.8882ZM48.2223 18.0998C48.4037 18.0394 48.8168 18.0595 48.8823 17.858C48.711 17.9688 48.3785 17.9739 48.2223 18.0998ZM45.0536 18.2207C45.2934 18.1801 45.527 18.109 45.7488 18.0092C45.5051 18.0318 45.2686 18.1038 45.0536 18.2207ZM44.0159 18.266C44.1589 18.1762 44.3154 18.11 44.4793 18.0696C44.3922 18.0646 44.3051 18.0798 44.2247 18.1138C44.1444 18.1479 44.0729 18.1999 44.0159 18.266ZM45.2501 18.2962C45.38 18.2771 45.507 18.2416 45.6279 18.1905C45.5611 18.1819 45.4932 18.1869 45.4283 18.2051C45.3634 18.2233 45.3028 18.2542 45.2501 18.2962ZM47.0435 18.4474C47.0838 18.4474 47.0687 18.4928 47.0435 18.4928C48.1015 18.3517 48.0511 18.1199 47.0435 18.4474ZM44.4793 18.387C44.6204 18.387 44.7816 18.3869 44.8421 18.266C44.7123 18.2721 44.5868 18.3141 44.4793 18.387ZM44.9176 18.7648C45.0083 18.7648 45.2854 18.7648 45.3559 18.6892C45.2059 18.6796 45.0558 18.7056 44.9176 18.7648ZM44.6153 18.8252C44.708 18.8153 44.7993 18.7951 44.8874 18.7648C44.7967 18.7648 44.6506 18.7245 44.6153 18.8252ZM44.3282 18.8957C44.4441 18.8957 43.8899 18.7547 43.8244 18.8252C43.7136 19.0318 44.1972 18.8604 44.3282 18.8957ZM45.3358 20.0443C45.4718 20.0745 45.4869 20.009 45.6078 20.0443C45.6078 19.9486 45.3761 20.0443 45.3358 20.0443ZM46.0007 20.9058C46.0561 20.8454 45.8345 20.8353 45.8496 20.8756C45.8647 20.9159 45.9 20.931 46.0007 20.9058ZM45.8345 21.5204C45.8345 21.4398 46.0007 21.329 45.8345 21.2685C45.8345 21.3189 45.7488 21.46 45.8345 21.5204ZM46.4189 21.5204C46.5448 21.5557 46.4844 21.4145 46.4189 21.4196C46.4089 21.4345 46.4036 21.4521 46.4036 21.47C46.4036 21.4879 46.4089 21.5055 46.4189 21.5204ZM45.769 21.7521C45.9252 21.7824 45.8295 21.6009 45.7992 21.5405C45.7287 21.606 45.8496 21.6766 45.769 21.7521ZM46.2728 22.7597C46.1065 22.7244 46.2274 22.4121 46.3584 22.2559C46.4038 21.5154 46.1065 22.4926 46.0763 22.7999C46.0763 22.7445 46.2677 22.7647 46.2728 22.7395M45.4264 22.6035C45.5473 22.5178 45.3105 22.3416 45.4264 22.1249C45.2602 22.0494 45.2853 22.4977 45.4264 22.6035ZM45.3962 23.1476C45.3458 23.1023 45.3962 23.0316 45.3055 23.0568C45.2148 23.082 45.3055 23.1526 45.3962 23.1476ZM45.366 23.3743C45.5624 23.3743 45.4718 23.1325 45.3358 23.1627C45.2803 23.2736 45.4163 23.2634 45.366 23.3743ZM45.1695 23.2988C45.3509 23.2988 45.2149 23.2634 45.1695 23.208C45.1242 23.1526 45.1393 23.2081 45.1695 23.2988ZM45.7287 23.475C45.7741 23.4397 45.7287 23.3692 45.769 23.3138C45.6632 23.2634 45.6128 23.4347 45.7287 23.475ZM45.3358 23.5355C45.4667 23.5708 45.4768 23.4548 45.366 23.4347C45.3256 23.4145 45.2199 23.4095 45.2652 23.4548L45.3358 23.5355ZM55.9804 18.6389C55.8746 20.0797 55.1996 22.1652 54.4691 22.8453C53.7991 24.3213 51.6379 22.9814 51.4968 23.4045C51.8646 23.6463 51.7134 23.6413 51.3457 23.7471C51.5875 23.873 51.5422 23.6916 51.512 23.9586C51.1392 24.1752 51.1694 27.1827 50.2022 26.8704C50.5095 26.3666 50.0611 26.538 49.8596 26.4372C50.2072 26.1803 50.0964 25.5959 49.8596 25.2281C50.2374 23.0266 49.5725 20.8453 51.2702 18.4474C52.8621 16.2409 51.7084 18.3416 52.8268 18.0494C52.8268 17.8882 53.0484 18.0041 52.9225 17.8227C53.7134 17.2232 55.8141 17.4601 55.9451 18.6389M51.1795 20.2811C51.1795 20.2105 51.4112 20.009 51.2702 19.9335C51.2702 20.0443 51.0082 20.1853 51.1795 20.2811ZM51.1795 18.805C51.1543 18.9058 50.9427 18.9965 51.0586 19.1225C51.0586 19.0167 51.3558 18.9008 51.1795 18.805ZM51.0183 21.5053C50.7261 22.3164 51.1895 22.2207 51.119 21.5053C51.0838 21.5708 51.0636 21.5406 51.0183 21.5053ZM50.8671 22.2156C50.8168 22.2811 50.7311 22.4927 50.8671 22.528C50.978 22.4423 51.1089 22.2357 50.8671 22.2156ZM50.3634 21.4145C50.1568 22.014 50.8671 20.6287 50.7764 20.1904C50.5397 20.538 50.6001 20.9662 50.2727 21.3541C50.3432 21.3541 50.3835 21.3541 50.3886 21.4145M50.6959 23.8377C50.3684 23.2281 50.4994 24.946 50.6253 24.0946C50.615 24.0493 50.616 24.0022 50.6283 23.9574C50.6407 23.9125 50.6639 23.8714 50.6959 23.8377ZM50.318 23.8377C50.3382 23.7571 50.3029 23.7269 50.2122 23.7471C50.187 23.8327 50.2626 23.8881 50.318 23.8377ZM50.2727 23.6161C50.4792 23.4649 50.721 22.4222 50.4843 22.2761C50.3447 22.7091 50.2733 23.1611 50.2727 23.6161ZM50.6052 26.0996C50.9225 25.6513 50.4289 25.9988 50.4389 26.3313C50.6757 26.4019 50.5447 26.2205 50.6052 26.0996ZM50.4087 25.1828C50.6757 25.0317 50.6959 24.6337 50.8016 24.3869C50.4843 24.5128 50.5195 24.8907 50.4087 25.1828ZM50.9528 24.0393C50.9528 23.606 51.2651 23.4851 50.7714 23.2534C50.5347 23.2836 50.6455 23.4146 50.8016 23.6564C51.0082 23.2332 50.6808 24.135 50.9528 24.0393ZM51.0989 23.1173C51.5522 22.8 51.0989 22.1098 51.0687 22.7698C50.7261 22.5834 51.1442 22.9864 51.0989 23.1173ZM52.2021 18.0343C52.4339 17.5003 51.9906 17.4247 51.8394 17.9436C52.0158 17.8932 52.056 18.0091 52.2021 18.0343ZM54.4036 17.7773C54.3029 17.9033 54.4943 17.9134 54.4943 17.8076C54.4489 17.8076 54.4439 17.7773 54.4036 17.7773ZM54.3129 17.5809C54.2041 17.5396 54.0867 17.5262 53.9714 17.5421C53.8561 17.5579 53.7466 17.6024 53.653 17.6716C53.8344 17.6161 54.1567 17.7069 54.3129 17.5809ZM54.0107 17.7773C53.8286 17.8098 53.6554 17.8805 53.5026 17.9847C53.3498 18.0889 53.2207 18.2243 53.124 18.382C53.4212 18.1855 53.7084 17.9587 54.0107 17.7773ZM52.323 21.5053C52.3835 21.5708 52.449 21.4397 52.4893 21.4145C52.2777 21.2332 52.4389 21.2685 52.323 21.5053ZM52.323 18.8303C52.7412 18.7144 53.0787 17.9285 53.6328 17.6867C52.3936 18.4625 52.6857 17.9638 52.323 18.8303ZM53.1693 22.2761C53.5925 22.0343 53.9603 21.6312 53.2147 21.9738C52.4843 21.868 52.4489 22.4776 53.1693 22.2761ZM53.9351 21.8831C53.8041 22.0998 53.6077 22.271 53.4716 22.4826C53.7135 22.4524 54.0862 21.9788 53.9351 21.8831ZM52.6555 23.072C52.5397 23.344 53.119 23.072 52.7664 23.072C52.7299 23.0634 52.692 23.0634 52.6555 23.072ZM52.9578 23.5053C52.9981 23.3592 52.6505 23.4196 52.6555 23.5053C52.7013 23.5323 52.7535 23.5466 52.8066 23.5466C52.8598 23.5466 52.912 23.5323 52.9578 23.5053ZM52.988 22.4977C53.0434 22.4121 52.9074 22.4322 52.9578 22.3617C52.7311 22.3365 52.8117 22.6589 52.988 22.4977ZM53.3306 23.0418C53.2399 23.0418 52.9678 23.072 53.0484 23.2231C53.119 23.1828 53.3004 23.1426 53.3306 23.0418ZM53.124 23.4498C53.5018 23.4145 54.2575 22.9461 54.0711 22.7395C53.8746 23.1173 53.3457 23.213 53.124 23.4498ZM54.1618 21.3189C54.5799 21.0166 54.4137 20.4322 54.6001 20.1753C55.7285 15.0822 49.638 24.1299 54.1618 21.3189ZM54.4489 21.3189C53.9452 22.4826 55.0384 21.0217 54.9175 20.4877C54.6908 20.7245 54.7058 21.1022 54.4489 21.3189ZM54.3583 22.7647C54.6651 22.5505 54.8764 22.2252 54.9477 21.8579C54.6835 22.1035 54.4531 22.3829 54.2625 22.6891L54.3583 22.7647ZM57.9451 22.0695C59.4262 20.805 60.8468 18.5432 62.2725 17.7573C62.8166 17.0671 63.1239 20.5884 62.7763 21.1778C62.7763 21.8075 62.1969 25.2079 61.673 23.9334C60.5294 22.1853 62.5597 19.0317 60.0912 21.5405C60.0207 22.0442 58.2575 22.5985 58.2524 22.8856C55.4061 25.9385 56.9678 18.5834 57.8141 17.0721C58.9174 18.2207 58.1818 20.4725 57.9602 22.0695M62.5646 18.2861C62.5143 18.0695 62.5647 17.8278 62.4085 17.6263C62.2624 17.8883 62.3581 18.5078 62.5646 18.2861ZM57.4917 18.2106C57.5421 17.4499 56.9879 19.6565 57.0887 20.125C57.2903 19.5029 57.4254 18.8612 57.4917 18.2106ZM61.5219 19.6564C61.7335 19.5153 61.4463 19.4347 61.4765 19.6564C61.4765 19.6866 61.5471 19.5859 61.5219 19.6564ZM61.3858 19.8983C61.4816 19.8983 61.532 19.7068 61.4161 19.7169C61.4514 19.7874 61.2448 19.8379 61.3858 19.8983ZM62.2422 20.2911C62.2422 20.1753 62.3279 20.0192 62.2422 19.8983C62.2019 19.9336 62.1213 20.2609 62.2422 20.2911ZM61.2347 20.0493C61.1994 20.1854 60.8468 20.3718 60.9324 20.4423C59.9702 21.6614 61.1843 20.1501 61.3707 20.1551C61.2952 20.0392 61.4362 19.9789 61.2801 19.8882C61.3204 19.8882 61.28 20.0947 61.2347 20.0493ZM62.1969 21.2685C62.3279 21.1174 62.2775 20.8252 62.2473 20.654C62.217 20.5683 62.0055 20.9209 62.1969 21.2685ZM57.2096 21.8176C57.4239 21.4022 57.5312 20.9399 57.5219 20.4726C57.3624 20.9062 57.2575 21.358 57.2096 21.8176ZM59.9853 21.1376C60.1617 21.0519 60.0206 21.1375 59.9853 21.0922C59.9501 21.0468 59.9853 21.0922 59.9853 21.1376ZM62.1566 21.5909C62.2372 21.5556 62.1969 21.4801 62.1566 21.4398C62.1163 21.3994 62.0508 21.601 62.1566 21.5909ZM59.26 21.7874C59.5032 21.5905 59.729 21.3731 59.935 21.1376C59.5032 21.4596 59.1004 21.8186 58.731 22.2105C58.9022 22.0644 59.1138 21.9285 59.2347 21.7874M61.9803 22.0896C62.0048 21.9605 61.9834 21.8269 61.9199 21.7118C61.8796 21.7974 61.8745 22.0342 61.9803 22.0896ZM61.5874 23.7319C61.4871 23.1906 61.4465 22.6398 61.4665 22.0896C61.3413 22.6368 61.3834 23.209 61.5874 23.7319ZM62.0408 22.6287C62.0408 22.5783 62.0407 22.5431 62.076 22.5229C62.2725 22.1401 61.6327 22.6237 62.0408 22.6287ZM61.9501 22.8554C62.0156 22.8554 61.9501 22.7496 61.9803 22.7193C62.0105 22.6891 61.9047 22.8302 61.9501 22.8554ZM58.5244 22.2811C58.5697 22.392 58.4993 22.2811 58.4489 22.3264C58.4842 22.407 58.6907 22.2862 58.5244 22.2811ZM58.6151 22.5531C58.6856 22.5782 58.6504 22.4927 58.7209 22.5229C58.7209 22.4222 58.5698 22.5228 58.6151 22.5531ZM57.1038 22.7345C57.2297 22.7597 57.2045 22.6639 57.2096 22.5833C57.129 22.5833 57.129 22.674 57.1038 22.7345ZM61.8241 23.4599C61.9148 23.4599 61.94 23.3592 61.8241 23.3692C61.8358 23.3814 61.8424 23.3977 61.8424 23.4146C61.8424 23.4315 61.8358 23.4477 61.8241 23.4599ZM61.9299 24.2004C62.0105 24.0795 62.2322 23.8175 62.1063 23.8226C62.0609 23.9435 61.804 24.0392 61.9299 24.2004ZM56.9376 23.7723C57.1744 23.7723 57.0383 23.5052 56.9376 23.47C56.9212 23.5496 56.8923 23.6261 56.8519 23.6966L56.9376 23.7723ZM67.3404 22.261C67.4562 22.1199 66.9273 22.0493 67.1036 21.6715C66.5389 20.9433 66.1183 20.1141 65.8644 19.2283C65.3102 20.1653 65.6527 23.2584 64.2523 23.7218C63.7485 22.3617 64.1868 20.5784 64.3984 19.2383C65.8392 14.6641 67.1389 20.0797 68.3681 21.2786C69.8794 17.7522 71.7232 15.0772 72.0456 20.5682C72.2169 20.6388 72.0456 20.9108 72.2572 20.9612C72.3428 21.5909 72.5242 22.4725 72.6954 23.2382C72.4738 22.9914 72.4436 23.6262 72.1917 23.5103C72.0002 23.6866 72.3983 24.0141 72.101 24.0393C71.9549 23.1426 70.9726 22.3868 71.028 21.6715C70.8391 21.2294 70.7218 20.76 70.6804 20.2811C70.4839 20.1954 70.6804 19.8932 70.5293 19.8176C69.5217 20.5229 68.8819 25.5959 67.3152 22.261M71.6124 19.1074C71.8895 20.5582 71.703 18.7093 71.5015 18.1501C71.2748 17.1426 71.4461 18.8857 71.6124 19.1074ZM65.5672 17.9134C65.6528 17.9637 65.683 17.7774 65.5672 17.7925C65.577 17.8322 65.577 17.8737 65.5672 17.9134ZM69.9449 19.3643C69.5922 20.7295 70.2572 19.2584 70.3932 18.6539C70.1565 18.6539 70.1716 19.2383 69.9449 19.3643ZM66.8014 18.8605C66.7927 18.832 66.7771 18.806 66.756 18.7849C66.735 18.7638 66.709 18.7483 66.6805 18.7396C66.7107 18.79 66.7107 18.8656 66.8014 18.8605ZM66.0054 19.1326C66.081 19.1326 66.1162 19.0519 66.0356 19.0418C66.0608 19.1023 66.0054 19.0822 66.0054 19.1326ZM70.6653 19.2987C70.6149 19.2685 70.7056 19.1325 70.635 19.1728C70.5645 19.2131 70.5847 19.2836 70.6653 19.2987ZM71.2245 19.2987C71.2245 19.2584 71.3202 19.1879 71.2245 19.1879C71.2497 19.1879 71.1942 19.2987 71.2245 19.2987ZM66.1263 19.329C66.1666 19.2988 66.1263 19.203 66.0809 19.2081C66.0783 19.2304 66.0811 19.253 66.089 19.274C66.0969 19.295 66.1097 19.3139 66.1263 19.329ZM66.7913 19.7472C67.1389 20.1955 67.295 20.941 67.6628 21.1778C67.4865 20.7597 66.4588 18.4726 66.7913 19.7472ZM67.0432 19.329C67.2598 19.9335 67.8139 21.1627 68.0507 21.8478C68.0809 20.9713 67.1288 19.4398 67.0432 19.329ZM71.1186 20.4877C71.295 20.2106 71.0633 19.596 70.9827 19.2182C70.9572 19.646 71.0031 20.075 71.1186 20.4877ZM70.6653 19.6162C70.6482 19.5095 70.6586 19.4002 70.6955 19.2987C70.5847 19.2383 70.5595 19.5809 70.6653 19.6162ZM65.4916 19.4348C65.5974 19.4348 65.6226 19.2937 65.4916 19.329C65.6074 19.3743 65.4563 19.3642 65.4916 19.4348ZM66.2774 19.6766C66.2928 19.6228 66.2925 19.5657 66.2764 19.5121C66.2604 19.4585 66.2292 19.4108 66.1868 19.3744C66.1364 19.465 66.2673 19.5909 66.2774 19.6766ZM71.2245 19.4448C71.2245 19.5305 71.2245 19.5758 71.2849 19.4448C71.3454 19.3139 71.2849 19.4448 71.2245 19.4448ZM65.4764 19.4953C65.416 19.7623 65.6628 19.9587 65.5319 19.6212C65.4613 19.5809 65.683 19.4096 65.4764 19.4953ZM64.9727 19.7371C64.9618 19.7206 64.9561 19.7013 64.9561 19.6816C64.9561 19.6619 64.9618 19.6427 64.9727 19.6263C64.9727 19.465 64.8367 19.732 64.9727 19.7371ZM64.6856 21.6967C64.9206 21.0689 65.0516 20.407 65.0734 19.7371C64.8502 20.3682 64.7196 21.0282 64.6856 21.6967ZM66.3127 19.8075C66.353 19.8075 66.343 19.8831 66.3883 19.8378C66.4336 19.7925 66.3127 19.7622 66.3127 19.8075ZM66.4034 19.9587C66.4034 19.8932 66.4034 19.8781 66.3279 19.8882C66.3279 19.9336 66.3731 19.9587 66.4034 19.9587ZM65.4966 20.1099C65.4563 20.0595 65.4664 20.0091 65.5268 19.9587C65.4059 19.8579 65.3808 20.1552 65.4966 20.1099ZM65.3656 20.412C65.4815 20.5884 65.2347 20.7647 65.3052 20.9562C65.5017 20.8352 65.5067 19.8629 65.3656 20.412ZM68.7257 21.6212C68.974 21.2408 69.1579 20.8221 69.2698 20.3819C69.0275 20.7655 68.8441 21.1832 68.7257 21.6212ZM69.9802 20.4877C69.9802 20.4474 70.0658 20.4172 69.9802 20.397C69.8945 20.3769 69.8895 20.4927 69.9802 20.4877ZM65.2548 21.3189C65.2548 21.2735 65.3354 21.0671 65.2548 21.0318C65.3203 21.1376 65.0936 21.2483 65.2548 21.3189ZM67.5167 21.8882C67.6779 21.8882 67.4865 21.5758 67.416 21.601C67.3706 21.7219 67.5722 21.7773 67.5167 21.8882ZM69.028 21.7874C69.1036 21.7623 69.1036 21.7319 69.1791 21.6967C69.1633 21.6922 69.1466 21.6911 69.1303 21.6932C69.1139 21.6954 69.0981 21.7008 69.0839 21.7093C69.0698 21.7178 69.0575 21.7291 69.0479 21.7426C69.0383 21.756 69.0316 21.7713 69.028 21.7874ZM64.7964 22.5833C64.8568 22.9511 65.2044 21.9738 65.1439 21.7572C64.9122 22.004 65.013 22.3163 64.7964 22.5833ZM68.1414 22.1602C68.217 22.1602 68.2321 21.999 68.1867 21.9788C68.1867 22.0645 68.1364 22.0746 68.1414 22.1602ZM68.3983 22.0091C68.3983 22.0595 68.4537 22.0544 68.4285 22.1199C68.5645 22.1199 68.5041 21.9436 68.3983 22.0091ZM64.4941 22.3113C64.4437 22.2609 64.5344 22.1753 64.4639 22.13C64.4639 22.1904 64.3833 22.2961 64.4941 22.3113ZM64.2623 22.9914C64.2321 22.7899 64.348 22.6791 64.1918 22.4876C64.1856 22.6584 64.2095 22.8289 64.2623 22.9914ZM68.5494 22.8705C68.6552 22.8705 68.5898 22.9158 68.5948 22.9611C68.9273 22.669 68.8467 22.3667 68.5494 22.8705ZM68.2623 22.8251C68.3681 22.7344 68.4336 22.7042 68.2623 22.5984C68.217 22.6287 68.2875 22.7949 68.2623 22.8251ZM68.0658 22.7496C68.0658 22.7496 68.0658 22.7042 68.096 22.674C68.1414 22.5581 67.9399 22.674 68.0658 22.7496ZM64.4034 22.8251C64.484 22.7344 64.5344 22.6891 64.4034 22.7042C64.4034 22.7445 64.3329 22.805 64.4034 22.8251ZM68.4336 22.9763C68.3239 23.0637 68.2417 23.1808 68.1968 23.3138C68.1968 23.5354 68.7006 23.0216 68.4336 22.9763ZM64.5294 23.0972C64.5294 23.1677 64.4337 23.213 64.2976 23.2332C64.3883 23.4599 64.5344 23.2332 64.5294 23.0972ZM64.2976 23.6514C64.4085 23.6514 64.3581 23.5607 64.4085 23.5204C64.2321 23.4902 64.2019 23.4549 64.2976 23.6514ZM64.2674 23.4296C64.1163 23.1223 64.1264 23.2685 64.2271 23.5002C64.1818 23.4095 64.217 23.4247 64.2271 23.3844L64.2674 23.4296ZM75.1589 19.3744C75.2546 19.6414 75.1287 19.8781 75.0682 20.2459C76.6702 18.3164 82.1613 14.8101 77.5266 19.5557C76.2269 20.3063 77.3554 21.344 77.4057 22.0745C77.9498 22.7596 77.7684 24.1703 78.2017 24.4272C77.975 24.4272 78.0556 24.4272 77.9498 24.538C78.3478 24.9511 77.9044 25.5455 77.8591 24.6991C77.4913 25.5807 77.5971 24.3919 76.9221 24.4775C77.1337 24.3163 77.3302 24.397 77.4662 24.3063C77.1538 24.3063 77.2546 24.3768 77.0279 24.0342H77.1186C76.1412 22.6892 76.1563 23.6412 75.7785 21.0821C74.3982 21.7823 74.5746 22.9612 73.8189 24.1047C73.4159 23.3188 73.6023 21.3944 73.8189 20.1955C73.7824 20.0649 73.7771 19.9276 73.8033 19.7946C73.8296 19.6616 73.8867 19.5366 73.97 19.4297C73.7433 19.3642 74.2622 18.9915 74.0304 19.0922C73.9146 18.926 74.1615 18.9512 74.1967 18.8504C73.9499 18.8756 74.1262 18.6992 74.2269 18.6741C73.9247 18.6388 74.4033 18.3467 74.3781 18.2358C74.0406 18.261 74.509 18.0494 74.3377 18.0393C74.3377 17.9184 74.111 17.9738 74.4083 17.8076C74.4838 17.7018 74.3478 17.7522 74.373 17.8076C74.0859 17.8781 74.8516 17.1779 74.5292 17.4197C75.436 15.853 75.6375 17.7975 75.3151 18.4575C75.3346 18.4865 75.345 18.5208 75.345 18.5557C75.345 18.5907 75.3346 18.6248 75.3151 18.6539C75.3151 18.805 75.3151 19.2384 75.1942 19.3794M74.6904 17.4298C74.7609 17.4298 74.9372 17.3239 74.7962 17.2786C74.7962 17.3391 74.7156 17.3844 74.6904 17.4298ZM78.8817 17.6413C78.9623 17.6413 78.9976 17.6414 78.9926 17.6011C78.9875 17.5608 78.9271 17.601 78.8817 17.6413ZM74.6501 19.0721C74.7004 19.0418 74.7609 18.9311 74.6803 18.8908C74.6872 18.9529 74.6767 19.0156 74.6501 19.0721ZM76.7609 19.5104C76.9523 19.4701 76.9826 19.2182 77.2093 19.2434C77.0632 19.0419 76.8566 19.3845 76.7609 19.5104ZM74.6501 19.3492C74.7055 19.2686 74.4486 19.586 74.5393 19.7724C74.3881 20.0243 74.101 21.9033 74.5091 20.7497C74.4234 20.7849 74.4788 20.3013 74.5393 20.387C74.5745 20.0192 74.6501 19.7068 74.6501 19.3492ZM76.6097 19.6917C76.6903 19.7471 76.776 19.5909 76.7306 19.5405C76.6795 19.5811 76.6381 19.6328 76.6097 19.6917ZM75.8692 20.3264C76.0103 20.1098 76.2521 20.0041 76.373 19.7421C76.1916 19.8731 75.9095 20.0796 75.8692 20.3264ZM73.9801 20.387C73.9801 20.4323 73.9801 20.4171 73.9801 20.4625C73.9801 20.5078 74.0607 20.2912 73.9801 20.387ZM73.7886 20.7043C73.8239 20.674 73.9347 20.7346 73.9095 20.6439C73.8844 20.5532 73.7332 20.6438 73.7886 20.7043ZM75.0984 21.208C75.2949 21.208 75.3503 21.0569 75.4914 20.9713C75.3535 21.0381 75.2219 21.1173 75.0984 21.208ZM76.7609 21.1778C76.7609 21.1274 76.7609 21.0418 76.7004 21.0468C76.7142 21.0931 76.7346 21.1372 76.7609 21.1778ZM74.7962 21.5405C74.8969 21.5606 74.9523 21.5405 74.9624 21.4801C74.9271 21.4398 74.7861 21.48 74.7962 21.5405ZM76.3629 21.6664C76.4939 21.6916 76.2823 21.737 76.4233 21.7974C76.4233 21.7269 76.504 21.601 76.3932 21.5607C76.4234 21.6161 76.3629 21.616 76.3629 21.6664ZM76.0908 22.1702C76.1866 22.1702 76.2017 22.1349 76.1413 22.0594C76.1916 22.145 76.0959 22.1148 76.0908 22.1702ZM76.5946 22.4675C76.5946 22.3466 76.4586 22.3365 76.6249 22.2004C76.4385 22.14 76.4183 22.4926 76.5946 22.4675ZM76.1866 22.3617C76.5191 22.3063 76.1009 22.3265 76.2168 22.266C76.3326 22.2055 76.0758 22.266 76.1866 22.3617ZM76.8667 22.8655C77.2898 23.5506 76.8969 22.4474 76.6853 22.2761C76.6853 22.4927 76.8465 22.6539 76.8667 22.8655ZM76.2168 22.7294C76.3175 22.6337 76.0657 22.4826 76.1261 22.3819C76.0002 22.3819 76.1664 22.6539 76.2168 22.7294ZM76.6047 22.6539C76.6047 22.5834 76.6652 22.6236 76.6853 22.5783C76.5695 22.4674 76.4989 22.5783 76.6047 22.6539ZM76.776 23.0619C77.0078 23.0619 76.645 22.8906 76.7458 22.7143C76.509 22.5682 76.7458 22.9762 76.776 23.0619ZM73.8944 23.0619C74.0707 23.0619 73.8944 22.6488 73.8944 22.9359C73.8944 22.9611 73.8944 23.0014 73.8944 23.0619ZM76.776 23.1375C76.9624 23.2735 76.9876 23.1123 76.8062 23.077C76.8055 23.0886 76.8025 23.0999 76.7973 23.1103C76.7921 23.1207 76.7849 23.13 76.776 23.1375ZM73.7232 23.2887C73.7635 23.2534 73.8038 23.0972 73.693 23.1073C73.7887 23.1727 73.6577 23.2333 73.7232 23.2887ZM77.4662 23.9334C77.5367 23.8074 77.4208 23.5808 77.3453 23.48C77.2949 23.5909 77.4158 23.8477 77.4662 23.9334ZM77.179 23.5406C77.2294 23.6212 77.0178 23.6514 77.2093 23.6514C77.2546 23.5405 77.0732 23.5204 77.179 23.5406ZM73.6526 23.8025C73.7332 23.9839 73.7886 23.8781 73.8541 23.8025C73.7836 23.8025 73.703 23.7723 73.6526 23.8025ZM77.5317 24.2105C77.5317 24.1853 77.3856 24.1702 77.3805 24.2105C77.4359 24.1752 77.4863 24.2558 77.5317 24.2105ZM77.5317 24.6438C77.7382 24.6035 77.3654 24.4019 77.5317 24.5732C77.5065 24.553 77.5065 24.5783 77.5065 24.6186L77.5317 24.6438ZM82.8817 17.3643C83.7482 17.1276 83.6676 17.2787 83.9547 17.3643C83.8238 17.6061 84.5441 17.7219 84.2671 17.5507C83.99 17.3794 84.267 17.5154 84.4232 17.4348C84.927 18.125 85.8489 18.1301 85.3753 19.2636C85.3753 20.5633 85.5517 23.0619 85.2544 20.805C85.2544 19.334 84.796 21.5607 85.2846 22.13C85.2091 22.6892 85.9345 23.062 85.5063 24.0393C85.0479 24.2811 85.194 24.1148 84.6953 23.7723C83.9598 23.9032 84.3981 22.684 83.8338 22.9258C79.8037 26.1248 78.0506 22.0141 81.315 18.5079C81.7885 18.1603 82.5441 17.6364 82.8968 17.3643M82.8666 17.722C82.5643 18.1149 83.1638 17.8782 83.3401 17.722C83.1638 17.6212 83.053 17.8227 82.8666 17.722ZM83.3703 18.0544C83.4963 18.2358 83.6978 18.0545 83.8086 17.9638C83.7129 17.863 83.4258 17.9638 83.3703 18.0544ZM83.8086 18.2358C83.854 18.2358 83.859 18.2711 83.8993 18.3114C83.9295 18.1401 84.0202 18.1452 83.8086 18.2358ZM82.5442 18.6438C82.7306 18.6438 83.0832 18.4978 83.0479 18.3114C82.7658 18.3114 82.7154 18.4977 82.5442 18.6438ZM84.0202 18.8857C83.9648 18.795 84.0454 18.5733 83.8691 18.5834C83.9144 18.6338 83.8993 18.926 84.0202 18.8857ZM83.4308 18.7748C83.4308 18.7446 83.3804 18.7244 83.4005 18.6741C83.2242 18.7899 82.8968 18.7598 82.8263 19.0066C82.8263 18.8656 82.5844 19.2736 82.4686 19.3643C82.126 19.0872 82.6046 19.5708 82.393 19.5054C81.5819 19.7472 82.0001 19.5708 81.9397 20.1803C81.7785 19.6766 81.6021 20.9159 81.4863 21.3592C81.4258 21.2383 81.4208 21.4448 81.3654 21.3592C80.8918 22.931 81.9951 21.7169 82.7406 21.5103C79.5064 23.5254 83.6675 22.4926 83.597 19.9083C83.9849 20.4675 83.7834 17.8932 83.4308 18.7748ZM85.1789 20.0746C85.1789 20.0242 85.1789 19.999 85.1789 19.994C85.2796 19.7623 84.9572 20.0544 85.1789 20.0746ZM83.5214 20.2861C83.5769 20.5581 83.6675 20.3365 83.7179 20.1955C83.6121 20.1652 83.6323 20.3214 83.5214 20.2861ZM81.2445 20.5582C80.6702 21.5254 80.8364 23.4196 81.2747 21.3289C81.1336 21.0821 81.7785 20.2156 81.2445 20.5582ZM83.6273 20.936C83.5819 21.2534 82.927 22.407 83.2796 22.0795C83.5114 21.8327 84.2872 20.3768 83.6273 20.936ZM84.1864 22.13C84.3174 22.0796 84.4333 21.9839 84.3678 21.8579C84.1764 21.8579 84.2368 21.9285 84.1864 22.13ZM83.7482 22.1602C83.7834 22.0494 83.859 22.0695 83.8993 21.9788C83.8086 21.9234 83.6827 22.1048 83.7482 22.1602ZM83.6776 22.4121C83.6474 22.0343 81.587 24.1702 83.2796 23.0921C82.6852 23.1778 84.6499 22.4422 83.6776 22.3062V22.4121ZM84.3678 23.0619C84.4151 23.0587 84.4623 23.0692 84.5038 23.0921C84.393 22.4926 84.2872 22.3717 84.3678 23.0619ZM81.9094 22.7143C82.0756 22.7143 82.2066 22.7144 82.2419 22.5179C82.1763 22.5272 82.1131 22.5492 82.0561 22.5829C81.999 22.6167 81.9492 22.6613 81.9094 22.7143ZM80.252 23.3188C81.8389 24.0392 80.7558 23.3188 80.1009 22.7294C80.1009 22.9864 80.257 23.072 80.252 23.3188ZM80.9875 22.7899C80.9875 23.0066 81.2847 22.9964 81.4157 22.9561C81.2495 22.9561 81.1638 22.7144 80.9875 22.7899ZM82.0606 23.2937C82.257 23.3592 82.5643 23.2634 82.5643 23.082C82.5643 22.9007 82.1109 23.1577 82.0606 23.2937ZM83.7179 23.1274C83.7087 23.1068 83.7067 23.0837 83.7121 23.0618C83.7176 23.0398 83.7303 23.0204 83.7482 23.0065C83.6021 23.0065 83.6273 23.0771 83.4912 23.0065C83.5315 23.1123 83.6423 23.0821 83.7179 23.1274ZM80.3729 23.8377C80.2117 23.606 80.0051 23.3945 79.8288 23.1728C79.8093 23.2537 79.8088 23.338 79.8274 23.4192C79.8459 23.5003 79.8829 23.576 79.9356 23.6404C79.9883 23.7048 80.0553 23.7561 80.1311 23.7903C80.207 23.8246 80.2897 23.8408 80.3729 23.8377ZM81.6827 23.4447C81.7835 23.475 81.9094 23.5002 81.9547 23.3844C81.9507 23.3416 81.9299 23.3022 81.8969 23.2748C81.8638 23.2474 81.8212 23.2342 81.7784 23.2382C81.7357 23.2423 81.6963 23.2631 81.6689 23.2962C81.6415 23.3292 81.6283 23.3719 81.6323 23.4146L81.6827 23.4447ZM89.743 22.8856C89.209 23.2282 88.267 24.3264 87.6373 23.7773C86.1713 22.3164 90.0957 20.1905 89.743 22.8856ZM88.3678 23.0368C88.4736 22.9411 88.4635 22.81 88.5542 22.7042C88.398 22.6438 88.2821 22.9461 88.3678 23.0368ZM88.7002 22.9309C88.8916 22.9309 88.8715 22.9309 88.8816 22.7345C88.7506 22.7042 88.7607 22.8352 88.7002 22.9309ZM87.8237 23.2181C87.7229 23.6513 87.9748 23.5053 88.1562 23.2937C87.9194 23.1476 88.0503 23.1173 87.7531 23.1878L87.8237 23.2181ZM91.1889 25.1627C90.7858 25.0972 90.8362 24.8252 90.9924 24.5582C91.5868 24.9108 91.209 24.0544 90.9924 24.5279C91.5264 22.2005 92.4584 24.8956 93.5112 25.1928C94.4331 26.2003 95.7278 22.674 94.6245 23.7571C90.5944 25.5002 90.9017 18.3466 92.1057 18.4474C92.5087 18.0847 92.4483 17.4398 92.1964 17.5255C92.3929 16.8 92.6447 17.5255 92.4684 17.9234C94.549 16.1048 92.0402 21.4498 93.622 22.0543C94.7908 22.3213 95.088 20.407 95.2845 20.1854C95.5868 19.6816 95.7278 16.6036 96.7051 17.4903C97.758 16.2963 96.4734 19.6817 96.5086 20.397C96.8159 20.3215 96.6094 19.8579 96.9016 19.6715C96.161 22.4574 95.486 29.621 91.6725 26.8704C91.1687 26.1752 91.2997 25.7823 90.9218 25.2634C91.6725 25.48 91.4256 24.9158 91.1687 25.1627M91.2745 24.936C91.1939 24.9612 91.0932 24.936 91.1385 25.0569C91.1556 25.0591 91.173 25.0575 91.1894 25.0524C91.2059 25.0472 91.2211 25.0387 91.2339 25.0273C91.2468 25.0158 91.2571 25.0017 91.2641 24.9859C91.2711 24.9702 91.2746 24.9532 91.2745 24.936ZM92.947 17.8479C92.947 17.984 92.947 18.0192 93.0981 17.9991C93.0276 17.8177 93.1586 17.7774 92.947 17.8479ZM96.7504 18.0292C96.8713 18.0846 96.8864 17.8277 96.8109 17.8025C96.8109 17.9083 96.7454 17.9234 96.7504 18.0292ZM95.8588 18.8303C95.9545 18.8303 95.9192 18.7446 96.025 18.8C96.1409 17.8378 96.0855 17.9688 95.8588 18.8303ZM92.2266 19.334C92.2266 21.1526 92.6498 19.5205 92.4986 18.6389C92.3173 18.8656 92.408 19.1426 92.2266 19.334ZM93.0377 19.4247C93.0377 19.1829 93.1031 19.1174 93.0377 18.9209C93.0377 19.067 92.8412 19.2937 93.0377 19.4247ZM92.6901 20.4322C92.6901 20.7848 92.5037 21.3189 92.8714 21.5356C92.8714 20.9814 92.942 19.1174 92.6901 20.4322ZM91.9697 20.1452C92.01 20.1452 92.0251 20.1451 92.0201 20.1904C92.1309 20.3718 92.0654 19.8782 91.9697 20.1452ZM92.0301 22.0141C92.2921 21.5658 91.8488 21.0418 91.9999 20.5834C92.0301 21.1677 92.3576 20.7546 92.0604 20.4322C91.7631 19.6614 91.4357 21.6464 92.0301 22.0141ZM92.3777 21.2936C92.0856 21.2936 92.3374 21.8781 92.4986 21.9134C92.4796 21.7033 92.4391 21.4955 92.3777 21.2936ZM93.5515 22.135C93.5515 22.8907 94.6095 22.4675 94.6497 21.7622C94.5233 21.9251 94.3518 22.0472 94.1566 22.1135C93.9613 22.1798 93.751 22.1872 93.5515 22.135ZM92.2568 22.5128C92.8614 23.0166 92.5037 22.1148 92.2266 21.9435C92.0704 22.1299 92.2669 22.3063 92.2568 22.5128ZM93.0679 22.135C93.1989 22.2408 93.2795 22.674 93.5213 22.4826C93.3651 22.4221 93.2644 21.8025 93.0679 22.135ZM94.5792 23.5355C95.083 23.3088 95.1787 22.9561 95.35 22.4675C95.0166 22.7615 94.7532 23.1264 94.5792 23.5355ZM92.6498 22.9964C92.8815 22.9209 92.4785 22.7344 92.3677 22.7093C92.4281 22.8503 92.4886 22.9561 92.6498 22.9964ZM93.4961 22.8453C93.6321 22.8906 93.7883 23.0266 93.8891 22.8453C93.8286 22.7999 93.5213 22.6942 93.4961 22.8453ZM92.8009 23.3138C92.8009 23.4901 93.0125 23.4498 93.1485 23.4649C93.1233 23.349 92.8966 23.2684 92.8009 23.3138ZM93.2291 23.6865C93.3082 23.7072 93.391 23.7099 93.4712 23.6942C93.5514 23.6785 93.6271 23.6449 93.6926 23.5959C93.5969 23.4649 93.3097 23.6261 93.2291 23.6865ZM91.5364 23.6865C91.6724 23.8175 91.8639 23.8377 92.0402 23.9485C92.0402 23.7672 91.7127 23.5304 91.5364 23.6865ZM91.1586 24.1903C91.1032 24.2911 91.34 24.2457 91.3098 24.1903C91.2795 24.1349 91.2241 24.1147 91.1586 24.1903ZM92.1057 24.1903C91.8689 24.2608 92.8916 25.5354 93.3752 25.6059C92.8412 25.2382 92.549 24.6387 92.1057 24.1903ZM91.6876 24.3415C91.6876 24.2407 91.6473 24.1903 91.5667 24.1903C91.5667 24.2911 91.607 24.3415 91.6876 24.3415ZM91.5364 24.5027C91.518 24.5904 91.5198 24.6811 91.5417 24.768C91.5636 24.8549 91.605 24.9357 91.6628 25.0041C91.7206 25.0726 91.7932 25.1271 91.8752 25.1633C91.9572 25.1995 92.0464 25.2164 92.1359 25.213C91.9344 24.9964 91.8941 24.5178 91.5364 24.5027ZM92.544 25.485C93.3701 25.883 92.2417 24.7143 91.9395 24.4775C92.0868 24.843 92.2908 25.183 92.544 25.485ZM93.4911 25.3641C93.3903 25.2735 93.2241 25.1173 93.2946 25.3641C93.355 25.3138 93.4659 25.4044 93.4911 25.3641ZM92.4835 26.2356C92.4885 26.0269 92.421 25.823 92.2923 25.6586C92.1637 25.4941 91.982 25.3793 91.7782 25.3339C91.9051 25.7053 92.1536 26.023 92.4835 26.2356ZM91.3249 25.7722C91.5415 26.0392 91.8287 25.4246 91.3249 25.4095C91.3954 25.47 91.3249 25.6916 91.3249 25.7722ZM92.6649 26.5832C92.3017 26.3258 91.9733 26.0229 91.6876 25.6816C91.748 26.1199 92.1611 26.689 92.6649 26.5832ZM92.952 26.4926C93.1586 26.4926 93.214 26.3465 93.4558 26.4019C92.952 25.9788 92.2921 25.6714 92.952 26.4926ZM92.5339 25.7117C92.5843 25.7973 92.4684 25.7722 92.5037 25.8629C92.7052 25.9535 92.6447 25.7973 92.5339 25.7117ZM93.481 25.8025C93.5817 25.8932 93.9545 25.9787 93.9344 25.742C93.8594 25.7155 93.7793 25.7072 93.7004 25.7177C93.6217 25.7282 93.5464 25.7573 93.481 25.8025ZM92.8765 25.7722C92.9923 26.004 93.4205 26.2759 93.6775 26.0845C93.4155 25.9988 93.209 25.6664 92.8765 25.7722ZM94.0855 26.4926C94.5591 26.0744 93.9092 26.2659 94.0553 26.6336C93.9747 26.5833 93.8135 26.5329 93.8588 26.6942C94.5238 26.9209 95.3701 25.5203 94.0855 26.4926ZM93.1636 26.6336C93.3903 26.7545 93.4608 26.5632 93.6019 26.4271C93.5465 26.3214 93.2442 26.5379 93.1636 26.6336ZM91.6876 26.5531C91.6876 26.7445 91.9797 26.8906 92.0956 26.7545C91.9142 26.7243 91.8841 26.4977 91.6876 26.5531ZM93.4508 26.946C93.6523 27.344 94.554 27.218 94.5339 26.7545C94.2316 27.0115 93.7984 26.8654 93.4508 26.946ZM92.4432 26.946C92.544 26.946 92.544 26.946 92.6347 26.9913C93.1384 27.0518 92.2619 26.6438 92.4432 26.946ZM92.1208 27.0518C92.1913 27.3893 92.7707 27.4347 92.952 27.1727C92.5843 27.2684 92.3122 26.936 92.0352 27.0619L92.1208 27.0518ZM99.4103 19.3189C99.501 19.5809 99.3802 19.8227 99.3197 20.1904C100.871 18.3265 106.478 14.649 101.773 19.5003C100.473 20.2509 101.602 21.2887 101.652 22.0192C102.201 22.6992 102.015 24.1198 102.453 24.3717C102.237 24.3717 102.302 24.3717 102.196 24.4825C102.599 24.8956 102.151 25.4901 102.105 24.6438C101.743 25.5254 101.844 24.3365 101.174 24.4221C101.38 24.2609 101.582 24.3415 101.713 24.2508C101.405 24.2508 101.501 24.3163 101.279 23.9788H101.37C99.6119 22.8957 100.695 19.5608 98.8512 22.1602C97.7429 26.2357 97.6522 21.7673 98.0502 20.1452C98.0137 20.0146 98.0084 19.8772 98.0346 19.7442C98.0609 19.6112 98.118 19.4863 98.2013 19.3794C97.9746 19.3139 98.4884 18.941 98.2617 19.0418C98.1408 18.8756 98.3928 18.9008 98.428 18.8C98.1761 18.8302 98.3524 18.6489 98.4582 18.6238C98.1509 18.5935 98.6346 18.2962 98.6094 18.1854C98.2668 18.2106 98.7454 17.994 98.564 17.989C98.564 17.8681 98.3423 17.9235 98.6396 17.7573C98.695 17.6364 98.5942 17.7119 98.5942 17.7925C98.3776 17.6111 99.0627 17.1981 98.7605 17.3593C99.6622 15.7926 99.8637 17.737 99.5413 18.397C99.5608 18.426 99.5712 18.4602 99.5712 18.4952C99.5712 18.5302 99.5608 18.5644 99.5413 18.5935C99.5413 18.7396 99.5413 19.1778 99.4204 19.3189M98.9167 17.3694C98.9872 17.3694 99.1585 17.2636 99.0224 17.2182C99.0224 17.2736 98.9368 17.324 98.9167 17.3694ZM103.108 17.5809C103.189 17.5809 103.224 17.5809 103.214 17.5406C103.204 17.5003 103.153 17.5406 103.108 17.5809ZM98.8713 19.0117C98.9217 18.9814 98.9872 18.8706 98.9015 18.8303C98.9084 18.8923 98.898 18.9552 98.8713 19.0117ZM100.982 19.4499C101.179 19.4096 101.204 19.1627 101.436 19.1829C101.289 18.9763 101.083 19.3239 100.982 19.4499ZM98.8713 19.2886C98.9268 19.208 98.6648 19.5305 98.7655 19.7119C98.6144 19.9688 98.3172 21.8377 98.7353 20.6891C98.6497 20.7244 98.7 20.2358 98.7655 20.3264C98.8008 19.9587 98.8713 19.6463 98.8713 19.2886ZM100.831 19.6313C100.917 19.6867 100.997 19.5305 100.952 19.4801C100.902 19.5222 100.861 19.5736 100.831 19.6313ZM100.09 20.2661C100.237 20.0494 100.478 19.9436 100.594 19.6816C100.413 19.8126 100.131 20.0192 100.09 20.2661ZM98.2063 20.3264C98.2063 20.3718 98.2063 20.3567 98.2063 20.4021C98.2063 20.4474 98.292 20.2307 98.2063 20.3264ZM98.0099 20.6439C98.0401 20.6137 98.161 20.674 98.1308 20.5834C98.1005 20.4927 97.9544 20.5834 98.0099 20.6439ZM99.3247 21.1476C99.5162 21.1476 99.5766 20.9964 99.7126 20.9108C99.577 20.9789 99.4473 21.0582 99.3247 21.1476ZM100.982 21.1174C100.982 21.067 100.982 20.9814 100.922 20.9864C100.937 21.0322 100.957 21.0762 100.982 21.1174ZM99.0224 21.4801C99.1232 21.4801 99.1786 21.48 99.1837 21.4196C99.1887 21.3591 99.0124 21.4196 99.0224 21.4801ZM100.589 21.606C100.71 21.6312 100.514 21.6816 100.65 21.737C100.65 21.6615 100.73 21.5406 100.619 21.5003C100.619 21.5557 100.589 21.5557 100.589 21.606ZM100.317 22.1098C100.413 22.1098 100.423 22.0746 100.362 21.999C100.413 22.0796 100.322 22.0544 100.317 22.1098ZM100.821 22.4071C100.821 22.2862 100.69 22.2811 100.851 22.1401C100.67 22.0796 100.65 22.4323 100.821 22.4071ZM100.413 22.3012C100.76 22.2458 100.327 22.271 100.443 22.2055C100.559 22.14 100.307 22.2055 100.413 22.3012ZM101.093 22.8049C101.526 23.4901 101.128 22.3869 100.912 22.2156C100.912 22.4322 101.078 22.5934 101.093 22.8049ZM100.443 22.669C100.544 22.5733 100.292 22.4221 100.352 22.3213C100.226 22.3213 100.393 22.5935 100.443 22.669ZM100.836 22.5934C100.806 22.5229 100.896 22.5683 100.912 22.5179C100.801 22.4071 100.73 22.5178 100.836 22.5934ZM101.002 23.0015C101.239 23.0015 100.876 22.8353 100.972 22.6539C100.74 22.5028 100.972 22.9158 101.002 23.0015ZM98.1207 23.0015C98.3071 23.0015 98.1207 22.6136 98.1207 22.8755C98.1207 22.9007 98.1207 22.941 98.1207 23.0015ZM101.002 23.077C101.189 23.208 101.214 23.0519 101.032 23.0166C101.032 23.0282 101.029 23.0396 101.024 23.0499C101.018 23.0603 101.011 23.0695 101.002 23.077ZM97.9797 23.2282C98.02 23.1929 98.0502 23.0368 97.9494 23.0469C98.0451 23.1124 97.9142 23.1727 97.9797 23.2282ZM101.723 23.873C101.788 23.7471 101.677 23.5204 101.602 23.4197C101.551 23.5305 101.667 23.7874 101.723 23.873ZM101.43 23.48C101.486 23.5556 101.279 23.5909 101.461 23.5909C101.506 23.4851 101.33 23.4549 101.43 23.48ZM97.9041 23.742C97.9796 23.9234 98.0401 23.8226 98.1006 23.742C98.03 23.742 97.9545 23.7118 97.9041 23.742ZM101.778 24.1501C101.778 24.1199 101.632 24.1098 101.627 24.1501C101.687 24.1148 101.733 24.1954 101.778 24.1501ZM101.778 24.5833C101.99 24.543 101.612 24.3465 101.778 24.5128C101.687 24.5531 101.687 24.5783 101.687 24.6186L101.778 24.5833ZM110.015 18.538C109.904 19.9788 109.234 22.0645 108.503 22.7446C107.808 24.3516 105.32 22.6438 105.637 23.3995C106.03 23.5053 105.521 23.601 105.38 23.6463C105.627 23.7723 105.571 23.5959 105.546 23.8579C105.209 24.0392 105.118 27.1928 104.262 26.7596C104.483 26.2004 104.095 26.4674 103.894 26.3364C104.242 26.0795 104.126 25.4951 103.894 25.1274C104.272 22.9209 103.607 20.7446 105.309 18.3467C106.896 16.1401 105.743 18.2358 106.866 17.9487C106.866 17.7875 107.088 17.9033 106.957 17.722C107.753 17.1225 109.853 17.3592 109.979 18.538M105.214 20.1803C105.214 20.1098 105.446 19.9083 105.304 19.8328C105.304 19.9436 105.043 20.0846 105.214 20.1803ZM105.214 18.7043C105.189 18.8051 104.977 18.8957 105.093 19.0216C105.093 18.9158 105.385 18.8 105.214 18.7043ZM105.048 21.4046C104.75 22.2156 105.224 22.1199 105.153 21.4046C105.113 21.4701 105.098 21.4398 105.048 21.4046ZM104.896 22.1148C104.851 22.1803 104.765 22.3919 104.896 22.4271C105.007 22.3415 105.143 22.135 104.896 22.1148ZM104.393 21.3138C104.181 21.9133 104.896 20.528 104.801 20.0897C104.569 20.4373 104.629 20.8655 104.297 21.2534C104.367 21.2534 104.403 21.2534 104.413 21.3138M104.715 23.737C104.539 23.3188 104.403 24.1148 104.579 24.2407C104.72 24.1501 104.579 23.8125 104.715 23.737ZM104.337 23.737C104.337 23.6564 104.337 23.6262 104.236 23.6463C104.136 23.6665 104.287 23.7873 104.337 23.737ZM104.297 23.5153C104.498 23.3642 104.74 22.3213 104.503 22.1752C104.366 22.6085 104.296 23.0607 104.297 23.5153ZM104.624 25.9989C104.942 25.5505 104.453 25.8981 104.458 26.2306C104.7 26.3011 104.564 26.1198 104.624 25.9989ZM104.428 25.082C104.695 24.9309 104.72 24.533 104.821 24.2861C104.503 24.4121 104.544 24.7898 104.428 25.082ZM104.972 23.9384C104.972 23.5001 105.279 23.3844 104.791 23.1526C104.559 23.1829 104.67 23.3137 104.821 23.5556C105.032 23.1475 104.7 24.0241 104.972 23.9384ZM105.123 23.0166C105.576 22.6992 105.123 22.0091 105.093 22.669C104.745 22.4826 105.168 22.8856 105.123 23.0166ZM106.226 17.9335C106.458 17.3995 106.015 17.324 105.864 17.8429C106.04 17.7925 106.08 17.9083 106.226 17.9335ZM108.428 17.6766C108.322 17.8025 108.519 17.8127 108.519 17.7069C108.473 17.7069 108.468 17.6766 108.428 17.6766ZM108.337 17.4802C108.227 17.4389 108.109 17.4255 107.993 17.4413C107.877 17.4572 107.767 17.5017 107.672 17.5708C107.848 17.5154 108.206 17.6061 108.337 17.4802ZM108.035 17.6766C107.852 17.7078 107.677 17.7778 107.523 17.8821C107.37 17.9864 107.24 18.1225 107.143 18.2811C107.445 18.0846 107.728 17.858 108.035 17.6766ZM106.347 21.4046C106.408 21.4701 106.473 21.339 106.508 21.3138C106.302 21.1325 106.458 21.1678 106.347 21.4046ZM106.347 18.7295C106.76 18.6137 107.103 17.8278 107.657 17.586C106.413 18.3668 106.71 17.863 106.347 18.7295ZM107.189 22.1752C107.617 21.9284 107.979 21.5305 107.234 21.873C106.508 21.7673 106.473 22.3767 107.189 22.1752ZM107.959 21.7824C107.823 21.999 107.632 22.1703 107.491 22.3819C107.738 22.3516 108.105 21.8781 107.959 21.7824ZM106.675 22.9712C106.569 23.2433 107.138 22.9712 106.791 22.9712C106.752 22.9627 106.713 22.9627 106.675 22.9712ZM106.977 23.4045C107.017 23.2584 106.67 23.3189 106.675 23.4045C106.721 23.4316 106.773 23.4457 106.826 23.4457C106.879 23.4457 106.931 23.4316 106.977 23.4045ZM107.007 22.397C107.063 22.3113 106.927 22.3315 106.977 22.261C106.755 22.2358 106.836 22.5582 107.007 22.397ZM107.355 22.941C107.259 22.941 106.992 22.9713 107.068 23.1224C107.143 23.0821 107.325 23.0417 107.355 22.941ZM107.143 23.3491C107.521 23.3138 108.282 22.8453 108.095 22.6388C107.894 23.0116 107.365 23.1123 107.143 23.3491ZM108.186 21.2181C108.604 20.9159 108.438 20.3315 108.619 20.0746C109.748 14.9814 103.662 24.0292 108.186 21.2181ZM108.468 21.2181C107.964 22.3818 109.058 20.9209 108.942 20.387C108.715 20.6237 108.73 21.0015 108.468 21.2181ZM108.377 22.664C108.686 22.4513 108.898 22.1253 108.967 21.7572C108.702 22.0369 108.475 22.3501 108.292 22.6891L108.377 22.664Z" fill="#38ABFF"/>
</g>
<defs>
<clipPath id="clip0_0_3">
<rect width="120" height="53" fill="white"/>
</clipPath>
</defs>
</svg>
