<svg width="19" height="19" viewBox="0 0 19 19" fill="none" xmlns="http://www.w3.org/2000/svg">
<path d="M0.00553897 18.9511C0.00553897 17.8595 0.00553723 16.7678 0.000774449 15.6762C-0.00326678 15.6042 0.0085435 15.5321 0.0353703 15.4651C0.0621971 15.3982 0.103388 15.3379 0.156042 15.2885C2.52791 12.9211 4.89787 10.5546 7.26592 8.18913C7.30514 8.15777 7.33325 8.11466 7.34611 8.06612C7.35897 8.01759 7.35591 7.96621 7.33737 7.91955C7.12002 7.21505 7.01805 6.48003 7.0354 5.74296C7.05428 5.02428 7.20843 4.3156 7.48977 3.65401C7.95411 2.54661 8.74366 1.60626 9.754 0.957319C10.5139 0.470306 11.3719 0.157081 12.2668 0.0400074C12.3992 0.0209562 12.5374 0.0657264 12.6641 0H13.3308C13.5718 0.034292 13.8128 0.0657262 14.0529 0.104781C14.7937 0.226727 15.5022 0.496933 16.1361 0.899213C17.3491 1.64362 18.2513 2.80231 18.6756 4.16077C18.9019 4.87059 18.9895 5.6173 18.9338 6.36022C18.8846 7.13644 18.6833 7.89541 18.3413 8.59396C17.8375 9.6196 17.0491 10.4785 16.0702 11.068C15.0913 11.6575 13.9634 11.9528 12.8212 11.9184C12.2194 11.9075 11.6225 11.8067 11.0504 11.6193C11.0011 11.5987 10.9464 11.5948 10.8948 11.6085C10.8431 11.6221 10.7974 11.6523 10.7647 11.6945C9.79369 12.6757 8.82176 13.6508 7.84889 14.6198C7.81229 14.6598 7.76719 14.6911 7.71691 14.7114C7.66664 14.7317 7.61246 14.7404 7.55836 14.737C6.96682 14.7313 6.37528 14.737 5.78375 14.7313C5.66277 14.7313 5.62848 14.7665 5.63038 14.8875C5.6361 15.4857 5.63038 16.0839 5.6361 16.6821C5.6361 16.8126 5.60181 16.8479 5.47226 16.846C4.88644 16.8383 4.30062 16.846 3.71479 16.8383C3.56524 16.8383 3.51666 16.8679 3.51857 17.0288C3.52905 17.6699 3.52333 18.3119 3.52333 18.953L0.00553897 18.9511ZM16.8477 4.2122C16.8528 3.93729 16.8027 3.66414 16.7005 3.40889C16.5982 3.15365 16.4459 2.92148 16.2524 2.72613C16.0589 2.53077 15.8282 2.37617 15.5739 2.27148C15.3197 2.16678 15.047 2.11411 14.7721 2.11658C13.5661 2.11658 12.6355 3.00722 12.6412 4.20173C12.6469 5.42671 13.5195 6.31354 14.7368 6.32116C15.9809 6.32212 16.8448 5.3829 16.8477 4.2122Z" fill="#A7A5A5"/>
</svg>
