<svg width="18" height="19" viewBox="0 0 18 19" fill="none" xmlns="http://www.w3.org/2000/svg">
<g id="ep:arrow-up">
<path id="Vector" d="M9.40727 14.4476L15.381 8.17796C15.4807 8.07335 15.5364 7.93436 15.5364 7.78983C15.5364 7.6453 15.4807 7.50632 15.381 7.40171L15.3743 7.39496C15.3259 7.34407 15.2677 7.30355 15.2032 7.27586C15.1387 7.24817 15.0693 7.23389 14.9991 7.23389C14.9289 7.23389 14.8594 7.24817 14.7949 7.27586C14.7304 7.30355 14.6722 7.34407 14.6239 7.39496L8.9989 13.299L3.37615 7.39496C3.3278 7.34407 3.26961 7.30355 3.20511 7.27586C3.14061 7.24817 3.07115 7.23389 3.00096 7.23389C2.93077 7.23389 2.86131 7.24817 2.79681 7.27586C2.73231 7.30355 2.67412 7.34407 2.62577 7.39496L2.61902 7.40171C2.5193 7.50632 2.46366 7.6453 2.46366 7.78983C2.46366 7.93436 2.5193 8.07335 2.61902 8.17796L8.59277 14.4476C8.6453 14.5027 8.70849 14.5466 8.77849 14.5766C8.8485 14.6066 8.92386 14.6221 9.00002 14.6221C9.07618 14.6221 9.15154 14.6066 9.22155 14.5766C9.29155 14.5466 9.35474 14.5027 9.40727 14.4476Z" fill="#DCE0E7"/>
</g>
</svg>
