<?xml version="1.0" encoding="UTF-8"?>
<svg xmlns="http://www.w3.org/2000/svg" xmlns:xlink="http://www.w3.org/1999/xlink" width="261.962pt" height="101.178pt" viewBox="0 0 261.962 101.178" version="1.1">
<defs>
<clipPath id="clip1">
  <path d="M 105 77 L 127 77 L 127 99.664062 L 105 99.664062 Z M 105 77 "/>
</clipPath>
<clipPath id="clip2">
  <path d="M 134 77 L 158 77 L 158 99.664062 L 134 99.664062 Z M 134 77 "/>
</clipPath>
<clipPath id="clip3">
  <path d="M 168 77 L 192 77 L 192 99.664062 L 168 99.664062 Z M 168 77 "/>
</clipPath>
<clipPath id="clip4">
  <path d="M 203 77 L 222 77 L 222 99.664062 L 203 99.664062 Z M 203 77 "/>
</clipPath>
<clipPath id="clip5">
  <path d="M 232 77 L 254 77 L 254 99.664062 L 232 99.664062 Z M 232 77 "/>
</clipPath>
<clipPath id="clip6">
  <path d="M 90 1.511719 L 171 1.511719 L 171 64 L 90 64 Z M 90 1.511719 "/>
</clipPath>
<clipPath id="clip7">
  <path d="M 3.914062 1.511719 L 80 1.511719 L 80 64 L 3.914062 64 Z M 3.914062 1.511719 "/>
</clipPath>
<clipPath id="clip8">
  <path d="M 178 1.511719 L 258.050781 1.511719 L 258.050781 64 L 178 64 Z M 178 1.511719 "/>
</clipPath>
</defs>
<g id="surface1">
<g clip-path="url(#clip1)" clip-rule="nonzero">
<path style=" stroke:none;fill-rule:nonzero;fill:rgb(13.729858%,12.159729%,12.548828%);fill-opacity:1;" d="M 124.292969 77.078125 L 107.808594 77.078125 C 106.742188 77.078125 105.832031 77.984375 105.832031 79.050781 C 105.832031 80.125 106.742188 81.03125 107.808594 81.03125 L 114.074219 81.03125 L 114.074219 97.691406 C 114.074219 98.761719 114.984375 99.664062 116.050781 99.664062 C 117.125 99.664062 118.03125 98.761719 118.03125 97.691406 L 118.03125 81.03125 L 124.292969 81.03125 C 125.367188 81.03125 126.269531 80.125 126.269531 79.050781 C 126.269531 77.984375 125.367188 77.078125 124.292969 77.078125 "/>
</g>
<g clip-path="url(#clip2)" clip-rule="nonzero">
<path style=" stroke:none;fill-rule:nonzero;fill:rgb(13.729858%,12.159729%,12.548828%);fill-opacity:1;" d="M 145.859375 95.722656 C 141.796875 95.722656 138.492188 92.421875 138.492188 88.371094 C 138.492188 84.324219 141.796875 81.03125 145.859375 81.03125 C 149.914062 81.03125 153.21875 84.324219 153.21875 88.371094 C 153.21875 92.421875 149.914062 95.722656 145.859375 95.722656 M 145.859375 77.078125 C 139.621094 77.078125 134.535156 82.144531 134.535156 88.371094 C 134.535156 94.597656 139.621094 99.667969 145.859375 99.667969 C 152.09375 99.667969 157.179688 94.597656 157.179688 88.371094 C 157.179688 82.144531 152.09375 77.078125 145.859375 77.078125 "/>
</g>
<g clip-path="url(#clip3)" clip-rule="nonzero">
<path style=" stroke:none;fill-rule:nonzero;fill:rgb(13.729858%,12.159729%,12.548828%);fill-opacity:1;" d="M 179.785156 95.722656 C 175.726562 95.722656 172.421875 92.421875 172.421875 88.371094 C 172.421875 84.324219 175.726562 81.03125 179.785156 81.03125 C 183.839844 81.03125 187.144531 84.324219 187.144531 88.371094 C 187.144531 92.421875 183.839844 95.722656 179.785156 95.722656 M 179.785156 77.078125 C 173.542969 77.078125 168.464844 82.144531 168.464844 88.371094 C 168.464844 94.597656 173.542969 99.667969 179.785156 99.667969 C 186.027344 99.667969 191.101562 94.597656 191.101562 88.371094 C 191.101562 82.144531 186.027344 77.078125 179.785156 77.078125 "/>
</g>
<g clip-path="url(#clip4)" clip-rule="nonzero">
<path style=" stroke:none;fill-rule:nonzero;fill:rgb(13.729858%,12.159729%,12.548828%);fill-opacity:1;" d="M 219.480469 95.722656 L 207.175781 95.722656 L 207.175781 79.050781 C 207.175781 77.980469 206.265625 77.078125 205.195312 77.078125 C 204.121094 77.078125 203.21875 77.980469 203.21875 79.050781 L 203.21875 97.691406 C 203.21875 98.761719 204.121094 99.667969 205.195312 99.667969 L 219.480469 99.667969 C 220.554688 99.667969 221.460938 98.761719 221.460938 97.691406 C 221.460938 96.617188 220.554688 95.722656 219.480469 95.722656 "/>
</g>
<g clip-path="url(#clip5)" clip-rule="nonzero">
<path style=" stroke:none;fill-rule:nonzero;fill:rgb(13.729858%,12.159729%,12.548828%);fill-opacity:1;" d="M 246.539062 86.398438 L 239.402344 86.398438 C 237.886719 86.398438 236.703125 85.21875 236.703125 83.714844 C 236.703125 82.207031 237.886719 81.03125 239.402344 81.03125 L 250.109375 81.03125 C 251.183594 81.03125 252.089844 80.125 252.089844 79.050781 C 252.089844 77.980469 251.183594 77.078125 250.109375 77.078125 L 239.402344 77.078125 C 235.726562 77.078125 232.746094 80.054688 232.746094 83.714844 C 232.746094 87.367188 235.726562 90.34375 239.402344 90.34375 L 246.539062 90.34375 C 248.050781 90.34375 249.226562 91.53125 249.226562 93.03125 C 249.226562 94.535156 248.050781 95.722656 246.539062 95.722656 L 234.726562 95.722656 C 233.65625 95.722656 232.746094 96.621094 232.746094 97.691406 C 232.746094 98.761719 233.65625 99.667969 234.726562 99.667969 L 246.539062 99.667969 C 250.203125 99.667969 253.1875 96.695312 253.1875 93.03125 C 253.1875 89.371094 250.203125 86.398438 246.539062 86.398438 "/>
</g>
<g clip-path="url(#clip6)" clip-rule="nonzero">
<path style=" stroke:none;fill-rule:nonzero;fill:rgb(13.729858%,12.159729%,12.548828%);fill-opacity:1;" d="M 90.65625 19.984375 C 90.648438 9.816406 98.898438 1.578125 109.074219 1.578125 C 127.761719 1.578125 146.441406 1.566406 165.125 1.5625 C 168.175781 1.5625 170.65625 4.03125 170.65625 7.070312 L 170.65625 9.75 C 170.65625 12.796875 168.179688 15.273438 165.125 15.273438 L 112.257812 15.273438 C 107.898438 15.273438 104.488281 19.597656 104.921875 23.921875 C 105.015625 24.863281 105.808594 25.585938 106.757812 25.585938 L 159.992188 25.585938 C 163.042969 25.585938 165.519531 28.050781 165.519531 31.09375 L 165.519531 33.253906 C 165.519531 36.296875 163.042969 38.769531 159.992188 38.769531 L 106.964844 38.769531 C 106.152344 38.769531 105.441406 39.300781 105.199219 40.074219 L 105.199219 42.199219 C 105.199219 46.257812 108.496094 49.550781 112.574219 49.550781 L 165.125 49.550781 C 168.175781 49.550781 170.65625 52.019531 170.65625 55.074219 L 170.65625 57.753906 C 170.65625 60.796875 168.179688 63.261719 165.125 63.261719 L 109.101562 63.261719 C 98.9375 63.261719 90.691406 55.050781 90.679688 44.90625 C 90.671875 36.59375 90.667969 28.289062 90.65625 19.984375 "/>
<path style=" stroke:none;fill-rule:nonzero;fill:rgb(13.729858%,12.159729%,12.548828%);fill-opacity:1;" d="M 90.65625 19.984375 C 90.648438 9.816406 98.898438 1.578125 109.074219 1.578125 C 127.761719 1.578125 146.441406 1.566406 165.125 1.5625 C 168.175781 1.5625 170.65625 4.03125 170.65625 7.070312 L 170.65625 9.75 C 170.65625 12.796875 168.179688 15.273438 165.125 15.273438 L 112.257812 15.273438 C 107.898438 15.273438 104.488281 19.597656 104.921875 23.921875 C 105.015625 24.863281 105.808594 25.585938 106.757812 25.585938 L 159.992188 25.585938 C 163.042969 25.585938 165.519531 28.050781 165.519531 31.09375 L 165.519531 33.253906 C 165.519531 36.296875 163.042969 38.769531 159.992188 38.769531 L 106.964844 38.769531 C 106.152344 38.769531 105.441406 39.300781 105.199219 40.074219 L 105.199219 42.199219 C 105.199219 46.257812 108.496094 49.550781 112.574219 49.550781 L 165.125 49.550781 C 168.175781 49.550781 170.65625 52.019531 170.65625 55.074219 L 170.65625 57.753906 C 170.65625 60.796875 168.179688 63.261719 165.125 63.261719 L 109.101562 63.261719 C 98.9375 63.261719 90.691406 55.050781 90.679688 44.90625 C 90.671875 36.59375 90.667969 28.289062 90.65625 19.984375 "/>
</g>
<g clip-path="url(#clip7)" clip-rule="nonzero">
<path style=" stroke:none;fill-rule:nonzero;fill:rgb(13.729858%,12.159729%,12.548828%);fill-opacity:1;" d="M 12.714844 2.695312 C 30.335938 15.324219 44.769531 24.859375 62.21875 37.59375 C 63.386719 38.4375 64.957031 37.59375 64.957031 36.09375 L 64.957031 7.105469 C 64.957031 4.058594 67.285156 1.578125 70.144531 1.578125 L 74.253906 1.578125 C 77.125 1.578125 79.441406 4.058594 79.441406 7.105469 L 79.441406 57.738281 C 79.441406 62.214844 74.742188 64.804688 71.277344 62.273438 C 54.617188 50.105469 38.222656 38.703125 22.003906 27.265625 C 20.835938 26.449219 19.28125 27.285156 19.28125 28.777344 L 19.28125 57.734375 C 19.28125 60.792969 16.585938 63.273438 13.726562 63.273438 L 9.101562 63.273438 C 6.238281 63.273438 3.914062 60.792969 3.914062 57.734375 L 3.914062 6.914062 C 3.914062 2.523438 8.910156 -0.03125 12.492188 2.535156 C 12.570312 2.589844 12.644531 2.640625 12.714844 2.695312 "/>
<path style=" stroke:none;fill-rule:nonzero;fill:rgb(13.729858%,12.159729%,12.548828%);fill-opacity:1;" d="M 12.714844 2.695312 C 30.335938 15.324219 44.769531 24.859375 62.21875 37.59375 C 63.386719 38.4375 64.957031 37.59375 64.957031 36.09375 L 64.957031 7.105469 C 64.957031 4.058594 67.285156 1.578125 70.144531 1.578125 L 74.253906 1.578125 C 77.125 1.578125 79.441406 4.058594 79.441406 7.105469 L 79.441406 57.738281 C 79.441406 62.214844 74.742188 64.804688 71.277344 62.273438 C 54.617188 50.105469 38.222656 38.703125 22.003906 27.265625 C 20.835938 26.449219 19.28125 27.285156 19.28125 28.777344 L 19.28125 57.734375 C 19.28125 60.792969 16.585938 63.273438 13.726562 63.273438 L 9.101562 63.273438 C 6.238281 63.273438 3.914062 60.792969 3.914062 57.734375 L 3.914062 6.914062 C 3.914062 2.523438 8.910156 -0.03125 12.492188 2.535156 C 12.570312 2.589844 12.644531 2.640625 12.714844 2.695312 "/>
</g>
<g clip-path="url(#clip8)" clip-rule="nonzero">
<path style=" stroke:none;fill-rule:nonzero;fill:rgb(13.729858%,12.159729%,12.548828%);fill-opacity:1;" d="M 244.425781 41.871094 C 244.425781 45.957031 241.097656 49.277344 236.996094 49.277344 L 199.976562 49.277344 C 195.886719 49.277344 192.558594 45.957031 192.558594 41.871094 L 192.558594 22.921875 C 192.558594 18.839844 195.886719 15.523438 199.976562 15.523438 C 212.324219 15.511719 224.660156 15.511719 236.996094 15.511719 C 241.097656 15.511719 244.425781 18.839844 244.425781 22.921875 Z M 239.488281 1.582031 L 196.785156 1.582031 C 186.535156 1.582031 178.21875 9.871094 178.230469 20.109375 C 178.234375 28.3125 178.25 36.515625 178.253906 44.726562 C 178.265625 54.9375 186.570312 63.222656 196.808594 63.222656 L 239.488281 63.222656 C 249.742188 63.222656 258.050781 54.933594 258.050781 44.699219 L 258.050781 20.09375 C 258.050781 9.859375 249.742188 1.582031 239.488281 1.582031 "/>
</g>
</g>
</svg>
