<?xml version="1.0" encoding="UTF-8"?>
<svg xmlns="http://www.w3.org/2000/svg" xmlns:xlink="http://www.w3.org/1999/xlink" width="283.343pt" height="79.9958pt" viewBox="0 0 283.343 79.9958" version="1.1">
<defs>
<clipPath id="clip1">
  <path d="M 4.078125 6.761719 L 70 6.761719 L 70 71.984375 L 4.078125 71.984375 Z M 4.078125 6.761719 "/>
</clipPath>
</defs>
<g id="surface1">
<path style=" stroke:none;fill-rule:nonzero;fill:rgb(13.729858%,12.159729%,12.548828%);fill-opacity:1;" d="M 86.847656 27.683594 L 96.933594 27.683594 L 96.933594 56.847656 L 107.058594 56.847656 L 107.058594 27.683594 L 117.179688 27.683594 L 117.179688 18.765625 L 86.847656 18.765625 Z M 86.847656 27.683594 "/>
<path style=" stroke:none;fill-rule:nonzero;fill:rgb(13.729858%,12.159729%,12.548828%);fill-opacity:1;" d="M 266.761719 18.761719 L 258.503906 33.042969 L 250.183594 18.761719 L 239.027344 18.78125 L 250.09375 37.839844 L 239.027344 56.832031 L 250.183594 56.847656 L 258.503906 42.566406 L 266.761719 56.847656 L 277.84375 56.847656 L 266.746094 37.839844 L 277.84375 18.765625 L 277.84375 18.761719 Z M 266.761719 18.761719 "/>
<path style=" stroke:none;fill-rule:nonzero;fill:rgb(13.729858%,12.159729%,12.548828%);fill-opacity:1;" d="M 147.015625 41.722656 C 146.855469 47.554688 144.933594 47.925781 139.382812 47.925781 C 133.917969 47.925781 132 47.554688 131.839844 41.722656 L 131.839844 33.890625 C 132 28.054688 133.917969 27.683594 139.382812 27.683594 C 144.933594 27.683594 146.855469 28.054688 147.015625 33.890625 Z M 139.382812 18.761719 C 128.71875 18.761719 121.714844 20.644531 121.714844 32.785156 L 121.714844 42.824219 C 121.714844 54.960938 128.71875 56.847656 139.382812 56.847656 C 150.136719 56.847656 157.136719 54.960938 157.136719 42.824219 L 157.136719 32.785156 C 157.136719 20.644531 150.136719 18.761719 139.382812 18.761719 "/>
<path style=" stroke:none;fill-rule:nonzero;fill:rgb(13.729858%,12.159729%,12.548828%);fill-opacity:1;" d="M 180.542969 37.792969 L 174.082031 37.792969 L 174.082031 27.683594 L 180.496094 27.683594 C 185.738281 27.683594 188.089844 27.6875 188.089844 32.746094 C 188.089844 37.808594 185.601562 37.792969 180.542969 37.792969 M 180.496094 18.757812 L 163.957031 18.765625 L 163.957031 56.847656 L 174.082031 56.847656 L 174.082031 46.679688 L 180.542969 46.679688 C 191.296875 46.679688 198.296875 44.792969 198.296875 32.652344 C 198.296875 20.515625 191.25 18.757812 180.496094 18.757812 "/>
<path style=" stroke:none;fill-rule:nonzero;fill:rgb(13.729858%,12.159729%,12.548828%);fill-opacity:1;" d="M 215.210938 41.164062 L 234.117188 41.164062 L 234.117188 34.433594 L 215.210938 34.433594 L 215.210938 27.683594 L 235.777344 27.683594 L 230.613281 18.761719 L 204.957031 18.761719 L 204.957031 56.832031 L 230.613281 56.832031 L 235.777344 47.910156 L 215.210938 47.910156 Z M 215.210938 41.164062 "/>
<path style=" stroke:none;fill-rule:nonzero;fill:rgb(13.729858%,12.159729%,12.548828%);fill-opacity:1;" d="M 37.105469 17.152344 L 37.105469 17.148438 L 36.75 17.148438 L 36.75 17.152344 C 27.941406 17.171875 20.125 17.902344 16.28125 18.367188 L 16.28125 30.113281 C 19.898438 29.851562 29.136719 29.410156 30.03125 29.386719 L 30.03125 57.441406 L 43.828125 57.441406 L 43.828125 29.386719 C 44.71875 29.410156 53.960938 29.851562 57.578125 30.113281 L 57.578125 18.367188 C 53.730469 17.902344 45.917969 17.171875 37.105469 17.152344 "/>
<g clip-path="url(#clip1)" clip-rule="nonzero">
<path style=" stroke:none;fill-rule:nonzero;fill:rgb(13.729858%,12.159729%,12.548828%);fill-opacity:1;" d="M 6.0625 52.683594 L 6.0625 12.675781 C 6.0625 11.875 6.707031 11.105469 7.5 10.964844 C 7.5 10.964844 22.15625 8.394531 36.914062 8.394531 C 52.085938 8.394531 66.359375 10.957031 66.359375 10.957031 C 67.148438 11.097656 67.800781 11.875 67.800781 12.675781 L 67.800781 52.664062 C 67.800781 53.464844 67.207031 54.417969 66.496094 54.78125 C 66.496094 54.78125 36.679688 69.804688 36.929688 69.804688 C 37.113281 69.804688 7.363281 54.800781 7.363281 54.800781 C 6.648438 54.441406 6.0625 53.488281 6.0625 52.683594 M 67.921875 9.429688 C 67.742188 9.398438 49.921875 6.761719 36.933594 6.761719 C 22.992188 6.761719 6.105469 9.550781 5.941406 9.578125 C 4.929688 9.742188 4.082031 10.75 4.082031 11.769531 L 4.082031 53.601562 C 4.082031 54.671875 4.886719 55.972656 5.835938 56.457031 C 16.027344 61.585938 35.253906 71.234375 36.949219 71.984375 C 38.734375 71.203125 59.835938 60.457031 68.023438 56.277344 C 68.972656 55.792969 69.777344 54.480469 69.777344 53.414062 L 69.777344 11.578125 C 69.777344 10.5625 68.925781 9.578125 67.921875 9.429688 "/>
</g>
</g>
</svg>
