<?xml version="1.0" encoding="UTF-8"?>
<svg xmlns="http://www.w3.org/2000/svg" xmlns:xlink="http://www.w3.org/1999/xlink" width="245.613pt" height="57pt" viewBox="0 0 245.613 57" version="1.1">
<g id="surface1">
<path style=" stroke:none;fill-rule:nonzero;fill:rgb(13.729858%,12.159729%,12.548828%);fill-opacity:1;" d="M 38.949219 17.316406 L 22.4375 17.316406 L 23.355469 20.140625 L 38.03125 20.140625 Z M 38.949219 17.316406 "/>
<path style=" stroke:none;fill-rule:nonzero;fill:rgb(13.729858%,12.159729%,12.548828%);fill-opacity:1;" d="M 25.785156 24.871094 L 35.601562 24.871094 C 36.132812 24.871094 36.605469 24.53125 36.769531 24.023438 L 37.410156 22.046875 L 23.976562 22.046875 L 24.617188 24.023438 C 24.78125 24.53125 25.253906 24.871094 25.785156 24.871094 "/>
<path style=" stroke:none;fill-rule:nonzero;fill:rgb(13.729858%,12.159729%,12.548828%);fill-opacity:1;" d="M 21.820312 15.410156 L 39.566406 15.410156 L 41.953125 8.0625 C 42.058594 7.746094 41.820312 7.421875 41.484375 7.421875 L 19.902344 7.421875 C 19.566406 7.421875 19.328125 7.746094 19.433594 8.0625 Z M 21.820312 15.410156 "/>
<path style=" stroke:none;fill-rule:nonzero;fill:rgb(13.729858%,12.159729%,12.548828%);fill-opacity:1;" d="M 230.65625 28.28125 L 230.65625 31.230469 C 230.65625 37.550781 229.535156 40.195312 222.59375 40.195312 L 214.574219 40.195312 C 207.628906 40.195312 206.507812 37.550781 206.507812 31.230469 L 206.507812 28.28125 C 206.507812 21.960938 207.628906 19.316406 214.574219 19.316406 L 222.59375 19.316406 C 229.535156 19.316406 230.65625 21.960938 230.65625 28.28125 M 226.628906 9.9375 L 226.707031 9.828125 L 211.558594 9.828125 L 210.488281 9.871094 L 210.539062 9.9375 C 201.382812 10.703125 196.359375 16.171875 196.359375 25.425781 L 196.359375 34.085938 C 196.359375 43.34375 201.386719 48.8125 210.542969 49.578125 L 210.464844 49.683594 L 226.699219 49.683594 L 226.625 49.578125 C 235.78125 48.8125 240.804688 43.34375 240.804688 34.085938 L 240.804688 25.425781 C 240.804688 16.171875 235.785156 10.703125 226.628906 9.9375 "/>
<path style=" stroke:none;fill-rule:nonzero;fill:rgb(13.729858%,12.159729%,12.548828%);fill-opacity:1;" d="M 153.378906 19.808594 L 168.316406 19.808594 L 168.316406 49.683594 L 178.242188 49.683594 L 178.242188 19.808594 L 193.179688 19.808594 L 193.179688 9.886719 L 153.378906 9.886719 Z M 153.378906 19.808594 "/>
<path style=" stroke:none;fill-rule:nonzero;fill:rgb(13.729858%,12.159729%,12.548828%);fill-opacity:1;" d="M 138.777344 20.753906 L 138.777344 25.4375 C 138.777344 26.195312 138.160156 26.8125 137.402344 26.8125 L 117.367188 26.8125 L 117.367188 19.378906 L 137.402344 19.378906 C 138.160156 19.378906 138.777344 19.996094 138.777344 20.753906 M 145.179688 33 C 146.972656 31.304688 148.203125 28.90625 148.644531 26.246094 C 149.082031 23.632812 148.816406 19.269531 147.621094 16.773438 C 144.675781 10.601562 137.703125 9.886719 132.714844 9.886719 L 107.148438 9.886719 L 107.148438 49.683594 L 117.367188 49.683594 L 117.367188 36.546875 L 130.527344 36.546875 L 140.15625 49.683594 L 152.242188 49.683594 L 141.640625 35.222656 C 143.023438 34.667969 144.210938 33.921875 145.179688 33 "/>
<path style=" stroke:none;fill-rule:nonzero;fill:rgb(13.729858%,12.159729%,12.548828%);fill-opacity:1;" d="M 60.628906 16.222656 L 60.628906 43.234375 C 60.628906 46.574219 63.199219 49.320312 66.523438 49.601562 L 66.523438 49.683594 L 100.183594 49.683594 L 100.183594 40.195312 L 70.554688 40.195312 L 70.554688 34.179688 L 94.425781 34.179688 L 94.425781 24.6875 L 70.554688 24.6875 L 70.554688 19.378906 L 100.183594 19.378906 L 100.183594 9.886719 L 67.019531 9.828125 C 63.496094 9.828125 60.628906 12.695312 60.628906 16.222656 "/>
<path style=" stroke:none;fill-rule:nonzero;fill:rgb(13.729858%,12.159729%,12.548828%);fill-opacity:1;" d="M 45.171875 11.128906 L 36.03125 39.269531 C 35.847656 39.835938 35.320312 40.21875 34.722656 40.21875 L 26.664062 40.21875 C 26.066406 40.21875 25.539062 39.835938 25.355469 39.269531 L 16.214844 11.128906 C 15.972656 10.386719 15.289062 9.886719 14.507812 9.886719 L 5.085938 9.886719 L 16.144531 43.925781 C 17.261719 47.371094 20.445312 49.683594 24.070312 49.683594 L 37.320312 49.683594 C 40.941406 49.683594 44.125 47.371094 45.242188 43.925781 L 56.300781 9.886719 L 46.878906 9.886719 C 46.101562 9.886719 45.414062 10.386719 45.171875 11.128906 "/>
</g>
</svg>
