<?xml version="1.0" encoding="UTF-8"?>
<svg xmlns="http://www.w3.org/2000/svg" xmlns:xlink="http://www.w3.org/1999/xlink" width="245.613pt" height="57pt" viewBox="0 0 245.613 57" version="1.1">
<g id="surface1">
<path style=" stroke:none;fill-rule:nonzero;fill:rgb(3.98407%,25.985718%,25.912476%);fill-opacity:1;" d="M 0 57 L 245.613281 57 L 245.613281 0.0546875 L 0 0.0546875 Z M 0 57 "/>
<path style=" stroke:none;fill-rule:nonzero;fill:rgb(100%,100%,100%);fill-opacity:1;" d="M 50.21875 18.824219 L 35.921875 18.824219 L 36.71875 21.269531 L 49.425781 21.269531 Z M 50.21875 18.824219 "/>
<path style=" stroke:none;fill-rule:nonzero;fill:rgb(100%,100%,100%);fill-opacity:1;" d="M 38.820312 25.367188 L 47.320312 25.367188 C 47.78125 25.367188 48.191406 25.070312 48.332031 24.632812 L 48.886719 22.921875 L 37.253906 22.921875 L 37.808594 24.632812 C 37.953125 25.070312 38.359375 25.367188 38.820312 25.367188 "/>
<path style=" stroke:none;fill-rule:nonzero;fill:rgb(100%,100%,100%);fill-opacity:1;" d="M 35.386719 17.171875 L 50.753906 17.171875 L 52.820312 10.8125 C 52.910156 10.539062 52.703125 10.253906 52.414062 10.253906 L 33.726562 10.253906 C 33.4375 10.253906 33.230469 10.539062 33.320312 10.8125 Z M 35.386719 17.171875 "/>
<path style=" stroke:none;fill-rule:nonzero;fill:rgb(100%,100%,100%);fill-opacity:1;" d="M 216.207031 28.316406 L 216.207031 30.871094 C 216.207031 36.34375 215.234375 38.632812 209.222656 38.632812 L 202.28125 38.632812 C 196.269531 38.632812 195.296875 36.34375 195.296875 30.871094 L 195.296875 28.316406 C 195.296875 22.84375 196.269531 20.558594 202.28125 20.558594 L 209.222656 20.558594 C 215.234375 20.558594 216.207031 22.84375 216.207031 28.316406 M 212.71875 12.433594 L 212.785156 12.339844 L 199.667969 12.339844 L 198.746094 12.375 L 198.785156 12.433594 C 190.859375 13.097656 186.511719 17.832031 186.511719 25.847656 L 186.511719 33.34375 C 186.511719 41.359375 190.859375 46.09375 198.789062 46.757812 L 198.722656 46.851562 L 212.78125 46.851562 L 212.714844 46.757812 C 220.640625 46.09375 224.992188 41.359375 224.992188 33.34375 L 224.992188 25.847656 C 224.992188 17.832031 220.644531 13.097656 212.71875 12.433594 "/>
<path style=" stroke:none;fill-rule:nonzero;fill:rgb(100%,100%,100%);fill-opacity:1;" d="M 149.296875 20.984375 L 162.230469 20.984375 L 162.230469 46.847656 L 170.824219 46.847656 L 170.824219 20.984375 L 183.753906 20.984375 L 183.753906 12.390625 L 149.296875 12.390625 Z M 149.296875 20.984375 "/>
<path style=" stroke:none;fill-rule:nonzero;fill:rgb(100%,100%,100%);fill-opacity:1;" d="M 136.652344 21.800781 L 136.652344 25.855469 C 136.652344 26.511719 136.121094 27.046875 135.464844 27.046875 L 118.117188 27.046875 L 118.117188 20.609375 L 135.464844 20.609375 C 136.121094 20.609375 136.652344 21.140625 136.652344 21.800781 M 142.199219 32.40625 C 143.75 30.933594 144.8125 28.859375 145.199219 26.558594 C 145.574219 24.292969 145.34375 20.511719 144.3125 18.351562 C 141.761719 13.007812 135.722656 12.390625 131.402344 12.390625 L 109.265625 12.390625 L 109.265625 46.847656 L 118.117188 46.847656 L 118.117188 35.476562 L 129.507812 35.476562 L 137.847656 46.847656 L 148.3125 46.847656 L 139.132812 34.328125 C 140.328125 33.847656 141.359375 33.203125 142.199219 32.40625 "/>
<path style=" stroke:none;fill-rule:nonzero;fill:rgb(100%,100%,100%);fill-opacity:1;" d="M 68.988281 17.875 L 68.988281 41.265625 C 68.988281 44.15625 71.214844 46.535156 74.09375 46.777344 L 74.09375 46.851562 L 103.234375 46.851562 L 103.234375 38.632812 L 77.582031 38.632812 L 77.582031 33.425781 L 98.25 33.425781 L 98.25 25.207031 L 77.582031 25.207031 L 77.582031 20.609375 L 103.234375 20.609375 L 103.234375 12.390625 L 74.523438 12.339844 C 71.472656 12.339844 68.988281 14.824219 68.988281 17.875 "/>
<path style=" stroke:none;fill-rule:nonzero;fill:rgb(100%,100%,100%);fill-opacity:1;" d="M 55.609375 13.464844 L 47.695312 37.832031 C 47.535156 38.324219 47.078125 38.65625 46.558594 38.65625 L 39.582031 38.65625 C 39.0625 38.65625 38.609375 38.324219 38.449219 37.832031 L 30.535156 13.464844 C 30.324219 12.824219 29.730469 12.390625 29.054688 12.390625 L 20.898438 12.390625 L 30.472656 41.863281 C 31.441406 44.84375 34.199219 46.847656 37.335938 46.847656 L 48.808594 46.847656 C 51.941406 46.847656 54.699219 44.84375 55.667969 41.863281 L 65.242188 12.390625 L 57.085938 12.390625 C 56.410156 12.390625 55.816406 12.824219 55.609375 13.464844 "/>
</g>
</svg>
