<svg width="168" height="44" viewBox="0 0 168 44" fill="none" xmlns="http://www.w3.org/2000/svg">
<path d="M6.36521 9.14283C6.83115 6.23374 9.31616 4.20776 9.31616 4.20776C6.83115 6.33763 4.50145 8.6753 3.00009 11.6363C0.722156 16.1039 1.44695 21.5065 4.91562 25.1948C7.14177 27.5844 11.0764 30.2857 17.9102 32.2597C18.1173 32.3117 18.0655 32.6234 17.8584 32.6234C13.5096 32 2.74123 30.0259 0.773926 22.9091C0.773926 24.935 1.55049 28.2597 2.27529 29.9221C3.72488 33.2467 6.41698 35.2208 9.88564 36.2078C12.9919 37.0909 16.5641 37.7143 18.1173 37.8701C18.3243 37.8701 18.3243 38.1818 18.1173 38.1818C12.06 39.013 7.60772 37.4026 7.60772 37.4026C10.6104 40.987 16.7712 42.9091 21.6895 43.013C23.4497 43.0649 25.1581 42.8571 26.8148 42.4935C28.575 42.0779 31.7331 40.4675 31.9919 37.7662C32.6649 31.2208 24.278 28.3117 16.7194 23.948C10.714 20.5195 5.27802 16.3117 6.36521 9.14283Z" fill="#E41E26"/>
<path d="M27.5391 12.3636C25.7271 13.4026 21.7408 14.8572 19.6699 20.6234C20.0323 20.7792 22.1549 22.026 22.7762 22.3896C22.0514 16.3117 27.5391 12.3636 27.5391 12.3636Z" fill="#E41E26"/>
<path d="M22.0516 0C21.5857 0 20.6538 0.0519481 19.8772 0.103896C19.8254 0.103896 19.7737 0.103896 19.7219 0.103896C19.1524 0.155844 18.6347 0.207792 18.4794 0.25974C15.7355 0.779221 13.147 1.76623 10.869 3.16883C10.662 3.32468 10.4031 3.48052 10.2478 3.68831C7.81455 6.02597 6.36496 12 14.2342 17.7143C18.9453 11.1688 25.6238 9.09091 25.6238 9.09091C24.9508 8.98701 19.7737 9.03896 18.9971 8.93507C25.5203 5.61039 32.6129 7.48052 35.0979 10.5455C35.0979 10.5455 30.9562 9.4026 28.8336 9.55844L30.335 10.8052C30.335 10.8052 31.7328 10.5974 33.4412 10.6494C34.632 10.7013 35.4086 10.961 35.4086 10.961C36.8064 11.3247 38.929 12.7273 39.8609 14.0779C31.8364 12.2597 28.8854 15.3247 27.9017 17.1429C27.1769 18.4935 25.7274 22.6494 28.5748 25.9221C33.8554 29.4026 36.9617 33.039 36.0298 37.9221C39.8091 34.7532 43.4331 28.4675 43.4331 21.6623C43.4848 9.61039 33.9072 0 22.0516 0Z" fill="#E41E26"/>
<path d="M113.229 17.8052L109.036 25.961H108.466L104.221 17.7532C103.186 15.7792 101.943 15 99.6136 15H96.5591V28.974H99.5618V18.013H99.6653C100.494 18.013 100.856 18.1688 101.322 19.0519L106.499 28.974H111.003L116.129 19.0519C116.595 18.1688 117.06 18.013 117.785 18.013H117.889V28.974H120.892V15.0519H117.785C115.507 15.0519 114.213 15.8312 113.229 17.8052Z" fill="#E41E28"/>
<path d="M139.167 15.052H128.916C124.515 15.052 123.583 17.5455 123.583 19.6234V24.4026C123.583 27.4156 125.395 28.9741 128.916 28.9741H139.167C142.687 28.9741 144.499 27.4156 144.499 24.4026V19.6234C144.447 17.5455 143.567 15.052 139.167 15.052ZM141.341 20.8182V24.4026C141.341 25.5455 140.461 25.9611 138.028 25.9611H128.864C126.742 25.9611 126.638 25.078 126.638 23.2078V19.6234C126.638 18.6364 127.156 18.013 129.951 18.013H139.115C141.289 18.013 141.341 19.0001 141.341 20.8182Z" fill="#E41E28"/>
<path d="M151.54 26.013C150.452 26.013 150.297 25.5455 150.297 25.078V15.052H147.191V25.4416C147.191 27.052 147.967 29.026 151.54 29.026H166.294V26.013H151.54Z" fill="#E41E28"/>
<path d="M131.142 37.8571L130.055 34.6364C130.107 35.1039 130.107 35.5714 130.107 35.987V37.8571H129.537V34.013H130.417L131.504 37.0779L132.592 34.013H133.472V37.8571H132.85V35.9351C132.85 35.7273 132.85 35.5195 132.85 35.2078C132.85 34.8961 132.85 34.7403 132.85 34.6364L131.711 37.8571H131.142Z" fill="black"/>
<path d="M138.908 35.9351C138.908 36.5585 138.752 37.026 138.442 37.3896C138.131 37.7533 137.665 37.9091 137.096 37.9091C136.526 37.9091 136.06 37.7533 135.75 37.3896C135.439 37.026 135.284 36.5585 135.284 35.9351C135.284 35.3117 135.439 34.7922 135.75 34.4805C136.06 34.1169 136.526 33.9611 137.096 33.9611C137.665 33.9611 138.079 34.1169 138.39 34.4805C138.752 34.7922 138.908 35.3117 138.908 35.9351ZM135.957 35.9351C135.957 36.4026 136.06 36.7663 136.267 37.026C136.474 37.2857 136.733 37.3896 137.096 37.3896C137.458 37.3896 137.769 37.2857 137.924 37.026C138.131 36.7663 138.183 36.4026 138.183 35.9351C138.183 35.4676 138.079 35.1039 137.924 34.8442C137.717 34.5844 137.458 34.4805 137.096 34.4805C136.733 34.4805 136.423 34.5844 136.267 34.8442C136.06 35.1039 135.957 35.4676 135.957 35.9351Z" fill="black"/>
<path d="M142.118 37.8571H141.496V34.5325H140.357V34.013H143.257V34.5325H142.118V37.8571Z" fill="black"/>
<path d="M148.278 35.9351C148.278 36.5585 148.123 37.026 147.812 37.3896C147.502 37.7533 147.036 37.9091 146.466 37.9091C145.897 37.9091 145.431 37.7533 145.12 37.3896C144.81 37.026 144.654 36.5585 144.654 35.9351C144.654 35.3117 144.81 34.7922 145.12 34.4805C145.431 34.1169 145.897 33.9611 146.466 33.9611C147.036 33.9611 147.45 34.1169 147.761 34.4805C148.123 34.7922 148.278 35.3117 148.278 35.9351ZM145.379 35.9351C145.379 36.4026 145.483 36.7663 145.69 37.026C145.897 37.2857 146.156 37.3896 146.518 37.3896C146.88 37.3896 147.191 37.2857 147.346 37.026C147.553 36.7663 147.605 36.4026 147.605 35.9351C147.605 35.4676 147.502 35.1039 147.346 34.8442C147.139 34.5844 146.88 34.4805 146.518 34.4805C146.156 34.4805 145.845 34.5844 145.69 34.8442C145.483 35.1039 145.379 35.4676 145.379 35.9351Z" fill="black"/>
<path d="M150.815 36.2987V37.8571H150.194V34.013H151.281C151.799 34.013 152.161 34.1169 152.368 34.2727C152.627 34.4805 152.731 34.7403 152.731 35.1039C152.731 35.5714 152.472 35.9351 152.006 36.1429L153.093 37.8571H152.368L151.436 36.2987H150.815ZM150.815 35.7792H151.229C151.54 35.7792 151.747 35.7273 151.851 35.6234C151.954 35.5195 152.058 35.3636 152.058 35.1559C152.058 34.9481 152.006 34.7922 151.851 34.6883C151.695 34.5844 151.488 34.5325 151.229 34.5325H150.815V35.7792Z" fill="black"/>
<path d="M160.548 35.9351C160.548 36.5585 160.392 37.026 160.082 37.3896C159.771 37.7533 159.305 37.9091 158.736 37.9091C158.166 37.9091 157.7 37.7533 157.39 37.3896C157.079 37.026 156.924 36.5585 156.924 35.9351C156.924 35.3117 157.079 34.7922 157.39 34.4805C157.7 34.1169 158.166 33.9611 158.736 33.9611C159.305 33.9611 159.719 34.1169 160.03 34.4805C160.392 34.7922 160.548 35.3117 160.548 35.9351ZM157.649 35.9351C157.649 36.4026 157.752 36.7663 157.959 37.026C158.166 37.2857 158.425 37.3896 158.788 37.3896C159.15 37.3896 159.461 37.2857 159.616 37.026C159.823 36.7663 159.875 36.4026 159.875 35.9351C159.875 35.4676 159.771 35.1039 159.616 34.8442C159.409 34.5844 159.15 34.4805 158.788 34.4805C158.425 34.4805 158.115 34.5844 157.959 34.8442C157.752 35.1039 157.649 35.4676 157.649 35.9351Z" fill="black"/>
<path d="M162.463 37.8571V34.013H163.085V37.8571H162.463Z" fill="black"/>
<path d="M165.156 37.8571V34.013H165.777V37.3377H167.382V37.8571H165.156Z" fill="black"/>
<path d="M93.9186 18.013V15.052H53.4336V18.013H61.5617V28.9741H64.6679V18.013H93.9186Z" fill="#E41E28"/>
<path d="M79.2155 26.013C78.1283 26.013 77.973 25.4935 77.973 25.026V23.4676H93.8667V20.4546H77.973H74.8667V25.3896C74.8667 27.052 75.6433 28.9741 79.2155 28.9741H93.9702V25.9611H79.2155V26.013Z" fill="#E41E28"/>
</svg>
