<svg width="12" height="17" viewBox="0 0 12 17" fill="none" xmlns="http://www.w3.org/2000/svg">
<g id="&#208;&#161;&#208;&#187;&#208;&#190;&#208;&#185;_1" clip-path="url(#clip0_64_32)">
<path id="Vector" d="M11.5466 5.78076C11.5362 5.97923 11.5376 6.17876 11.5134 6.37544C11.4654 6.80338 11.3572 7.22241 11.1921 7.62012C11.0083 8.04846 10.8023 8.46823 10.5974 8.88765C10.3733 9.34633 10.1488 9.80536 9.90781 10.2548C9.67651 10.6856 9.42914 11.1082 9.17857 11.528C8.89087 12.0108 8.59674 12.4897 8.29619 12.9647C8.06131 13.3359 7.81359 13.6993 7.5698 14.0652C7.35955 14.3811 7.15109 14.6984 6.93443 15.0097C6.65815 15.4066 6.37402 15.7978 6.0931 16.1912C6.01064 16.3065 5.92819 16.4221 5.84323 16.5364C5.78362 16.6174 5.76185 16.6188 5.70331 16.5364C5.44773 16.1815 5.19347 15.8258 4.94051 15.4691C4.76203 15.216 4.58356 14.9626 4.40973 14.7056C4.1087 14.2589 3.81029 13.8108 3.5145 13.3613C3.33888 13.0954 3.16076 12.8309 2.99478 12.5589C2.67924 12.0424 2.36441 11.5237 2.06278 11.0001C1.8015 10.546 1.55413 10.0834 1.30998 9.61975C1.08082 9.18534 0.855226 8.74844 0.644269 8.30511C0.517282 8.03516 0.406432 7.75792 0.312307 7.47484C0.225205 7.2123 0.15369 6.94483 0.0981373 6.67385C0.0567312 6.4761 0.0467366 6.27157 0.0267474 6.06953C0.0112099 5.95822 0.00274494 5.84603 0.00140381 5.73364C0.0049733 5.53804 0.0124695 5.341 0.0346004 5.14789C0.0564179 4.93164 0.0921874 4.71702 0.141685 4.50538C0.207364 4.24374 0.294816 3.98709 0.380127 3.73045C0.498559 3.39105 0.655321 3.06627 0.847374 2.7624C1.02799 2.46256 1.22574 2.17272 1.47239 1.92286C1.70604 1.67818 1.95206 1.44562 2.20949 1.22609C2.52942 0.962353 2.88275 0.741997 3.26035 0.570733C3.51343 0.455438 3.77257 0.351566 4.03457 0.257331C4.18976 0.204942 4.34903 0.165542 4.51074 0.139538C4.75597 0.0956333 5.00262 0.0506577 5.25105 0.0324533C5.55512 0.00599515 5.86049 -0.00246709 6.16556 0.00711019C6.4275 0.0193845 6.68787 0.0544989 6.94371 0.112053C7.4734 0.225086 7.98521 0.409782 8.46502 0.661041C9.02103 0.955094 9.52594 1.33694 9.96028 1.79186C10.3419 2.19069 10.6623 2.64396 10.9108 3.13684C11.0575 3.4274 11.1907 3.72402 11.2731 4.03992C11.3385 4.28979 11.4049 4.54286 11.4488 4.79808C11.4895 5.0326 11.5012 5.27211 11.5259 5.50948C11.5355 5.6005 11.5462 5.69152 11.5562 5.78255L11.5466 5.78076ZM8.95226 5.76291C8.96475 3.98317 7.5059 2.56501 5.75114 2.57357C4.85877 2.57786 4.08455 2.91625 3.46845 3.56946C2.87663 4.19734 2.5825 4.94693 2.59357 5.81824C2.61606 7.54766 4.02922 8.93619 5.74864 8.95011C7.50233 8.96296 8.96475 7.53695 8.95226 5.76291Z" fill="#42A62C"/>
</g>
<defs>
<clipPath id="clip0_64_32">
<rect width="11.5562" height="16.5978" fill="white"/>
</clipPath>
</defs>
</svg>
