<svg width="78" height="49" viewBox="0 0 78 49" fill="none" xmlns="http://www.w3.org/2000/svg">
<g id="&#208;&#161;&#208;&#187;&#208;&#190;&#208;&#185;_1" clip-path="url(#clip0_13_526)">
<path id="Vector" d="M0 33.5171C0.470044 32.6013 1.22779 32.2913 2.22866 32.3298C3.56585 32.3805 4.90711 32.3298 6.24633 32.346C7.22491 32.3602 7.88944 32.8728 8.02721 33.669C8.17309 34.5078 7.78612 35.1096 6.84806 35.5269C6.71116 35.5709 6.59189 35.6575 6.50767 35.7741C5.84516 37.2633 6.83387 38.8132 8.43851 38.8253H9.8304C9.92158 38.5336 10.0026 38.2702 10.0857 38.0149C10.6033 36.3762 11.6277 34.944 13.0112 33.9245C14.3948 32.905 16.0661 32.3509 17.7847 32.342C19.5042 32.34 21.179 32.8902 22.5624 33.9114C23.9458 34.9327 24.9649 36.3711 25.4695 38.0149C25.6721 38.6612 25.9254 38.8456 26.6021 38.8436C34.79 38.8152 42.9786 38.8112 51.1679 38.8314C51.6744 38.8314 51.9398 38.7605 52.112 38.173C52.5994 36.4833 53.6258 34.9994 55.0349 33.9474C56.444 32.8953 58.1584 32.3328 59.9169 32.3457C61.6753 32.3585 63.3813 32.946 64.7749 34.0185C66.1684 35.0911 67.1731 36.5899 67.6357 38.2864C67.6843 38.4546 67.7451 38.6187 67.8119 38.8172C69.5138 38.8172 71.2056 38.8436 72.8953 38.8051C73.0882 38.8075 73.2796 38.7717 73.4585 38.6997C73.6374 38.6278 73.8004 38.5211 73.9379 38.3859C74.0754 38.2506 74.1847 38.0895 74.2596 37.9118C74.3345 37.734 74.3735 37.5432 74.3743 37.3504C74.4067 34.8523 74.352 32.3521 74.3338 29.854C74.3338 29.2847 74.0805 29.1023 73.4909 29.1064C69.5989 29.1347 65.7069 29.1226 61.8128 29.1206C59.5436 29.1206 58.2328 27.8117 58.2287 25.5527C58.2287 23.6063 58.2287 21.66 58.2287 19.7136C58.2287 17.4849 59.5294 16.2025 61.7723 16.1944C63.6666 16.1944 65.563 16.1944 67.4594 16.1944H68.205C67.9477 14.3425 66.6389 12.9891 64.8944 12.9527C61.13 12.8939 57.3636 12.9385 53.5972 12.9527C53.5526 12.9527 53.508 12.9891 53.3763 13.0459V13.8928C53.3763 19.3766 53.3763 24.8618 53.3763 30.3483C53.3763 33.5677 51.3503 35.5999 48.1086 35.6039C41.9426 35.612 35.776 35.612 29.6087 35.6039C29.2806 35.6111 28.9529 35.575 28.6342 35.4965C28.3084 35.3951 28.0239 35.1913 27.8231 34.9154C27.6223 34.6395 27.5158 34.3062 27.5195 33.9649C27.5231 33.6237 27.6367 33.2927 27.8433 33.0212C28.05 32.7496 28.3387 32.5519 28.6666 32.4575C29.0111 32.3817 29.3635 32.3483 29.7161 32.3582C35.7551 32.3582 41.7954 32.3582 47.8371 32.3582C49.6605 32.3582 50.1448 31.8922 50.1448 30.087V5.50288C50.1448 3.7544 49.6221 3.22357 47.8999 3.22357H8.71405C6.96557 3.22357 6.48539 3.71388 6.48539 5.49072C6.48539 11.5324 6.48539 17.5734 6.48539 23.6138C6.49542 23.9662 6.46757 24.3187 6.40232 24.6653C6.32296 25.0132 6.1285 25.3241 5.85042 25.5477C5.57234 25.7713 5.22693 25.8944 4.87012 25.8973C4.5133 25.9001 4.16599 25.7824 3.88442 25.5632C3.60285 25.344 3.4035 25.0362 3.31867 24.6896C3.25512 24.3941 3.2259 24.0922 3.23157 23.79C3.23157 17.5971 3.23157 11.4041 3.23157 5.21113C3.23157 2.03023 5.27583 0.00215149 8.45471 0.00215149H48.1856C51.3624 0.00215149 53.3824 2.0282 53.3885 5.22126C53.3885 6.68407 53.3885 8.14485 53.3885 9.70694H54.2374C57.6817 9.70694 61.1118 9.70694 64.55 9.70694C67.504 9.70694 69.6009 11.0725 70.8307 13.759C72.8419 18.1677 74.8491 22.5778 76.8522 26.9891C77.396 28.1611 77.6728 29.4393 77.6626 30.7313C77.6464 32.8303 77.6626 34.9272 77.6626 37.0262C77.6484 39.968 75.6062 42.0143 72.6502 42.0447C71.2603 42.0589 69.8704 42.0609 68.4805 42.0447C68.0206 42.0447 67.7815 42.1278 67.6336 42.6424C67.1636 44.338 66.1496 45.8324 64.7477 46.8957C63.3458 47.9591 61.6334 48.5326 59.8739 48.5281C56.2695 48.5281 53.1535 46.2062 52.0979 42.6708C51.9561 42.1926 51.7737 42.0366 51.2875 42.0366C42.9969 42.0501 34.7063 42.0501 26.4157 42.0366C25.9598 42.0366 25.7248 42.1116 25.5688 42.6323C24.497 46.2285 21.387 48.5443 17.7462 48.524C14.154 48.5058 11.0845 46.1617 10.0269 42.5938C9.90536 42.1886 9.74126 42.0245 9.30566 42.0326C8.57428 42.0762 7.84033 42.0443 7.11549 41.9374C4.8686 41.5018 3.33893 39.6074 3.23965 37.2349C3.21939 36.7324 3.23965 36.2219 3.23965 35.6262C2.02402 35.5573 0.662531 35.8551 0.0121682 34.4227L0 33.5171ZM59.8739 35.6039C58.6039 35.6203 57.3909 36.1342 56.4957 37.0352C55.6005 37.9362 55.0944 39.1524 55.0862 40.4225C55.078 41.6926 55.5683 42.9152 56.4517 43.8277C57.3352 44.7402 58.5414 45.2698 59.811 45.3026C61.1006 45.3054 62.3392 44.7996 63.2583 43.895C64.1773 42.9904 64.7026 41.7599 64.7202 40.4705C64.7237 39.8321 64.6008 39.1994 64.3587 38.6087C64.1167 38.018 63.7602 37.4811 63.3097 37.0287C62.8593 36.5764 62.3238 36.2176 61.7341 35.9731C61.1444 35.7286 60.5122 35.6031 59.8739 35.6039ZM22.6371 40.3915C22.6287 39.1056 22.1099 37.8757 21.1948 36.9724C20.2797 36.069 19.0432 35.5662 17.7573 35.5745C16.4715 35.5829 15.2416 36.1017 14.3382 37.0168C13.4349 37.9319 12.9321 39.1684 12.9404 40.4543C12.9525 43.1185 15.1954 45.3431 17.8292 45.3046C19.1168 45.2881 20.3452 44.7615 21.245 43.8405C22.1448 42.9194 22.6425 41.679 22.629 40.3915H22.6371ZM61.4947 25.8323H72.7575C71.7992 23.7272 70.8935 21.7072 69.9454 19.7075C69.8663 19.5414 69.5077 19.4279 69.2768 19.4259C66.8455 19.4056 64.4305 19.4117 62.0053 19.4259C61.8341 19.4352 61.6636 19.4548 61.4947 19.4847V25.8323Z" fill="#42A62C"/>
<path id="Vector_2" d="M0 28.6646C0.47207 27.7589 1.21563 27.4489 2.22866 27.4733C4.59914 27.5199 6.96961 27.4915 9.34009 27.4854C10.0026 27.4854 10.6854 27.5806 10.9751 28.2087C11.1891 28.7005 11.2409 29.2476 11.123 29.7708C10.9508 30.4374 10.3247 30.723 9.644 30.7392C8.63097 30.7615 7.61796 30.7392 6.61709 30.7392C5.15428 30.7392 3.69147 30.7008 2.23068 30.7514C1.21766 30.7879 0.474098 30.4657 0.00202803 29.5641L0 28.6646Z" fill="#42A62C"/>
<path id="Vector_3" d="M25.2669 19.211C25.9618 20.0073 26.602 20.7204 27.218 21.4539C27.9352 22.3088 27.9129 23.2388 27.1815 23.873C26.4501 24.5071 25.508 24.3855 24.7786 23.5691C23.9905 22.6857 23.2165 21.7902 22.2845 20.7326C22.2845 21.4376 22.2845 21.9482 22.2845 22.4608C22.2643 23.5528 21.624 24.2701 20.6637 24.2842C19.7033 24.2984 19.0428 23.6116 19.0428 22.4912C19.0293 19.3846 19.0293 16.278 19.0428 13.1714C19.0428 11.9395 19.6345 11.3763 20.8663 11.3601C21.8793 11.3479 22.8923 11.3418 23.9054 11.3601C24.8229 11.3568 25.7137 11.6684 26.4291 12.2429C27.1445 12.8175 27.6411 13.6201 27.8359 14.5167C28.2411 16.2732 27.3983 18.0622 25.7329 18.974C25.6073 19.0327 25.4735 19.1016 25.2669 19.211ZM22.3088 16.1719C22.9167 16.1719 23.4617 16.2672 23.9499 16.1375C24.2478 16.0585 24.6469 15.633 24.6469 15.3635C24.6469 15.0941 24.2417 14.6747 23.9418 14.6018C23.4313 14.4741 22.866 14.5653 22.3088 14.5653V16.1719Z" fill="#42A62C"/>
<path id="Vector_4" d="M42.0871 14.5633V16.1841C42.7375 16.1841 43.3818 16.1841 44.026 16.1841C45.3207 16.1841 46.0764 16.7757 46.0845 17.7786C46.0926 18.7815 45.3227 19.3994 44.0584 19.3994H42.1134V21.0203C43.0171 21.0203 43.9166 21.0203 44.8142 21.0203C45.1667 21.0066 45.5193 21.0428 45.8616 21.1277C46.1977 21.2481 46.4819 21.4807 46.6664 21.7863C46.851 22.0919 46.9245 22.4518 46.8747 22.8052C46.8476 23.1769 46.686 23.5259 46.4201 23.787C46.1542 24.0481 45.8022 24.2033 45.4301 24.2235C43.714 24.264 41.9858 24.2701 40.2799 24.2235C39.4492 24.1992 38.8474 23.5083 38.8414 22.6431C38.8211 19.4096 38.8211 16.1767 38.8414 12.9444C38.8414 11.9719 39.4938 11.3479 40.4805 11.3236C42.0702 11.2979 43.6613 11.2979 45.2538 11.3236C46.2466 11.3378 46.8949 12.0125 46.8747 12.9444C46.8544 13.8764 46.1899 14.5167 45.2072 14.5369C44.182 14.5754 43.1528 14.5633 42.0871 14.5633Z" fill="#42A62C"/>
<path id="Vector_5" d="M32.7896 14.5633V16.1841C33.4846 16.1841 34.1795 16.1841 34.8724 16.1841C36.0536 16.1963 36.7587 16.7919 36.7668 17.7725C36.7749 18.7531 36.0455 19.3934 34.8258 19.4035C34.1734 19.4035 33.519 19.4035 32.812 19.4035V21.0466C33.7966 21.0466 34.7975 21.0142 35.7943 21.0608C36.2167 21.0723 36.6291 21.1923 36.9917 21.4093C37.5691 21.7922 37.7454 22.4223 37.5509 23.0848C37.3564 23.7473 36.8498 24.2295 36.1326 24.2458C34.4416 24.2863 32.7532 24.2863 31.0675 24.2458C30.8696 24.2469 30.6734 24.2084 30.4906 24.1326C30.3077 24.0568 30.1418 23.9452 30.0027 23.8044C29.8636 23.6636 29.754 23.4964 29.6805 23.3126C29.6069 23.1289 29.5708 22.9322 29.5743 22.7343C29.5486 19.4494 29.5486 16.1665 29.5743 12.8857C29.5743 11.9699 30.1943 11.3722 31.1161 11.354C32.7545 11.3216 34.3956 11.3216 36.0394 11.354C36.2489 11.3474 36.4576 11.3834 36.6527 11.4599C36.8478 11.5364 37.0253 11.6518 37.1744 11.799C37.3236 11.9463 37.4412 12.1223 37.5202 12.3164C37.5992 12.5105 37.6379 12.7187 37.6339 12.9282C37.6339 13.8318 36.9654 14.5288 35.9969 14.5491C34.9535 14.5774 33.91 14.5633 32.7896 14.5633Z" fill="#42A62C"/>
<path id="Vector_6" d="M12.9769 14.5633C12.9566 14.7659 12.9343 14.8773 12.9323 14.9968C12.9323 15.3494 12.9323 15.7019 12.9323 16.2023C13.7913 16.2023 14.6119 16.2023 15.4304 16.2023C16.103 16.2023 16.6724 16.5305 16.8203 17.1627C16.9358 17.6489 16.9013 18.3094 16.644 18.7025C16.3867 19.0955 15.7971 19.3103 15.3169 19.3853C14.5774 19.4947 13.8096 19.4136 12.9303 19.4136V21.4518C12.9303 21.8307 12.9303 22.2096 12.9303 22.5884C12.8918 23.6015 12.2677 24.2518 11.354 24.264C10.4402 24.2761 9.73313 23.5772 9.71895 22.5601C9.70477 19.912 9.71895 17.262 9.71895 14.6119C9.71895 14.0811 9.70477 13.5502 9.71895 13.0214C9.75137 11.9922 10.3511 11.3601 11.3722 11.3439C12.9633 11.3182 14.5531 11.3182 16.1415 11.3439C17.1343 11.3601 17.7806 12.0327 17.7624 12.9647C17.7442 13.8967 17.0796 14.5369 16.097 14.5572C15.0677 14.5754 14.0385 14.5633 12.9769 14.5633Z" fill="#42A62C"/>
</g>
<defs>
<clipPath id="clip0_13_526">
<rect width="77.6525" height="48.53" fill="white"/>
</clipPath>
</defs>
</svg>
