<svg width="24" height="18" viewBox="0 0 24 18" fill="none" xmlns="http://www.w3.org/2000/svg">
<g id="Group 484">
<path id="Vector" d="M23.0755 15.5932C22.9784 16.0651 22.7972 16.4895 22.4236 16.8174C22.0172 17.173 21.5408 17.3062 21.0125 17.3062C16.1766 17.3062 11.3414 17.3062 6.50694 17.3062C5.01292 17.3062 3.51834 17.3091 2.02376 17.3062C1.20196 17.3062 0.563604 16.9614 0.209149 16.209C0.0817231 15.9213 0.0150476 15.6104 0.013295 15.2958C-0.00871732 14.0868 0.00370026 12.8778 0.00482909 11.6688C0.00482909 11.2438 0.169075 11.0745 0.598034 11.0479C1.94305 10.9644 2.93981 9.86662 2.88224 8.52894C2.83088 7.3352 1.8296 6.3215 0.640929 6.25998C0.153835 6.23514 0.00200683 6.07711 0.00200683 5.59227C0.00200683 4.39118 -0.00250853 3.18953 0.00200683 1.98789C0.0070866 1.04135 0.550622 0.317204 1.44184 0.0739388C1.6391 0.0248836 1.84198 0.00210985 2.04521 0.00620865C8.37574 0.00282213 14.7063 0.000752559 21.0368 0C22.0923 0 22.9084 0.694236 23.0467 1.63287C23.0542 1.66144 23.0644 1.68922 23.0772 1.71584V5.85924C22.9801 6.14822 22.7628 6.24474 22.4755 6.26054C21.8601 6.28891 21.2793 6.55334 20.8538 6.99888C20.4283 7.44441 20.1909 8.03677 20.1909 8.65283C20.1909 9.26889 20.4283 9.86126 20.8538 10.3068C21.2793 10.7523 21.8601 11.0168 22.4755 11.0451C22.7628 11.0609 22.9801 11.158 23.0772 11.447L23.0755 15.5932ZM22.1069 5.31175C22.1114 5.25531 22.1165 5.22032 22.1165 5.18306C22.1165 4.12421 22.1222 3.0648 22.1165 2.00595C22.112 1.33937 21.7141 0.958385 21.0312 0.958385C14.7066 0.958385 8.38251 0.958385 2.05875 0.958385C1.3442 0.958385 0.963213 1.34445 0.962084 2.06352C0.962084 3.07947 0.96547 4.09148 0.957569 5.10517C0.957569 5.2745 1.0078 5.33094 1.17374 5.36594C2.71348 5.66282 3.84796 7.0671 3.84344 8.6582C3.83893 10.2493 2.7084 11.6389 1.18503 11.9409C1.11278 11.9555 1.04223 11.9747 0.959262 11.9973V12.2135C0.959262 13.22 0.959262 14.2266 0.959262 15.2331C0.959262 15.9669 1.33912 16.3484 2.06891 16.3484C8.37799 16.3484 14.6871 16.3484 20.9962 16.3484C21.7299 16.3484 22.1143 15.9697 22.1154 15.2427C22.1154 14.2268 22.112 13.2148 22.1199 12.2011C22.1199 12.0317 22.0697 11.9725 21.9037 11.9403C20.364 11.6434 19.2295 10.2391 19.234 8.64804C19.2386 7.05694 20.3691 5.66677 21.8925 5.36481C21.9658 5.34957 22.0364 5.32981 22.1069 5.31175Z" fill="#42A62C"/>
<path id="Vector_2" d="M16.3407 4.37634C16.308 4.47851 16.2649 4.57704 16.212 4.6704C14.3242 7.50605 12.4345 10.3409 10.543 13.1751C10.3528 13.4601 10.0649 13.5363 9.83295 13.3738C9.60097 13.2112 9.55638 12.9222 9.74829 12.64C11.6365 9.80248 13.5261 6.96703 15.4173 4.13364C15.5821 3.88642 15.7825 3.80345 16.0077 3.87909C16.2148 3.94794 16.3249 4.09808 16.3407 4.37634Z" fill="#42A62C"/>
<path id="Vector_3" d="M12.4931 6.38397C12.4586 7.10587 12.2075 7.85146 11.4771 8.35944C10.8303 8.81098 10.026 8.7376 9.45536 8.19463C8.38691 7.17868 8.39312 5.29803 9.46834 4.29562C10.2185 3.59461 11.358 3.73967 11.9789 4.61395C12.3243 5.10387 12.4976 5.65644 12.4931 6.38397ZM11.5398 6.25021C11.5257 5.85116 11.4399 5.46905 11.1785 5.14338C10.8314 4.7116 10.3511 4.7037 9.99325 5.12306C9.49092 5.71006 9.49995 6.81632 10.0113 7.39936C10.3471 7.78204 10.8263 7.77696 11.1565 7.38469C11.4286 7.06128 11.524 6.67126 11.5398 6.25021Z" fill="#42A62C"/>
<path id="Vector_4" d="M13.4712 10.8638C13.5079 10.1865 13.7607 9.44933 14.4838 8.94813C15.1306 8.49659 15.9337 8.56884 16.5055 9.11181C17.5739 10.1278 17.5683 12.0067 16.4936 13.0108C15.7441 13.7113 14.6028 13.5662 13.9842 12.6931C13.6337 12.1975 13.4571 11.6269 13.4712 10.8638ZM14.4217 11.0568C14.4363 11.4564 14.5221 11.8385 14.7835 12.1636C15.1306 12.5948 15.6115 12.6016 15.9687 12.1817C16.4705 11.5936 16.4603 10.485 15.9484 9.90482C15.6182 9.53005 15.1452 9.52779 14.8196 9.90482C14.5351 10.2327 14.4369 10.6278 14.4217 11.0568Z" fill="#42A62C"/>
<path id="Vector_5" d="M6.72128 2.8383C6.72128 3.02512 6.73257 3.21307 6.71846 3.39933C6.7146 3.5128 6.66815 3.62066 6.58834 3.70141C6.50853 3.78216 6.40123 3.82988 6.28781 3.83507C6.03834 3.852 5.80918 3.70356 5.79281 3.449C5.766 3.03139 5.766 2.61248 5.79281 2.19486C5.80805 1.95724 6.04511 1.79582 6.26918 1.80711C6.38611 1.81374 6.49656 1.86292 6.57974 1.94536C6.66291 2.02781 6.71305 2.13783 6.72072 2.25469C6.72507 2.27631 6.72808 2.29817 6.72975 2.32016C6.72975 2.49212 6.72975 2.66427 6.72975 2.83661L6.72128 2.8383Z" fill="#42A62C"/>
<path id="Vector_6" d="M6.72189 14.4174C6.72189 14.5867 6.73205 14.7628 6.71907 14.9344C6.71563 15.0481 6.66936 15.1564 6.5895 15.2375C6.50965 15.3186 6.40212 15.3666 6.28842 15.3718C6.03894 15.3893 5.81092 15.2408 5.79286 14.9857C5.76529 14.6052 5.7668 14.2231 5.79737 13.8428C5.81713 13.5973 6.03951 13.4567 6.28108 13.4703C6.39475 13.4738 6.50288 13.5202 6.58387 13.6C6.66486 13.6798 6.71274 13.7873 6.71794 13.9009C6.73205 14.0702 6.71794 14.2452 6.71794 14.4174H6.72189Z" fill="#42A62C"/>
<path id="Vector_7" d="M6.72077 6.73505C6.72077 6.90438 6.73205 7.08048 6.72077 7.25206C6.71405 7.36606 6.66491 7.47342 6.58302 7.55302C6.50113 7.63262 6.39241 7.67868 6.27826 7.68215C6.04516 7.69851 5.81374 7.55007 5.79625 7.30681C5.76746 6.91921 5.76746 6.53001 5.79625 6.14241C5.81374 5.91664 6.04628 5.76256 6.26415 5.77159C6.37724 5.77759 6.48457 5.82336 6.56719 5.90082C6.64981 5.97828 6.7024 6.08243 6.71569 6.1949C6.71934 6.21694 6.7216 6.23918 6.72246 6.2615C6.72246 6.41879 6.72246 6.57626 6.72246 6.73392L6.72077 6.73505Z" fill="#42A62C"/>
<path id="Vector_8" d="M5.77024 10.5528C5.77024 10.4026 5.76233 10.2525 5.77024 10.1012C5.78943 9.80888 5.996 9.61076 6.25846 9.61867C6.52091 9.62657 6.70999 9.81452 6.71959 10.1018C6.73088 10.4162 6.73088 10.7317 6.71959 11.0461C6.70999 11.3283 6.51358 11.5241 6.25789 11.5315C6.00221 11.5388 5.78773 11.3385 5.76967 11.0455C5.7629 10.883 5.77024 10.7176 5.77024 10.5528Z" fill="#42A62C"/>
</g>
</svg>
