<svg width="16" height="29" viewBox="0 0 16 29" fill="none" xmlns="http://www.w3.org/2000/svg">
<path id="Vector" d="M15.0545 0.0100927H11.3931C10.4755 -0.0420482 9.55781 0.108275 8.70159 0.450946C7.84537 0.793618 7.07053 1.32069 6.42922 1.9967C5.7879 2.6727 5.29498 3.48196 4.98363 4.37002C4.67227 5.25808 4.54971 6.20434 4.62418 7.14513V10.4338H0.947039C0.794281 10.4338 0.64778 10.4961 0.539763 10.607C0.431747 10.718 0.371063 10.8685 0.371063 11.0254V15.7907C0.371063 15.9476 0.431747 16.0981 0.539763 16.209C0.64778 16.32 0.794281 16.3823 0.947039 16.3823H4.62732V28.4084C4.62732 28.5653 4.688 28.7158 4.79602 28.8267C4.90403 28.9377 5.05053 29 5.20329 29H10.0041C10.1569 29 10.3034 28.9377 10.4114 28.8267C10.5194 28.7158 10.5801 28.5653 10.5801 28.4084V16.3823H14.8819C14.9575 16.3823 15.0324 16.367 15.1023 16.3373C15.1722 16.3075 15.2357 16.264 15.2891 16.209C15.3426 16.1541 15.3851 16.0889 15.414 16.0171C15.4429 15.9453 15.4578 15.8684 15.4578 15.7907V11.0254C15.4578 10.8685 15.3972 10.718 15.2891 10.607C15.1811 10.4961 15.0346 10.4338 14.8819 10.4338H10.5785V7.64487C10.5785 6.30524 10.8924 5.62494 12.589 5.62494H15.0545C15.207 5.62452 15.3531 5.562 15.4608 5.45109C15.5684 5.34018 15.6289 5.18994 15.6289 5.03331V0.60656C15.6295 0.528595 15.6151 0.451273 15.5866 0.37904C15.558 0.306806 15.5158 0.241085 15.4624 0.185655C15.4091 0.130225 15.3455 0.0861793 15.2755 0.0560501C15.2055 0.025921 15.1304 0.0103025 15.0545 0.0100927Z" fill="#007889"/>
</svg>
