<svg width="28" height="29" viewBox="0 0 28 29" fill="none" xmlns="http://www.w3.org/2000/svg">
<g id="IMAGE" clip-path="url(#clip0_1_295)">
<path id="Vector" d="M19.2503 0.5H8.74971C6.42927 0.500413 4.20399 1.42234 2.56319 3.06304C0.922388 4.70375 0.000413368 6.92891 0 9.24922L0 19.7492C-3.68299e-08 22.0698 0.921792 24.2954 2.56264 25.9364C4.20348 27.5775 6.429 28.4996 8.74971 28.5H19.2503C21.5707 28.4996 23.796 27.5777 25.4368 25.937C27.0776 24.2963 27.9996 22.0711 28 19.7508V9.24922C27.9996 6.92891 27.0776 4.70375 25.4368 3.06304C23.796 1.42234 21.5707 0.500413 19.2503 0.5ZM25.376 19.7492C25.3744 21.3733 24.7285 22.9303 23.58 24.0787C22.4316 25.2271 20.8744 25.873 19.2503 25.8746H8.74971C7.12557 25.873 5.56843 25.2271 4.41999 24.0787C3.27155 22.9303 2.62563 21.3733 2.62398 19.7492V9.24922C2.62604 7.62544 3.27214 6.06879 4.42054 4.92075C5.56893 3.77271 7.12584 3.12704 8.74971 3.12539H19.2503C20.8744 3.12704 22.4316 3.77292 23.58 4.9213C24.7285 6.06967 25.3744 7.62673 25.376 9.25078V19.7492Z" fill="#007889"/>
<g id="Group">
<path id="Vector_2" d="M14.0008 7.5C12.6163 7.5 11.2628 7.91054 10.1116 8.67971C8.96036 9.44888 8.06312 10.5421 7.53327 11.8212C7.00343 13.1003 6.8648 14.5078 7.13491 15.8656C7.40502 17.2235 8.07175 18.4708 9.05077 19.4498C10.0298 20.4287 11.2771 21.0954 12.6351 21.3655C13.993 21.6356 15.4006 21.497 16.6797 20.9671C17.9589 20.4373 19.0522 19.5401 19.8214 18.389C20.5906 17.2379 21.0012 15.8845 21.0012 14.5C21.0012 13.5808 20.8201 12.6705 20.4683 11.8212C20.1165 10.9719 19.6009 10.2003 18.9508 9.55026C18.3008 8.90025 17.5291 8.38463 16.6797 8.03284C15.8304 7.68106 14.9201 7.5 14.0008 7.5ZM14.0008 18.8809C13.1355 18.8809 12.2897 18.6243 11.5703 18.1436C10.8508 17.6629 10.2901 16.9797 9.95896 16.1803C9.62784 15.381 9.54119 14.5014 9.71 13.6528C9.8788 12.8042 10.2955 12.0247 10.9073 11.4129C11.5191 10.8011 12.2987 10.3845 13.1473 10.2157C13.9959 10.0469 14.8756 10.1335 15.675 10.4646C16.4744 10.7957 17.1576 11.3564 17.6383 12.0758C18.1191 12.7952 18.3757 13.641 18.3757 14.5062C18.374 15.666 17.9125 16.7777 17.0925 17.5977C16.2724 18.4178 15.1606 18.8792 14.0008 18.8809Z" fill="#007889"/>
</g>
<g id="Group_2">
<path id="Vector_3" d="M21.525 7.90682C22.0399 7.90682 22.4574 7.48942 22.4574 6.97453C22.4574 6.45964 22.0399 6.04224 21.525 6.04224C21.0101 6.04224 20.5927 6.45964 20.5927 6.97453C20.5927 7.48942 21.0101 7.90682 21.525 7.90682Z" fill="#007889"/>
</g>
</g>
<defs>
<clipPath id="clip0_1_295">
<rect width="28" height="28" fill="white" transform="translate(0 0.5)"/>
</clipPath>
</defs>
</svg>
