<svg width="30" height="31" viewBox="0 0 30 31" fill="none" xmlns="http://www.w3.org/2000/svg">
<g id="viber">
<path id="Vector" d="M25.2976 4.24431C24.596 3.59802 21.7568 1.53762 15.4264 1.51C15.4264 1.51 7.9637 1.06257 4.329 4.39898C2.30727 6.42071 1.59469 9.38703 1.51736 13.0604C1.44002 16.7338 1.34612 23.6165 7.98027 25.4836H7.9858L7.98027 28.3339C7.98027 28.3339 7.93608 29.4883 8.69837 29.7204C9.61534 30.0076 10.1567 29.1293 11.035 28.1847C11.5155 27.6655 12.1784 26.9032 12.6811 26.3232C17.2217 26.7043 20.7072 25.8316 21.105 25.7045C22.0219 25.4062 27.2088 24.7434 28.0485 17.8606C28.9212 10.7569 27.6286 6.27157 25.2976 4.24431ZM26.0654 17.3414C25.3528 23.0862 21.1492 23.4508 20.3758 23.6993C20.0444 23.8043 16.9786 24.5666 13.1285 24.318C13.1285 24.318 10.2561 27.7815 9.36124 28.6819C9.06847 28.9746 8.74809 28.947 8.75361 28.367C8.75361 27.9859 8.77571 23.6331 8.77571 23.6331C8.77018 23.6331 8.77018 23.6331 8.77571 23.6331C3.15242 22.0753 3.48385 16.2145 3.54461 13.1488C3.60538 10.083 4.18538 7.56968 5.89778 5.87938C8.97457 3.08983 15.3104 3.50412 15.3104 3.50412C20.6631 3.52621 23.2261 5.13918 23.8227 5.68052C25.7947 7.37082 26.8001 11.4143 26.0654 17.3414ZM18.3872 12.8781C18.4093 13.3532 17.6967 13.3863 17.6746 12.9112C17.6139 11.696 17.0449 11.1049 15.8739 11.0387C15.3988 11.011 15.443 10.2985 15.9125 10.3261C17.4537 10.4089 18.3099 11.2928 18.3872 12.8781ZM19.5086 13.5023C19.5638 11.1602 18.1 9.32626 15.3215 9.12188C14.852 9.08874 14.9017 8.37616 15.3712 8.4093C18.575 8.64131 20.2819 10.8453 20.2211 13.5189C20.2156 13.9939 19.4975 13.9718 19.5086 13.5023ZM22.1048 14.2425C22.1103 14.7176 21.3922 14.7231 21.3922 14.248C21.3591 9.74608 18.3596 7.29348 14.7194 7.26586C14.2499 7.26034 14.2499 6.55329 14.7194 6.55329C18.7905 6.58091 22.0661 9.39255 22.1048 14.2425ZM21.4806 19.6614V19.6725C20.884 20.722 19.7682 21.882 18.6192 21.5119L18.6082 21.4953C17.4426 21.1694 14.6973 19.7553 12.9628 18.3743C12.0679 17.6673 11.2504 16.8332 10.6207 16.0322C10.0517 15.3197 9.47724 14.4745 8.91933 13.4581C7.74275 11.3314 7.48313 10.3813 7.48313 10.3813C7.11303 9.23236 8.26751 8.11654 9.32257 7.51996H9.33362C9.84181 7.25482 10.3279 7.3432 10.6538 7.73539C10.6538 7.73539 11.3388 8.55292 11.6315 8.95616C11.9077 9.33179 12.2778 9.93389 12.4712 10.2708C12.8081 10.8729 12.5982 11.4861 12.2668 11.7402L11.6039 12.2705C11.267 12.5412 11.3112 13.0438 11.3112 13.0438C11.3112 13.0438 12.2944 16.7614 15.9678 17.7004C15.9678 17.7004 16.4704 17.7446 16.7411 17.4077L17.2714 16.7448C17.5255 16.4134 18.1386 16.2035 18.7407 16.5404C19.5528 16.9989 20.5857 17.7115 21.2707 18.3578C21.6573 18.6726 21.7457 19.1532 21.4806 19.6614Z" fill="#007889"/>
</g>
</svg>
