<svg width="35" height="35" viewBox="0 0 35 35" fill="none" xmlns="http://www.w3.org/2000/svg">
<g id="IMAGE">
<path id="Vector" d="M31.5933 10.2027C31.2579 8.95146 30.2735 7.96417 29.0237 7.62729C26.74 7.00021 17.6035 6.99 17.6035 6.99C17.6035 6.99 8.46851 6.97979 6.1833 7.57917C4.9583 7.91313 3.94622 8.92229 3.60788 10.1721C3.00559 12.4558 2.99976 17.1925 2.99976 17.1925C2.99976 17.1925 2.99392 21.9525 3.59184 24.2129C3.92726 25.4627 4.91163 26.45 6.16288 26.7869C8.46997 27.414 17.5816 27.4242 17.5816 27.4242C17.5816 27.4242 26.7181 27.4344 29.0018 26.8365C30.2502 26.501 31.2389 25.5152 31.5787 24.2654C32.1825 21.9831 32.1868 17.2479 32.1868 17.2479C32.1868 17.2479 32.216 12.4865 31.5933 10.2027ZM14.681 21.5806L14.6883 12.8306L22.2818 17.2129L14.681 21.5806Z" fill="#007889"/>
</g>
</svg>
