<svg width="27" height="25" viewBox="0 0 27 25" fill="none" xmlns="http://www.w3.org/2000/svg">
<path d="M17.5551 1H9.44491C8.67145 1.00013 7.91158 1.20326 7.24127 1.58916C6.57095 1.97507 6.01369 2.53023 5.62519 3.19904L1.59027 10.2332C1.2036 10.9016 1 11.6601 1 12.4323C1 13.2044 1.2036 13.9629 1.59027 14.6313L5.62519 21.6655C6.01369 22.3343 6.57095 22.8895 7.24127 23.2754C7.91158 23.6613 8.67145 23.8644 9.44491 23.8645H17.5551C18.3286 23.8644 19.0884 23.6613 19.7587 23.2754C20.429 22.8895 20.9863 22.3343 21.3748 21.6655L25.4097 14.6313C25.7964 13.9629 26 13.2044 26 12.4323C26 11.6601 25.7964 10.9016 25.4097 10.2332L21.3748 3.19904C20.9863 2.53023 20.429 1.97507 19.7587 1.58916C19.0884 1.20326 18.3286 1.00013 17.5551 1V1Z" stroke="white" stroke-width="2" stroke-linecap="round" stroke-linejoin="round"/>
<path d="M10.1445 9.11023C10.1445 8.21846 10.4988 7.36314 11.1294 6.73256C11.7599 6.10198 12.6152 5.7478 13.507 5.7478C14.3846 5.75611 15.225 6.10387 15.8518 6.7182C16.4787 7.33252 16.8434 8.16561 16.8694 9.04292C16.8796 9.73406 16.6765 10.4115 16.2878 10.9831C15.8991 11.5547 15.3437 11.9926 14.6973 12.2372C14.4164 12.3388 14.1713 12.5202 13.9921 12.7592C13.8129 12.9981 13.7074 13.2841 13.6885 13.5822L13.6347 14.5304" stroke="white" stroke-width="2" stroke-linecap="round" stroke-linejoin="round"/>
<circle cx="13.5002" cy="18.4847" r="1.00873" fill="white"/>
<circle cx="13.5002" cy="18.4847" r="1.00873" stroke="white"/>
</svg>
