<svg width="128" height="128" viewBox="0 0 128 128" fill="none" xmlns="http://www.w3.org/2000/svg">
<g id="primary">
<path d="M63.9992 122.384C48.5078 122.384 33.6509 116.23 22.6969 105.276C11.7428 94.3222 5.58887 79.4652 5.58887 63.9739C5.58887 48.4825 11.7428 33.6255 22.6969 22.6715C33.6509 11.7174 48.5078 5.56348 63.9992 5.56348C79.4906 5.56348 94.3475 11.7174 105.302 22.6715C116.256 33.6255 122.41 48.4825 122.41 63.9739C122.41 79.4652 116.256 94.3222 105.302 105.276C94.3475 116.23 79.4906 122.384 63.9992 122.384ZM38.0391 60.7288L57.5092 80.199L89.9594 47.7487" fill="white"/>
<path d="M38.0391 60.7288L57.5092 80.199L89.9594 47.7487M63.9992 122.384C48.5078 122.384 33.6509 116.23 22.6969 105.276C11.7428 94.3221 5.58887 79.4652 5.58887 63.9738C5.58887 48.4825 11.7428 33.6255 22.6969 22.6715C33.6509 11.7174 48.5078 5.56348 63.9992 5.56348C79.4906 5.56348 94.3475 11.7174 105.302 22.6715C116.256 33.6255 122.41 48.4825 122.41 63.9738C122.41 79.4652 116.256 94.3221 105.302 105.276C94.3475 116.23 79.4906 122.384 63.9992 122.384Z" stroke="#02CB3A" stroke-width="10" stroke-linecap="round" stroke-linejoin="round"/>
</g>
</svg>
