<svg width="31" height="32" viewBox="0 0 31 32" fill="none" xmlns="http://www.w3.org/2000/svg">
<g id="icon">
<g id="youtube-icon">
<path id="Path" d="M29.8969 8.20383C29.5457 6.85006 28.5343 5.79254 27.2396 5.42534C24.9099 4.76025 15.533 4.76025 15.533 4.76025C15.533 4.76025 6.15566 4.77986 3.82551 5.44495C2.53077 5.81214 1.51935 6.86967 1.16816 8.22343C0.551758 10.6598 0.551758 15.7536 0.551758 15.7536C0.551758 15.7536 0.551758 20.8474 1.18738 23.3034C1.53856 24.6572 2.54998 25.7147 3.84473 26.0819C6.17441 26.747 15.5518 26.747 15.5518 26.747C15.5518 26.747 24.9291 26.747 27.2593 26.0824C28.554 25.7152 29.5654 24.6577 29.9166 23.3039C30.5518 20.8675 30.5518 15.7536 30.5518 15.7536C30.5518 15.7536 30.533 10.6598 29.8969 8.20383Z" fill="#FF0000"/>
<path id="Path_2" d="M12.5464 20.4655L20.3253 15.7545L12.5459 11.0435L12.5464 20.4655Z" fill="white"/>
</g>
</g>
</svg>
