<svg width="17" height="17" viewBox="0 0 17 17" fill="none" xmlns="http://www.w3.org/2000/svg">
<g id="Group 8">
<path id="Vector" d="M14.5746 16.6295C14.469 16.6026 14.3619 16.5792 14.2569 16.5479C13.9415 16.4446 13.6573 16.2634 13.4306 16.021C11.8619 14.4485 10.2925 12.8764 8.72231 11.3048C8.6232 11.2057 8.5547 11.2013 8.43082 11.2545C6.43559 12.0962 4.53437 11.9227 2.76577 10.6628C1.57067 9.81309 0.832478 8.63985 0.566496 7.19991C0.232014 5.37811 0.68309 3.74432 1.92337 2.35174C2.71731 1.44012 3.79807 0.826107 4.98763 0.610835C6.7861 0.277811 8.40605 0.693908 9.79717 1.89994C10.9362 2.88881 11.5599 4.15386 11.6962 5.65065C11.7892 6.6123 11.622 7.58126 11.2123 8.45621C11.154 8.58083 11.157 8.65661 11.2633 8.76301C12.7499 10.2394 14.2249 11.7274 15.7136 13.2016C16.1224 13.6061 16.5014 14.0156 16.5881 14.6132V15.0504C16.5758 15.0735 16.5663 15.0979 16.5597 15.1233C16.5189 15.3941 16.4144 15.6514 16.2548 15.874C16.0952 16.0966 15.885 16.2781 15.6415 16.4036C15.4477 16.5078 15.2232 16.5552 15.0126 16.6288L14.5746 16.6295ZM6.08727 1.95022C5.53845 1.95161 4.99527 2.06108 4.48876 2.27239C3.98225 2.48369 3.52231 2.79269 3.13522 3.18175C2.74813 3.57081 2.44145 4.03229 2.23271 4.53987C2.02397 5.04744 1.91724 5.59116 1.91863 6.13999C1.92002 6.68881 2.02949 7.23198 2.2408 7.73849C2.45211 8.245 2.76111 8.70494 3.15016 9.09203C3.53922 9.47912 4.00071 9.78579 4.50828 9.99454C5.01586 10.2033 5.55958 10.31 6.1084 10.3086C8.44831 10.2977 10.2818 8.41395 10.2708 6.03906C10.2584 3.81064 8.34775 1.94075 6.08727 1.95022Z" fill="#A7A5A5"/>
<path id="Vector_2" d="M3.04427 6.14035C3.04261 5.34133 3.35511 4.57369 3.91436 4.00302C4.04348 3.86216 4.22276 3.77766 4.41358 3.76771C4.6044 3.75776 4.7915 3.82316 4.93457 3.94982C5.23261 4.21362 5.26322 4.6421 4.99578 4.96565C4.80049 5.20176 4.62122 5.44296 4.55272 5.74975C4.49433 5.97895 4.48878 6.21842 4.53649 6.45007C4.58421 6.68172 4.68395 6.8995 4.82817 7.08695C4.88428 7.15982 4.94841 7.2327 5.00671 7.30557C5.1332 7.45052 5.19694 7.63978 5.18389 7.83172C5.17084 8.02366 5.08207 8.20256 4.93712 8.32905C4.79217 8.45555 4.6029 8.51928 4.41096 8.50623C4.21902 8.49318 4.04013 8.40441 3.91363 8.25946C3.35734 7.69431 3.04516 6.93335 3.04427 6.14035Z" fill="#A7A5A5"/>
</g>
</svg>
