<svg xmlns="http://www.w3.org/2000/svg" width="220" height="80" viewBox="0 0 220 80"><path fill="#FFF" d="M1 1h218v78H1z"/><path fill="#004899" d="M0 0h220v80H0V0zm46.641 20.906c-2.1-.428-4.273-.76-6.529-1.001a64.92 64.92 0 0 0-6.614-.36 48.081 48.081 0 0 0-7.002.474c-2.377.332-4.576.947-6.598 1.853-2.022.901-3.656 2.197-4.901 3.893-1.243 1.69-1.881 3.887-1.919 6.588.056 3.031.783 5.376 2.17 7.034a12.259 12.259 0 0 0 5.177 3.648 36.078 36.078 0 0 0 6.185 1.721c2.057.371 3.783.783 5.177 1.236 1.387.459 2.114 1.195 2.17 2.217-.06.975-.749 1.676-2.07 2.098-1.318.418-2.903.627-4.756.611-2.304 0-4.637-.227-6.995-.664a33.846 33.846 0 0 1-6.655-1.932v10.24a73.66 73.66 0 0 0 8.125 1.42c2.614.303 5.364.453 8.254.447a34.49 34.49 0 0 0 8.934-1.084c2.939-.75 5.393-2.094 7.351-4.023 1.961-1.932 2.977-4.641 3.054-8.133-.055-3.004-.776-5.332-2.171-6.972-1.392-1.64-3.117-2.835-5.176-3.586a34.591 34.591 0 0 0-6.177-1.658c-2.063-.353-3.788-.742-5.178-1.172-1.395-.434-2.117-1.142-2.175-2.135.041-.836.429-1.438 1.166-1.814.74-.371 1.612-.599 2.618-.687a25.583 25.583 0 0 1 2.759-.105c4.381.062 8.306.723 11.777 1.982l-.001-10.136m3.61-.651l9.272 39.526h16.722l6.313-25.821h.118l6.655 25.821h16.38l9.561-39.526h-13.597L96.781 45.51h-.111l-6.204-25.255H75.849L69.48 45.51h-.114l-4.837-25.255H50.251zm85.431 8.493l4.32 12.969h-8.816l4.379-12.969h.117zm-24.237 31.033h15.189l2.446-8.551h12.853l2.621 8.551h14.065l-10.334-39.526h-25.353l-9.574 39.526h-1.913zm76.192-20.046V50.27c-.467.16-.986.26-1.558.297-.573.035-1.134.047-1.685.041-2.018-.025-3.642-.502-4.857-1.434-1.225-.93-2.104-2.162-2.645-3.701-.55-1.535-.813-3.221-.805-5.057.051-3.604 1.2-6.335 3.448-8.191 2.245-1.853 5.286-2.788 9.125-2.796 2.164.017 4.172.238 6.021.665 1.846.43 3.326.963 4.439 1.604V21.046a53.408 53.408 0 0 0-3.88-.782c-1.351-.219-2.898-.388-4.648-.509-1.752-.119-3.854-.18-6.317-.18-4.303 0-8.242.736-11.824 2.207-3.576 1.473-6.455 3.684-8.618 6.625-2.165 2.948-3.271 6.627-3.335 11.042.055 4.702 1.131 8.605 3.232 11.715 2.104 3.113 4.942 5.441 8.517 6.982 3.567 1.549 7.579 2.316 12.028 2.316 3.093.004 5.967-.166 8.604-.506a50.699 50.699 0 0 0 7.836-1.646V39.735h-13.078z"/><path fill="#FFF" d="M207.727 23.873c.586 0 1.103.042 1.103.652 0 .648-.907.541-1.567.541h-.746v-1.193h1.21zm.503 1.888c.65-.023 1.302-.371 1.302-1.312 0-1.013-.794-1.275-1.673-1.275h-2.055v4.801h.707v-2.214h.904l1.247 2.214h.808l-1.24-2.214zm-.748-3.79c1.985 0 3.639 1.553 3.639 3.571 0 2.01-1.65 3.575-3.639 3.575-1.986 0-3.641-1.565-3.641-3.575.002-2.018 1.655-3.571 3.641-3.571m0 7.841c2.422 0 4.345-1.889 4.345-4.269 0-2.375-1.92-4.264-4.345-4.264-2.428 0-4.346 1.889-4.346 4.264.005 2.378 1.919 4.269 4.346 4.269"/></svg>