<?xml version="1.0" encoding="utf-8"?>
<!-- Generator: Adobe Illustrator 22.0.1, SVG Export Plug-In . SVG Version: 6.00 Build 0)  -->
<svg version="1.1" baseProfile="tiny" id="Layer_1" xmlns="http://www.w3.org/2000/svg" xmlns:xlink="http://www.w3.org/1999/xlink"
	 x="0px" y="0px" viewBox="0 0 527.2 612.3" xml:space="preserve">
<g>
	<path fill="#FFFFFF" d="M527.2,227.5c-3,11.8-11,20.1-19.3,28.3c-29.9,29.6-59.6,59.5-89.4,89.2c-1.3,1.3-2.8,2.5-4.7,4.2
		c5.5,5.4,10.6,10.3,15.6,15.4c15.2,15.6,16.1,36.5,2.3,52.2c-6.7,7.5-15.4,11-25.4,12c-1.6,14.1-7.9,24.9-20.6,31.2
		c-2.9,1.4-6.1,2.9-9.2,3.1c-5,0.2-5.8,2.8-6.5,7c-2.3,14.4-15.3,26.6-30,28.5c-3.3,0.4-4.5,1.6-5,5c-2.2,13.6-9.9,23.2-22.6,28.2
		c-12.7,5.1-25.2,3.6-35.8-5.2c-9-7.5-17.1-16.3-25.5-24.6c-7.7-7.6-15.2-15.3-23.6-23.7c-5.2,5.5-10.1,10.9-15.3,16.1
		c-16.9,17-35.4,16.9-52.5-0.2c-5.7-5.7-10.2-11.9-11.8-20c-0.3-1.3-2.3-2.7-3.8-3.2c-15.9-5-26.2-15.3-31.2-31.2
		c-0.5-1.6-2.5-3.4-4.1-4c-15.3-5.1-25.9-15-30.7-30.5c-1-3.3-2.4-4.5-5.6-5.3c-21.1-5.3-35.5-28.7-28.9-47.6
		c1.8-5.3,5.6-10.1,9.4-14.4c5.2-5.9,11.1-11.1,18.4-18.1c-2.3-1.3-4.2-1.9-5.5-3.2c-19.7-19.5-39.3-39.2-58.9-58.8
		c-3.7-3.7-6.8-7.8-5.3-13.6c2.1-8,10.9-11.5,17.8-6.9c2.1,1.4,4,3.3,5.8,5.1c87.2,87.1,174.3,174.3,261.4,261.5
		c3.6,3.6,7.4,6.8,12.8,6.4c4.9-0.4,8.9-2.6,10.8-7.4c2-5,1.5-9.7-2-14c-1.1-1.3-2.4-2.5-3.6-3.7c-20.6-20.6-41.2-41.2-61.7-61.7
		c-3.6-3.6-6.4-7.5-5-13.1c2-8.1,10.7-11.7,17.7-7.2c1.8,1.2,3.5,2.7,5.1,4.3c20.7,20.7,41.4,41.4,62.1,62.1
		c5.3,5.3,11,6.8,16.1,4.5c8.2-3.7,10.4-13.7,4.3-20.6c-5.3-5.8-11-11.2-16.6-16.8c-16.2-16.2-32.5-32.4-48.6-48.7
		c-5.6-5.6-6.7-11.3-3.3-16.5c3.6-5.6,10.5-7.3,16.1-3.6c1.8,1.2,3.5,2.7,5.1,4.3c21,20.9,41.9,41.9,62.9,62.8
		c7.4,7.3,17.1,6.4,21.6-1.8c3-5.5,1.9-11.1-3.5-16.6c-8.5-8.7-17.2-17.2-25.8-25.8c-12.7-12.7-25.5-25.4-38.1-38.1
		c-5.4-5.4-6.3-11-3.1-16.2c3.5-5.6,10.5-7.3,16.1-3.8c2,1.3,3.8,2.9,5.5,4.6c20.7,20.7,41.4,41.4,62.1,62.1c3.7,3.7,7.7,6.1,13.2,5
		c9.7-2,13.7-12.8,7.6-20.7c-1.3-1.6-2.8-3-4.2-4.5c-51.9-51.9-103.8-103.9-155.8-155.7c-1.5-1.5-3.4-3.3-5.3-3.5
		c-16.8-1.7-33.7-3.1-50.8-4.7c-1.3,6.2-2.5,12.1-3.8,17.8c-7,29.5-35.8,47.8-65.2,41.5c-29-6.2-48-34.8-42.3-64.3
		c2.8-14.4,5.4-29,10.2-42.8c15-42.8,61.7-69.6,106.5-61.8c38.7,6.7,77.4,13.7,116.1,20.7c3.7,0.7,6.6,0.7,7.9-3.7
		c0.5-1.7,1.7-3.4,3-4.7c9.7-10.1,19.2-20.6,29.5-30c15.3-13.9,35.8-12.7,51.1,2.6c34.7,34.6,69.3,69.2,103.9,103.8
		c0.8,0.8,1.9,1.6,2.4,2.7c3.3,6.3,6.4,12.6,9.6,19C527.2,220,527.2,223.8,527.2,227.5z M449.4,279.8c-1.4-1.1-2.8-2-4-3.2
		c-40.7-40.6-81.3-81.3-122.1-121.8c-2.3-2.3-5.8-4.3-9.1-4.9c-37.8-6.9-75.7-13.7-113.6-20.3c-34.8-6.1-69.8,13.7-81.2,47.1
		c-4.6,13.5-6.5,27.9-9.3,41.9c-0.6,3.2-0.1,6.9,0.8,10.1c3.8,14.5,16.5,23.9,31,23.4c14.8-0.5,26.6-10.9,29.8-26.4
		c1.7-8.2,3.2-16.4,5.1-24.6c1.7-7.5,6.7-11,14.2-10.3c20.8,1.8,41.5,3.9,62.3,5.5c6.1,0.5,10.6,2.9,14.7,7.1
		c41.5,41.7,83.2,83.3,124.8,125c1.4,1.4,2.1,3.5,3,5.1C414.5,314.8,431.5,297.7,449.4,279.8z M465.4,264.2
		c12.1-12,23.5-22.9,34.4-34.3c5.5-5.7,4.7-12.3-1.5-18.5c-34.6-34.6-69.2-69.3-103.8-103.8c-6.8-6.8-13.2-6.7-20.1,0.1
		c-6.8,6.7-13.6,13.5-20.3,20.3c-9,9-9,14.4,0,23.4c36.1,36.1,72.1,72.1,108.2,108.2C463.4,260.9,464.2,262.6,465.4,264.2z
		 M85.5,339.4c-5.6,5.7-11.3,11.1-16.6,16.8c-4.1,4.4-4,8.7-0.1,13.2c1.7,1.9,3.5,3.7,5.4,5.4c4.2,3.6,8.4,3.8,12.4,0.1
		c6-5.6,11.6-11.5,17.3-17.2C97.8,351.6,91.9,345.8,85.5,339.4z M120.6,374.9c-5.4,5.4-11.2,11-16.7,16.8c-3.7,4-3.8,7.9-0.7,12
		c5.4,7.3,11.2,10.4,16,8.3c0.3-0.1,0.6-0.3,0.9-0.5c6.5-6.2,12.9-12.3,19-18.1C132.5,386.8,126.6,380.9,120.6,374.9z M190.9,445
		c-5.6,5.7-11.2,11.2-16.5,17c-4,4.3-3.8,8.9,0.1,13.2c1.8,2,3.8,4,5.8,5.7c3.8,3.2,8,3.3,11.6-0.1c6-5.7,11.7-11.8,17.3-17.5
		C203.3,457.4,197.4,451.5,190.9,445z M155.8,409.8c-5.6,5.7-11.2,11.2-16.6,17c-3.7,3.9-3.9,8-0.9,12c5.4,7.5,11.1,10.4,15.9,8.4
		c0.5-0.2,1-0.4,1.3-0.8c6-6.4,12-12.9,17.7-19C167.9,422,162.2,416.2,155.8,409.8z"/>
	<path fill="#FFFFFF" d="M470.4,238c-6.5-0.3-11.4-5.6-11.1-12.2c0.2-6.4,5.8-11.6,12.1-11.4c6.3,0.3,11.7,5.9,11.5,12.1
		C482.7,233.1,477,238.3,470.4,238z"/>
</g>
</svg>
