<?xml version="1.0" encoding="utf-8"?>
<!-- Generator: Adobe Illustrator 22.0.1, SVG Export Plug-In . SVG Version: 6.00 Build 0)  -->
<svg version="1.1" id="Layer_1" xmlns="http://www.w3.org/2000/svg" xmlns:xlink="http://www.w3.org/1999/xlink" x="0px" y="0px"
	 width="700px" height="700px" viewBox="0 0 700 700" style="enable-background:new 0 0 700 700;" xml:space="preserve">
<style type="text/css">
	.st0{fill:#58595B;}
</style>
<g>
	<path class="st0" d="M351.9,392.2c4.7-0.4,9.2-2.3,12.8-5.4l207.2-179.2c4.7-3.8,7.7-9.4,8.2-15.5s-1.4-12.1-5.4-16.6
		c-4-4.6-9.7-7.3-15.7-7.7s-12,1.8-16.4,6L350,340.2L157.5,173.8c-4.4-4.1-10.4-6.3-16.4-6s-11.7,3.1-15.7,7.7
		c-4,4.6-5.9,10.6-5.4,16.6c0.5,6.1,3.5,11.6,8.2,15.5l207.2,179.2C339.9,390.7,345.9,392.7,351.9,392.2L351.9,392.2z"/>
</g>
</svg>
