<svg width="19" height="19" viewBox="0 0 19 19" fill="none" xmlns="http://www.w3.org/2000/svg">
<path d="M17.9727 12.9766L14.0352 11.2891C13.9297 11.2539 13.8242 11.2188 13.6836 11.2188C13.4375 11.2188 13.1914 11.3594 13.0508 11.5352L11.293 13.6797C8.55078 12.3789 6.37109 10.1992 5.07031 7.45703L7.21484 5.69922C7.39062 5.55859 7.53125 5.3125 7.53125 5.03125C7.53125 4.92578 7.49609 4.82031 7.46094 4.71484L5.77344 0.777344C5.63281 0.460938 5.31641 0.25 4.96484 0.25C4.92969 0.25 4.85938 0.285156 4.78906 0.285156L1.13281 1.12891C0.746094 1.23438 0.5 1.55078 0.5 1.9375C0.5 10.9727 7.77734 18.25 16.8125 18.25C17.1992 18.25 17.5156 18.0039 17.6211 17.6172L18.4648 13.9609C18.4648 13.8906 18.4648 13.8203 18.4648 13.7852C18.4648 13.4336 18.2539 13.1172 17.9727 12.9766Z" fill="#cccccc"/>
</svg>
