<svg width="19" height="19" viewBox="0 0 19 19" fill="none" xmlns="http://www.w3.org/2000/svg">
<path d="M18.3242 4.11719C18.2539 3.80078 17.8672 3.69531 17.6211 3.90625L15.0195 6.50781L12.6289 6.12109L12.2422 3.73047L14.8438 1.12891C15.0898 0.882812 14.9492 0.496094 14.6328 0.425781C12.9805 0.00390625 11.1523 0.460938 9.85156 1.76172C8.44531 3.13281 8.05859 5.17188 8.65625 6.92969L1.13281 14.418C0.253906 15.2969 0.253906 16.7383 1.13281 17.6172C2.01172 18.4961 3.45312 18.4961 4.33203 17.6172L11.8203 10.1289C13.5781 10.6914 15.582 10.3047 16.9883 8.89844C18.2891 7.59766 18.7461 5.76953 18.3242 4.11719ZM2.75 16.8438C2.25781 16.8438 1.90625 16.4922 1.90625 16C1.90625 15.543 2.25781 15.1562 2.75 15.1562C3.20703 15.1562 3.59375 15.543 3.59375 16C3.59375 16.4922 3.20703 16.8438 2.75 16.8438Z" fill="#cccccc"/>
</svg>
