<svg width="28" height="29" viewBox="0 0 28 29" fill="none" xmlns="http://www.w3.org/2000/svg">
<g id="instagram 1" clip-path="url(#clip0_601_451)">
<path id="Vector" d="M16.6797 14.1904C16.6797 15.6704 15.48 16.8701 14 16.8701C12.52 16.8701 11.3203 15.6704 11.3203 14.1904C11.3203 12.7104 12.52 11.5107 14 11.5107C15.48 11.5107 16.6797 12.7104 16.6797 14.1904Z" fill="white"/>
<path id="Vector_2" d="M20.267 9.44943C20.1382 9.10037 19.9326 8.78442 19.6656 8.52509C19.4063 8.25806 19.0905 8.05255 18.7413 7.92374C18.458 7.81372 18.0325 7.68277 17.2487 7.64709C16.4008 7.60843 16.1466 7.6001 14.0001 7.6001C11.8534 7.6001 11.5992 7.60822 10.7516 7.64688C9.96777 7.68277 9.54202 7.81372 9.25897 7.92374C8.9097 8.05255 8.59375 8.25806 8.33463 8.52509C8.0676 8.78442 7.86209 9.10016 7.73306 9.44943C7.62305 9.7327 7.4921 10.1584 7.45642 10.9422C7.41776 11.7899 7.40942 12.0441 7.40942 14.1908C7.40942 16.3373 7.41776 16.5915 7.45642 17.4394C7.4921 18.2231 7.62305 18.6487 7.73306 18.9319C7.86209 19.2812 8.06738 19.597 8.33441 19.8563C8.59375 20.1233 8.90948 20.3288 9.25876 20.4576C9.54202 20.5679 9.96777 20.6988 10.7516 20.7345C11.5992 20.7732 11.8532 20.7813 13.9999 20.7813C16.1468 20.7813 16.401 20.7732 17.2485 20.7345C18.0323 20.6988 18.458 20.5679 18.7413 20.4576C19.4424 20.1872 19.9965 19.6331 20.267 18.9319C20.377 18.6487 20.5079 18.2231 20.5438 17.4394C20.5825 16.5915 20.5906 16.3373 20.5906 14.1908C20.5906 12.0441 20.5825 11.7899 20.5438 10.9422C20.5081 10.1584 20.3772 9.7327 20.267 9.44943ZM14.0001 18.3186C11.7201 18.3186 9.87186 16.4706 9.87186 14.1906C9.87186 11.9106 11.7201 10.0625 14.0001 10.0625C16.2799 10.0625 18.1282 11.9106 18.1282 14.1906C18.1282 16.4706 16.2799 18.3186 14.0001 18.3186ZM18.2914 10.864C17.7586 10.864 17.3267 10.4321 17.3267 9.89932C17.3267 9.36655 17.7586 8.9346 18.2914 8.9346C18.8242 8.9346 19.2561 9.36655 19.2561 9.89932C19.2559 10.4321 18.8242 10.864 18.2914 10.864Z" fill="white"/>
<path id="Vector_3" d="M14 0.19043C6.2692 0.19043 0 6.45963 0 14.1904C0 21.9212 6.2692 28.1904 14 28.1904C21.7308 28.1904 28 21.9212 28 14.1904C28 6.45963 21.7308 0.19043 14 0.19043ZM21.9906 17.5048C21.9517 18.3606 21.8156 18.9448 21.6169 19.4562C21.1993 20.5361 20.3457 21.3897 19.2658 21.8074C18.7546 22.006 18.1701 22.1419 17.3146 22.181C16.4573 22.2201 16.1834 22.2295 14.0002 22.2295C11.8168 22.2295 11.5431 22.2201 10.6856 22.181C9.83008 22.1419 9.24561 22.006 8.73441 21.8074C8.19778 21.6055 7.71201 21.2891 7.31039 20.88C6.90152 20.4786 6.58514 19.9926 6.38327 19.4562C6.1846 18.945 6.04852 18.3606 6.00964 17.505C5.97012 16.6475 5.96094 16.3737 5.96094 14.1904C5.96094 12.0072 5.97012 11.7333 6.00943 10.8761C6.04831 10.0203 6.18417 9.43604 6.38284 8.92462C6.58472 8.38821 6.90131 7.90222 7.31039 7.50082C7.71179 7.09174 8.19778 6.77536 8.73419 6.57349C9.24561 6.37482 9.82986 6.23895 10.6856 6.19986C11.5429 6.16077 11.8168 6.15137 14 6.15137C16.1832 6.15137 16.4571 6.16077 17.3144 6.20007C18.1701 6.23895 18.7544 6.37482 19.2658 6.57327C19.8022 6.77515 20.2882 7.09174 20.6898 7.50082C21.0987 7.90244 21.4153 8.38821 21.6169 8.92462C21.8158 9.43604 21.9517 10.0203 21.9908 10.8761C22.0299 11.7333 22.0391 12.0072 22.0391 14.1904C22.0391 16.3737 22.0299 16.6475 21.9906 17.5048Z" fill="white"/>
</g>
<defs>
<clipPath id="clip0_601_451">
<rect width="28" height="28" fill="white" transform="translate(0 0.19043)"/>
</clipPath>
</defs>
</svg>
