<svg width="106" height="41" viewBox="0 0 106 41" fill="none" xmlns="http://www.w3.org/2000/svg">
<g id="ProPreBiotic logo 1" clip-path="url(#clip0_83_2545)">
<g id="&#208;&#161;&#208;&#187;&#208;&#190;&#208;&#185;_x0020_1">
<g id="_487288720">
<path id="Vector" d="M16.192 35.4739C16.192 36.2722 16.0267 37.0008 15.7038 37.6673C15.373 38.3261 14.932 38.8919 14.365 39.3647C13.798 39.8297 13.1444 40.194 12.4042 40.442C11.6639 40.6977 10.8606 40.8217 10.0101 40.8217H0.000976562V20.066H10.4905C11.2229 20.066 11.8844 20.221 12.475 20.531C13.0735 20.8488 13.5775 21.2518 13.9949 21.7478C14.4123 22.2439 14.7273 22.8096 14.9557 23.4452C15.184 24.073 15.3022 24.7163 15.3022 25.3596C15.3022 26.3904 15.0344 27.3437 14.5147 28.2195C13.987 29.103 13.2389 29.7541 12.2703 30.1803C13.4752 30.5291 14.4359 31.1802 15.1368 32.1257C15.8377 33.0713 16.192 34.1873 16.192 35.4739ZM13.4909 35.0089C13.4909 34.5361 13.4043 34.0866 13.2389 33.6448C13.0657 33.2108 12.8373 32.8233 12.5538 32.49C12.2624 32.1567 11.9238 31.9009 11.53 31.6994C11.1284 31.5057 10.6953 31.4127 10.2228 31.4127H2.67849V38.5431H10.0101C10.5063 38.5431 10.963 38.4501 11.3804 38.2486C11.7978 38.0548 12.16 37.7991 12.475 37.4735C12.7979 37.1558 13.042 36.7837 13.2232 36.3497C13.3964 35.9234 13.4909 35.4739 13.4909 35.0089ZM2.67849 22.3446V29.2735H9.38802C9.86052 29.2735 10.3015 29.1805 10.6953 28.9945C11.089 28.8163 11.4355 28.5605 11.719 28.2505C12.0104 27.9405 12.2388 27.5762 12.4042 27.1577C12.5695 26.7391 12.6562 26.2896 12.6562 25.8246C12.6562 25.3363 12.5774 24.879 12.4199 24.4527C12.2624 24.0187 12.0498 23.6544 11.782 23.3367C11.5143 23.0267 11.1835 22.7864 10.7976 22.6081C10.4118 22.4299 10.0023 22.3446 9.56914 22.3446H2.67849Z" fill="#C15298"/>
<path id="1" d="M22.7126 40.8217V20.066H25.3902V40.8217H22.7126Z" fill="#C15298"/>
<path id="2" d="M41.778 40.969C40.2896 40.969 38.943 40.6745 37.7224 40.0777C36.5017 39.4809 35.4622 38.6981 34.5881 37.7138C33.714 36.7295 33.0446 35.5979 32.5642 34.3346C32.0917 33.0635 31.8555 31.7692 31.8555 30.4438C31.8555 29.0643 32.1075 27.7389 32.6115 26.4679C33.1155 25.2045 33.8164 24.0807 34.7062 23.1041C35.5961 22.1353 36.6514 21.3603 37.872 20.779C39.0847 20.2055 40.4078 19.9187 41.8331 19.9187C43.3215 19.9187 44.6681 20.2287 45.873 20.841C47.0858 21.4533 48.1253 22.2593 48.9994 23.2514C49.8657 24.2435 50.5429 25.375 51.0154 26.6306C51.4879 27.8862 51.732 29.165 51.732 30.4748C51.732 31.8544 51.48 33.1798 50.9682 34.4508C50.4642 35.7142 49.7712 36.8302 48.8892 37.799C48.0072 38.7601 46.9598 39.5351 45.7392 40.1087C44.5264 40.6822 43.2034 40.969 41.778 40.969ZM34.5566 30.4438C34.5566 31.4979 34.7299 32.5132 35.0764 33.4975C35.4229 34.4818 35.9111 35.3576 36.549 36.1172C37.179 36.8767 37.9429 37.4813 38.8327 37.9308C39.7305 38.3803 40.7149 38.6051 41.8095 38.6051C42.9356 38.6051 43.9436 38.3648 44.8335 37.8843C45.7313 37.4115 46.4873 36.7837 47.1094 36.0164C47.7315 35.2414 48.2119 34.3733 48.5348 33.3968C48.8655 32.4202 49.023 31.4359 49.023 30.4438C49.023 29.3898 48.8498 28.3745 48.5033 27.3902C48.1568 26.4058 47.6607 25.5378 47.0228 24.786C46.377 24.0342 45.6131 23.4374 44.7311 22.9879C43.8491 22.5384 42.8726 22.3136 41.8095 22.3136C40.6755 22.3136 39.6675 22.5539 38.7776 23.0189C37.8877 23.4839 37.1239 24.104 36.5017 24.8635C35.8796 25.623 35.3992 26.4911 35.0606 27.4599C34.7299 28.4365 34.5566 29.4285 34.5566 30.4438Z" fill="#C15298"/>
<path id="3" d="M72.7821 22.4066H65.5056V40.8217H62.828V22.4066H55.5515V20.066H72.7821V22.4066Z" fill="#C15298"/>
<path id="4" d="M78.594 40.8217V20.066H81.2636V40.8217H78.594Z" fill="#C15298"/>
<path id="5" d="M87.729 30.2966C87.729 29.0488 87.9495 27.8087 88.3984 26.5686C88.8473 25.3363 89.5009 24.2202 90.3593 23.2359C91.2176 22.2516 92.2729 21.461 93.525 20.8565C94.7693 20.252 96.1868 19.9497 97.7697 19.9497C99.6518 19.9497 101.266 20.3682 102.613 21.2053C103.959 22.0423 104.96 23.1352 105.613 24.4837L103.503 25.8246C103.188 25.1658 102.81 24.6077 102.361 24.1582C101.92 23.7087 101.432 23.3522 100.904 23.0731C100.384 22.8019 99.8408 22.6081 99.2896 22.4919C98.7304 22.3756 98.187 22.3136 97.6515 22.3136C96.486 22.3136 95.4465 22.5539 94.5488 23.0344C93.651 23.5072 92.8872 24.135 92.2729 24.9023C91.6586 25.6773 91.2019 26.5454 90.8948 27.5064C90.5876 28.4752 90.4301 29.444 90.4301 30.4128C90.4301 31.5057 90.6191 32.5442 90.9814 33.5285C91.3515 34.5128 91.8634 35.3886 92.517 36.1482C93.1707 36.9077 93.9424 37.5123 94.8323 37.9618C95.7222 38.4113 96.6908 38.6283 97.746 38.6283C98.2973 38.6283 98.8643 38.5663 99.4471 38.4268C100.038 38.2873 100.597 38.0703 101.132 37.768C101.66 37.4658 102.164 37.086 102.629 36.6287C103.093 36.1714 103.479 35.6212 103.77 34.9779L105.999 36.1792C105.66 36.9542 105.196 37.644 104.589 38.2331C103.983 38.8299 103.306 39.3336 102.542 39.7444C101.778 40.1552 100.967 40.4652 100.116 40.6822C99.2659 40.8915 98.439 41 97.62 41C96.1789 41 94.848 40.69 93.6432 40.0622C92.4304 39.4421 91.3909 38.6283 90.5089 37.6208C89.6269 36.621 88.9418 35.4817 88.4614 34.2028C87.9731 32.924 87.729 31.6219 87.729 30.2966Z" fill="#C15298"/>
<g id="Group">
<path id="Vector_2" d="M0.000976562 16.0822V0.116272H6.76563C7.48226 0.116272 8.14376 0.25578 8.74226 0.550298C9.34077 0.844816 9.86052 1.23234 10.2936 1.72062C10.7268 2.2089 11.0654 2.75143 11.3095 3.36372C11.5537 3.96826 11.6797 4.58829 11.6797 5.21608C11.6797 5.87487 11.5615 6.51816 11.3331 7.13045C11.1048 7.74274 10.7819 8.29302 10.3645 8.77355C9.94714 9.25408 9.44314 9.63385 8.85251 9.92062C8.26976 10.1996 7.61613 10.3469 6.89951 10.3469H2.05636V16.0822H0.000976562ZM2.05636 8.54879H6.78926C7.21451 8.54879 7.60038 8.46353 7.93901 8.28527C8.28551 8.11476 8.57689 7.87449 8.82101 7.56448C9.06514 7.26221 9.25414 6.90568 9.39589 6.50266C9.52977 6.09189 9.60064 5.66561 9.60064 5.21608C9.60064 4.75105 9.52189 4.31703 9.35652 3.914C9.19902 3.51098 8.98639 3.15446 8.71864 2.85994C8.45089 2.55767 8.14376 2.32516 7.78151 2.1624C7.42713 1.99189 7.04913 1.91438 6.6475 1.91438H2.05636V8.54879Z" fill="#696597"/>
<path id="1_2" d="M16.0898 16.0822V0.116272H23.0356C23.7522 0.116272 24.4138 0.25578 25.0123 0.550298C25.6108 0.844816 26.1305 1.23234 26.5636 1.72062C26.9968 2.2089 27.3433 2.75143 27.5795 3.36372C27.8236 3.96826 27.9496 4.58829 27.9496 5.21608C27.9496 5.77412 27.8709 6.3089 27.7055 6.82818C27.548 7.33971 27.3196 7.81249 27.0204 8.23102C26.729 8.64954 26.3668 9.01381 25.9494 9.30833C25.532 9.6106 25.0595 9.82761 24.5476 9.96712L28.4773 16.0822H26.1463L22.445 10.3469H18.1452V16.0822H16.0898ZM18.1452 8.54879H23.0592C23.4845 8.54879 23.8704 8.45578 24.209 8.27752C24.5555 8.09926 24.8469 7.85124 25.091 7.54897C25.3351 7.23896 25.5241 6.88243 25.6659 6.47941C25.7998 6.07638 25.8706 5.65011 25.8706 5.21608C25.8706 4.76655 25.7919 4.34803 25.6265 3.945C25.469 3.54973 25.2564 3.20096 24.9886 2.89094C24.7209 2.58092 24.4138 2.34066 24.0515 2.17015C23.6971 1.99964 23.3191 1.91438 22.9175 1.91438H18.1452V8.54879Z" fill="#696597"/>
<path id="2_2" d="M39.5337 16.1907C38.3919 16.1907 37.3524 15.966 36.4152 15.5087C35.4781 15.0514 34.6748 14.4391 34.0055 13.6873C33.3361 12.9278 32.8163 12.0597 32.4462 11.0909C32.084 10.1144 31.9028 9.11456 31.9028 8.09924C31.9028 7.02968 32.0918 6.01437 32.4856 5.03781C32.8715 4.06125 33.407 3.20095 34.0921 2.44915C34.7772 1.7051 35.5883 1.10832 36.5255 0.666541C37.4626 0.224764 38.4864 0 39.581 0C40.7229 0 41.7545 0.232514 42.6838 0.705293C43.613 1.17807 44.4163 1.79811 45.0856 2.56541C45.755 3.32495 46.2748 4.19301 46.6449 5.16181C47.0071 6.13062 47.1883 7.11493 47.1883 8.1225C47.1883 9.18431 46.9914 10.1996 46.6055 11.1762C46.2196 12.1527 45.6841 13.013 45.0069 13.7571C44.3296 14.4934 43.5185 15.0902 42.5814 15.5319C41.6442 15.9737 40.6284 16.1907 39.5337 16.1907ZM33.9818 8.09924C33.9818 8.90529 34.1157 9.68809 34.3835 10.4476C34.6512 11.2072 35.0213 11.8737 35.5096 12.4628C35.9978 13.044 36.5885 13.5091 37.2736 13.8578C37.9587 14.1989 38.7226 14.3694 39.5574 14.3694C40.4236 14.3694 41.2032 14.1911 41.8884 13.8191C42.5735 13.4548 43.1563 12.9743 43.6366 12.3775C44.117 11.7885 44.4793 11.1219 44.7313 10.3701C44.9833 9.61834 45.1093 8.85879 45.1093 8.09924C45.1093 7.28544 44.9754 6.50265 44.7076 5.7431C44.4399 4.9913 44.0619 4.32476 43.5658 3.74348C43.0696 3.16994 42.4869 2.70491 41.8096 2.36389C41.1324 2.01512 40.3764 1.84461 39.5574 1.84461C38.6911 1.84461 37.9115 2.02287 37.2264 2.38715C36.5412 2.74367 35.9585 3.21645 35.4781 3.79773C34.9977 4.38677 34.6276 5.05331 34.3677 5.8051C34.1078 6.54915 33.9818 7.31645 33.9818 8.09924Z" fill="#696597"/>
<path id="3_2" d="M61.6074 16.0822V0.116272H68.3721C69.0887 0.116272 69.7502 0.25578 70.3487 0.550298C70.9551 0.844816 71.467 1.23234 71.908 1.72062C72.3411 2.2089 72.6797 2.75143 72.9238 3.36372C73.168 3.96826 73.2861 4.58829 73.2861 5.21608C73.2861 5.87487 73.1758 6.51816 72.9475 7.13045C72.7191 7.74274 72.3883 8.29302 71.971 8.77355C71.5536 9.25408 71.0496 9.63385 70.4668 9.92062C69.8762 10.1996 69.2305 10.3469 68.5138 10.3469H63.6628V16.0822H61.6074ZM63.6628 8.54879H68.3957C68.821 8.54879 69.2068 8.46353 69.5533 8.28527C69.892 8.11476 70.1833 7.87449 70.4275 7.56448C70.6716 7.26221 70.8606 6.90568 71.0023 6.50266C71.1362 6.09189 71.2071 5.66561 71.2071 5.21608C71.2071 4.75105 71.1283 4.31703 70.9708 3.914C70.8055 3.51098 70.5928 3.15446 70.3251 2.85994C70.0573 2.55767 69.7502 2.32516 69.388 2.1624C69.0336 1.99189 68.6556 1.91438 68.2618 1.91438H63.6628V8.54879Z" fill="#3E8DB1"/>
<path id="4_2" d="M77.696 16.0822V0.116272H84.6418C85.3585 0.116272 86.02 0.25578 86.6185 0.550298C87.2248 0.844816 87.7367 1.23234 88.1777 1.72062C88.6108 2.2089 88.9495 2.75143 89.1936 3.36372C89.4377 3.96826 89.5558 4.58829 89.5558 5.21608C89.5558 5.77412 89.4771 6.3089 89.3196 6.82818C89.1542 7.33971 88.9258 7.81249 88.6345 8.23102C88.3352 8.64954 87.973 9.01381 87.5556 9.30833C87.1382 9.6106 86.6736 9.82761 86.1538 9.96712L90.0835 16.0822H87.7525L84.0512 10.3469H79.7514V16.0822H77.696ZM79.7514 8.54879H84.6654C85.0907 8.54879 85.4766 8.45578 85.8231 8.27752C86.1617 8.09926 86.4531 7.85124 86.6972 7.54897C86.9413 7.23896 87.1382 6.88243 87.2721 6.47941C87.406 6.07638 87.4768 5.65011 87.4768 5.21608C87.4768 4.76655 87.3981 4.34803 87.2406 3.945C87.0752 3.54973 86.8626 3.20096 86.5948 2.89094C86.3271 2.58092 86.02 2.34066 85.6577 2.17015C85.3033 1.99964 84.9253 1.91438 84.5316 1.91438H79.7514V8.54879Z" fill="#3E8DB1"/>
<path id="5_2" d="M105.574 14.2841V16.0822H94.5645V0.116272H105.369V1.91438H96.6198V7.08395H104.227V8.77355H96.6198V14.2841H105.574Z" fill="#3E8DB1"/>
<path id="Vector_3" d="M54.9846 0.131775H52.9529V16.0822H54.9846V0.131775Z" fill="#233355"/>
</g>
</g>
</g>
</g>
<defs>
<clipPath id="clip0_83_2545">
<rect width="106" height="41" fill="white"/>
</clipPath>
</defs>
</svg>
