<svg xmlns="http://www.w3.org/2000/svg" viewBox="0 0 772.41 123.94"><defs><style>.cls-1{fill:#fff;}.cls-2{opacity:0.33;}</style></defs><g id="Слой_2" data-name="Слой 2"><g id="Слой_1-2" data-name="Слой 1"><g id="Слой_2-2" data-name="Слой 2"><g id="Слой_1-2-2" data-name="Слой 1-2"><path class="cls-1" d="M134.65,0H27.12A26.22,26.22,0,0,0,7.92,7.92,26.2,26.2,0,0,0,0,27.12V67.7A26.16,26.16,0,0,0,7.92,86.91a26.17,26.17,0,0,0,19.2,7.91H134.65a.8.8,0,0,0,.85-.76.14.14,0,0,0,0-.09V79.37a.71.71,0,0,0-.24-.52.81.81,0,0,0-.61-.24H27.12a7.76,7.76,0,0,1-5.78-2.42A7.9,7.9,0,0,1,19,70.45V55.57H121.09a.8.8,0,0,0,.62-.24.83.83,0,0,0,.23-.62V40.11a.79.79,0,0,0-.72-.85H19V24.37a8,8,0,0,1,2.38-5.74,7.79,7.79,0,0,1,5.78-2.42H134.65a.77.77,0,0,0,.61-.23.69.69,0,0,0,.24-.52V.85a.79.79,0,0,0-.24-.61A.81.81,0,0,0,134.65,0Z"/><path class="cls-1" d="M294.6.47a.77.77,0,0,0-.76-.47H269.66a.89.89,0,0,0-.57.28l-76.42,76A8,8,0,0,1,187,78.61H171.24V.85a.82.82,0,0,0-.78-.85H153a.79.79,0,0,0-.52.24.87.87,0,0,0-.24.61V94.06a.81.81,0,0,0,.76.76h37.84a24.29,24.29,0,0,0,17.25-7.11L294.41,1.42A.88.88,0,0,0,294.6.47Z"/><path class="cls-1" d="M365.67.24a.85.85,0,0,0-.61-.24H327.22A24.43,24.43,0,0,0,310,7.21L223.67,93.5a.76.76,0,0,0-.19.85.72.72,0,0,0,.76.47h24.18a1,1,0,0,0,.57-.19l22.9-22.75h75.05V94.06a.81.81,0,0,0,.76.76h17.36a.81.81,0,0,0,.61-.23.7.7,0,0,0,.24-.53V.85A.79.79,0,0,0,365.67.24ZM288.3,55.57l37.12-36.89a8.06,8.06,0,0,1,5.69-2.37h15.83V55.57Z"/><path class="cls-1" d="M468.78,17H383a.56.56,0,0,0-.34.15.6.6,0,0,0-.15.4V26.9a.53.53,0,0,0,.15.34.46.46,0,0,0,.34.15h36.81V77.24a.51.51,0,0,0,.48.54.06.06,0,0,0,.06,0h11.12a.41.41,0,0,0,.33-.15.47.47,0,0,0,.15-.39V27.43h36.81a.43.43,0,0,0,.34-.15.45.45,0,0,0,.15-.34V17.59a.52.52,0,0,0-.15-.4A.48.48,0,0,0,468.78,17Z"/><path class="cls-1" d="M569.27,17H500.39A17.32,17.32,0,0,0,483,34.23V60.41a17.31,17.31,0,0,0,17.25,17.37h69a.49.49,0,0,0,.4-.15.47.47,0,0,0,.15-.39V67.88a.44.44,0,0,0-.15-.33.57.57,0,0,0-.4-.15H500.39a5,5,0,0,1-3.7-1.55,5.1,5.1,0,0,1-1.52-3.68V52.64h65.42a.48.48,0,0,0,.39-.16.47.47,0,0,0,.15-.39V42.73a.5.5,0,0,0-.47-.54H495.17V32.65a5.24,5.24,0,0,1,5.22-5.2h68.88a.49.49,0,0,0,.4-.15.45.45,0,0,0,.15-.34V17.59a.52.52,0,0,0-.48-.55h-.07Z"/><path class="cls-1" d="M669.82,17H600.94a17.32,17.32,0,0,0-17.37,17.25V60.37a17.31,17.31,0,0,0,17.25,17.37h69a.53.53,0,0,0,.4-.15.47.47,0,0,0,.15-.39V67.88a.44.44,0,0,0-.15-.33.57.57,0,0,0-.4-.15H600.94a5,5,0,0,1-3.7-1.55,5.1,5.1,0,0,1-1.52-3.68V32.65a5.24,5.24,0,0,1,5.22-5.2h68.88a.53.53,0,0,0,.4-.15.45.45,0,0,0,.15-.34V17.59a.52.52,0,0,0-.15-.4A.58.58,0,0,0,669.82,17Z"/><path class="cls-1" d="M772.26,17.19a.57.57,0,0,0-.4-.15H760.81a.52.52,0,0,0-.55.55v24.6h-62.5V17.59a.51.51,0,0,0-.16-.4.49.49,0,0,0-.33-.15H686.15a.58.58,0,0,0-.39.15.6.6,0,0,0-.15.4V77.3a.49.49,0,0,0,.15.33.5.5,0,0,0,.39.15h11.12a.41.41,0,0,0,.33-.15.42.42,0,0,0,.16-.33V52.64h62.5V77.3a.49.49,0,0,0,.15.33.52.52,0,0,0,.4.15h11.05a.53.53,0,0,0,.4-.15.41.41,0,0,0,.15-.33V17.59A.52.52,0,0,0,772.26,17.19Z"/><g class="cls-2"><path class="cls-1" d="M134.65,0H27.12A26.22,26.22,0,0,0,7.92,7.92,26.2,26.2,0,0,0,0,27.12V67.7A26.16,26.16,0,0,0,7.92,86.91a26.17,26.17,0,0,0,19.2,7.91H134.65a.8.8,0,0,0,.85-.76.14.14,0,0,0,0-.09V79.37a.71.71,0,0,0-.24-.52.81.81,0,0,0-.61-.24H27.12a7.76,7.76,0,0,1-5.78-2.42A7.9,7.9,0,0,1,19,70.45V55.57H121.09a.8.8,0,0,0,.62-.24.83.83,0,0,0,.23-.62V40.11a.79.79,0,0,0-.72-.85H19V24.37a8,8,0,0,1,2.38-5.74,7.79,7.79,0,0,1,5.78-2.42H134.65a.77.77,0,0,0,.61-.23.69.69,0,0,0,.24-.52V.85a.79.79,0,0,0-.24-.61A.81.81,0,0,0,134.65,0Z"/><path class="cls-1" d="M294.6.47a.77.77,0,0,0-.76-.47H269.66a.89.89,0,0,0-.57.28l-76.42,76A8,8,0,0,1,187,78.61H171.24V.85a.82.82,0,0,0-.78-.85H153a.79.79,0,0,0-.52.24.87.87,0,0,0-.24.61V94.06a.81.81,0,0,0,.76.76h37.84a24.29,24.29,0,0,0,17.25-7.11L294.41,1.42A.88.88,0,0,0,294.6.47Z"/><path class="cls-1" d="M365.67.24a.85.85,0,0,0-.61-.24H327.22A24.43,24.43,0,0,0,310,7.21L223.67,93.5a.76.76,0,0,0-.19.85.72.72,0,0,0,.76.47h24.18a1,1,0,0,0,.57-.19l22.9-22.75h75.05V94.06a.81.81,0,0,0,.76.76h17.36a.81.81,0,0,0,.61-.23.7.7,0,0,0,.24-.53V.85A.79.79,0,0,0,365.67.24ZM288.3,55.57l37.12-36.89a8.06,8.06,0,0,1,5.69-2.37h15.83V55.57Z"/><path class="cls-1" d="M468.78,17H383a.56.56,0,0,0-.34.15.6.6,0,0,0-.15.4V26.9a.53.53,0,0,0,.15.34.46.46,0,0,0,.34.15h36.81V77.24a.51.51,0,0,0,.48.54.06.06,0,0,0,.06,0h11.12a.41.41,0,0,0,.33-.15.47.47,0,0,0,.15-.39V27.43h36.81a.43.43,0,0,0,.34-.15.45.45,0,0,0,.15-.34V17.59a.52.52,0,0,0-.15-.4A.48.48,0,0,0,468.78,17Z"/><path class="cls-1" d="M569.27,17H500.39A17.32,17.32,0,0,0,483,34.23V60.41a17.31,17.31,0,0,0,17.25,17.37h69a.49.49,0,0,0,.4-.15.47.47,0,0,0,.15-.39V67.88a.44.44,0,0,0-.15-.33.57.57,0,0,0-.4-.15H500.39a5,5,0,0,1-3.7-1.55,5.1,5.1,0,0,1-1.52-3.68V52.64h65.42a.48.48,0,0,0,.39-.16.47.47,0,0,0,.15-.39V42.73a.5.5,0,0,0-.47-.54H495.17V32.65a5.24,5.24,0,0,1,5.22-5.2h68.88a.49.49,0,0,0,.4-.15.45.45,0,0,0,.15-.34V17.59a.52.52,0,0,0-.48-.55h-.07Z"/><path class="cls-1" d="M669.82,17H600.94a17.32,17.32,0,0,0-17.37,17.25V60.37a17.31,17.31,0,0,0,17.25,17.37h69a.53.53,0,0,0,.4-.15.47.47,0,0,0,.15-.39V67.88a.44.44,0,0,0-.15-.33.57.57,0,0,0-.4-.15H600.94a5,5,0,0,1-3.7-1.55,5.1,5.1,0,0,1-1.52-3.68V32.65a5.24,5.24,0,0,1,5.22-5.2h68.88a.53.53,0,0,0,.4-.15.45.45,0,0,0,.15-.34V17.59a.52.52,0,0,0-.15-.4A.58.58,0,0,0,669.82,17Z"/><path class="cls-1" d="M772.26,17.19a.57.57,0,0,0-.4-.15H760.81a.52.52,0,0,0-.55.55v24.6h-62.5V17.59a.51.51,0,0,0-.16-.4.49.49,0,0,0-.33-.15H686.15a.58.58,0,0,0-.39.15.6.6,0,0,0-.15.4V77.3a.49.49,0,0,0,.15.33.5.5,0,0,0,.39.15h11.12a.41.41,0,0,0,.33-.15.42.42,0,0,0,.16-.33V52.64h62.5V77.3a.49.49,0,0,0,.15.33.52.52,0,0,0,.4.15h11.05a.53.53,0,0,0,.4-.15.41.41,0,0,0,.15-.33V17.59A.52.52,0,0,0,772.26,17.19Z"/></g><path class="cls-1" d="M0,123.68l6-13.63H8.2l6,13.63H11.6l-1.37-3.27H3.83l-1.4,3.27Zm4.7-5.37H9.36L7,112.89Z"/><path class="cls-1" d="M24.15,123.68V110.15h6.08a4.85,4.85,0,0,1,3.54,1.19,3.07,3.07,0,0,1,.9,2.27,3.22,3.22,0,0,1-1.93,3,4.63,4.63,0,0,1,2,1.21,3,3,0,0,1,.69,2.12,3.17,3.17,0,0,1-1.35,2.75,6.11,6.11,0,0,1-3.65,1Zm2.34-7.84h3.25a3.16,3.16,0,0,0,1.87-.48,1.58,1.58,0,0,0,.69-1.4,1.45,1.45,0,0,0-.63-1.25,2.9,2.9,0,0,0-1.75-.46H26.49Zm0,5.73h4a3.23,3.23,0,0,0,1.92-.48,1.62,1.62,0,0,0,.68-1.41,1.49,1.49,0,0,0-.7-1.34,3.75,3.75,0,0,0-2.08-.47H26.49Z"/><path class="cls-1" d="M44.85,112.35v-2.2h11v2.2H51.54v11.33H49.16V112.35Z"/><path class="cls-1" d="M65.49,116.92a6.87,6.87,0,0,1,4.26-6.44,7.58,7.58,0,0,1,2.85-.56,7.31,7.31,0,0,1,2.85.55,6.64,6.64,0,0,1,3.68,3.73,6.9,6.9,0,0,1,.53,2.72,6.69,6.69,0,0,1-.53,2.69,6.81,6.81,0,0,1-1.45,2.24,6.62,6.62,0,0,1-2.26,1.5,7.15,7.15,0,0,1-2.86.56,7.08,7.08,0,0,1-3.65-.94,6.61,6.61,0,0,1-2.51-2.55A7.11,7.11,0,0,1,65.49,116.92Zm2.49,0a5.3,5.3,0,0,0,.58,2.42,4.41,4.41,0,0,0,1.65,1.75,4.5,4.5,0,0,0,6.36-1.74,5.32,5.32,0,0,0,0-4.85,4.55,4.55,0,0,0-8,0,5.44,5.44,0,0,0-.55,2.44Z"/><path class="cls-1" d="M90.24,123.68V110.15h2.54l4.11,6.39,4.12-6.39h2.53v13.53h-2.38V114l-4.27,6.38h-.07L92.58,114v9.67Z"/><path class="cls-1" d="M114.15,116.92a7,7,0,0,1,2-4.93,7.12,7.12,0,0,1,2.25-1.51,7.58,7.58,0,0,1,2.85-.56,7.31,7.31,0,0,1,2.85.55,6.84,6.84,0,0,1,2.24,1.5,6.71,6.71,0,0,1,1.45,2.23,7.07,7.07,0,0,1,.52,2.72,7.16,7.16,0,0,1-2,4.93,6.62,6.62,0,0,1-2.26,1.5,7.52,7.52,0,0,1-6.51-.38,6.61,6.61,0,0,1-2.51-2.55A7.24,7.24,0,0,1,114.15,116.92Zm2.49,0a5.17,5.17,0,0,0,.58,2.42,4.47,4.47,0,0,0,4,2.4,4.36,4.36,0,0,0,4-2.39,5.32,5.32,0,0,0,0-4.85,4.47,4.47,0,0,0-4-2.41,4.52,4.52,0,0,0-2.37.65,4.44,4.44,0,0,0-1.62,1.74A5.32,5.32,0,0,0,116.64,116.92Z"/><path class="cls-1" d="M138.89,123.68V110.15H149v2.17h-7.75v3.06H145a5.57,5.57,0,0,1,3.59,1.1,4.17,4.17,0,0,1,.23,5.9,2.39,2.39,0,0,1-.23.22,5.67,5.67,0,0,1-3.69,1.08Zm2.34-2.11h3.14a4.72,4.72,0,0,0,2.4-.47,1.81,1.81,0,0,0,.78-1.69,1.73,1.73,0,0,0-.71-1.49,3.5,3.5,0,0,0-2-.51h-3.57Z"/><path class="cls-1" d="M160.49,123.68V110.15h2.38v13.53Z"/><path class="cls-1" d="M172.56,123.62l.24-1.91a2.54,2.54,0,0,0,.77.09,1.6,1.6,0,0,0,.58-.07,1.57,1.57,0,0,0,.54-.29,1.88,1.88,0,0,0,.5-.62,5.14,5.14,0,0,0,.41-1.07,8.57,8.57,0,0,0,.33-1.6q.13-.93.21-2.28c.05-.9.07-1.91.07-3.05v-2.67h9.34v13.53h-2.38V112.32h-4.66v1.21a39.53,39.53,0,0,1-.2,4.36,16.85,16.85,0,0,1-.54,3,4.76,4.76,0,0,1-.91,1.81,3,3,0,0,1-1.18.91,3.9,3.9,0,0,1-1.48.24A6.13,6.13,0,0,1,172.56,123.62Z"/><path class="cls-1" d="M196.71,123.68V110.15h2.34V115h3.11a5.75,5.75,0,0,1,3.7,1.12,3.77,3.77,0,0,1,1.38,3.12,4,4,0,0,1-1.37,3.23,5.49,5.49,0,0,1-3.72,1.19Zm2.34-2.11h3.07a3.14,3.14,0,0,0,2.06-.59,2.09,2.09,0,0,0,.72-1.74,1.85,1.85,0,0,0-.73-1.59,3.49,3.49,0,0,0-2.09-.56h-3Z"/><path class="cls-1" d="M217.48,123.68V110.15h2.38v5.62h6.46v-5.62h2.38v13.53h-2.38V118h-6.46v5.7Z"/><path class="cls-1" d="M240,123.68V110.15h2.38v13.53Z"/><path class="cls-1" d="M267.28,123.68V110.15h2.38V117l6.44-6.8H279l-5.61,5.8,5.88,7.71h-2.88l-4.62-6.09-2.11,2.16v3.93Z"/><path class="cls-1" d="M289,123.68V110.15h2.34V120l6.84-9.88h2.23v13.53h-2.34V113.8l-6.82,9.85Z"/><path class="cls-1" d="M310,123.62l.24-1.91a2.54,2.54,0,0,0,.77.09,1.6,1.6,0,0,0,.58-.07,1.57,1.57,0,0,0,.54-.29,1.88,1.88,0,0,0,.5-.62,5.14,5.14,0,0,0,.41-1.07,8.57,8.57,0,0,0,.33-1.6,20.31,20.31,0,0,0,.21-2.28c.05-.9.07-1.91.07-3.05v-2.67H323v13.53h-2.38V112.32H316v1.21a39.53,39.53,0,0,1-.2,4.36,16.85,16.85,0,0,1-.54,3,4.76,4.76,0,0,1-.91,1.81,3,3,0,0,1-1.18.91,3.9,3.9,0,0,1-1.48.24A6.44,6.44,0,0,1,310,123.62Z"/><path class="cls-1" d="M334.16,123.68V110.15h2.34V120l6.84-9.88h2.23v13.53h-2.34V113.8l-6.82,9.85Z"/><path class="cls-1" d="M356.79,123.68V110.15h2.54l4.12,6.39,4.11-6.39h2.53v13.53h-2.38V114l-4.26,6.38h-.08L359.14,114v9.67Z"/><path class="cls-1" d="M381.3,123.68V110.15h2.37V117l6.44-6.8H393l-5.6,5.8,5.88,7.71H390.4l-4.62-6.09-2.11,2.16v3.93Z"/><path class="cls-1" d="M403,123.68V110.15h2.34V120l6.84-9.88h2.23v13.53H412.1V113.8l-6.82,9.85Z"/><path class="cls-1" d="M439.19,123.68V110.15h2.38v5.62H448v-5.62h2.37v13.53H448V118h-6.46v5.7Z"/><path class="cls-1" d="M461,116.92a6.87,6.87,0,0,1,4.26-6.44,7.58,7.58,0,0,1,2.85-.56,7.31,7.31,0,0,1,2.85.55,6.84,6.84,0,0,1,2.24,1.5,6.71,6.71,0,0,1,1.45,2.23,7.07,7.07,0,0,1,.52,2.72,6.69,6.69,0,0,1-.53,2.69,6.81,6.81,0,0,1-1.45,2.24,6.62,6.62,0,0,1-2.26,1.5,7.15,7.15,0,0,1-2.86.56,7.08,7.08,0,0,1-3.65-.94,6.61,6.61,0,0,1-2.51-2.55A7.11,7.11,0,0,1,461,116.92Zm2.49,0a5.3,5.3,0,0,0,.58,2.42,4.41,4.41,0,0,0,1.65,1.75,4.35,4.35,0,0,0,2.37.65,4.4,4.4,0,0,0,4-2.39,5.32,5.32,0,0,0,0-4.85,4.55,4.55,0,0,0-8,0,5.33,5.33,0,0,0-.57,2.44Z"/><path class="cls-1" d="M485.76,123.68V110.15h6.07a4.85,4.85,0,0,1,3.54,1.19,3,3,0,0,1,.91,2.27,3.22,3.22,0,0,1-1.93,3,4.43,4.43,0,0,1,2,1.21A3,3,0,0,1,497,120a3.17,3.17,0,0,1-1.35,2.75,6.11,6.11,0,0,1-3.65,1Zm2.34-7.84h3.25a3.16,3.16,0,0,0,1.87-.48,1.55,1.55,0,0,0,.68-1.4,1.46,1.46,0,0,0-.62-1.25,2.88,2.88,0,0,0-1.76-.46H488.1Zm0,5.73H492a3.16,3.16,0,0,0,1.92-.48,1.61,1.61,0,0,0,.69-1.41,1.49,1.49,0,0,0-.7-1.34,3.79,3.79,0,0,0-2.09-.47H488.1Z"/><path class="cls-1" d="M506.84,116.92a7.06,7.06,0,0,1,2-4.93,6.86,6.86,0,0,1,2.25-1.51,7.58,7.58,0,0,1,2.85-.56,7.31,7.31,0,0,1,2.85.55,6.9,6.9,0,0,1,3.67,3.76,7.23,7.23,0,0,1,0,5.41,6.6,6.6,0,0,1-3.71,3.74,7.15,7.15,0,0,1-2.86.56,7.08,7.08,0,0,1-3.65-.94,6.61,6.61,0,0,1-2.51-2.55A7.22,7.22,0,0,1,506.84,116.92Zm2.5,0a5.17,5.17,0,0,0,.58,2.42,4.47,4.47,0,0,0,4,2.4,4.36,4.36,0,0,0,4-2.39,5.32,5.32,0,0,0,0-4.85,4.5,4.5,0,0,0-8,0A5.33,5.33,0,0,0,509.34,116.92Z"/><path class="cls-1" d="M531.59,123.68V110.15h9.11v2.17h-6.77v11.36Z"/><path class="cls-1" d="M550.2,116.92a6.87,6.87,0,0,1,4.26-6.44,7.58,7.58,0,0,1,2.85-.56,7.31,7.31,0,0,1,2.85.55,6.84,6.84,0,0,1,2.24,1.5,6.71,6.71,0,0,1,1.45,2.23,7.17,7.17,0,0,1-1.46,7.65,6.62,6.62,0,0,1-2.26,1.5,7.15,7.15,0,0,1-2.86.56,7.08,7.08,0,0,1-3.65-.94,6.61,6.61,0,0,1-2.51-2.55A7.11,7.11,0,0,1,550.2,116.92Zm2.49,0a5.18,5.18,0,0,0,.59,2.42,4.5,4.5,0,0,0,8,0,5.32,5.32,0,0,0,0-4.85,4.51,4.51,0,0,0-8,0A5.24,5.24,0,0,0,552.69,116.92Z"/><path class="cls-1" d="M588.48,123.68V110.15h11v13.53H597.1V112.32h-6.29v11.36Z"/><path class="cls-1" d="M610.13,116.92a7.15,7.15,0,0,1,2-4.93,7.3,7.3,0,0,1,2.25-1.51,7.58,7.58,0,0,1,2.85-.56,7.31,7.31,0,0,1,2.85.55,6.59,6.59,0,0,1,3.69,3.73,7.07,7.07,0,0,1,.52,2.72,7,7,0,0,1-2,4.93,6.62,6.62,0,0,1-2.26,1.5,7.52,7.52,0,0,1-6.51-.38,6.61,6.61,0,0,1-2.51-2.55A7.24,7.24,0,0,1,610.13,116.92Zm2.49,0a5.17,5.17,0,0,0,.58,2.42,4.46,4.46,0,0,0,1.64,1.75,4.68,4.68,0,0,0,4.74,0,4.43,4.43,0,0,0,1.63-1.75,5.11,5.11,0,0,0,.57-2.43,4.89,4.89,0,0,0-.58-2.42,4.47,4.47,0,0,0-4-2.41,4.52,4.52,0,0,0-2.37.65,4.44,4.44,0,0,0-1.62,1.74A5.36,5.36,0,0,0,612.62,116.92Z"/><path class="cls-1" d="M634.87,123.68V110.15h2.38V117l6.44-6.8h2.91L641,116l5.88,7.71H644l-4.62-6.09-2.11,2.16v3.93Z"/><path class="cls-1" d="M656,116.92a7,7,0,0,1,2-4.93,7.12,7.12,0,0,1,2.25-1.51,7.58,7.58,0,0,1,2.85-.56,7.31,7.31,0,0,1,2.85.55,6.84,6.84,0,0,1,2.24,1.5,6.71,6.71,0,0,1,1.45,2.23,7.07,7.07,0,0,1,.52,2.72,7.16,7.16,0,0,1-2,4.93,6.62,6.62,0,0,1-2.26,1.5,7.52,7.52,0,0,1-6.51-.38,6.61,6.61,0,0,1-2.51-2.55A7.24,7.24,0,0,1,656,116.92Zm2.49,0a5.17,5.17,0,0,0,.58,2.42,4.47,4.47,0,0,0,4,2.4,4.36,4.36,0,0,0,4-2.39,5.32,5.32,0,0,0,0-4.85,4.47,4.47,0,0,0-4-2.41,4.52,4.52,0,0,0-2.37.65,4.44,4.44,0,0,0-1.62,1.74,5.33,5.33,0,0,0-.57,2.44Z"/><path class="cls-1" d="M679.12,123.62l.24-1.91a2.54,2.54,0,0,0,.77.09,1.6,1.6,0,0,0,.58-.07,1.57,1.57,0,0,0,.54-.29,1.88,1.88,0,0,0,.5-.62,5.14,5.14,0,0,0,.41-1.07,8.57,8.57,0,0,0,.33-1.6q.13-.93.21-2.28c0-.9.07-1.91.07-3.05v-2.67h9.34v13.53h-2.38V112.32h-4.66v1.21a39.53,39.53,0,0,1-.2,4.36,16.85,16.85,0,0,1-.54,3,4.76,4.76,0,0,1-.91,1.81,3,3,0,0,1-1.18.91,3.9,3.9,0,0,1-1.48.24A6.13,6.13,0,0,1,679.12,123.62Z"/><path class="cls-1" d="M703.41,123.68V110.15h2.38v13.53Z"/><path class="cls-1" d="M717.13,123.68V110.15h2.38v5.62H726v-5.62h2.38v13.53H726V118h-6.45v5.7Z"/><path class="cls-1" d="M739.54,123.68V110.15h2.38v5.62h6.46v-5.62h2.38v13.53h-2.38V118h-6.46v5.7Z"/><path class="cls-1" d="M760.9,123.68l3.69-5.09a4.44,4.44,0,0,1-2.34-1.45,4.44,4.44,0,0,1,.48-5.83,5.51,5.51,0,0,1,3.68-1.16h6v13.53h-2.34V119h-3l-3.36,4.68Zm2.86-9.06a2.08,2.08,0,0,0,.77,1.68,3.08,3.08,0,0,0,2,.63H770v-4.61h-3.46a3.35,3.35,0,0,0-2.1.6A2.09,2.09,0,0,0,763.76,114.62Z"/></g></g></g></g></svg>