<svg xmlns="http://www.w3.org/2000/svg" viewBox="0 0 772.41 123.91"><defs><style>.cls-1{opacity:0.33;}</style></defs><g id="Слой_2" data-name="Слой 2"><g id="Слой_1-2" data-name="Слой 1"><path d="M134.65,0H27.12A26.15,26.15,0,0,0,7.92,7.92,26.15,26.15,0,0,0,0,27.12V67.7A26.15,26.15,0,0,0,7.92,86.91a26.18,26.18,0,0,0,19.2,7.91H134.65a.81.81,0,0,0,.85-.85V79.37a.7.7,0,0,0-.24-.52.81.81,0,0,0-.61-.24H27.12a7.77,7.77,0,0,1-5.78-2.42A7.88,7.88,0,0,1,19,70.45V55.57H121.09a.84.84,0,0,0,.62-.24.86.86,0,0,0,.23-.62V40.11a.79.79,0,0,0-.85-.85H19V24.37a7.9,7.9,0,0,1,2.38-5.74,7.77,7.77,0,0,1,5.78-2.42H134.65a.8.8,0,0,0,.61-.23.72.72,0,0,0,.24-.52V.85a.82.82,0,0,0-.24-.61A.81.81,0,0,0,134.65,0Z"/><path d="M294.6.47a.75.75,0,0,0-.76-.47H269.66a.81.81,0,0,0-.57.28l-76.42,76A8,8,0,0,1,187,78.61H171.24V.85a.82.82,0,0,0-.86-.85H153a.72.72,0,0,0-.52.24.82.82,0,0,0-.24.61V94.06a.81.81,0,0,0,.76.76h37.84a24.31,24.31,0,0,0,17.25-7.11L294.41,1.42A.9.9,0,0,0,294.6.47Z"/><path d="M365.67.24a.82.82,0,0,0-.61-.24H327.22A24.37,24.37,0,0,0,310,7.21L223.67,93.5a.74.74,0,0,0-.19.85.73.73,0,0,0,.76.47h24.18a1,1,0,0,0,.57-.19l22.9-22.75h75.05V94.06a.81.81,0,0,0,.76.76h17.36a.85.85,0,0,0,.61-.23.74.74,0,0,0,.24-.53V.85A.82.82,0,0,0,365.67.24ZM288.3,55.57l37.12-36.89a8,8,0,0,1,5.69-2.37h15.83V55.57Z"/><path d="M468.78,17H383a.48.48,0,0,0-.34.15.55.55,0,0,0-.15.4v9.35a.5.5,0,0,0,.15.34.48.48,0,0,0,.34.15h36.81V77.24a.51.51,0,0,0,.54.54h11.12a.46.46,0,0,0,.33-.15.53.53,0,0,0,.15-.39V27.43h36.81a.46.46,0,0,0,.34-.15.5.5,0,0,0,.15-.34V17.59a.55.55,0,0,0-.15-.4A.46.46,0,0,0,468.78,17Z"/><path d="M569.27,17H500.39A17.31,17.31,0,0,0,483,34.41v26a17.31,17.31,0,0,0,17.37,17.37h68.88a.55.55,0,0,0,.4-.15.53.53,0,0,0,.15-.39V67.88a.46.46,0,0,0-.15-.33.55.55,0,0,0-.4-.15H500.39a5,5,0,0,1-3.7-1.55,5.06,5.06,0,0,1-1.52-3.68V52.64h65.42a.5.5,0,0,0,.39-.16.53.53,0,0,0,.15-.39V42.73a.51.51,0,0,0-.54-.54H495.17V32.65A5,5,0,0,1,496.69,29a5,5,0,0,1,3.7-1.55h68.88a.55.55,0,0,0,.4-.15.5.5,0,0,0,.15-.34V17.59a.52.52,0,0,0-.55-.55Z"/><path d="M669.82,17H600.94a17.31,17.31,0,0,0-17.37,17.37v26a17.31,17.31,0,0,0,17.37,17.37h68.88a.57.57,0,0,0,.4-.15.53.53,0,0,0,.15-.39V67.88a.46.46,0,0,0-.15-.33.57.57,0,0,0-.4-.15H600.94a5,5,0,0,1-3.7-1.55,5.06,5.06,0,0,1-1.52-3.68V32.65A5,5,0,0,1,597.24,29a5,5,0,0,1,3.7-1.55h68.88a.57.57,0,0,0,.4-.15.5.5,0,0,0,.15-.34V17.59a.55.55,0,0,0-.15-.4A.57.57,0,0,0,669.82,17Z"/><path d="M772.26,17.19a.57.57,0,0,0-.4-.15H760.81a.54.54,0,0,0-.4.15.55.55,0,0,0-.15.4v24.6h-62.5V17.59a.56.56,0,0,0-.16-.4.46.46,0,0,0-.33-.15H686.15a.53.53,0,0,0-.39.15.55.55,0,0,0-.15.4V77.3a.46.46,0,0,0,.15.33.53.53,0,0,0,.39.15h11.12a.46.46,0,0,0,.33-.15.47.47,0,0,0,.16-.33V52.64h62.5V77.3a.46.46,0,0,0,.15.33.54.54,0,0,0,.4.15h11.05a.57.57,0,0,0,.4-.15.46.46,0,0,0,.15-.33V17.59A.55.55,0,0,0,772.26,17.19Z"/><g class="cls-1"><path d="M134.65,0H27.12A26.15,26.15,0,0,0,7.92,7.92,26.15,26.15,0,0,0,0,27.12V67.7A26.15,26.15,0,0,0,7.92,86.91a26.18,26.18,0,0,0,19.2,7.91H134.65a.81.81,0,0,0,.85-.85V79.37a.7.7,0,0,0-.24-.52.81.81,0,0,0-.61-.24H27.12a7.77,7.77,0,0,1-5.78-2.42A7.88,7.88,0,0,1,19,70.45V55.57H121.09a.84.84,0,0,0,.62-.24.86.86,0,0,0,.23-.62V40.11a.79.79,0,0,0-.85-.85H19V24.37a7.9,7.9,0,0,1,2.38-5.74,7.77,7.77,0,0,1,5.78-2.42H134.65a.8.8,0,0,0,.61-.23.72.72,0,0,0,.24-.52V.85a.82.82,0,0,0-.24-.61A.81.81,0,0,0,134.65,0Z"/><path d="M294.6.47a.75.75,0,0,0-.76-.47H269.66a.81.81,0,0,0-.57.28l-76.42,76A8,8,0,0,1,187,78.61H171.24V.85a.82.82,0,0,0-.86-.85H153a.72.72,0,0,0-.52.24.82.82,0,0,0-.24.61V94.06a.81.81,0,0,0,.76.76h37.84a24.31,24.31,0,0,0,17.25-7.11L294.41,1.42A.9.9,0,0,0,294.6.47Z"/><path d="M365.67.24a.82.82,0,0,0-.61-.24H327.22A24.37,24.37,0,0,0,310,7.21L223.67,93.5a.74.74,0,0,0-.19.85.73.73,0,0,0,.76.47h24.18a1,1,0,0,0,.57-.19l22.9-22.75h75.05V94.06a.81.81,0,0,0,.76.76h17.36a.85.85,0,0,0,.61-.23.74.74,0,0,0,.24-.53V.85A.82.82,0,0,0,365.67.24ZM288.3,55.57l37.12-36.89a8,8,0,0,1,5.69-2.37h15.83V55.57Z"/><path d="M468.78,17H383a.48.48,0,0,0-.34.15.55.55,0,0,0-.15.4v9.35a.5.5,0,0,0,.15.34.48.48,0,0,0,.34.15h36.81V77.24a.51.51,0,0,0,.54.54h11.12a.46.46,0,0,0,.33-.15.53.53,0,0,0,.15-.39V27.43h36.81a.46.46,0,0,0,.34-.15.5.5,0,0,0,.15-.34V17.59a.55.55,0,0,0-.15-.4A.46.46,0,0,0,468.78,17Z"/><path d="M569.27,17H500.39A17.31,17.31,0,0,0,483,34.41v26a17.31,17.31,0,0,0,17.37,17.37h68.88a.55.55,0,0,0,.4-.15.53.53,0,0,0,.15-.39V67.88a.46.46,0,0,0-.15-.33.55.55,0,0,0-.4-.15H500.39a5,5,0,0,1-3.7-1.55,5.06,5.06,0,0,1-1.52-3.68V52.64h65.42a.5.5,0,0,0,.39-.16.53.53,0,0,0,.15-.39V42.73a.51.51,0,0,0-.54-.54H495.17V32.65A5,5,0,0,1,496.69,29a5,5,0,0,1,3.7-1.55h68.88a.55.55,0,0,0,.4-.15.5.5,0,0,0,.15-.34V17.59a.52.52,0,0,0-.55-.55Z"/><path d="M669.82,17H600.94a17.31,17.31,0,0,0-17.37,17.37v26a17.31,17.31,0,0,0,17.37,17.37h68.88a.57.57,0,0,0,.4-.15.53.53,0,0,0,.15-.39V67.88a.46.46,0,0,0-.15-.33.57.57,0,0,0-.4-.15H600.94a5,5,0,0,1-3.7-1.55,5.06,5.06,0,0,1-1.52-3.68V32.65A5,5,0,0,1,597.24,29a5,5,0,0,1,3.7-1.55h68.88a.57.57,0,0,0,.4-.15.5.5,0,0,0,.15-.34V17.59a.55.55,0,0,0-.15-.4A.57.57,0,0,0,669.82,17Z"/><path d="M772.26,17.19a.57.57,0,0,0-.4-.15H760.81a.54.54,0,0,0-.4.15.55.55,0,0,0-.15.4v24.6h-62.5V17.59a.56.56,0,0,0-.16-.4.46.46,0,0,0-.33-.15H686.15a.53.53,0,0,0-.39.15.55.55,0,0,0-.15.4V77.3a.46.46,0,0,0,.15.33.53.53,0,0,0,.39.15h11.12a.46.46,0,0,0,.33-.15.47.47,0,0,0,.16-.33V52.64h62.5V77.3a.46.46,0,0,0,.15.33.54.54,0,0,0,.4.15h11.05a.57.57,0,0,0,.4-.15.46.46,0,0,0,.15-.33V17.59A.55.55,0,0,0,772.26,17.19Z"/></g><path d="M0,123.68l6-13.63h2.2l5.95,13.63H11.6l-1.37-3.27H3.83l-1.4,3.27Zm4.7-5.37H9.36L7,112.89Z"/><path d="M24.15,123.68V110.15h6.08a4.8,4.8,0,0,1,3.54,1.19,3.08,3.08,0,0,1,.9,2.27,3.23,3.23,0,0,1-1.93,3,4.58,4.58,0,0,1,2,1.21,3.09,3.09,0,0,1,.69,2.12,3.19,3.19,0,0,1-1.35,2.75,6.19,6.19,0,0,1-3.65,1Zm2.34-7.84h3.25a3.2,3.2,0,0,0,1.87-.48,1.59,1.59,0,0,0,.69-1.4,1.45,1.45,0,0,0-.63-1.25,2.87,2.87,0,0,0-1.75-.46H26.49Zm0,5.73h4a3.32,3.32,0,0,0,1.92-.48,1.65,1.65,0,0,0,.68-1.41,1.51,1.51,0,0,0-.7-1.34,3.68,3.68,0,0,0-2.08-.47H26.49Z"/><path d="M44.85,112.35v-2.2h11v2.2H51.54v11.33H49.16V112.35Z"/><path d="M65.49,116.92a7.11,7.11,0,0,1,2-4.93,6.94,6.94,0,0,1,2.26-1.51,7.35,7.35,0,0,1,2.85-.56,7.28,7.28,0,0,1,2.85.55,6.61,6.61,0,0,1,3.68,3.73,7.09,7.09,0,0,1,.53,2.72,7,7,0,0,1-.53,2.69,7.09,7.09,0,0,1-1.45,2.24,6.77,6.77,0,0,1-2.26,1.5,7.22,7.22,0,0,1-2.86.56,7.11,7.11,0,0,1-3.65-.94,6.61,6.61,0,0,1-2.51-2.55A7.09,7.09,0,0,1,65.49,116.92Zm2.49,0a5.24,5.24,0,0,0,.58,2.42,4.48,4.48,0,0,0,1.65,1.75,4.35,4.35,0,0,0,2.37.65,4.42,4.42,0,0,0,2.36-.64,4.5,4.5,0,0,0,1.63-1.75,5.32,5.32,0,0,0,0-4.85,4.55,4.55,0,0,0-1.64-1.76,4.5,4.5,0,0,0-2.38-.65,4.45,4.45,0,0,0-4,2.39A5.25,5.25,0,0,0,68,116.92Z"/><path d="M90.24,123.68V110.15h2.54l4.11,6.39,4.12-6.39h2.53v13.53h-2.38V114l-4.27,6.38h-.07L92.58,114v9.67Z"/><path d="M114.15,116.92a7,7,0,0,1,2-4.93,6.9,6.9,0,0,1,2.25-1.51,7.35,7.35,0,0,1,2.85-.56,7.28,7.28,0,0,1,2.85.55,6.68,6.68,0,0,1,2.24,1.5,6.77,6.77,0,0,1,1.45,2.23,7.08,7.08,0,0,1,.52,2.72,6.83,6.83,0,0,1-.53,2.69,6.92,6.92,0,0,1-1.45,2.24,6.77,6.77,0,0,1-2.26,1.5,7.57,7.57,0,0,1-6.51-.38,6.61,6.61,0,0,1-2.51-2.55A7.08,7.08,0,0,1,114.15,116.92Zm2.49,0a5.12,5.12,0,0,0,.58,2.42,4.47,4.47,0,0,0,4,2.4,4.38,4.38,0,0,0,4-2.39,5.36,5.36,0,0,0,0-4.85,4.48,4.48,0,0,0-4-2.41,4.44,4.44,0,0,0-2.37.65,4.38,4.38,0,0,0-1.62,1.74A5.25,5.25,0,0,0,116.64,116.92Z"/><path d="M138.89,123.68V110.15H149v2.17h-7.75v3.06H145a5.48,5.48,0,0,1,3.59,1.1,4.17,4.17,0,0,1,0,6.12,5.75,5.75,0,0,1-3.69,1.08Zm2.34-2.11h3.14a4.81,4.81,0,0,0,2.4-.47,1.82,1.82,0,0,0,.78-1.69,1.74,1.74,0,0,0-.71-1.49,3.47,3.47,0,0,0-2-.51h-3.57Z"/><path d="M160.49,123.68V110.15h2.38v13.53Z"/><path d="M172.56,123.62l.24-1.91a3,3,0,0,0,.77.09,2,2,0,0,0,.58-.07,1.8,1.8,0,0,0,.54-.29,2,2,0,0,0,.5-.62,5.6,5.6,0,0,0,.41-1.07,9.53,9.53,0,0,0,.33-1.6q.13-.93.21-2.28c.05-.9.07-1.91.07-3.05v-2.67h9.34v13.53h-2.38V112.32h-4.66v1.21a41.57,41.57,0,0,1-.2,4.36,17,17,0,0,1-.54,3,5,5,0,0,1-.91,1.81,3.14,3.14,0,0,1-1.18.91,4.1,4.1,0,0,1-1.48.24A6.53,6.53,0,0,1,172.56,123.62Z"/><path d="M196.71,123.68V110.15h2.34V115h3.11a5.73,5.73,0,0,1,3.7,1.12,3.78,3.78,0,0,1,1.38,3.12,4,4,0,0,1-1.37,3.23,5.52,5.52,0,0,1-3.72,1.19Zm2.34-2.11h3.07a3.18,3.18,0,0,0,2.06-.59,2.14,2.14,0,0,0,.72-1.74,1.87,1.87,0,0,0-.73-1.59,3.44,3.44,0,0,0-2.09-.56h-3Z"/><path d="M217.48,123.68V110.15h2.38v5.62h6.46v-5.62h2.38v13.53h-2.38V118h-6.46v5.7Z"/><path d="M240,123.68V110.15h2.38v13.53Z"/><path d="M267.28,123.68V110.15h2.38V117l6.44-6.8H279L273.39,116l5.88,7.71h-2.88l-4.62-6.09-2.11,2.16v3.93Z"/><path d="M289,123.68V110.15h2.34V120l6.84-9.88h2.23v13.53h-2.34v-9.85l-6.82,9.85Z"/><path d="M310,123.62l.24-1.91a3,3,0,0,0,.77.09,2,2,0,0,0,.58-.07,1.8,1.8,0,0,0,.54-.29,2,2,0,0,0,.5-.62,5.6,5.6,0,0,0,.41-1.07,9.53,9.53,0,0,0,.33-1.6q.14-.93.21-2.28c.05-.9.07-1.91.07-3.05v-2.67H323v13.53h-2.38V112.32H316v1.21a41.57,41.57,0,0,1-.2,4.36,17,17,0,0,1-.54,3,5,5,0,0,1-.91,1.81,3.14,3.14,0,0,1-1.18.91,4.1,4.1,0,0,1-1.48.24A6.53,6.53,0,0,1,310,123.62Z"/><path d="M334.16,123.68V110.15h2.34V120l6.84-9.88h2.23v13.53h-2.34v-9.85l-6.82,9.85Z"/><path d="M356.79,123.68V110.15h2.54l4.12,6.39,4.11-6.39h2.53v13.53h-2.38V114l-4.26,6.38h-.08L359.14,114v9.67Z"/><path d="M381.3,123.68V110.15h2.37V117l6.44-6.8H393L387.4,116l5.88,7.71H390.4l-4.62-6.09-2.11,2.16v3.93Z"/><path d="M403,123.68V110.15h2.34V120l6.84-9.88h2.23v13.53H412.1v-9.85l-6.82,9.85Z"/><path d="M439.19,123.68V110.15h2.38v5.62H448v-5.62h2.37v13.53H448V118h-6.46v5.7Z"/><path d="M461,116.92a7.11,7.11,0,0,1,2-4.93,6.94,6.94,0,0,1,2.26-1.51,7.35,7.35,0,0,1,2.85-.56,7.28,7.28,0,0,1,2.85.55,6.68,6.68,0,0,1,2.24,1.5,6.77,6.77,0,0,1,1.45,2.23,7.27,7.27,0,0,1,.52,2.72,7,7,0,0,1-.53,2.69,7.09,7.09,0,0,1-1.45,2.24,6.77,6.77,0,0,1-2.26,1.5,7.22,7.22,0,0,1-2.86.56,7.11,7.11,0,0,1-3.65-.94,6.61,6.61,0,0,1-2.51-2.55A7.09,7.09,0,0,1,461,116.92Zm2.49,0a5.24,5.24,0,0,0,.58,2.42,4.48,4.48,0,0,0,1.65,1.75,4.38,4.38,0,0,0,2.37.65,4.41,4.41,0,0,0,4-2.39,5.32,5.32,0,0,0,0-4.85,4.55,4.55,0,0,0-1.64-1.76,4.5,4.5,0,0,0-2.38-.65,4.45,4.45,0,0,0-4,2.39A5.25,5.25,0,0,0,463.5,116.92Z"/><path d="M485.76,123.68V110.15h6.07a4.8,4.8,0,0,1,3.54,1.19,3.05,3.05,0,0,1,.91,2.27,3.23,3.23,0,0,1-1.93,3,4.49,4.49,0,0,1,2,1.21A3,3,0,0,1,497,120a3.19,3.19,0,0,1-1.35,2.75,6.19,6.19,0,0,1-3.65,1Zm2.34-7.84h3.25a3.22,3.22,0,0,0,1.87-.48,1.58,1.58,0,0,0,.68-1.4,1.45,1.45,0,0,0-.62-1.25,2.88,2.88,0,0,0-1.76-.46H488.1Zm0,5.73H492a3.28,3.28,0,0,0,1.92-.48,1.63,1.63,0,0,0,.69-1.41,1.51,1.51,0,0,0-.7-1.34,3.72,3.72,0,0,0-2.09-.47H488.1Z"/><path d="M506.84,116.92a7,7,0,0,1,.53-2.7,6.9,6.9,0,0,1,1.46-2.23,6.79,6.79,0,0,1,2.25-1.51,7.35,7.35,0,0,1,2.85-.56,7.28,7.28,0,0,1,2.85.55A6.68,6.68,0,0,1,519,112a6.77,6.77,0,0,1,1.45,2.23,7.23,7.23,0,0,1,0,5.41,6.92,6.92,0,0,1-1.45,2.24,6.77,6.77,0,0,1-2.26,1.5,7.19,7.19,0,0,1-2.86.56,7.11,7.11,0,0,1-3.65-.94,6.61,6.61,0,0,1-2.51-2.55A7.09,7.09,0,0,1,506.84,116.92Zm2.5,0a5.12,5.12,0,0,0,.58,2.42,4.47,4.47,0,0,0,4,2.4,4.38,4.38,0,0,0,4-2.39,5.32,5.32,0,0,0,0-4.85,4.45,4.45,0,0,0-4-2.41,4.43,4.43,0,0,0-2.36.65,4.38,4.38,0,0,0-1.62,1.74A5.25,5.25,0,0,0,509.34,116.92Z"/><path d="M531.59,123.68V110.15h9.11v2.17h-6.77v11.36Z"/><path d="M550.2,116.92a7.11,7.11,0,0,1,2-4.93,6.94,6.94,0,0,1,2.26-1.51,7.35,7.35,0,0,1,2.85-.56,7.28,7.28,0,0,1,2.85.55,6.68,6.68,0,0,1,2.24,1.5,6.77,6.77,0,0,1,1.45,2.23,7.19,7.19,0,0,1-1.46,7.65,6.77,6.77,0,0,1-2.26,1.5,7.19,7.19,0,0,1-2.86.56,7.11,7.11,0,0,1-3.65-.94,6.61,6.61,0,0,1-2.51-2.55A7.09,7.09,0,0,1,550.2,116.92Zm2.49,0a5.12,5.12,0,0,0,.59,2.42,4.51,4.51,0,0,0,8,0,5.32,5.32,0,0,0,0-4.85,4.55,4.55,0,0,0-1.64-1.76,4.5,4.5,0,0,0-2.38-.65,4.43,4.43,0,0,0-2.36.65,4.38,4.38,0,0,0-1.62,1.74A5.14,5.14,0,0,0,552.69,116.92Z"/><path d="M588.48,123.68V110.15h11v13.53h-2.38V112.32h-6.29v11.36Z"/><path d="M610.13,116.92a7.11,7.11,0,0,1,2-4.93,7,7,0,0,1,2.25-1.51,7.35,7.35,0,0,1,2.85-.56,7.28,7.28,0,0,1,2.85.55,6.72,6.72,0,0,1,2.25,1.5,6.91,6.91,0,0,1,1.44,2.23,7.08,7.08,0,0,1,.52,2.72,7,7,0,0,1-.52,2.69,7.11,7.11,0,0,1-1.46,2.24,6.67,6.67,0,0,1-2.26,1.5,7.57,7.57,0,0,1-6.51-.38,6.68,6.68,0,0,1-2.51-2.55A7.08,7.08,0,0,1,610.13,116.92Zm2.49,0a5.12,5.12,0,0,0,.58,2.42,4.45,4.45,0,0,0,1.64,1.75,4.68,4.68,0,0,0,4.74,0,4.57,4.57,0,0,0,1.63-1.75,5.18,5.18,0,0,0,.57-2.43,5.06,5.06,0,0,0-.58-2.42,4.48,4.48,0,0,0-4-2.41,4.44,4.44,0,0,0-2.37.65,4.38,4.38,0,0,0-1.62,1.74A5.25,5.25,0,0,0,612.62,116.92Z"/><path d="M634.87,123.68V110.15h2.38V117l6.44-6.8h2.91L641,116l5.88,7.71H644l-4.62-6.09-2.11,2.16v3.93Z"/><path d="M656,116.92a7,7,0,0,1,2-4.93,6.9,6.9,0,0,1,2.25-1.51,7.35,7.35,0,0,1,2.85-.56,7.28,7.28,0,0,1,2.85.55,6.68,6.68,0,0,1,2.24,1.5,6.77,6.77,0,0,1,1.45,2.23,7.08,7.08,0,0,1,.52,2.72,6.83,6.83,0,0,1-.53,2.69,6.92,6.92,0,0,1-1.45,2.24,6.77,6.77,0,0,1-2.26,1.5,7.57,7.57,0,0,1-6.51-.38,6.61,6.61,0,0,1-2.51-2.55A7.08,7.08,0,0,1,656,116.92Zm2.49,0a5.12,5.12,0,0,0,.58,2.42,4.47,4.47,0,0,0,4,2.4,4.38,4.38,0,0,0,4-2.39,5.36,5.36,0,0,0,0-4.85,4.48,4.48,0,0,0-4-2.41,4.44,4.44,0,0,0-2.37.65,4.38,4.38,0,0,0-1.62,1.74A5.25,5.25,0,0,0,658.51,116.92Z"/><path d="M679.12,123.62l.24-1.91a3,3,0,0,0,.77.09,2,2,0,0,0,.58-.07,1.8,1.8,0,0,0,.54-.29,2,2,0,0,0,.5-.62,5.6,5.6,0,0,0,.41-1.07,9.53,9.53,0,0,0,.33-1.6q.13-.93.21-2.28c0-.9.07-1.91.07-3.05v-2.67h9.34v13.53h-2.38V112.32h-4.66v1.21a41.57,41.57,0,0,1-.2,4.36,17,17,0,0,1-.54,3,5,5,0,0,1-.91,1.81,3.14,3.14,0,0,1-1.18.91,4.1,4.1,0,0,1-1.48.24A6.53,6.53,0,0,1,679.12,123.62Z"/><path d="M703.41,123.68V110.15h2.38v13.53Z"/><path d="M717.13,123.68V110.15h2.38v5.62H726v-5.62h2.38v13.53H726V118h-6.45v5.7Z"/><path d="M739.54,123.68V110.15h2.38v5.62h6.46v-5.62h2.38v13.53h-2.38V118h-6.46v5.7Z"/><path d="M760.9,123.68l3.69-5.09a4.49,4.49,0,0,1-2.34-1.45,4,4,0,0,1-.87-2.67,4,4,0,0,1,1.35-3.16,5.41,5.41,0,0,1,3.68-1.16h6v13.53h-2.34V119h-3l-3.36,4.68Zm2.86-9.06a2.07,2.07,0,0,0,.77,1.68,3.11,3.11,0,0,0,2,.63h3.5v-4.61h-3.46a3.28,3.28,0,0,0-2.1.6A2.07,2.07,0,0,0,763.76,114.62Z"/></g></g></svg>