<svg width="120" height="120" viewBox="0 0 120 120" fill="none" xmlns="http://www.w3.org/2000/svg">
<g clip-path="url(#clip0_118:534)">
<path d="M88.3 112.9C89.1 113.7 90.2 114.1 91.4 114.1C93.8 114.1 95.8 112.1 95.8 109.7C95.8 107.3 93.8 105.3 91.4 105.3C89 105.3 87 107.3 87 109.7C87 110.1 87.1 110.4 87.1 110.7C78.8 115.1 69.5 117.5 60 117.5C28.3 117.6 2.4 91.7 2.4 60C2.4 28.3 28.3 2.39998 60 2.39998C91.7 2.39998 117.6 28.2 117.6 60C117.6 71.4 114.3 82.3 108.1 91.8C107.7 92.4 107.9 93.1 108.4 93.5C109 93.9 109.7 93.7 110.1 93.2C116.6 83.4 120.1 71.9 120.1 60.1C120.1 27 93.2 0.0999756 60.1 0.0999756C27 0.0999756 0 26.9 0 60C0 93.1 26.9 120 60 120C69.9 120 79.7 117.5 88.3 112.9Z" fill="#14182A"/>
<path d="M60 109.6C87.4 109.6 109.6 87.3 109.6 60C109.6 50.4 106.9 41.1 101.7 33.1C101.4 32.6 100.7 32.4 100.1 32.8C99.6 33.1 99.4 33.8 99.8 34.4C104.8 42.1 107.4 51 107.4 60.1C107.4 86.2 86.2 107.5 60 107.5C33.8 107.5 12.6 86.1 12.6 60C12.6 33.9 33.9 12.6 60 12.6C67.3 12.6 74.3 14.2 80.8 17.4C81.4 17.7 82 17.4 82.3 16.9C82.6 16.3 82.3 15.7 81.8 15.4C75 12.1 67.6 10.4 60 10.4C32.6 10.4 10.4 32.7 10.4 60C10.4 87.3 32.6 109.6 60 109.6Z" fill="#F8F8F8"/>
<path d="M86 41.3002V62.4742C86 86.0302 61.1516 92.9118 60.891 93C60.8041 93 60.7172 93 60.5434 93C60.4566 93 60.3697 93 60.1959 93C59.9353 92.9118 36.0426 86.2949 35.0869 63.8858C35.0869 63.18 35.6082 62.5624 36.3901 62.5624C37.0852 62.5624 37.6065 63.0918 37.6934 63.7976C38.4753 83.2071 57.6763 89.6475 60.5434 90.4415C63.4974 89.5592 83.4804 82.8542 83.4804 62.5624V42.1825L60.5434 33.6247L37.6065 42.1825V44.2999C37.6065 45.0057 36.9983 45.6233 36.3032 45.6233C35.6082 45.6233 35 45.0057 35 44.2999V41.212C35 40.6827 35.3475 40.1533 35.8688 39.9769L60.109 31.0662C60.3697 30.9779 60.7172 30.9779 60.9779 31.0662L85.1312 40.1533C85.6525 40.2416 86 40.7709 86 41.3002ZM58.1107 68.2971C58.632 68.2971 58.9796 68.1206 59.2402 67.8559L69.9267 57.0043C70.5349 56.3867 70.5349 55.4162 69.9267 54.7987C69.3186 54.1811 68.3629 54.1811 67.7547 54.7987L58.2845 64.4152L53.2453 57.9747C52.724 57.2689 51.7683 57.1807 51.0733 57.7101C50.3782 58.2394 50.2913 59.2099 50.8126 59.9157L56.9813 67.6795C57.2419 68.0324 57.6763 68.2971 58.1107 68.2971Z" fill="#14182A"/>
</g>
<defs>
<clipPath id="clip0_118:534">
<rect width="120" height="120" fill="white"/>
</clipPath>
</defs>
</svg>
