<svg width="14" height="21" viewBox="0 0 14 21" fill="none" xmlns="http://www.w3.org/2000/svg">
<path id="Vector" d="M7.66474 20.5241C7.66474 15.5229 7.66474 10.5219 7.66474 5.52108C7.66474 5.33691 7.71888 5.23105 7.86776 5.1218C9.36869 4.04142 10.8609 2.94896 12.3633 1.87003C12.5417 1.74193 12.6205 1.61093 12.5567 1.38664H1.82538V1.62399C1.82538 2.97071 1.82538 4.31744 1.82779 5.66417C1.8329 5.7276 1.8229 5.79133 1.79862 5.85015C1.77434 5.90897 1.73646 5.96119 1.68809 6.00254C1.45296 6.2198 1.29973 6.51134 1.25413 6.82822C1.20854 7.1451 1.27335 7.46801 1.4377 7.74275C1.46042 7.78142 1.48604 7.81913 1.51842 7.87713H0.890015V1.09081C0.890015 0.591946 1.04615 0.437744 1.54743 0.437744H12.8636C13.3562 0.437744 13.5109 0.591463 13.5109 1.07969C13.5099 6.27034 13.5094 11.4616 13.5094 16.6536C13.5094 17.0176 13.3833 17.2042 13.1029 17.2477C12.8612 17.2854 12.7104 17.151 12.5929 16.9499L10.9692 18.1294C9.92765 18.8857 8.88627 19.643 7.84504 20.4013C7.79557 20.4409 7.74829 20.4832 7.70341 20.528L7.66474 20.5241ZM8.55321 12.6235H9.05255C9.11008 12.7734 9.13376 12.9136 9.20966 13.0103C9.28555 13.1069 9.418 13.2375 9.51951 13.2321C9.63407 13.2263 9.78634 13.1094 9.84387 13.0001C9.93856 12.827 9.98818 12.6328 9.98818 12.4355C9.98818 12.2382 9.93856 12.044 9.84387 11.8709C9.78683 11.7607 9.63842 11.6427 9.52434 11.6345C9.4238 11.6278 9.23914 11.753 9.21932 11.8472C9.14005 12.2161 8.89884 12.2431 8.603 12.2098C8.58753 12.2098 8.57013 12.2252 8.55176 12.2344L8.55321 12.6235Z" fill="#278AFE"/>
</svg>
