<svg width="17" height="22" viewBox="0 0 17 22" fill="none" xmlns="http://www.w3.org/2000/svg">
<g clip-path="url(#clip0_9_23)">
<path d="M8.03548 21.0066C5.99107 21.0066 3.94563 21.0066 1.90019 21.0066C0.590573 21.0066 0.0147127 20.4246 0.0136807 19.1212C0.0136807 17.763 0.0621851 16.4039 0.00645661 15.0478C-0.0967442 12.6288 1.14167 11.121 3.20568 10.1179C3.68247 9.88674 4.02407 9.895 4.48434 10.2345C6.50398 11.7206 9.73107 11.6938 11.7445 10.1932C12.1305 9.90532 12.4349 9.88364 12.856 10.0529C14.5 10.7309 16.2616 12.3667 16.1584 14.9271C16.0996 16.3719 16.1533 17.8167 16.146 19.2615C16.1357 20.3874 15.5083 21.0066 14.3782 21.0066C12.2647 21.0149 10.1501 21.0066 8.03548 21.0066Z" fill="#A7A5A5"/>
<path d="M8.07762 -7.82855e-05C8.71475 -0.00254582 9.34604 0.121313 9.935 0.364338C10.524 0.607362 11.0589 0.964729 11.5089 1.41578C11.9589 1.86682 12.315 2.4026 12.5566 2.99213C12.7983 3.58166 12.9207 4.21324 12.9167 4.85036C12.9167 7.49953 10.7433 9.68945 8.10342 9.69048C7.46611 9.69238 6.83466 9.56867 6.24519 9.3264C5.65571 9.08414 5.11975 8.72809 4.66795 8.27858C4.21615 7.82908 3.85736 7.29495 3.61209 6.70672C3.36683 6.11848 3.23989 5.48768 3.23854 4.85036C3.23471 4.21328 3.35719 3.58176 3.59888 2.99229C3.84057 2.40283 4.19669 1.8671 4.64665 1.41608C5.09662 0.965064 5.63151 0.607691 6.2204 0.364618C6.8093 0.121545 7.44054 -0.00240794 8.07762 -7.82855e-05Z" fill="#A7A5A5"/>
</g>
<defs>
<clipPath id="clip0_9_23">
<rect width="16.1571" height="21.0117" fill="white"/>
</clipPath>
</defs>
</svg>
