<svg id="Layer_1" data-name="Layer 1" xmlns="http://www.w3.org/2000/svg" viewBox="0 0 678.2 980"><defs><style>.cls-1{fill:#99a0a8;}</style></defs><title>Vector Smart Object14</title><path class="cls-1" d="M500,10C312.7,10,160.9,158.6,160.9,341.9S387.4,768.3,500,990C617.4,768.3,839.1,525.3,839.1,341.9S687.3,10,500,10Zm0,521.3c-105.4,0-190.8-84-190.8-187.7S394.7,156,500,156s190.8,84,190.8,187.7S605.3,531.3,500,531.3Zm0-271.1c-46.8,0-84.8,37.3-84.8,83.4S453.2,427,500,427s84.8-37.3,84.8-83.4S546.8,260.2,500,260.2Z" transform="translate(-160.9 -10)"/></svg>