<svg id="Layer_1" data-name="Layer 1" xmlns="http://www.w3.org/2000/svg" viewBox="0 0 596.5 980"><defs><style>.cls-1{fill:#99a0a8;}</style></defs><title>Vector Smart Object13</title><path class="cls-1" d="M798.3,936.9c0,28.6-24.5,53.1-53.1,53.1H254.9c-28.6,0-53.1-24.5-53.1-53.1V63.1c0-28.6,24.5-53.1,53.1-53.1H745.1c28.6,0,53.1,24.5,53.1,53.1l0.1,873.8h0ZM712.7,148c0-28.6-16.4-53.1-44.9-53.1H343c-32.7,0-57.2,24.5-57.2,53.1V724.4c0,28.6,24.6,53.1,53.1,53.1H659.5c28.6,0,53.1-24.5,53.1-53.1L712.7,148h0Zm-176,738.4A36.75,36.75,0,1,0,500,923.2,36.53,36.53,0,0,0,536.7,886.4Z" transform="translate(-201.8 -10)"/></svg>