<svg width="27" height="27" viewBox="0 0 27 27" fill="none" xmlns="http://www.w3.org/2000/svg">
<path d="M8.4375 25.3125C9.36948 25.3125 10.125 24.557 10.125 23.625C10.125 22.693 9.36948 21.9375 8.4375 21.9375C7.50552 21.9375 6.75 22.693 6.75 23.625C6.75 24.557 7.50552 25.3125 8.4375 25.3125Z" fill="black"/>
<path d="M20.25 25.3125C21.182 25.3125 21.9375 24.557 21.9375 23.625C21.9375 22.693 21.182 21.9375 20.25 21.9375C19.318 21.9375 18.5625 22.693 18.5625 23.625C18.5625 24.557 19.318 25.3125 20.25 25.3125Z" fill="black"/>
<path d="M4.20187 2.36587C4.16366 2.17467 4.0604 2.00261 3.90965 1.87894C3.75891 1.75526 3.56998 1.68762 3.375 1.6875H0V3.375H2.68312L5.92312 19.5716C5.96134 19.7628 6.0646 19.9349 6.21535 20.0586C6.36609 20.1822 6.55502 20.2499 6.75 20.25H21.9375V18.5625H7.44187L6.76687 15.1875H21.9375C22.1294 15.1875 22.3156 15.122 22.4653 15.0019C22.6151 14.8818 22.7193 14.7142 22.761 14.5268L24.6746 5.90625H22.9475L21.2608 13.5H6.42937L4.20187 2.36587Z" fill="black"/>
<path d="M18.2132 5.55694L15.1875 8.58262V1.6875H13.5V8.58262L10.4743 5.55694L9.28125 6.75L14.3438 11.8125L19.4062 6.75L18.2132 5.55694Z" fill="#FF8500"/>
</svg>
