<svg width="27" height="27" viewBox="0 0 27 27" fill="none" xmlns="http://www.w3.org/2000/svg">
<path d="M25.3125 20.25V18.5625H23.5398C23.4311 18.0343 23.2214 17.532 22.9222 17.0834L24.1793 15.8262L22.9863 14.6332L21.7291 15.8903C21.2805 15.5911 20.7782 15.3814 20.25 15.2727V13.5H18.5625V15.2727C18.0343 15.3814 17.532 15.5911 17.0834 15.8903L15.8262 14.6332L14.6332 15.8262L15.8903 17.0834C15.5911 17.532 15.3814 18.0343 15.2727 18.5625H13.5V20.25H15.2727C15.3824 20.7875 15.5967 21.287 15.8903 21.7291L14.6332 22.9863L15.8262 24.1793L17.0834 22.9222C17.532 23.2214 18.0343 23.4311 18.5625 23.5398V25.3125H20.25V23.5398C20.7782 23.4311 21.2805 23.2214 21.7291 22.9222L22.9863 24.1793L24.1793 22.9863L22.9222 21.7291C23.2214 21.2805 23.4311 20.7782 23.5398 20.25H25.3125ZM19.4062 21.9375C18.0107 21.9375 16.875 20.8018 16.875 19.4062C16.875 18.0107 18.0107 16.875 19.4062 16.875C20.8018 16.875 21.9375 18.0107 21.9375 19.4062C21.9375 20.8018 20.8018 21.9375 19.4062 21.9375ZM10.125 5.0625H13.5V6.75H10.125V5.0625Z" fill="#FF8500"/>
<path d="M5.0625 23.625V3.375H18.5625V10.9688H20.25V3.375C20.25 2.44434 19.4932 1.6875 18.5625 1.6875H5.0625C4.13184 1.6875 3.375 2.44434 3.375 3.375V23.625C3.375 24.5557 4.13184 25.3125 5.0625 25.3125H11.8125V23.625H5.0625Z" fill="black"/>
</svg>
