<svg width="27" height="27" viewBox="0 0 27 27" fill="none" xmlns="http://www.w3.org/2000/svg">
<g clip-path="url(#clip0_1_155)">
<path d="M13.4999 2.53125C12.0143 2.53089 10.5613 2.9663 9.32064 3.78356C8.08003 4.60081 7.10638 5.76402 6.52028 7.12913C5.93419 8.49424 5.76138 10.0013 6.02326 11.4636C6.28514 12.926 6.97022 14.2794 7.99363 15.3563L1.76001 21.5899L2.95307 22.7829L9.28963 16.4464C10.2762 17.1031 11.4027 17.5197 12.5791 17.663C13.7555 17.8063 14.9491 17.6723 16.0645 17.2717C17.1798 16.8711 18.1859 16.215 19.0022 15.3558C19.8186 14.4967 20.4225 13.4585 20.7657 12.3242C21.1089 11.1899 21.1819 9.99096 20.9788 8.8234C20.7756 7.65583 20.302 6.55202 19.5959 5.60027C18.8898 4.64851 17.9707 3.87525 16.9121 3.34233C15.8536 2.80942 14.6851 2.53165 13.4999 2.53125ZM7.5937 10.125C7.5937 8.55857 8.21596 7.05629 9.3236 5.94865C10.4312 4.84101 11.9335 4.21875 13.4999 4.21875C15.0664 4.21875 16.5687 4.84101 17.6763 5.94865C18.7839 7.05629 19.4062 8.55857 19.4062 10.125C19.4062 11.6914 18.7839 13.1937 17.6763 14.3013C16.5687 15.409 15.0664 16.0312 13.4999 16.0312C11.9335 16.0312 10.4312 15.409 9.3236 14.3013C8.21596 13.1937 7.5937 11.6914 7.5937 10.125Z" fill="black"/>
<path d="M15.2224 22.0404L11.601 25.6601H10.4062L7.875 23.1289L9.06975 21.9358L11.0036 23.8714L14.625 20.25H15.8197L19.4411 23.8714L23.0625 20.25H24.2556L27.0349 23.0276V25.4154L23.6599 22.0404L20.0385 25.6601H18.8437L15.2224 22.0404Z" fill="#FF8500"/>
</g>
<defs>
<clipPath id="clip0_1_155">
<rect width="27" height="27" fill="white"/>
</clipPath>
</defs>
</svg>
