<svg width="27" height="27" viewBox="0 0 27 27" fill="none" xmlns="http://www.w3.org/2000/svg">
<path d="M11.7 14.625L4.5 16.1016V18.5625L8.7 22.5H15.9L21.3 18.5625H22.5V16.1016L11.7 14.625Z" fill="#FF8500"/>
<path d="M26.1562 11.1797C25.9884 11.1797 25.8275 11.2464 25.7088 11.365C25.5901 11.4837 25.5234 11.6447 25.5234 11.8125V14.5547H23.4141V12.6562C23.4141 12.2646 23.2585 11.8891 22.9816 11.6122C22.7047 11.3353 22.3291 11.1797 21.9375 11.1797H20.5991C20.5434 11.1797 20.4899 11.1577 20.4504 11.1185L16.7252 7.39336C16.5886 7.25591 16.426 7.14692 16.247 7.07269C16.068 6.99847 15.876 6.96048 15.6821 6.96094H13.2891V4.85156H16.0312C16.1991 4.85156 16.36 4.78489 16.4787 4.66622C16.5974 4.54754 16.6641 4.38658 16.6641 4.21875C16.6641 4.05092 16.5974 3.88996 16.4787 3.77128C16.36 3.65261 16.1991 3.58594 16.0312 3.58594H9.28125C9.11342 3.58594 8.95246 3.65261 8.83378 3.77128C8.71511 3.88996 8.64844 4.05092 8.64844 4.21875C8.64844 4.38658 8.71511 4.54754 8.83378 4.66622C8.95246 4.78489 9.11342 4.85156 9.28125 4.85156H12.0234V6.96094H5.0625C4.67089 6.96094 4.29532 7.1165 4.01841 7.39341C3.7415 7.67032 3.58594 8.04589 3.58594 8.4375V14.5547H1.47656V11.8125C1.47656 11.6447 1.40989 11.4837 1.29122 11.365C1.17254 11.2464 1.01158 11.1797 0.84375 11.1797C0.675918 11.1797 0.514959 11.2464 0.396284 11.365C0.277609 11.4837 0.210938 11.6447 0.210938 11.8125V18.5625C0.210938 18.7303 0.277609 18.8913 0.396284 19.01C0.514959 19.1286 0.675918 19.1953 0.84375 19.1953C1.01158 19.1953 1.17254 19.1286 1.29122 19.01C1.40989 18.8913 1.47656 18.7303 1.47656 18.5625V15.8203H3.58594V18.2134C3.58548 18.4072 3.62347 18.5992 3.69769 18.7782C3.77192 18.9573 3.88091 19.1198 4.01836 19.2565L7.74352 22.9816C7.88016 23.1191 8.04271 23.2281 8.22176 23.3023C8.4008 23.3765 8.59278 23.4145 8.7866 23.4141H15.6821C15.876 23.4145 16.068 23.3765 16.247 23.3023C16.426 23.2281 16.5886 23.1191 16.7252 22.9816L20.4504 19.2565C20.4899 19.2173 20.5434 19.1953 20.5991 19.1953H21.9375C22.3291 19.1953 22.7047 19.0397 22.9816 18.7628C23.2585 18.4859 23.4141 18.1104 23.4141 17.7188V15.8203H25.5234V18.5625C25.5234 18.7303 25.5901 18.8913 25.7088 19.01C25.8275 19.1286 25.9884 19.1953 26.1562 19.1953C26.3241 19.1953 26.485 19.1286 26.6037 19.01C26.7224 18.8913 26.7891 18.7303 26.7891 18.5625V11.8125C26.7891 11.6447 26.7224 11.4837 26.6037 11.365C26.485 11.2464 26.3241 11.1797 26.1562 11.1797ZM22.1484 17.7188C22.1484 17.7747 22.1262 17.8283 22.0867 17.8679C22.0471 17.9075 21.9934 17.9297 21.9375 17.9297H20.5991C20.4053 17.9292 20.2133 17.9672 20.0343 18.0414C19.8552 18.1157 19.6927 18.2247 19.556 18.3621L15.8309 22.0873C15.7913 22.1265 15.7379 22.1485 15.6821 22.1484H8.7866C8.7309 22.1485 8.67744 22.1265 8.63789 22.0873L4.91273 18.3621C4.87351 18.3226 4.85152 18.2691 4.85156 18.2134V8.4375C4.85156 8.38156 4.87379 8.3279 4.91334 8.28834C4.9529 8.24879 5.00656 8.22656 5.0625 8.22656H15.6821C15.7379 8.22652 15.7913 8.24851 15.8309 8.28773L19.556 12.0129C19.6927 12.1503 19.8552 12.2593 20.0343 12.3336C20.2133 12.4078 20.4053 12.4458 20.5991 12.4453H21.9375C21.9934 12.4453 22.0471 12.4675 22.0867 12.5071C22.1262 12.5467 22.1484 12.6003 22.1484 12.6562V17.7188Z" fill="black"/>
</svg>
