<svg width="27" height="27" viewBox="0 0 27 27" fill="none" xmlns="http://www.w3.org/2000/svg">
<path d="M3.375 7.3125V5.0625C3.375 4.53938 3.375 4.27837 3.41775 4.06125C3.50449 3.62458 3.71883 3.22345 4.03364 2.90864C4.34845 2.59383 4.74958 2.37949 5.18625 2.29275C5.40338 2.25 5.66438 2.25 6.1875 2.25C6.71062 2.25 6.97162 2.25 7.18875 2.29275C7.62542 2.37949 8.02655 2.59383 8.34136 2.90864C8.65617 3.22345 8.87051 3.62458 8.95725 4.06125C9 4.27837 9 4.53938 9 5.0625V5.34375H18V5.0625C18 4.53938 18 4.27837 18.0428 4.06125C18.1295 3.62458 18.3438 3.22345 18.6586 2.90864C18.9734 2.59383 19.3746 2.37949 19.8113 2.29275C20.0284 2.25 20.2894 2.25 20.8125 2.25C21.3356 2.25 21.5966 2.25 21.8137 2.29275C22.2504 2.37949 22.6516 2.59383 22.9664 2.90864C23.2812 3.22345 23.4955 3.62458 23.5823 4.06125C23.625 4.27837 23.625 4.53938 23.625 5.0625V7.3125C23.625 7.83563 23.625 8.09662 23.5823 8.31375C23.4955 8.75042 23.2812 9.15155 22.9664 9.46636C22.6516 9.78117 22.2504 9.99551 21.8137 10.0822C21.5966 10.125 21.3356 10.125 20.8125 10.125C20.2894 10.125 20.0284 10.125 19.8113 10.0822C19.3746 9.99551 18.9734 9.78117 18.6586 9.46636C18.3438 9.15155 18.1295 8.75042 18.0428 8.31375C18 8.09662 18 7.83563 18 7.3125V7.03125H14.3438V19.9688H18V19.6875C18 19.1644 18 18.9034 18.0428 18.6863C18.1295 18.2496 18.3438 17.8484 18.6586 17.5336C18.9734 17.2188 19.3746 17.0045 19.8113 16.9178C20.0284 16.875 20.2894 16.875 20.8125 16.875C21.3356 16.875 21.5966 16.875 21.8137 16.9178C22.2504 17.0045 22.6516 17.2188 22.9664 17.5336C23.2812 17.8484 23.4955 18.2496 23.5823 18.6863C23.625 18.9034 23.625 19.1644 23.625 19.6875V21.9375C23.625 22.4606 23.625 22.7216 23.5823 22.9387C23.4955 23.3754 23.2812 23.7766 22.9664 24.0914C22.6516 24.4062 22.2504 24.6205 21.8137 24.7073C21.5966 24.75 21.3356 24.75 20.8125 24.75C20.2894 24.75 20.0284 24.75 19.8113 24.7073C19.3746 24.6205 18.9734 24.4062 18.6586 24.0914C18.3438 23.7766 18.1295 23.3754 18.0428 22.9387C18 22.7216 18 22.4606 18 21.9375V21.6562H9V21.9375C9 22.4606 9 22.7216 8.95725 22.9387C8.87051 23.3754 8.65617 23.7766 8.34136 24.0914C8.02655 24.4062 7.62542 24.6205 7.18875 24.7073C6.97162 24.75 6.71062 24.75 6.1875 24.75C5.66438 24.75 5.40338 24.75 5.18625 24.7073C4.74958 24.6205 4.34845 24.4062 4.03364 24.0914C3.71883 23.7766 3.50449 23.3754 3.41775 22.9387C3.375 22.7216 3.375 22.4606 3.375 21.9375V19.6875C3.375 19.1644 3.375 18.9034 3.41775 18.6863C3.50449 18.2496 3.71883 17.8484 4.03364 17.5336C4.34845 17.2188 4.74958 17.0045 5.18625 16.9178C5.40338 16.875 5.66438 16.875 6.1875 16.875C6.71062 16.875 6.97162 16.875 7.18875 16.9178C7.62542 17.0045 8.02655 17.2188 8.34136 17.5336C8.65617 17.8484 8.87051 18.2496 8.95725 18.6863C9 18.9034 9 19.1644 9 19.6875V19.9688H12.6562V7.03125H9V7.3125C9 7.83563 9 8.09662 8.95725 8.31375C8.87051 8.75042 8.65617 9.15155 8.34136 9.46636C8.02655 9.78117 7.62542 9.99551 7.18875 10.0822C6.97162 10.125 6.71062 10.125 6.1875 10.125C5.66438 10.125 5.40338 10.125 5.18625 10.0822C4.74958 9.99551 4.34845 9.78117 4.03364 9.46636C3.71883 9.15155 3.50449 8.75042 3.41775 8.31375C3.375 8.09662 3.375 7.83563 3.375 7.3125Z" fill="black"/>
<rect x="3.375" y="2.25" width="5.625" height="7.875" rx="2" fill="#FF8500"/>
<rect x="18" y="2.25" width="5.625" height="7.875" rx="2" fill="#FF8500"/>
<rect x="18" y="16.875" width="5.625" height="7.875" rx="2" fill="#FF8500"/>
<rect x="3.375" y="16.875" width="5.625" height="7.875" rx="2" fill="#FF8500"/>
</svg>
