<svg width="27" height="27" viewBox="0 0 27 27" fill="none" xmlns="http://www.w3.org/2000/svg">
<path d="M13.5 22.5C18.4706 22.5 22.5 18.4706 22.5 13.5C22.5 8.52941 18.4706 4.5 13.5 4.5C8.52941 4.5 4.5 8.52941 4.5 13.5C4.5 18.4706 8.52941 22.5 13.5 22.5Z" stroke="black" stroke-linecap="round" stroke-linejoin="round"/>
<path d="M13.5 15.75C14.7426 15.75 15.75 14.7426 15.75 13.5C15.75 12.2574 14.7426 11.25 13.5 11.25C12.2574 11.25 11.25 12.2574 11.25 13.5C11.25 14.7426 12.2574 15.75 13.5 15.75Z" fill="#FF8500" stroke="black" stroke-linecap="round" stroke-linejoin="round"/>
<path d="M13.5 2.25C14.9773 2.25 16.4403 2.54099 17.8052 3.10636C19.1701 3.67172 20.4103 4.50039 21.4549 5.54505C22.4996 6.58969 23.3283 7.82989 23.8937 9.19479C24.459 10.5597 24.75 12.0226 24.75 13.5H20.2536C20.2536 12.6131 20.0789 11.7349 19.7395 10.9155C19.4001 10.0961 18.9026 9.35162 18.2755 8.72449C17.6484 8.09736 16.9039 7.59988 16.0845 7.26047C15.2651 6.92106 14.3869 6.7464 13.5 6.7464V2.25Z" fill="#FF8500" stroke="black" stroke-linecap="round" stroke-linejoin="round"/>
</svg>
