<svg width="27" height="27" viewBox="0 0 27 27" fill="none" xmlns="http://www.w3.org/2000/svg">
<path d="M16.2677 10.5863L12.3752 8.3025V5.76L14.299 3.83625L12.7015 2.25L11.2502 3.70125L9.79897 2.25L8.20147 3.83625L10.1252 5.76V8.3025L7.31272 9.9225L5.06272 8.65125L4.41022 6.03L2.25022 6.615L2.77897 8.60625L0.78772 9.135L1.37272 11.3063L3.99397 10.6088L6.24397 11.88V15.1312L3.99397 16.4025L1.37272 15.705L0.78772 17.8763L2.77897 18.405L2.25022 20.385L4.42147 20.97L5.11897 18.3487L7.36897 17.0775L10.1252 18.6975V21.24L8.20147 23.1637L9.79897 24.75L11.2502 23.2987L12.7015 24.75L14.2877 23.1637L12.3752 21.24V18.6975L16.2677 16.4362M8.43772 11.88L11.2502 10.2487L14.0627 11.88V15.12L11.2502 16.7513L8.43772 15.12" fill="black"/>
<path d="M21.375 5.625C20.1262 5.625 19.125 6.62625 19.125 7.875V15.48C18.405 16.1213 18 17.0437 18 18C18 19.8675 19.5075 21.375 21.375 21.375C23.2425 21.375 24.75 19.8675 24.75 18C24.75 17.0437 24.345 16.1213 23.625 15.4913V7.875C23.625 6.62625 22.6237 5.625 21.375 5.625ZM21.375 6.75C21.9937 6.75 22.5 7.25625 22.5 7.875V9H20.25V7.875C20.25 7.25625 20.7562 6.75 21.375 6.75Z" fill="#FF8500"/>
</svg>
