<svg width="27" height="27" viewBox="0 0 27 27" fill="none" xmlns="http://www.w3.org/2000/svg">
<path d="M14.625 5.40005C10.125 5.40005 10.125 21.6001 14.625 21.6001C19.125 21.6001 24.75 18.5626 24.75 13.5001C24.75 8.43755 19.125 5.40005 14.625 5.40005ZM14.7375 19.3501C14.2875 18.9001 13.5 16.8751 13.5 13.5001C13.5 10.1251 14.2875 8.10005 14.7375 7.65005C18 7.76255 22.5 9.78755 22.5 13.5001C22.5 17.2126 18 19.2376 14.7375 19.3501ZM2.25 5.62505H10.6875C10.4625 6.07505 10.125 6.52505 10.0125 7.20005C9.9 7.42505 9.9 7.65005 9.7875 7.87505H2.25V5.62505ZM9 12.3751H2.25V10.1251H9.225C9.1125 10.8001 9.1125 11.5876 9 12.3751ZM9.7875 19.1251C10.0125 20.0251 10.35 20.7001 10.8 21.3751H2.3625V19.1251H9.7875ZM9.225 16.8751H2.25V14.6251H9C9.1125 15.4126 9.1125 16.2001 9.225 16.8751Z" fill="black"/>
<path d="M2.25 5.625H10.6875C10.4625 6.075 10.125 6.525 10.0125 7.2C9.9 7.425 9.9 7.65 9.7875 7.875H2.25V5.625ZM9 12.375H2.25V10.125H9.225C9.1125 10.8 9.1125 11.5875 9 12.375ZM9.7875 19.125C10.0125 20.025 10.35 20.7 10.8 21.375H2.3625V19.125H9.7875ZM9.225 16.875H2.25V14.625H9C9.1125 15.4125 9.1125 16.2 9.225 16.875Z" fill="#FF8500"/>
</svg>
