<svg width="27" height="27" viewBox="0 0 27 27" fill="none" xmlns="http://www.w3.org/2000/svg">
<path d="M6.75028 20.25C3.13467 12.4076 5.9393 8.45348 14.0628 1.68747C20.5491 8.87944 22.5556 12.9375 20.8128 20.25C14.8931 25.1442 11.8391 24.6993 6.75028 20.25Z" fill="#FF9829"/>
<path d="M18.3516 5.03614C17.0488 3.53156 15.5825 2.17673 13.9799 0.996687C13.838 0.897305 13.669 0.843994 13.4958 0.843994C13.3226 0.843994 13.1535 0.897305 13.0117 0.996687C11.412 2.17722 9.94857 3.53203 8.64844 5.03614C5.7491 8.36579 4.21875 11.8758 4.21875 15.1875C4.21875 17.649 5.19659 20.0098 6.93717 21.7503C8.67774 23.4909 11.0385 24.4688 13.5 24.4688C15.9615 24.4688 18.3223 23.4909 20.0628 21.7503C21.8034 20.0098 22.7812 17.649 22.7812 15.1875C22.7812 11.8758 21.2509 8.36579 18.3516 5.03614ZM13.5 22.7813C11.4867 22.779 9.5565 21.9783 8.13287 20.5546C6.70925 19.131 5.90848 17.2008 5.90625 15.1875C5.90625 9.15153 11.7566 4.11329 13.5 2.7422C15.2434 4.11329 21.0938 9.14942 21.0938 15.1875C21.0915 17.2008 20.2907 19.131 18.8671 20.5546C17.4435 21.9783 15.5133 22.779 13.5 22.7813ZM19.3946 16.1726C19.1759 17.3947 18.5879 18.5204 17.7099 19.3981C16.832 20.2759 15.7061 20.8636 14.484 21.0822C14.4376 21.0896 14.3907 21.0935 14.3438 21.0938C14.1321 21.0937 13.9282 21.0141 13.7725 20.8708C13.6168 20.7274 13.5206 20.5308 13.5031 20.3199C13.4856 20.1089 13.548 19.8991 13.6779 19.7321C13.8078 19.565 13.9958 19.4528 14.2045 19.4179C15.9521 19.1236 17.435 17.6407 17.7314 15.8899C17.7689 15.6692 17.8925 15.4725 18.0751 15.3429C18.2576 15.2134 18.4842 15.1616 18.7049 15.1991C18.9256 15.2366 19.1224 15.3602 19.2519 15.5428C19.3815 15.7253 19.4332 15.9519 19.3957 16.1726H19.3946Z" fill="black"/>
</svg>
