<svg width="27" height="27" viewBox="0 0 27 27" fill="none" xmlns="http://www.w3.org/2000/svg">
<g clip-path="url(#clip0_1_201)">
<path d="M2.25 4.5C2.2502 4.0918 2.36143 3.69135 2.5718 3.34153C2.78216 2.99172 3.08373 2.70572 3.44419 2.51417C3.80465 2.32263 4.21044 2.23275 4.61807 2.25417C5.0257 2.27559 5.41983 2.4075 5.75823 2.63577C6.09664 2.86404 6.36657 3.18006 6.53911 3.55C6.71166 3.91994 6.78031 4.32984 6.73772 4.73581C6.69514 5.14178 6.54291 5.52852 6.29736 5.85459C6.0518 6.18067 5.72216 6.4338 5.34375 6.58687V12.6562H12.6563V6.58687C12.1722 6.39107 11.7713 6.033 11.5223 5.57405C11.2733 5.11509 11.1917 4.58382 11.2914 4.07128C11.3912 3.55874 11.6661 3.09685 12.069 2.76476C12.472 2.43267 12.9779 2.25107 13.5 2.25107C14.0222 2.25107 14.5281 2.43267 14.931 2.76476C15.3339 3.09685 15.6088 3.55874 15.7086 4.07128C15.8083 4.58382 15.7267 5.11509 15.4777 5.57405C15.2287 6.033 14.8278 6.39107 14.3438 6.58687V12.6562H18C19.0845 12.6562 19.8135 12.654 20.3569 12.582C20.8755 12.5111 21.0983 12.3907 21.2445 12.2445C21.3908 12.0982 21.5111 11.8755 21.582 11.3557C21.654 10.8135 21.6563 10.0845 21.6563 9V6.58687C21.1722 6.39107 20.7713 6.033 20.5223 5.57405C20.2733 5.11509 20.1917 4.58382 20.2914 4.07128C20.3912 3.55874 20.6661 3.09685 21.069 2.76476C21.472 2.43267 21.9779 2.25107 22.5 2.25107C23.0222 2.25107 23.5281 2.43267 23.931 2.76476C24.3339 3.09685 24.6088 3.55874 24.7086 4.07128C24.8083 4.58382 24.7267 5.11509 24.4777 5.57405C24.2287 6.033 23.8278 6.39107 23.3438 6.58687V9.0585C23.3438 10.0687 23.3438 10.9125 23.2538 11.5807C23.1593 12.2872 22.95 12.9251 22.437 13.437C21.9251 13.95 21.2873 14.1592 20.5808 14.2537C19.9125 14.3438 19.0699 14.3438 18.0585 14.3438H14.3438V20.4131C14.8278 20.6089 15.2287 20.967 15.4777 21.426C15.7267 21.8849 15.8083 22.4162 15.7086 22.9287C15.6088 23.4413 15.3339 23.9031 14.931 24.2352C14.5281 24.5673 14.0222 24.7489 13.5 24.7489C12.9779 24.7489 12.472 24.5673 12.069 24.2352C11.6661 23.9031 11.3912 23.4413 11.2914 22.9287C11.1917 22.4162 11.2733 21.8849 11.5223 21.426C11.7713 20.967 12.1722 20.6089 12.6563 20.4131V14.3438H5.34375V20.4131C5.8278 20.6089 6.22868 20.967 6.47768 21.426C6.72669 21.8849 6.80831 22.4162 6.70857 22.9287C6.60883 23.4413 6.33394 23.9031 5.931 24.2352C5.52805 24.5673 5.02216 24.7489 4.5 24.7489C3.97785 24.7489 3.47195 24.5673 3.06901 24.2352C2.66607 23.9031 2.39117 23.4413 2.29143 22.9287C2.19169 22.4162 2.27332 21.8849 2.52232 21.426C2.77133 20.967 3.1722 20.6089 3.65625 20.4131V6.58687C3.2406 6.41874 2.88466 6.13024 2.6341 5.75841C2.38354 5.38658 2.24979 4.94837 2.25 4.5Z" fill="black"/>
<path d="M20.9443 17.2363C21.5596 17.2363 22.0674 17.3112 22.4678 17.4609C22.8714 17.6107 23.1709 17.8385 23.3662 18.1445C23.5648 18.4505 23.6641 18.8395 23.6641 19.3115C23.6641 19.6631 23.599 19.9626 23.4688 20.21C23.3385 20.4574 23.1676 20.6624 22.9561 20.8252C22.7445 20.988 22.5182 21.1182 22.2773 21.2158L24.3037 24.375H22.9805L21.2568 21.5137H20.1094V24.375H18.9375V17.2363H20.9443ZM20.8662 18.2129H20.1094V20.5469H20.9199C21.4635 20.5469 21.8574 20.446 22.1016 20.2441C22.349 20.0423 22.4727 19.7445 22.4727 19.3506C22.4727 18.9372 22.3408 18.6442 22.0771 18.4717C21.8167 18.2992 21.4131 18.2129 20.8662 18.2129Z" fill="#FF8500"/>
</g>
<defs>
<clipPath id="clip0_1_201">
<rect width="27" height="27" fill="white"/>
</clipPath>
</defs>
</svg>
