<svg width="27" height="27" viewBox="0 0 27 27" fill="none" xmlns="http://www.w3.org/2000/svg">
<path d="M24.5742 14.2383C24.3187 13.2839 23.8433 12.4025 23.186 11.6649C22.5287 10.9272 21.7078 10.3537 20.789 9.9903C19.8702 9.62687 18.8792 9.48363 17.8951 9.57204C16.911 9.66045 15.9614 9.97805 15.1221 10.4994L16.8507 3.59754C16.8936 3.42606 16.8816 3.24545 16.8163 3.08119C16.751 2.91693 16.6358 2.77732 16.4869 2.68207C15.7692 2.22893 14.9678 1.92477 14.1302 1.7877C13.2926 1.65062 12.436 1.68344 11.6114 1.88418C10.7868 2.08492 10.011 2.4495 9.33009 2.95621C8.64924 3.46292 8.07727 4.10141 7.64822 4.83369C7.21916 5.56598 6.9418 6.37708 6.83263 7.21875C6.72346 8.06041 6.78471 8.91544 7.01274 9.73295C7.24076 10.5505 7.63091 11.3138 8.15996 11.9774C8.68901 12.641 9.34615 13.1915 10.0923 13.596L3.25053 15.5503C3.08055 15.5987 2.93007 15.6993 2.82032 15.8378C2.71056 15.9763 2.64707 16.1458 2.63881 16.3223C2.57387 17.763 3.00292 19.1825 3.85491 20.346C4.70691 21.5095 5.93073 22.3471 7.32373 22.7201C7.86101 22.8643 8.41484 22.9377 8.97115 22.9384C9.81886 22.9362 10.6575 22.7638 11.4374 22.4316C12.2173 22.0993 12.9226 21.614 13.5115 21.0042C14.1004 20.3944 14.561 19.6727 14.8659 18.8817C15.1708 18.0907 15.3139 17.2466 15.2866 16.3993L20.3997 21.3479C20.5269 21.4709 20.6895 21.5509 20.8646 21.5764C21.0396 21.602 21.2183 21.5719 21.3753 21.4903C22.6547 20.8265 23.6691 19.7459 24.2508 18.4272C24.8325 17.1084 24.9466 15.6307 24.5742 14.2383ZM11.8125 13.5C11.8125 13.1662 11.9115 12.84 12.0969 12.5625C12.2823 12.285 12.5459 12.0687 12.8542 11.941C13.1626 11.8132 13.5019 11.7798 13.8292 11.8449C14.1565 11.91 14.4572 12.0708 14.6932 12.3068C14.9292 12.5428 15.0899 12.8434 15.1551 13.1708C15.2202 13.4981 15.1868 13.8374 15.059 14.1458C14.9313 14.4541 14.715 14.7177 14.4375 14.9031C14.16 15.0885 13.8337 15.1875 13.5 15.1875C13.0524 15.1875 12.6232 15.0097 12.3067 14.6932C11.9903 14.3768 11.8125 13.9476 11.8125 13.5ZM8.43748 8.01562C8.43721 7.23367 8.63454 6.46433 9.01114 5.77904C9.38774 5.09375 9.9314 4.51474 10.5916 4.09577C11.2519 3.67679 12.0073 3.43145 12.7877 3.38251C13.5681 3.33358 14.3482 3.48264 15.0556 3.81586L13.4757 10.125C12.8712 10.1295 12.279 10.2964 11.761 10.6081C11.243 10.9198 10.8182 11.3649 10.531 11.8969C9.88652 11.4754 9.35746 10.8996 8.99187 10.2218C8.62627 9.54406 8.43571 8.78572 8.43748 8.01562ZM11.2851 20.6265C10.6081 21.0177 9.8432 21.2315 9.06145 21.248C8.27969 21.2645 7.50644 21.0832 6.8135 20.721C6.12055 20.3587 5.53037 19.8272 5.09776 19.1759C4.66515 18.5245 4.40414 17.7744 4.33896 16.9952L10.5943 15.2086C10.8917 15.7152 11.3162 16.1354 11.8258 16.4277C12.3354 16.72 12.9125 16.8741 13.5 16.875H13.596C13.5535 17.6433 13.3199 18.3887 12.9164 19.0439C12.5129 19.699 11.9522 20.243 11.2851 20.6265ZM22.4828 18.2007C22.1414 18.7929 21.6731 19.3022 21.1117 19.6921L16.4373 15.1685C16.7364 14.6431 16.8885 14.0469 16.8775 13.4424C16.8666 12.838 16.693 12.2476 16.3751 11.7334C17.2675 11.2829 18.2816 11.1326 19.2663 11.3049C20.2511 11.4773 21.1538 11.963 21.8403 12.6898C22.5267 13.4166 22.96 14.3457 23.0758 15.3387C23.1915 16.3317 22.9835 17.3355 22.4828 18.2007Z" fill="black"/>
<circle cx="13.5" cy="13.5" r="2.25" fill="#FF8500"/>
</svg>
