<svg width="48" height="55" viewBox="0 0 48 55" fill="none" xmlns="http://www.w3.org/2000/svg">
<g id="Group 798">
<path id="Vector" d="M24 32.332C28.4183 32.332 32 28.7503 32 24.332C32 19.9138 28.4183 16.332 24 16.332C19.5817 16.332 16 19.9138 16 24.332C16 28.7503 19.5817 32.332 24 32.332Z" stroke="#8E96AB" stroke-width="5" stroke-linecap="round" stroke-linejoin="round"/>
<path id="Vector_2" d="M39.0847 39.4179L27.77 50.7326C26.77 51.7316 25.4142 52.2928 24.0007 52.2928C22.5871 52.2928 21.2314 51.7316 20.2314 50.7326L8.91403 39.4179C5.93062 36.4343 3.89892 32.6331 3.07586 28.4949C2.2528 24.3566 2.67533 20.0673 4.29003 16.1692C5.90474 12.2711 8.63908 8.93933 12.1473 6.59524C15.6555 4.25115 19.7801 3 23.9994 3C28.2186 3 32.3432 4.25115 35.8514 6.59524C39.3596 8.93933 42.094 12.2711 43.7087 16.1692C45.3234 20.0673 45.7459 24.3566 44.9229 28.4949C44.0998 32.6331 42.0681 36.4343 39.0847 39.4179V39.4179Z" stroke="#8E96AB" stroke-width="5" stroke-linecap="round" stroke-linejoin="round"/>
</g>
</svg>
