<svg width="64" height="65" viewBox="0 0 64 65" fill="none" xmlns="http://www.w3.org/2000/svg">
<g id="Frame 795/plant-2" clip-path="url(#clip0_59_152)">
<path id="Vector" d="M5.33301 24.1934C5.33301 31.2658 8.14252 38.0486 13.1435 43.0495C18.1445 48.0505 24.9272 50.86 31.9997 50.86C39.0721 50.86 45.8549 48.0505 50.8559 43.0495C55.8568 38.0486 58.6663 31.2658 58.6663 24.1934" stroke="#8E96AB" stroke-width="5" stroke-linecap="round" stroke-linejoin="round"/>
<path id="Vector_2" d="M32 50.86C32 43.7876 34.8095 37.0048 39.8105 32.0038C44.8115 27.0029 51.5942 24.1934 58.6667 24.1934" stroke="#8E96AB" stroke-width="5" stroke-linecap="round" stroke-linejoin="round"/>
<path id="Vector_3" d="M5.33301 24.1934C8.83492 24.1934 12.3025 24.8831 15.5379 26.2232C18.7732 27.5634 21.713 29.5276 24.1892 32.0038C26.6654 34.4801 28.6297 37.4198 29.9698 40.6551C31.3099 43.8905 31.9997 47.3581 31.9997 50.86" stroke="#8E96AB" stroke-width="5" stroke-linecap="round" stroke-linejoin="round"/>
<path id="Vector_4" d="M32 10.8594C34.6874 13.4249 36.7906 16.5392 38.1665 19.9904C39.5424 23.4416 40.1586 27.1487 39.9733 30.8594" stroke="#8E96AB" stroke-width="5" stroke-linecap="round" stroke-linejoin="round"/>
<path id="Vector_5" d="M24.0263 30.8594C23.841 27.1487 24.4573 23.4416 25.8332 19.9904C27.2091 16.5392 29.3123 13.4249 31.9997 10.8594" stroke="#8E96AB" stroke-width="5" stroke-linecap="round" stroke-linejoin="round"/>
</g>
<defs>
<clipPath id="clip0_59_152">
<rect width="64" height="64" fill="white" transform="translate(0 0.193359)"/>
</clipPath>
</defs>
</svg>
