<svg width="38" height="54" viewBox="0 0 38 54" fill="none" xmlns="http://www.w3.org/2000/svg">
<g id="Group 797">
<path id="Vector" d="M18.9993 29.6673L13.666 24.334" stroke="#8E96AB" stroke-width="5" stroke-linecap="round" stroke-linejoin="round"/>
<path id="Vector_2" d="M19 27.0013L24.3333 21.668" stroke="#8E96AB" stroke-width="5" stroke-linecap="round" stroke-linejoin="round"/>
<path id="Vector_3" d="M19 51.0007V16.334" stroke="#8E96AB" stroke-width="5" stroke-linecap="round" stroke-linejoin="round"/>
<path id="Vector_4" d="M13.197 37.6542C12.0302 37.5858 10.8926 37.2627 9.86419 36.7075C8.83574 36.1523 7.94144 35.3785 7.24419 34.4405C6.54694 33.5025 6.06367 32.4232 5.82838 31.2784C5.5931 30.1336 5.6115 28.9511 5.88231 27.8142C4.91453 27.0097 4.15033 25.9882 3.65188 24.8326C3.15343 23.6771 2.93481 22.4202 3.01382 21.1642C3.09282 19.9083 3.46721 18.6887 4.10653 17.6047C4.74584 16.5207 5.63203 15.603 6.69298 14.9262C5.7633 13.2746 5.45018 11.3466 5.80941 9.48565C6.16864 7.62473 7.17687 5.9518 8.65448 4.76491C10.1321 3.57802 11.9831 2.95427 13.8777 3.0048C15.7723 3.05533 17.5874 3.77686 18.9996 5.04082C20.4122 3.77885 22.2267 3.05904 24.1203 3.00949C26.0138 2.95994 27.8635 3.58387 29.3401 4.77023C30.8167 5.9566 31.8245 7.62842 32.1841 9.48816C32.5436 11.3479 32.2317 13.2749 31.3036 14.9262C32.3652 15.6024 33.2521 16.5198 33.892 17.6037C34.5319 18.6875 34.9068 19.9072 34.9861 21.1634C35.0653 22.4196 34.8468 23.6768 34.3482 24.8325C33.8496 25.9882 33.0851 27.0098 32.117 27.8142C32.3969 28.9896 32.4069 30.2132 32.1463 31.3931C31.8857 32.573 31.3611 33.6785 30.6121 34.6266C29.8631 35.5748 28.909 36.3409 27.8215 36.8676C26.734 37.3943 25.5413 37.6677 24.333 37.6675H24.3356H13.669L13.197 37.6542Z" stroke="#8E96AB" stroke-width="5" stroke-linecap="round" stroke-linejoin="round"/>
</g>
</svg>
