<svg width="23" height="21" viewBox="0 0 23 21" fill="none" xmlns="http://www.w3.org/2000/svg">
<g id="Group 485">
<path id="Vector" d="M3.12189 20.4169C2.86565 19.6775 3.12641 16.6302 3.12641 16.6302C3.12641 16.4293 3.07843 16.3615 2.86734 16.348C1.3547 16.2645 0.0367763 14.9279 0.0209726 13.4085C-0.00442628 10.9504 0.0102486 8.49239 0.0085553 6.03435C0.0085553 5.12507 0.0367762 4.21522 0.00234665 3.30764C-0.0653837 1.52012 1.34002 -0.016794 3.31267 0.0001386C6.88431 0.0311817 10.456 0.00860455 14.0282 0.00860455C15.8535 0.00860455 17.6785 0.00860455 19.503 0.00860455C20.8627 0.00860455 21.8634 0.610276 22.4747 1.83112C22.6909 2.26233 22.7682 2.7308 22.7682 3.20999C22.7682 6.52934 22.7755 9.84926 22.7682 13.1692C22.7631 15.0318 21.3955 16.3644 19.5036 16.3672C16.335 16.3717 13.1661 16.3717 9.99709 16.3672C9.80925 16.3639 9.62549 16.4222 9.47387 16.5331C9.32374 16.6381 4.15196 20.5405 3.55763 20.6534C3.46036 20.6759 3.35828 20.6635 3.26921 20.6184C3.19874 20.5698 3.14682 20.4988 3.12189 20.4169ZM4.459 18.3917C4.57753 18.3133 4.64978 18.2681 4.71976 18.2196C6.16506 17.2138 7.61016 16.2069 9.05507 15.1988C9.20592 15.0864 9.38962 15.0269 9.57772 15.0295C12.8657 15.0344 16.1532 15.0344 19.4404 15.0295C19.6455 15.0358 19.8506 15.0168 20.0511 14.9731C20.9384 14.7473 21.435 14.061 21.4356 13.0727C21.4356 9.81633 21.4356 6.55982 21.4356 3.30312C21.4387 3.09817 21.4153 2.89367 21.3662 2.69468C21.1342 1.83676 20.4733 1.34628 19.5397 1.34571C14.1025 1.34233 8.66525 1.3444 3.228 1.35192C2.92916 1.35084 2.63355 1.41378 2.36106 1.53649C1.64537 1.87514 1.34115 2.48246 1.34171 3.26361C1.34397 6.54402 1.34397 9.82424 1.34171 13.1043C1.33905 13.207 1.3432 13.3097 1.35413 13.4119C1.45798 14.1705 1.85646 14.71 2.59585 14.9268C2.93451 15.0256 3.31154 15.0075 3.6722 15.0272C3.92845 15.0414 4.18582 15.0272 4.46239 15.0272L4.459 18.3917Z" fill="#42A62C"/>
<path id="Vector_2" d="M16.8136 5.49025C16.7103 5.51993 16.6042 5.53884 16.4969 5.54669C13.0901 5.57152 9.68346 5.59335 6.277 5.61216C5.9344 5.61216 5.71259 5.41857 5.71259 5.13523C5.71259 4.85189 5.92989 4.6549 6.277 4.65265C9.68384 4.62932 13.0905 4.60806 16.4969 4.58887C16.7938 4.58887 16.975 4.70683 17.0388 4.93599C17.0975 5.14595 17.0337 5.31923 16.8136 5.49025Z" fill="#42A62C"/>
<path id="Vector_3" d="M16.8136 8.39531C16.7103 8.42499 16.6042 8.4439 16.4969 8.45175C13.0901 8.47658 9.68346 8.49841 6.277 8.51722C5.9344 8.51722 5.71259 8.32363 5.71259 8.04029C5.71259 7.75695 5.92989 7.55996 6.277 7.55771C9.68384 7.53475 13.0905 7.51349 16.4969 7.49393C16.7938 7.49393 16.975 7.61189 17.0388 7.84105C17.0975 8.05101 17.0337 8.22429 16.8136 8.39531Z" fill="#42A62C"/>
<path id="Vector_4" d="M16.7983 11.3004C16.695 11.33 16.5889 11.349 16.4817 11.3568C13.0749 11.3816 9.66821 11.4035 6.26175 11.4223C5.91858 11.4223 5.69733 11.2287 5.69733 10.9453C5.69733 10.662 5.91463 10.465 6.26175 10.4628C9.66821 10.4394 13.0749 10.4182 16.4817 10.399C16.7786 10.399 16.9598 10.5175 17.0235 10.7461C17.0822 10.9561 17.0185 11.1293 16.7983 11.3004Z" fill="#42A62C"/>
</g>
</svg>
