<svg width="120" height="120" viewBox="0 0 120 120" fill="none" xmlns="http://www.w3.org/2000/svg">
<g clip-path="url(#clip0_120:546)">
<path d="M16.6 101.5C16.1 102.5 15.9 103.6 16.2 104.8C16.9 107.1 19.3 108.5 21.6 107.9C23.9 107.2 25.3 104.8 24.7 102.5C24.1 100.2 21.6 98.8 19.3 99.4C19 99.5 18.6 99.6 18.3 99.8C11.9 92.9 7.1 84.6 4.6 75.4C-3.9 44.8 14.1 13 44.6 4.50003C75.1 -3.99997 107 13.9 115.5 44.5C124 75.1 106.1 106.9 75.5 115.4C64.6 118.4 53.1 118.2 42.3 114.7C41.7 114.5 41 114.8 40.8 115.5C40.6 116.1 40.9 116.8 41.6 117C52.8 120.6 64.8 120.9 76.2 117.7C108.1 108.8 126.8 75.7 117.9 43.8C109 11.9 75.8 -6.69997 43.9 2.20003C12 11.1 -6.7 44.2 2.2 76.1C4.9 85.6 9.8 94.4 16.6 101.5Z" fill="#14182A"/>
<path d="M12.2 73.3C19.5 99.7 46.9 115.1 73.3 107.8C82.6 105.2 90.8 100.1 97.1 92.9C97.5 92.4 97.5 91.7 97 91.3C96.5 90.9 95.8 90.9 95.4 91.4C89.4 98.2 81.5 103.1 72.7 105.6C47.5 112.6 21.4 97.7999 14.4 72.6999C7.4 47.5999 22.2 21.4 47.3 14.4C72.4 7.39995 98.6 22.1999 105.6 47.2999C107.6 54.2999 107.9 61.4999 106.5 68.6999C106.4 69.2999 106.8 69.9 107.4 70C108 70.0999 108.6 69.6999 108.7 69.0999C110.1 61.5999 109.8 54.1 107.7 46.7C100.4 20.3 73 4.89995 46.6 12.2C20.2 19.5 4.9 46.9 12.2 73.3Z" fill="#F8F8F8"/>
<path d="M81.4 64.8V44.3C81.4 42.9 80.2 41.7 78.8 41.7H77.1V43C77.1 43.7 76.5 44.3 75.8 44.3C75.1 44.3 74.5 43.7 74.5 43V41.7H61.2V43C61.2 43.7 60.6 44.3 59.9 44.3C59.2 44.3 58.6 43.7 58.6 43V41.7H45.4V43C45.4 43.7 44.8 44.3 44.1 44.3C43.4 44.3 42.8 43.7 42.8 43V41.7H41.2C39.8 41.7 38.6 42.9 38.6 44.3V78.3C38.6 79.7 39.8 80.9 41.2 80.9H78.8C80.2 80.9 81.4 79.7 81.4 78.3C81.4 77.6 82 77 82.7 77C83.4 77 84 77.6 84 78.3C84 81.2 81.7 83.5 78.8 83.5H41.2C38.3 83.5 36 81.2 36 78.3V44.3C36 41.4 38.3 39.1 41.2 39.1H42.8V37.8C42.8 37.1 43.4 36.5 44.1 36.5C44.8 36.5 45.4 37.1 45.4 37.8V39.1H58.6V37.8C58.6 37.1 59.2 36.5 59.9 36.5C60.6 36.5 61.2 37.1 61.2 37.8V39.1H74.5V37.8C74.5 37.1 75.1 36.5 75.8 36.5C76.5 36.5 77.1 37.1 77.1 37.8V39.1H78.8C81.7 39.1 84 41.4 84 44.3V64.8C84 65.5 83.4 66.1 82.7 66.1C82 66.1 81.4 65.5 81.4 64.8ZM56 67.3C56.5 67 57 66.7 57.7 66.5C58.3 66.3 58.9 66.1 59.6 66C60.8 65.7 61.9 65.4 63 65C64.1 64.7 65 64.2 65.9 63.7C66.7 63.1 67.4 62.4 67.9 61.6C68.4 60.7 68.6 59.6 68.6 58.3C68.6 56.7 68.4 55.4 68 54.5C67.6 53.6 67.1 52.9 66.5 52.5C65.9 52.1 65.1 51.9 64.2 51.8C63.3 51.7 62.4 51.7 61.4 51.7C60.4 51.7 59.5 51.7 58.6 51.8C57.7 51.9 57 52.1 56.3 52.5C54.9 53.4 53.8 54.5 53 55.8C52.2 57.1 51.8 58.8 51.8 60.8L54.3 59.4C54.8 54.4 60.7 54.4 61.5 54.4C62.4 54.5 63.1 54.7 63.8 55.1C64.4 55.5 64.9 56.2 65.3 57.1C65.7 58 65.9 59.3 65.9 60.9C65.9 61.3 65.8 61.7 65.6 62C65.4 62.3 65.1 62.5 64.7 62.8C64.3 63 63.9 63.2 63.4 63.3C62.9 63.4 62.4 63.6 61.9 63.7C60.7 64 59.5 64.4 58.3 64.8C57.1 65.2 56 65.7 55.1 66.4C54.1 67.1 53.4 67.9 52.8 69C52.2 70.1 51.9 71.4 51.9 73.1V73.2H66.1L68.6 70.7H54.4C54.4 69.9 54.6 69.3 54.9 68.8C55.1 68 55.5 67.6 56 67.3Z" fill="#14182A"/>
</g>
<defs>
<clipPath id="clip0_120:546">
<rect width="120" height="120" fill="white"/>
</clipPath>
</defs>
</svg>
