<svg width="21" height="23" viewBox="0 0 21 23" fill="none" xmlns="http://www.w3.org/2000/svg">
<path id="Shape" fill-rule="evenodd" clip-rule="evenodd" d="M18.3943 0.0146484H2.98011C1.67894 0.0173931 0.624815 1.07152 0.62207 2.37269V17.7869C0.624815 19.0881 1.67894 20.1422 2.98011 20.145H16.0249L15.419 18.04L16.891 19.3972L18.2828 20.6739L20.7638 22.8252V2.37269C20.7524 1.0732 19.6942 0.0146484 18.3943 0.0146484ZM7.43178 10.8502C7.43178 10.1481 7.9493 9.58495 8.6051 9.58495C9.26091 9.58495 9.78983 10.1481 9.77842 10.8502C9.77842 11.5524 9.26091 12.1155 8.6051 12.1155C7.96106 12.1155 7.43178 11.5524 7.43178 10.8502ZM11.63 10.8502C11.63 10.1481 12.1475 9.58495 12.8033 9.58495C13.4474 9.58495 13.9766 10.1481 13.9766 10.8502C13.9766 11.5524 13.4591 12.1155 12.8033 12.1155C12.1593 12.1155 11.63 11.5524 11.63 10.8502ZM13.9534 14.9104L13.954 14.9112L13.9508 14.9105C13.9517 14.9104 13.9525 14.9104 13.9534 14.9104ZM13.1949 13.9909L13.9534 14.9104C16.3647 14.8334 17.3545 13.3427 17.4514 13.1968C17.4567 13.1888 17.4594 13.1848 17.4594 13.1854C17.4594 9.51612 15.8028 6.53649 15.8028 6.53649C14.1579 5.30543 12.5818 5.34 12.5818 5.34L12.4207 5.52391C14.376 6.11093 15.2849 6.97345 15.2849 6.97345C14.211 6.39165 13.0356 6.02072 11.8223 5.88068C11.0497 5.7956 10.2696 5.80338 9.49885 5.90385C9.43946 5.90385 9.38893 5.91244 9.33234 5.92205C9.3227 5.92369 9.31288 5.92536 9.30282 5.92702C8.90042 5.97299 7.92242 6.11093 6.69172 6.65161C6.2626 6.83587 6.01311 6.97381 6.01311 6.97381C6.01311 6.97381 6.95974 6.06495 9.02695 5.47829L8.91183 5.34036C8.91183 5.34036 7.34752 5.30614 5.69091 6.53684C5.69091 6.53684 4.03429 9.51612 4.03429 13.1858C4.03429 13.1858 5.00053 14.842 7.54284 14.9226L8.31341 13.9795C6.85282 13.5425 6.30038 12.6337 6.30038 12.6337L6.62258 12.8297C6.62975 12.8297 6.63679 12.8341 6.64645 12.8401C6.65262 12.8439 6.65987 12.8484 6.66891 12.8529C6.68579 12.8629 6.70204 12.8707 6.71793 12.8784C6.73759 12.8879 6.75671 12.8971 6.77583 12.9099C7.0631 13.071 7.35109 13.194 7.61555 13.3009C8.08744 13.4962 8.65058 13.6691 9.30638 13.7956C10.1696 13.9567 11.1818 14.0137 12.286 13.807C12.8267 13.7033 13.3788 13.5539 13.954 13.3123C14.3568 13.163 14.8055 12.9438 15.277 12.6337C15.277 12.6337 14.7018 13.5653 13.1949 13.9909Z" fill="#7289DA"/>
</svg>
