<svg width="135" height="33" viewBox="0 0 135 33" fill="none" xmlns="http://www.w3.org/2000/svg">
<path fill-rule="evenodd" clip-rule="evenodd" d="M18.5913 3.51282C20.2026 2.39573 21.9481 1.68079 23.8728 1.41268C30.4075 0.519008 34.9729 4.9427 35.5547 10.2601C35.9128 13.3879 34.9729 16.1583 32.8244 18.5266C32.7349 18.6159 32.6454 18.75 32.6454 18.884C32.2873 20.7161 31.4817 21.431 29.6466 21.6544C29.6242 21.6544 29.613 21.6656 29.6018 21.6768C29.5906 21.6879 29.5795 21.6991 29.5571 21.6991C29.4228 23.6205 28.1696 24.7376 26.424 24.7823C26.424 25.7206 26.1107 26.5696 25.305 27.1952C24.5441 27.8208 23.649 27.9995 22.6643 27.7761C22.53 28.8932 21.8139 29.5635 21.0977 30.2337C20.8011 30.5002 20.5242 30.7863 20.2408 31.0791L20.2407 31.0792L20.2406 31.0793L20.2405 31.0794L20.2405 31.0794L20.2405 31.0794L20.2405 31.0795L20.2404 31.0795C20.0963 31.2284 19.9506 31.3789 19.7997 31.5295C18.8598 32.4679 17.7856 32.736 16.5771 32.2892C15.3686 31.8423 14.742 30.904 14.6973 29.5635C14.6973 29.5188 14.6973 29.4741 14.6525 29.3847C13.8021 29.4294 13.0412 29.1166 12.4146 28.5357C11.788 27.9548 11.5194 27.1952 11.5194 26.3015C10.669 26.2569 9.90811 26.0334 9.28149 25.4079C8.65487 24.827 8.43108 24.0673 8.38632 23.2184C8.31918 23.2184 8.25204 23.2072 8.18491 23.196L8.18487 23.196C8.11775 23.1848 8.05062 23.1737 7.98349 23.1737C6.28267 22.9503 5.25323 21.7438 5.29798 20.0458C5.29798 19.8671 5.20847 19.6437 5.07419 19.5543C3.28385 17.901 1.9411 15.9796 1.35924 13.6113C0.508828 10.1707 0.911654 6.95347 3.19434 4.18308C6.95405 -0.419351 13.9364 -0.732138 18.3675 3.37877C18.5017 3.42345 18.5465 3.46814 18.5913 3.51282ZM19.621 24.4688C19.6734 24.4688 19.7105 24.4842 19.7412 24.4969C19.7629 24.5059 19.7814 24.5135 19.8 24.5135C20.7847 24.5582 21.5456 24.9604 22.1274 25.6753C22.3065 25.8987 22.5303 26.0775 22.7988 26.2115C23.4702 26.6137 24.3206 26.3456 24.7234 25.6753C25.0815 25.0497 24.992 24.3795 24.3654 23.7539L18.3677 17.7663L18.0544 17.4535C17.7859 17.1407 17.8306 16.7386 18.0992 16.4705C18.3677 16.2024 18.7705 16.1577 19.0839 16.4258C19.1756 16.4868 19.2465 16.5688 19.3107 16.6431C19.3405 16.6775 19.3688 16.7103 19.3972 16.7386L25.4396 22.7709C25.8424 23.173 26.29 23.3964 26.8718 23.2624C27.4537 23.1283 27.8118 22.7709 27.946 22.19C28.1251 21.6091 27.9013 21.1622 27.4984 20.7601C26.4466 19.7324 25.406 18.6935 24.3654 17.6546L24.3652 17.6544C23.3246 16.6156 22.284 15.5767 21.2323 14.5491C20.8742 14.1916 20.8294 13.7447 21.1427 13.432C21.4561 13.1192 21.9036 13.1639 22.2617 13.5213C22.8659 14.1246 23.4702 14.7166 24.0744 15.3087C24.6787 15.9007 25.2829 16.4928 25.8871 17.096L28.5727 19.7771C29.3335 20.492 30.4077 20.3579 30.9001 19.5089C31.2582 18.9281 31.1239 18.2578 30.5868 17.6769C27.7223 14.6831 24.813 11.7787 21.9038 8.87434L21.9036 8.87421C21.8589 8.82953 21.7694 8.74016 21.6351 8.65079C21.5903 8.69548 21.5568 8.74016 21.5232 8.78484C21.4896 8.82953 21.4561 8.87421 21.4113 8.9189C21.142 9.1877 20.8756 9.45651 20.6098 9.72461L20.6098 9.72464L20.6098 9.72467L20.6098 9.7247L20.6097 9.72472L20.6097 9.72475C19.8153 10.5262 19.0271 11.3214 18.1887 12.0914C15.906 14.1916 12.4148 13.8341 10.4455 11.3765C11.6092 10.2371 12.7729 9.08647 13.9366 7.93586C15.1003 6.78525 16.2641 5.63464 17.4278 4.49521C13.6681 0.697086 6.99906 1.23329 4.00024 5.6123C2.12038 8.33801 2.07562 11.2871 3.19458 14.2809C3.77645 15.8449 4.76113 17.1854 6.05913 18.3025L8.34181 16.0236C9.14746 15.2193 10.0874 14.9959 11.1616 15.3087C12.2358 15.6215 12.9519 16.3364 13.2205 17.4088C13.2792 17.5847 13.2994 17.7797 13.319 17.9688C13.3293 18.068 13.3394 18.1656 13.3548 18.2578C14.2052 18.2578 14.9661 18.5259 15.5479 19.1515C16.1745 19.7771 16.3983 20.5367 16.4431 21.341C18.5915 21.4303 19.6657 22.9049 19.621 24.4688ZM32.287 16.9184C32.2423 16.9184 32.1975 17.0078 32.1975 17.0078C31.3138 16.1476 30.4411 15.2875 29.5792 14.4381C28.6949 13.5666 27.8221 12.7064 26.9608 11.8692L22.4849 7.40078C21.8583 6.7752 21.545 6.7752 20.9184 7.40078C20.514 7.80447 20.1147 8.20816 19.717 8.61018L19.7166 8.61054L19.7166 8.61057L19.7164 8.61072L19.7163 8.61081L19.7163 8.61085L19.7163 8.61088C18.9256 9.41009 18.1416 10.2027 17.3377 10.9755C16.0397 12.2266 14.0256 12.45 12.6828 11.467V11.3776C13.4486 10.6293 14.1967 9.87515 14.942 9.12365C16.2441 7.81085 17.538 6.50629 18.9042 5.25596C21.7688 2.61961 26.2894 2.03872 29.6015 3.78139C32.1975 5.1219 33.6298 7.35609 34.0774 10.2159C34.4354 12.5394 33.8536 14.6395 32.5556 16.5609C32.5108 16.628 32.4661 16.6838 32.4213 16.7397L32.4213 16.7397C32.3765 16.7956 32.3318 16.8514 32.287 16.9184ZM13.3994 19.7332C13.3364 19.7646 13.257 19.7905 13.1706 19.8186C13.0112 19.8705 12.8284 19.9301 12.6832 20.046C11.8328 20.8056 11.0272 21.6099 10.2663 22.4589C9.77392 23.0398 9.86344 23.8441 10.4453 24.3803C10.9824 24.9165 11.8328 24.9165 12.3699 24.425C13.1308 23.7101 13.8917 22.9504 14.6078 22.1908C15.0554 21.744 15.1449 21.2078 14.8764 20.6269C14.6078 20.0907 14.1603 19.8226 13.3994 19.7332ZM18.1433 24.3357C18.1433 24.3357 18.188 24.3804 18.2328 24.3804C18.1209 24.5368 18.0314 24.7155 17.9419 24.8942L17.9419 24.8942L17.9418 24.8942C17.8523 25.073 17.7628 25.2517 17.6509 25.4081C16.9795 26.1231 16.3082 26.7933 15.592 27.4636C14.9654 28.0891 14.115 28.0891 13.4884 27.4636C12.9513 26.8827 12.9513 26.0337 13.5779 25.4081C14.2493 24.6932 14.9654 23.9782 15.6815 23.308C16.1291 22.8611 16.6662 22.7718 17.2481 23.0399C17.83 23.2633 18.1433 23.7101 18.1433 24.3357ZM16.085 29.4737C16.1745 30.0992 16.5325 30.6354 17.0696 30.8589C17.6515 31.0823 18.1886 30.9929 18.6362 30.5461C18.8733 30.3094 19.1152 30.0727 19.3589 29.8344L19.3589 29.8344C19.8512 29.3529 20.3503 28.8647 20.8294 28.3566C21.4112 27.7757 21.3665 26.9267 20.8294 26.3905C20.2475 25.8096 19.3971 25.7649 18.8152 26.3458C18.0543 27.0607 17.3382 27.7757 16.6221 28.5353C16.4729 28.714 16.3635 28.9325 16.2541 29.1509C16.1993 29.2602 16.1446 29.3694 16.085 29.4737ZM7.71493 21.5646C7.17783 21.2965 6.86452 20.8496 6.775 20.1794C6.78711 20.1512 6.79922 20.1226 6.81142 20.0938C6.93458 19.8032 7.06777 19.489 7.3121 19.2857C7.81629 18.7152 8.37097 18.17 8.91925 17.631C9.10107 17.4523 9.28218 17.2742 9.46051 17.0962C10.0424 16.5153 10.8928 16.56 11.4746 17.1409C12.0117 17.6771 12.0565 18.5261 11.4746 19.107C11.2376 19.3436 11.0005 19.5852 10.7618 19.8284C10.2795 20.32 9.79048 20.8182 9.28148 21.2965C8.83389 21.7433 8.29679 21.8327 7.71493 21.5646Z" fill="#1E88E5"/>
<path d="M23.8728 1.41268L23.8389 1.16499L23.8383 1.16507L23.8728 1.41268ZM18.5913 3.51282L18.4146 3.68974L18.5623 3.83713L18.7337 3.71827L18.5913 3.51282ZM35.5547 10.2601L35.3062 10.2873L35.3063 10.2885L35.5547 10.2601ZM32.8244 18.5266L33.0013 18.7037L33.0096 18.6945L32.8244 18.5266ZM32.6454 18.884L32.8908 18.932L32.8954 18.9082V18.884H32.6454ZM29.6466 21.6544V21.9044H29.6618L29.6768 21.9026L29.6466 21.6544ZM29.5571 21.6991V21.4491H29.3239L29.3077 21.6817L29.5571 21.6991ZM26.424 24.7823L26.4176 24.5324L26.174 24.5386V24.7823H26.424ZM25.305 27.1952L25.1516 26.9977L25.1463 27.0021L25.305 27.1952ZM22.6643 27.7761L22.7196 27.5323L22.4492 27.4709L22.4161 27.7463L22.6643 27.7761ZM21.0977 30.2337L21.2649 30.4197L21.2686 30.4162L21.0977 30.2337ZM20.2408 31.0791L20.4176 31.2559L20.4204 31.253L20.2408 31.0791ZM20.2407 31.0792L20.0638 30.9024L20.0589 30.9076L20.2407 31.0792ZM20.2406 31.0793L20.4174 31.2562L20.4223 31.251L20.2406 31.0793ZM20.2404 31.0795L20.0636 30.9027L20.0608 30.9056L20.2404 31.0795ZM19.7997 31.5295L19.9764 31.7065L19.7997 31.5295ZM14.6973 29.5635H14.4471L14.4474 29.5718L14.6973 29.5635ZM14.6525 29.3847L14.876 29.2728L14.8028 29.1265L14.6394 29.1351L14.6525 29.3847ZM12.4146 28.5357L12.5845 28.3524L12.4146 28.5357ZM11.5194 26.3015H11.7694V26.0643L11.5325 26.0519L11.5194 26.3015ZM9.28149 25.4079L9.45824 25.2308L9.45145 25.2245L9.28149 25.4079ZM8.38632 23.2184L8.63597 23.2052L8.62349 22.9684H8.38632V23.2184ZM8.18491 23.196L8.14207 23.4423L8.14387 23.4426L8.18491 23.196ZM8.18487 23.196L8.22771 22.9497L8.2259 22.9494L8.18487 23.196ZM7.98349 23.1737L7.95093 23.4215L7.96714 23.4237H7.98349V23.1737ZM5.29798 20.0458L5.54798 20.0524V20.0458H5.29798ZM5.07419 19.5543L4.90459 19.738L4.91916 19.7514L4.93568 19.7624L5.07419 19.5543ZM1.35924 13.6113L1.60202 13.5517L1.60194 13.5514L1.35924 13.6113ZM3.19434 4.18308L3.38728 4.34205L3.38795 4.34124L3.19434 4.18308ZM18.3675 3.37877L18.1974 3.56204L18.2371 3.59888L18.2885 3.61598L18.3675 3.37877ZM19.7412 24.4969L19.8367 24.2659L19.8367 24.2659L19.7412 24.4969ZM19.621 24.4688L19.3711 24.4617L19.3637 24.7188H19.621V24.4688ZM19.8 24.5135L19.8113 24.2635H19.8V24.5135ZM22.1274 25.6753L22.3225 25.519L22.3213 25.5175L22.1274 25.6753ZM22.7988 26.2115L22.9273 25.997L22.919 25.9921L22.9105 25.9878L22.7988 26.2115ZM24.7234 25.6753L24.9377 25.8041L24.9404 25.7995L24.7234 25.6753ZM24.3654 23.7539L24.542 23.577H24.542L24.3654 23.7539ZM18.3677 17.7663L18.1911 17.9432H18.1911L18.3677 17.7663ZM18.0544 17.4535L17.8647 17.6164L17.871 17.6236L17.8778 17.6304L18.0544 17.4535ZM19.0839 16.4258L18.9213 16.6157L18.9328 16.6255L18.9453 16.6339L19.0839 16.4258ZM19.3107 16.6431L19.4998 16.4795L19.4998 16.4795L19.3107 16.6431ZM19.3972 16.7386L19.2205 16.9155L19.2205 16.9155L19.3972 16.7386ZM25.4396 22.7709L25.2629 22.9478L25.4396 22.7709ZM26.8718 23.2624L26.8157 23.0188L26.8718 23.2624ZM27.946 22.19L27.7071 22.1163L27.7045 22.1249L27.7025 22.1337L27.946 22.19ZM27.4984 20.7601L27.6751 20.5832L27.6732 20.5813L27.4984 20.7601ZM24.3654 17.6546L24.1886 17.8313L24.1887 17.8315L24.3654 17.6546ZM24.3652 17.6544L24.542 17.4777L24.5418 17.4775L24.3652 17.6544ZM21.2323 14.5491L21.0556 14.726L21.0575 14.7279L21.2323 14.5491ZM21.1427 13.432L21.3194 13.6089L21.3194 13.6089L21.1427 13.432ZM22.2617 13.5213L22.0851 13.6982L22.2617 13.5213ZM24.0744 15.3087L24.2494 15.1301H24.2494L24.0744 15.3087ZM25.8871 17.096L26.0638 16.9191L25.8871 17.096ZM28.5727 19.7771L28.3959 19.9541L28.4015 19.9592L28.5727 19.7771ZM30.9001 19.5089L30.6872 19.3777L30.6838 19.3835L30.9001 19.5089ZM30.5868 17.6769L30.7704 17.5072L30.7674 17.5041L30.5868 17.6769ZM21.9038 8.87434L22.0804 8.6974L22.0785 8.69554L21.9038 8.87434ZM21.9036 8.87421L21.727 9.05115L21.7289 9.05301L21.9036 8.87421ZM21.6351 8.65079L21.7736 8.44268L21.6033 8.3293L21.4585 8.47388L21.6351 8.65079ZM21.5232 8.78484L21.7231 8.93501L21.7231 8.935L21.5232 8.78484ZM21.4113 8.9189L21.2347 8.74197V8.74197L21.4113 8.9189ZM20.6098 9.72461L20.7866 9.90139L20.7874 9.90061L20.6098 9.72461ZM20.6097 9.72475L20.4329 9.54797L20.4322 9.54876L20.6097 9.72475ZM18.1887 12.0914L18.0196 11.9073L18.0194 11.9075L18.1887 12.0914ZM10.4455 11.3765L10.2706 11.1979L10.1088 11.3562L10.2504 11.5328L10.4455 11.3765ZM13.9366 7.93586L14.1124 8.11364L13.9366 7.93586ZM17.4278 4.49521L17.6027 4.67384L17.7823 4.49798L17.6055 4.31933L17.4278 4.49521ZM4.00024 5.6123L4.20604 5.75424L4.20651 5.75356L4.00024 5.6123ZM3.19458 14.2809L3.42889 14.1938L3.42876 14.1934L3.19458 14.2809ZM6.05913 18.3025L5.89605 18.492L6.07173 18.6432L6.23576 18.4794L6.05913 18.3025ZM8.34181 16.0236L8.51844 16.2005L8.34181 16.0236ZM11.1616 15.3087L11.0917 15.5487L11.1616 15.3087ZM13.2205 17.4088L12.978 17.4695L12.9803 17.4789L12.9834 17.488L13.2205 17.4088ZM13.319 17.9688L13.5677 17.9431L13.319 17.9688ZM13.3548 18.2578L13.1082 18.299L13.143 18.5078H13.3548V18.2578ZM15.5479 19.1515L15.3647 19.3219L15.3713 19.3284L15.5479 19.1515ZM16.4431 21.341L16.1935 21.3549L16.2061 21.5813L16.4327 21.5908L16.4431 21.341ZM32.1975 17.0078L32.0231 17.1869L32.268 17.4253L32.421 17.1197L32.1975 17.0078ZM32.287 16.9184V17.1684H32.4207L32.4949 17.0573L32.287 16.9184ZM29.5792 14.4381L29.7547 14.26L29.5792 14.4381ZM26.9608 11.8692L26.7841 12.0461L26.7865 12.0484L26.9608 11.8692ZM22.4849 7.40078L22.3083 7.5777H22.3083L22.4849 7.40078ZM20.9184 7.40078L21.095 7.5777L20.9184 7.40078ZM19.717 8.61018L19.8944 8.78626L19.8947 8.78599L19.717 8.61018ZM19.7166 8.61054L19.8934 8.78732L19.8941 8.78663L19.7166 8.61054ZM19.7163 8.61088L19.5395 8.4341L19.5385 8.43506L19.7163 8.61088ZM17.3377 10.9755L17.1644 10.7953L17.1642 10.7955L17.3377 10.9755ZM12.6828 11.467H12.4328V11.5938L12.5351 11.6687L12.6828 11.467ZM12.6828 11.3776L12.5081 11.1988L12.4328 11.2724V11.3776H12.6828ZM14.942 9.12365L14.7645 8.9476L14.942 9.12365ZM18.9042 5.25596L19.073 5.44038L19.0735 5.43991L18.9042 5.25596ZM29.6015 3.78139L29.4851 4.00264L29.4868 4.00352L29.6015 3.78139ZM34.0774 10.2159L34.3245 10.1778L34.3244 10.1772L34.0774 10.2159ZM32.5556 16.5609L32.3484 16.421L32.3477 16.4221L32.5556 16.5609ZM32.4213 16.7397L32.6148 16.898L32.6164 16.896L32.4213 16.7397ZM32.4213 16.7397L32.2278 16.5814L32.2262 16.5834L32.4213 16.7397ZM13.1706 19.8186L13.248 20.0563H13.248L13.1706 19.8186ZM13.3994 19.7332L13.4285 19.4849L13.3544 19.4762L13.2877 19.5095L13.3994 19.7332ZM12.6832 20.046L12.527 19.8503L12.5167 19.8595L12.6832 20.046ZM10.2663 22.4589L10.08 22.292L10.0755 22.2973L10.2663 22.4589ZM10.4453 24.3803L10.6221 24.2033L10.6147 24.1965L10.4453 24.3803ZM12.3699 24.425L12.5387 24.6094L12.5411 24.6072L12.3699 24.425ZM14.6078 22.1908L14.4311 22.0138L14.4259 22.0193L14.6078 22.1908ZM14.8764 20.6269L15.1034 20.5219L15.0999 20.5149L14.8764 20.6269ZM18.2328 24.3804L18.4361 24.5259L18.7191 24.1304H18.2328V24.3804ZM18.1433 24.3357H17.8933V24.4394L17.9666 24.5126L18.1433 24.3357ZM17.9419 24.8942L18.1563 25.0228L18.1612 25.0146L18.1654 25.0061L17.9419 24.8942ZM17.9418 24.8942L17.7275 24.7656L17.7226 24.7738L17.7183 24.7823L17.9418 24.8942ZM17.6509 25.4081L17.8332 25.5792L17.8446 25.5671L17.8542 25.5536L17.6509 25.4081ZM15.592 27.4636L15.4211 27.2809L15.4154 27.2866L15.592 27.4636ZM13.4884 27.4636L13.3047 27.6334L13.3117 27.6405L13.4884 27.4636ZM13.5779 25.4081L13.7546 25.5851L13.7601 25.5792L13.5779 25.4081ZM15.6815 23.308L15.8525 23.4906L15.8582 23.4849L15.6815 23.308ZM17.2481 23.0399L17.1435 23.2669L17.1509 23.2703L17.1585 23.2733L17.2481 23.0399ZM17.0696 30.8589L16.9736 31.0898L16.98 31.0923L17.0696 30.8589ZM16.085 29.4737L15.868 29.3495L15.8253 29.424L15.8375 29.5091L16.085 29.4737ZM18.6362 30.5461L18.8128 30.723H18.8128L18.6362 30.5461ZM19.3589 29.8344L19.5337 30.0132L19.5357 30.0112L19.3589 29.8344ZM19.3589 29.8344L19.1841 29.6557L19.1821 29.6576L19.3589 29.8344ZM20.8294 28.3566L20.6527 28.1796L20.6475 28.1851L20.8294 28.3566ZM20.8294 26.3905L21.006 26.2136L20.8294 26.3905ZM18.8152 26.3458L18.9865 26.5281L18.9919 26.5227L18.8152 26.3458ZM16.6221 28.5353L16.4402 28.3638L16.435 28.3693L16.4301 28.3751L16.6221 28.5353ZM16.2541 29.1509L16.4776 29.2629V29.2629L16.2541 29.1509ZM6.775 20.1794L6.54527 20.0808L6.51807 20.1441L6.5272 20.2125L6.775 20.1794ZM7.71493 21.5646L7.60322 21.7884L7.61031 21.7916L7.71493 21.5646ZM6.81142 20.0938L6.58124 19.9962V19.9962L6.81142 20.0938ZM7.3121 19.2857L7.47199 19.4779L7.48673 19.4656L7.49942 19.4513L7.3121 19.2857ZM8.91925 17.631L9.09451 17.8093L8.91925 17.631ZM9.46051 17.0962L9.63714 17.2731L9.63714 17.2731L9.46051 17.0962ZM11.4746 17.1409L11.6513 16.964L11.4746 17.1409ZM11.4746 19.107L11.298 18.93L11.4746 19.107ZM10.7618 19.8284L10.9402 20.0036L10.7618 19.8284ZM9.28148 21.2965L9.11021 21.1142L9.10485 21.1195L9.28148 21.2965ZM23.8383 1.16507C21.872 1.43898 20.0898 2.16969 18.4488 3.30737L18.7337 3.71827C20.3153 2.62176 22.0243 1.92259 23.9072 1.66029L23.8383 1.16507ZM35.8032 10.2329C35.2072 4.78618 30.5233 0.250841 23.8389 1.16499L23.9066 1.66038C30.2917 0.787174 34.7385 5.09922 35.3062 10.2873L35.8032 10.2329ZM33.0096 18.6945C35.204 16.2756 36.1697 13.4345 35.8031 10.2316L35.3063 10.2885C35.6558 13.3414 34.7417 16.041 32.6393 18.3586L33.0096 18.6945ZM32.8954 18.884C32.8954 18.8499 32.9278 18.7767 33.0011 18.7035L32.6478 18.3496C32.5421 18.4552 32.3954 18.6501 32.3954 18.884H32.8954ZM29.6768 21.9026C30.6179 21.788 31.3381 21.5429 31.8688 21.0568C32.4001 20.57 32.7068 19.8734 32.8908 18.932L32.4001 18.8361C32.226 19.7267 31.9508 20.3036 31.531 20.6881C31.1106 21.0733 30.5104 21.2974 29.6164 21.4063L29.6768 21.9026ZM29.7785 21.8537C29.7873 21.8448 29.7721 21.8617 29.7485 21.8759C29.7175 21.8944 29.6816 21.9044 29.6466 21.9044V21.4044C29.5145 21.4044 29.4391 21.486 29.4252 21.4998L29.7785 21.8537ZM29.5571 21.9491C29.6892 21.9491 29.7646 21.8675 29.7785 21.8537L29.4252 21.4998C29.4163 21.5087 29.4316 21.4918 29.4552 21.4777C29.4862 21.4591 29.5221 21.4491 29.5571 21.4491V21.9491ZM26.4304 25.0322C27.3558 25.0085 28.168 24.6993 28.7677 24.125C29.3677 23.5505 29.7357 22.7291 29.8065 21.7165L29.3077 21.6817C29.2442 22.5906 28.9184 23.2884 28.4219 23.7639C27.925 24.2397 27.2378 24.5114 26.4176 24.5324L26.4304 25.0322ZM25.4584 27.3927C26.3367 26.7107 26.674 25.7818 26.674 24.7823H26.174C26.174 25.6595 25.8847 26.4286 25.1517 26.9977L25.4584 27.3927ZM22.609 28.0199C23.6613 28.2587 24.6373 28.0678 25.4638 27.3883L25.1463 27.0021C24.4509 27.5738 23.6366 27.7404 22.7196 27.5323L22.609 28.0199ZM21.2686 30.4162C21.9768 29.7534 22.7659 29.0255 22.9125 27.8059L22.4161 27.7463C22.2941 28.7609 21.6509 29.3735 20.9269 30.0512L21.2686 30.4162ZM20.4204 31.253C20.7048 30.9591 20.9758 30.6794 21.2648 30.4197L20.9306 30.0477C20.6265 30.3211 20.3435 30.6136 20.0612 30.9052L20.4204 31.253ZM20.4174 31.256L20.4176 31.2559L20.064 30.9023L20.0639 30.9025L20.4174 31.256ZM20.4223 31.251L20.4224 31.2509L20.0589 30.9076L20.0588 30.9077L20.4223 31.251ZM20.4173 31.2561L20.4173 31.2561L20.0638 30.9026L20.0638 30.9026L20.4173 31.2561ZM20.4173 31.2562L20.4173 31.2561L20.0638 30.9026L20.0637 30.9026L20.4173 31.2562ZM20.4173 31.2562L20.4173 31.2562L20.0637 30.9026L20.0637 30.9026L20.4173 31.2562ZM20.4172 31.2562L20.4173 31.2562L20.0637 30.9026L20.0637 30.9027L20.4172 31.2562ZM20.4172 31.2563L20.4172 31.2562L20.0637 30.9027L20.0636 30.9027L20.4172 31.2563ZM19.9764 31.7065C20.129 31.5541 20.2762 31.402 20.4201 31.2534L20.0608 30.9056C19.9165 31.0547 19.7722 31.2038 19.6231 31.3526L19.9764 31.7065ZM16.4904 32.5236C17.134 32.7616 17.7553 32.8135 18.3473 32.6719C18.9382 32.5306 19.481 32.201 19.9764 31.7065L19.6231 31.3526C19.1786 31.7964 18.7143 32.0701 18.231 32.1857C17.7488 32.301 17.2288 32.2636 16.6638 32.0547L16.4904 32.5236ZM14.4474 29.5718C14.471 30.2791 14.6489 30.8975 14.9945 31.4026C15.3408 31.9089 15.8443 32.2847 16.4904 32.5236L16.6638 32.0547C16.1015 31.8467 15.6874 31.53 15.4071 31.1203C15.126 30.7094 14.9683 30.1884 14.9471 29.5551L14.4474 29.5718ZM14.429 29.4967C14.4438 29.5262 14.4463 29.5385 14.4465 29.5399C14.4468 29.5412 14.4473 29.5415 14.4473 29.5635H14.9473C14.9473 29.5407 14.9477 29.4963 14.9368 29.4417C14.9259 29.3873 14.906 29.3326 14.876 29.2728L14.429 29.4967ZM12.2446 28.7191C12.9148 29.3403 13.74 29.683 14.6656 29.6344L14.6394 29.1351C13.8642 29.1758 13.1676 28.8929 12.5845 28.3524L12.2446 28.7191ZM11.2694 26.3015C11.2694 27.2492 11.5566 28.0812 12.2446 28.7191L12.5845 28.3524C12.0194 27.8284 11.7694 27.1412 11.7694 26.3015H11.2694ZM9.10486 25.5848C9.78952 26.2683 10.6181 26.5045 11.5063 26.5512L11.5325 26.0519C10.7199 26.0092 10.0267 25.7986 9.45812 25.2309L9.10486 25.5848ZM8.13667 23.2315C8.18329 24.1159 8.41922 24.9494 9.11153 25.5912L9.45145 25.2245C8.89052 24.7045 8.67887 24.0188 8.63597 23.2052L8.13667 23.2315ZM8.14387 23.4426C8.20734 23.4532 8.29501 23.4684 8.38632 23.4684V22.9684C8.34336 22.9684 8.29675 22.9612 8.22594 22.9494L8.14387 23.4426ZM8.14204 23.4423L8.14207 23.4423L8.22774 22.9497L8.22771 22.9497L8.14204 23.4423ZM7.98349 23.4237C8.02645 23.4237 8.07305 23.4308 8.14385 23.4426L8.2259 22.9494C8.16244 22.9388 8.07479 22.9237 7.98349 22.9237V23.4237ZM5.04807 20.0392C5.02429 20.9415 5.28633 21.7304 5.79633 22.3254C6.30628 22.9204 7.04826 23.303 7.95093 23.4215L8.01605 22.9258C7.2179 22.821 6.59475 22.4886 6.17596 22C5.75722 21.5115 5.52692 20.8482 5.5479 20.0524L5.04807 20.0392ZM4.93568 19.7624C4.9488 19.7711 4.9793 19.8026 5.00746 19.8669C5.0343 19.9281 5.04798 19.9946 5.04798 20.0458H5.54798C5.54798 19.9183 5.51691 19.7837 5.46542 19.6662C5.41526 19.5517 5.33386 19.4268 5.21271 19.3462L4.93568 19.7624ZM1.11646 13.671C1.71301 16.099 3.08869 18.0611 4.90459 19.738L5.2438 19.3706C3.47902 17.7409 2.16919 15.8601 1.60202 13.5517L1.11646 13.671ZM3.00139 4.0241C0.65754 6.86873 0.251688 10.1723 1.11654 13.6713L1.60194 13.5514C0.765967 10.1691 1.16577 7.0382 3.38728 4.34205L3.00139 4.0241ZM18.5375 3.19549C14.0073 -1.00732 6.85737 -0.696177 3.00073 4.02492L3.38795 4.34124C7.05072 -0.142526 13.8654 -0.456954 18.1974 3.56204L18.5375 3.19549ZM18.7679 3.3359C18.7452 3.31327 18.7076 3.27505 18.6514 3.23767C18.5954 3.20039 18.5295 3.16922 18.4464 3.14156L18.2885 3.61598C18.3397 3.633 18.3633 3.64652 18.3744 3.65391C18.3854 3.66122 18.3925 3.66768 18.4146 3.68974L18.7679 3.3359ZM19.8367 24.2659C19.8028 24.2518 19.7264 24.2188 19.621 24.2188V24.7188C19.6218 24.7188 19.6218 24.7188 19.6228 24.7191C19.6257 24.7199 19.6294 24.7212 19.6457 24.7279L19.8367 24.2659ZM19.8 24.2635C19.825 24.2635 19.8424 24.2687 19.8468 24.2701C19.8491 24.2708 19.8498 24.2712 19.8478 24.2704C19.8455 24.2695 19.8426 24.2683 19.8367 24.2659L19.6457 24.7279C19.6543 24.7315 19.7219 24.7635 19.8 24.7635V24.2635ZM22.3213 25.5175C21.695 24.7479 20.868 24.3117 19.8113 24.2638L19.7887 24.7633C20.7013 24.8047 21.3961 25.1728 21.9335 25.8331L22.3213 25.5175ZM22.9105 25.9878C22.6727 25.8691 22.4778 25.7128 22.3225 25.519L21.9323 25.8316C22.1351 26.0846 22.3878 26.2858 22.6872 26.4352L22.9105 25.9878ZM24.5091 25.5465C24.1682 26.1138 23.4656 26.3195 22.9273 25.997L22.6703 26.426C23.4748 26.9078 24.473 26.5773 24.9377 25.8041L24.5091 25.5465ZM24.1887 23.9308C24.475 24.2167 24.6222 24.496 24.6673 24.7572C24.712 25.0159 24.6608 25.2814 24.5065 25.5511L24.9404 25.7995C25.1441 25.4436 25.2272 25.0612 25.16 24.6721C25.0932 24.2853 24.8823 23.9167 24.542 23.577L24.1887 23.9308ZM18.1911 17.9432L24.1887 23.9308L24.542 23.577L18.5443 17.5894L18.1911 17.9432ZM17.8778 17.6304L18.1911 17.9432L18.5443 17.5894L18.231 17.2766L17.8778 17.6304ZM17.9225 16.2935C17.57 16.6455 17.5033 17.1954 17.8647 17.6164L18.2441 17.2906C18.0684 17.086 18.0913 16.8316 18.2758 16.6474L17.9225 16.2935ZM19.2464 16.2358C18.8251 15.8753 18.275 15.9417 17.9225 16.2935L18.2758 16.6474C18.4605 16.463 18.716 16.44 18.9213 16.6157L19.2464 16.2358ZM19.4998 16.4795C19.4386 16.4088 19.3468 16.3005 19.2224 16.2177L18.9453 16.6339C19.0044 16.6732 19.0543 16.7288 19.1216 16.8066L19.4998 16.4795ZM19.5738 16.5616C19.5532 16.541 19.531 16.5156 19.4998 16.4795L19.1216 16.8066C19.15 16.8394 19.1845 16.8795 19.2205 16.9155L19.5738 16.5616ZM25.6162 22.5939L19.5738 16.5616L19.2205 16.9155L25.2629 22.9478L25.6162 22.5939ZM26.8157 23.0188C26.3466 23.1268 25.9825 22.9597 25.6162 22.5939L25.2629 22.9478C25.7022 23.3864 26.2333 23.666 26.928 23.506L26.8157 23.0188ZM27.7025 22.1337C27.644 22.3867 27.5405 22.5767 27.4001 22.7168C27.2598 22.8569 27.0693 22.9603 26.8157 23.0188L26.928 23.506C27.2562 23.4304 27.5357 23.288 27.7534 23.0707C27.9712 22.8533 28.1138 22.5741 28.1896 22.2463L27.7025 22.1337ZM27.3218 20.937C27.5084 21.1233 27.6381 21.305 27.705 21.4922C27.7701 21.6739 27.7814 21.8754 27.7071 22.1163L28.1849 22.2636C28.2897 21.9236 28.2787 21.6113 28.1758 21.3238C28.0749 21.0418 27.8913 20.799 27.6751 20.5832L27.3218 20.937ZM24.1887 17.8315C25.2292 18.8702 26.2708 19.9101 27.3237 20.9389L27.6732 20.5813C26.6225 19.5546 25.5828 18.5167 24.542 17.4776L24.1887 17.8315ZM24.1884 17.8312L24.1886 17.8313L24.5421 17.4778L24.542 17.4777L24.1884 17.8312ZM21.0575 14.7279C22.1082 15.7545 23.1478 16.7924 24.1886 17.8314L24.5418 17.4775C23.5014 16.4388 22.4599 15.399 21.407 14.3702L21.0575 14.7279ZM20.9661 13.255C20.7594 13.4614 20.6633 13.7231 20.6866 13.9951C20.7095 14.2618 20.8446 14.5153 21.0556 14.726L21.4089 14.3721C21.2618 14.2253 21.1955 14.0767 21.1848 13.9524C21.1746 13.8334 21.2128 13.7153 21.3194 13.6089L20.9661 13.255ZM22.4383 13.3444C22.2273 13.1337 21.9735 12.999 21.7068 12.9762C21.4347 12.9529 21.1729 13.0486 20.9661 13.255L21.3194 13.6089C21.4259 13.5025 21.5445 13.4642 21.6641 13.4744C21.789 13.4851 21.9381 13.5515 22.0851 13.6982L22.4383 13.3444ZM24.2494 15.1301C23.645 14.5379 23.0416 13.9467 22.4383 13.3444L22.0851 13.6982C22.6903 14.3024 23.2954 14.8953 23.8995 15.4873L24.2494 15.1301ZM26.0638 16.9191C25.4586 16.3149 24.8535 15.722 24.2494 15.1301L23.8995 15.4873C24.5038 16.0794 25.1072 16.6707 25.7105 17.2729L26.0638 16.9191ZM28.7493 19.6001L26.0638 16.9191L25.7105 17.2729L28.396 19.954L28.7493 19.6001ZM30.6838 19.3835C30.2796 20.0805 29.3984 20.2099 28.7438 19.5949L28.4015 19.9592C29.2687 20.7741 30.5359 20.6354 31.1164 19.6344L30.6838 19.3835ZM30.4032 17.8466C30.8881 18.371 30.9698 18.9194 30.6873 19.3778L31.1129 19.6401C31.5465 18.9367 31.3597 18.1446 30.7703 17.5072L30.4032 17.8466ZM21.7271 9.05126C24.6367 11.956 27.544 14.8584 30.4061 17.8497L30.7674 17.5041C27.9006 14.5079 24.9893 11.6015 22.0804 8.69741L21.7271 9.05126ZM21.7289 9.05301L21.729 9.05313L22.0785 8.69554L22.0784 8.69542L21.7289 9.05301ZM21.4966 8.85891C21.6096 8.93417 21.6851 9.00925 21.727 9.05114L22.0803 8.69729C22.0327 8.64981 21.9291 8.54615 21.7736 8.44268L21.4966 8.85891ZM21.7231 8.935C21.7574 8.88926 21.7812 8.85817 21.8117 8.82771L21.4585 8.47388C21.3994 8.53279 21.3561 8.59106 21.3233 8.63469L21.7231 8.935ZM21.5879 9.09582C21.6469 9.03691 21.6903 8.97863 21.7231 8.93501L21.3233 8.63468C21.2889 8.68043 21.2652 8.71152 21.2347 8.74197L21.5879 9.09582ZM20.7874 9.90061C21.0532 9.63243 21.3192 9.36409 21.5879 9.09582L21.2347 8.74197C20.9649 9.01132 20.698 9.28059 20.4323 9.54862L20.7874 9.90061ZM20.7866 9.90142L20.7866 9.90139L20.4331 9.54783L20.433 9.54786L20.7866 9.90142ZM20.7866 9.90144L20.7866 9.90142L20.433 9.54786L20.433 9.54789L20.7866 9.90144ZM20.7865 9.90147L20.7866 9.90144L20.433 9.54789L20.433 9.54792L20.7865 9.90147ZM20.7865 9.9015L20.7865 9.90147L20.433 9.54792L20.433 9.54795L20.7865 9.9015ZM20.7865 9.90153L20.7865 9.9015L20.433 9.54795L20.4329 9.54798L20.7865 9.90153ZM18.3578 12.2756C19.2013 11.5009 19.9935 10.7015 20.7873 9.90075L20.4322 9.54876C19.6371 10.3509 18.853 11.1419 18.0196 11.9073L18.3578 12.2756ZM10.2504 11.5328C12.3043 14.096 15.9618 14.48 18.3579 12.2754L18.0194 11.9075C15.8502 13.9032 12.5254 13.5723 10.6406 11.2202L10.2504 11.5328ZM13.7608 7.75809C12.5971 8.90876 11.4338 10.0589 10.2706 11.1979L10.6204 11.5551C11.7846 10.4152 12.9487 9.26417 14.1124 8.11364L13.7608 7.75809ZM17.2529 4.31657C16.0886 5.45651 14.9245 6.60755 13.7608 7.75809L14.1124 8.11364C15.2762 6.96296 16.4395 5.81278 17.6027 4.67384L17.2529 4.31657ZM4.20651 5.75356C7.1143 1.50747 13.598 0.98162 17.2501 4.67108L17.6055 4.31933C13.7382 0.412552 6.88381 0.959114 3.79397 5.47104L4.20651 5.75356ZM3.42876 14.1934C2.33151 11.2577 2.38272 8.39797 4.20604 5.75424L3.79444 5.47036C1.85804 8.27805 1.81973 11.3166 2.96041 14.3685L3.42876 14.1934ZM6.22221 18.113C4.95234 17.0201 3.99435 15.7136 3.42889 14.1938L2.96028 14.3681C3.55854 15.9762 4.56993 17.3507 5.89605 18.492L6.22221 18.113ZM8.16518 15.8467L5.8825 18.1256L6.23576 18.4794L8.51844 16.2005L8.16518 15.8467ZM11.2315 15.0686C10.6596 14.9021 10.1105 14.8749 9.59046 15.0047C9.07013 15.1345 8.595 15.4176 8.16518 15.8467L8.51844 16.2005C8.89428 15.8253 9.29194 15.5945 9.71154 15.4898C10.1314 15.385 10.5894 15.4025 11.0917 15.5487L11.2315 15.0686ZM13.463 17.3481C13.1718 16.1851 12.3866 15.405 11.2315 15.0686L11.0917 15.5487C12.085 15.8379 12.7321 16.4877 12.978 17.4695L13.463 17.3481ZM13.5677 17.9431C13.5487 17.7596 13.5266 17.5362 13.4576 17.3296L12.9834 17.488C13.0318 17.6331 13.0502 17.7998 13.0703 17.9946L13.5677 17.9431ZM13.6014 18.2166C13.5875 18.1334 13.5781 18.0439 13.5677 17.9431L13.0703 17.9946C13.0804 18.0922 13.0913 18.1977 13.1082 18.299L13.6014 18.2166ZM15.731 18.9812C15.0933 18.2956 14.261 18.0078 13.3548 18.0078V18.5078C14.1494 18.5078 14.8389 18.7562 15.3649 19.3217L15.731 18.9812ZM16.6927 21.3271C16.6458 20.4836 16.4083 19.6572 15.7246 18.9746L15.3713 19.3284C15.9408 19.8969 16.1509 20.5897 16.1935 21.3549L16.6927 21.3271ZM19.8708 24.476C19.8949 23.6348 19.6179 22.8099 19.0381 22.1823C18.4564 21.5527 17.5855 21.1383 16.4535 21.0912L16.4327 21.5908C17.4491 21.633 18.1895 22.0006 18.6708 22.5216C19.154 23.0446 19.3917 23.7389 19.3711 24.4617L19.8708 24.476ZM32.1975 17.0078C32.421 17.1197 32.421 17.1198 32.421 17.1198C32.421 17.1198 32.421 17.1199 32.421 17.1199C32.4209 17.12 32.4209 17.12 32.4209 17.1201C32.4208 17.1202 32.4208 17.1203 32.4207 17.1204C32.4206 17.1206 32.4205 17.1208 32.4204 17.1209C32.4203 17.1212 32.4202 17.1215 32.4201 17.1217C32.4199 17.1221 32.4198 17.1222 32.4198 17.1222C32.4199 17.122 32.4203 17.1212 32.4211 17.1199C32.4228 17.1169 32.4245 17.1144 32.4254 17.1133C32.4273 17.1107 32.4227 17.1178 32.4102 17.1277C32.4012 17.1349 32.3577 17.1684 32.287 17.1684V16.6684C32.194 16.6684 32.1281 16.7131 32.0981 16.737C32.0647 16.7638 32.0404 16.7932 32.0256 16.8129C32.0097 16.8341 31.9974 16.8539 31.9894 16.8677C31.9852 16.8748 31.9818 16.881 31.9792 16.8857C31.978 16.8881 31.9769 16.8902 31.976 16.8919C31.9756 16.8927 31.9752 16.8935 31.9748 16.8941C31.9747 16.8945 31.9745 16.8948 31.9744 16.8951C31.9743 16.8952 31.9742 16.8953 31.9742 16.8955C31.9741 16.8955 31.9741 16.8956 31.9741 16.8956C31.9741 16.8957 31.974 16.8957 31.974 16.8957C31.974 16.8958 31.974 16.8958 32.1975 17.0078ZM29.4037 14.6161C30.2655 15.4655 31.1388 16.3262 32.0231 17.1869L32.3719 16.8286C31.4889 15.9691 30.6166 15.1095 29.7547 14.26L29.4037 14.6161ZM26.7865 12.0484C27.6471 12.885 28.5193 13.7445 29.4037 14.6161L29.7547 14.26C28.8705 13.3886 27.9971 12.5279 27.135 11.6899L26.7865 12.0484ZM22.3083 7.5777L26.7841 12.0461L27.1374 11.6922L22.6615 7.22385L22.3083 7.5777ZM21.095 7.5777C21.4095 7.26371 21.5789 7.1816 21.7016 7.1816C21.8244 7.1816 21.9938 7.26371 22.3083 7.5777L22.6616 7.22385C22.3494 6.91227 22.0489 6.6816 21.7016 6.6816C21.3544 6.6816 21.0539 6.91227 20.7417 7.22385L21.095 7.5777ZM19.8947 8.78599C20.2925 8.38389 20.6913 7.98075 21.095 7.5777L20.7417 7.22385C20.3367 7.62818 19.9368 8.03243 19.5392 8.43436L19.8947 8.78599ZM19.8941 8.78663L19.8944 8.78626L19.5395 8.43409L19.5391 8.43446L19.8941 8.78663ZM19.8933 8.78735L19.8934 8.78732L19.5398 8.43377L19.5398 8.4338L19.8933 8.78735ZM19.8932 8.7875L19.8933 8.78735L19.5398 8.4338L19.5396 8.43394L19.8932 8.7875ZM19.8931 8.78759L19.8932 8.7875L19.5396 8.43394L19.5395 8.43404L19.8931 8.78759ZM19.8931 8.78762L19.8931 8.78759L19.5395 8.43404L19.5395 8.43407L19.8931 8.78762ZM19.893 8.78766L19.8931 8.78762L19.5395 8.43407L19.5395 8.4341L19.893 8.78766ZM17.511 11.1557C18.3175 10.3804 19.1037 9.58553 19.894 8.7867L19.5385 8.43506C18.7475 9.23464 17.9657 10.025 17.1644 10.7953L17.511 11.1557ZM12.5351 11.6687C13.9895 12.7334 16.1383 12.4788 17.5112 11.1555L17.1642 10.7955C15.9411 11.9744 14.0617 12.1666 12.8305 11.2653L12.5351 11.6687ZM12.4328 11.3776V11.467H12.9328V11.3776H12.4328ZM14.7645 8.9476C14.0189 9.69932 13.2723 10.4521 12.5081 11.1988L12.8575 11.5564C13.625 10.8066 14.3744 10.051 15.1195 9.2997L14.7645 8.9476ZM18.7355 5.07153C17.364 6.32662 16.0659 7.6355 14.7645 8.9476L15.1195 9.2997C16.4223 7.9862 17.7119 6.68596 19.073 5.44038L18.7355 5.07153ZM29.7179 3.56015C26.3107 1.76742 21.6759 2.36532 18.7349 5.072L19.0735 5.43991C21.8617 2.87391 26.2681 2.31003 29.4851 4.00264L29.7179 3.56015ZM34.3244 10.1772C33.866 7.24871 32.3916 4.94076 29.7162 3.55926L29.4868 4.00352C32.0034 5.30305 33.3935 7.46348 33.8304 10.2545L34.3244 10.1772ZM32.7627 16.7009C34.0911 14.7345 34.6934 12.5717 34.3245 10.1778L33.8303 10.2539C34.1775 12.5072 33.616 14.5446 32.3484 16.421L32.7627 16.7009ZM32.6164 16.896C32.6606 16.8408 32.7119 16.7771 32.7635 16.6998L32.3477 16.4221C32.3098 16.4789 32.2715 16.5268 32.2262 16.5833L32.6164 16.896ZM32.6147 16.8981L32.6148 16.898L32.2278 16.5814L32.2278 16.5814L32.6147 16.8981ZM32.4949 17.0573C32.5328 17.0005 32.5711 16.9526 32.6164 16.8961L32.2262 16.5834C32.1819 16.6386 32.1307 16.7023 32.0791 16.7796L32.4949 17.0573ZM13.248 20.0563C13.3288 20.03 13.428 19.9983 13.511 19.9569L13.2877 19.5095C13.2449 19.5309 13.1851 19.551 13.0932 19.5809L13.248 20.0563ZM12.8392 20.2413C12.9431 20.1584 13.0811 20.1107 13.248 20.0563L13.0932 19.5809C12.9413 19.6304 12.7137 19.7017 12.5272 19.8506L12.8392 20.2413ZM10.4524 22.6258C11.2072 21.7837 12.0063 20.9859 12.8498 20.2324L12.5167 19.8595C11.6594 20.6253 10.8472 21.4362 10.0801 22.2921L10.4524 22.6258ZM10.6147 24.1965C10.1187 23.7394 10.062 23.0865 10.457 22.6206L10.0755 22.2973C9.48581 22.9931 9.60814 23.9488 10.2759 24.5642L10.6147 24.1965ZM12.2011 24.2406C11.7607 24.6436 11.0626 24.6433 10.6219 24.2034L10.2687 24.5572C10.9022 25.1897 11.9049 25.1894 12.5387 24.6094L12.2011 24.2406ZM14.4259 22.0193C13.7133 22.7753 12.9559 23.5313 12.1987 24.2428L12.5411 24.6072C13.3057 23.8888 14.0701 23.1256 14.7897 22.3623L14.4259 22.0193ZM14.6495 20.7318C14.7668 20.9855 14.7989 21.2135 14.7642 21.4171C14.7296 21.6202 14.6247 21.8207 14.4312 22.0139L14.7845 22.3677C15.0386 22.1141 15.2022 21.823 15.2571 21.5011C15.3119 21.1797 15.2546 20.8492 15.1033 20.522L14.6495 20.7318ZM13.3702 19.9815C13.7291 20.0237 13.9933 20.1058 14.1933 20.2265C14.3894 20.3449 14.5375 20.5086 14.6529 20.7388L15.0999 20.5149C14.9467 20.209 14.7368 19.9705 14.4517 19.7984C14.1705 19.6287 13.8305 19.5321 13.4285 19.4849L13.3702 19.9815ZM18.2328 24.1304C18.2623 24.1304 18.2832 24.1375 18.2926 24.1412C18.3025 24.1452 18.3083 24.1489 18.3098 24.1499C18.3117 24.1512 18.3127 24.1521 18.3135 24.1527C18.314 24.1532 18.3147 24.1538 18.3157 24.1547C18.3162 24.1552 18.3168 24.1557 18.3175 24.1564C18.3178 24.1567 18.3182 24.1571 18.3186 24.1575C18.3188 24.1577 18.319 24.1579 18.3192 24.1581C18.3193 24.1582 18.3194 24.1583 18.3196 24.1584C18.3196 24.1585 18.3197 24.1586 18.3197 24.1586C18.3198 24.1586 18.3198 24.1587 18.3198 24.1587C18.3199 24.1587 18.3199 24.1588 18.1433 24.3357C17.9666 24.5126 17.9667 24.5127 17.9667 24.5127C17.9667 24.5127 17.9668 24.5128 17.9668 24.5128C17.9669 24.5129 17.9669 24.5129 17.967 24.513C17.9671 24.5131 17.9672 24.5132 17.9674 24.5133C17.9676 24.5136 17.9679 24.5139 17.9682 24.5142C17.9688 24.5147 17.9694 24.5153 17.9701 24.516C17.9714 24.5173 17.973 24.5188 17.9748 24.5205C17.9784 24.5239 17.983 24.528 17.9884 24.5326C17.999 24.5417 18.014 24.5537 18.0327 24.5662C18.062 24.5856 18.1354 24.6304 18.2328 24.6304V24.1304ZM18.1654 25.0061C18.2567 24.8239 18.3376 24.6634 18.4361 24.5259L18.0295 24.2349C17.9041 24.4101 17.8061 24.607 17.7184 24.7822L18.1654 25.0061ZM18.1562 25.0228L18.1563 25.0228L17.7275 24.7656L17.7275 24.7656L18.1562 25.0228ZM18.1562 25.0229L18.1562 25.0228L17.7275 24.7656L17.7275 24.7656L18.1562 25.0229ZM17.8542 25.5536C17.9796 25.3784 18.0776 25.1814 18.1654 25.0062L17.7183 24.7823C17.6271 24.9645 17.5461 25.125 17.4476 25.2626L17.8542 25.5536ZM15.7629 27.6461C16.4829 26.9722 17.1581 26.2981 17.8332 25.5792L17.4687 25.237C16.801 25.948 16.1334 26.6145 15.4212 27.281L15.7629 27.6461ZM13.3117 27.6405C13.6661 27.9942 14.0969 28.1827 14.5402 28.1827C14.9836 28.1827 15.4143 27.9942 15.7687 27.6405L15.4154 27.2866C15.1431 27.5585 14.8354 27.6827 14.5402 27.6827C14.245 27.6827 13.9373 27.5585 13.665 27.2866L13.3117 27.6405ZM13.4013 25.2312C12.6831 25.9481 12.6731 26.9501 13.3048 27.6333L13.6719 27.2938C13.2294 26.8152 13.2194 26.1192 13.7545 25.585L13.4013 25.2312ZM15.5107 23.1254C14.7907 23.7994 14.0707 24.5181 13.3957 25.237L13.7601 25.5792C14.4278 24.8682 15.1402 24.1571 15.8524 23.4905L15.5107 23.1254ZM17.3527 22.8128C17.0251 22.6619 16.6942 22.6047 16.3726 22.6594C16.0504 22.7141 15.759 22.8774 15.5049 23.1311L15.8582 23.4849C16.0517 23.2917 16.2526 23.1869 16.4563 23.1523C16.6606 23.1176 16.8892 23.1498 17.1435 23.2669L17.3527 22.8128ZM18.3933 24.3357C18.3933 23.9801 18.3037 23.6604 18.1193 23.3945C17.9351 23.1289 17.6674 22.9331 17.3377 22.8065L17.1585 23.2733C17.4106 23.3701 17.5905 23.5094 17.7084 23.6794C17.8262 23.8492 17.8933 24.0657 17.8933 24.3357H18.3933ZM17.1657 30.628C16.7267 30.4454 16.4123 29.9961 16.3324 29.4383L15.8375 29.5091C15.9367 30.2024 16.3384 30.8254 16.9736 31.0897L17.1657 30.628ZM18.4596 30.3692C18.2664 30.562 18.064 30.6686 17.8563 30.7083C17.6476 30.7482 17.4155 30.7239 17.1593 30.6255L16.98 31.0923C17.3057 31.2173 17.633 31.26 17.9502 31.1994C18.2685 31.1385 18.5584 30.977 18.8128 30.723L18.4596 30.3692ZM19.1841 29.6557C18.9406 29.8938 18.6977 30.1314 18.4596 30.3692L18.8128 30.723C19.0488 30.4874 19.2899 30.2516 19.5337 30.0131L19.1841 29.6557ZM19.1821 29.6576L19.1821 29.6576L19.5357 30.0112L19.5357 30.0112L19.1821 29.6576ZM20.6475 28.1851C20.1724 28.6889 19.677 29.1736 19.1841 29.6557L19.5337 30.0131C20.0254 29.5322 20.5282 29.0405 21.0113 28.5281L20.6475 28.1851ZM20.6527 26.5674C21.0974 27.0113 21.1315 27.7017 20.6527 28.1796L21.006 28.5335C21.6909 27.8497 21.6356 26.8421 21.006 26.2136L20.6527 26.5674ZM18.9919 26.5227C19.4659 26.0495 20.1579 26.0734 20.6527 26.5674L21.006 26.2136C20.3371 25.5458 19.3283 25.4803 18.6386 26.1689L18.9919 26.5227ZM16.804 28.7068C17.5166 27.9509 18.2292 27.2395 18.9864 26.528L18.644 26.1636C17.8795 26.882 17.1598 27.6005 16.4402 28.3638L16.804 28.7068ZM16.4776 29.2629C16.5897 29.039 16.6867 28.848 16.814 28.6955L16.4301 28.3751C16.259 28.5801 16.1372 28.826 16.0305 29.039L16.4776 29.2629ZM16.3019 29.5979C16.3657 29.4865 16.4234 29.371 16.4776 29.2629L16.0305 29.039C15.9753 29.1493 15.9236 29.2523 15.868 29.3495L16.3019 29.5979ZM6.5272 20.2125C6.62666 20.9571 6.98526 21.4798 7.60327 21.7883L7.82658 21.3409C7.37039 21.1132 7.10238 20.7421 7.0228 20.1463L6.5272 20.2125ZM6.58124 19.9962C6.569 20.0251 6.55711 20.0532 6.54527 20.0808L7.00473 20.278C7.0171 20.2492 7.02944 20.2201 7.0416 20.1914L6.58124 19.9962ZM7.15221 19.0935C6.85288 19.3425 6.69901 19.7184 6.58124 19.9962L7.0416 20.1914C7.17016 19.888 7.28266 19.6354 7.47199 19.4779L7.15221 19.0935ZM8.744 17.4527C8.19684 17.9906 7.63577 18.542 7.12478 19.1201L7.49942 19.4513C7.99681 18.8885 8.54509 18.3494 9.09451 17.8093L8.744 17.4527ZM9.28388 16.9193C9.10635 17.0965 8.92593 17.2739 8.744 17.4527L9.09451 17.8093C9.2762 17.6307 9.458 17.452 9.63714 17.2731L9.28388 16.9193ZM11.6513 16.964C10.9824 16.2962 9.97357 16.2307 9.28388 16.9193L9.63714 17.2731C10.1112 16.7999 10.8032 16.8238 11.298 17.3178L11.6513 16.964ZM11.6513 19.2839C12.3362 18.6001 12.2808 17.5925 11.6513 16.964L11.298 17.3178C11.7426 17.7617 11.7768 18.4521 11.298 18.93L11.6513 19.2839ZM10.9402 20.0036C11.1791 19.7602 11.4153 19.5195 11.6513 19.2839L11.298 18.93C11.0599 19.1678 10.8219 19.4103 10.5834 19.6533L10.9402 20.0036ZM9.45266 21.4787C9.96597 20.9964 10.4585 20.4945 10.9402 20.0036L10.5834 19.6533C10.1004 20.1454 9.61498 20.6401 9.11029 21.1143L9.45266 21.4787ZM7.61031 21.7916C7.93792 21.9426 8.26878 21.9997 8.59044 21.9451C8.91258 21.8903 9.204 21.7271 9.4581 21.4734L9.10485 21.1195C8.91136 21.3127 8.71044 21.4175 8.50667 21.4522C8.30241 21.4869 8.0738 21.4547 7.81955 21.3375L7.61031 21.7916Z" fill="#1E88E5"/>
<path fill-rule="evenodd" clip-rule="evenodd" d="M94.8291 20.5789V28.542H92.6287V4.07007H94.8291V20.2229H94.9262L101.916 13.3927H105.087L97.4502 20.32L105.864 28.542H102.628L94.9262 20.5789H94.8291ZM53.2333 28.5422C54.7003 28.5422 56.1349 28.2994 57.5371 27.8138C58.9393 27.3283 60.2229 26.6269 61.3878 25.7098C62.5528 24.7926 63.4912 23.5841 64.2031 22.0843C64.915 20.5845 65.2709 18.9174 65.2709 17.0831C65.2709 15.2488 64.915 13.5817 64.2031 12.0819C63.4912 10.582 62.5528 9.37354 61.3878 8.45638C60.2229 7.53922 58.9393 6.83786 57.5371 6.35231C56.1349 5.86675 54.7003 5.62397 53.2333 5.62397H45.6289V28.5422H53.2333ZM52.5862 26.4703H47.9588V7.69546H52.5862C54.2473 7.69546 55.7412 7.95982 57.0679 8.48853C58.3946 9.01725 59.4679 9.72939 60.2876 10.625C61.1074 11.5206 61.733 12.5186 62.1645 13.6192C62.5959 14.7198 62.8117 15.8744 62.8117 17.0829C62.8117 18.2913 62.5959 19.4459 62.1645 20.5465C61.733 21.6471 61.1074 22.6452 60.2876 23.5407C59.4679 24.4363 58.3946 25.1485 57.0679 25.6772C55.7412 26.2059 54.2473 26.4703 52.5862 26.4703ZM71.2779 8.66584C70.9651 8.96797 70.6038 9.11903 70.1939 9.11903C69.784 9.11903 69.4226 8.96797 69.1098 8.66584C68.797 8.36372 68.6406 7.99686 68.6406 7.56525C68.6406 7.13365 68.797 6.76678 69.1098 6.46466C69.4226 6.16254 69.784 6.01147 70.1939 6.01147C70.6038 6.01147 70.9597 6.16254 71.2617 6.46466C71.5853 6.76678 71.7471 7.13365 71.7471 7.56525C71.7471 7.99686 71.5907 8.36372 71.2779 8.66584ZM71.2936 28.5416V13.3923H69.0932V28.5416H71.2936ZM85.8278 26.0811C84.5119 27.9801 82.6782 28.9297 80.3268 28.9297C78.9677 28.9297 77.7542 28.5466 76.6863 27.7805C75.6185 27.0144 75.0846 25.8653 75.0846 24.3331C75.0846 23.5778 75.214 22.9142 75.4729 22.3423C75.7318 21.7704 76.1201 21.3011 76.6378 20.9342C77.1556 20.5673 77.7164 20.2706 78.3205 20.044C78.9245 19.8174 79.6688 19.6448 80.5533 19.5261C81.4378 19.4074 82.2629 19.3319 83.0288 19.2995C83.7946 19.2671 84.706 19.2509 85.7631 19.2509V18.7654C85.7631 16.1542 84.4148 14.8486 81.7182 14.8486C79.9061 14.8486 78.4068 15.442 77.2203 16.6289L75.9906 15.1723C77.436 13.7264 79.4207 13.0035 81.9447 13.0035C83.6705 13.0035 85.0836 13.4782 86.1838 14.4278C87.284 15.3773 87.8341 16.7368 87.8341 18.5064V25.1423C87.8341 26.5019 87.9204 27.6349 88.093 28.5412H86.1191C85.968 27.678 85.8925 26.858 85.8925 26.0811H85.8278ZM80.9095 27.1165C79.9172 27.1165 79.0758 26.8845 78.3855 26.4206C77.6952 25.9566 77.35 25.2283 77.35 24.2356C77.35 23.545 77.5765 22.9731 78.0295 22.5199C78.4826 22.0668 79.1136 21.7323 79.9226 21.5165C80.7315 21.3007 81.5405 21.155 82.3495 21.0795C83.1585 21.0039 84.0807 20.9662 85.1162 20.9662H85.7634V22.0991C85.7634 23.5018 85.3265 24.6887 84.4528 25.6599C83.5791 26.631 82.398 27.1165 80.9095 27.1165ZM112.049 28.9297C114.401 28.9297 116.234 27.9801 117.55 26.0811H117.615C117.615 26.858 117.691 27.678 117.842 28.5412H119.815C119.643 27.6349 119.557 26.5019 119.557 25.1423V18.5064C119.557 16.7368 119.006 15.3773 117.906 14.4278C116.806 13.4782 115.393 13.0035 113.667 13.0035C111.143 13.0035 109.158 13.7264 107.713 15.1723L108.943 16.6289C110.129 15.442 111.629 14.8486 113.441 14.8486C116.137 14.8486 117.486 16.1542 117.486 18.7654V19.2509C116.429 19.2509 115.517 19.2671 114.751 19.2995C113.985 19.3319 113.16 19.4074 112.276 19.5261C111.391 19.6448 110.647 19.8174 110.043 20.044C109.439 20.2706 108.878 20.5673 108.36 20.9342C107.843 21.3011 107.454 21.7704 107.195 22.3423C106.936 22.9142 106.807 23.5778 106.807 24.3331C106.807 25.8653 107.341 27.0144 108.409 27.7805C109.477 28.5466 110.69 28.9297 112.049 28.9297ZM110.108 26.4206C110.798 26.8845 111.64 27.1165 112.632 27.1165C114.12 27.1165 115.302 26.631 116.175 25.6599C117.049 24.6887 117.486 23.5018 117.486 22.0991V20.9662H116.839C115.803 20.9662 114.881 21.0039 114.072 21.0795C113.263 21.155 112.454 21.3007 111.645 21.5165C110.836 21.7323 110.205 22.0668 109.752 22.5199C109.299 22.9731 109.072 23.545 109.072 24.2356C109.072 25.2283 109.418 25.9566 110.108 26.4206Z" fill="#004887"/>
</svg>
