<svg width="171" height="161" viewBox="0 0 171 161" fill="none" xmlns="http://www.w3.org/2000/svg">
<g opacity="0.1">
<path fill-rule="evenodd" clip-rule="evenodd" d="M54.4312 5.01917L55.7698 5.06824C66.419 5.55081 75.64 8.20796 83.5534 14.0013L84.5357 14.7419L85.4395 15.4602L86.3453 14.7419C94.1614 8.67654 103.284 5.79688 113.834 5.13701L115.161 5.06602L116.45 5.01916C142.28 4.29951 164.558 23.9367 165.822 49.3523C166.334 59.624 163.341 69.5684 157.503 78.0619L157.329 78.3059L157.627 78.9595C160.386 85.3671 159.939 92.2508 156.022 97.3838L155.554 97.9681L155.056 98.5362L154.623 99.0076L154.588 99.0053L154.421 99.1838C151.661 101.913 148.202 103.578 144.464 104.19L143.596 104.313L143.168 104.353L143.144 104.677C142.764 108.281 141.364 111.688 139.055 114.48L138.507 115.114L137.926 115.724C135.067 118.6 131.378 120.404 127.468 120.951L126.627 121.049L126.298 121.07L126.278 121.367C125.942 125.051 124.525 128.557 122.16 131.426L121.597 132.077L121.002 132.704C117.734 135.991 113.383 137.877 108.857 138.088L107.958 138.105L107.672 138.783C107.036 140.186 106.243 141.488 105.292 142.668L104.703 143.362L104.076 144.025L98.4358 149.684C94.9638 153.176 90.2689 155.088 85.4405 155.088C80.6121 155.088 75.9172 153.176 72.4465 149.685C69.5875 146.817 67.8054 143.129 67.2655 139.194L67.1689 138.347L67.1463 138.05L66.8194 138.029C63.1626 137.688 59.659 136.253 56.7962 133.871L56.1472 133.305L55.5222 132.705C52.6631 129.837 50.8811 126.149 50.3412 122.214L50.2446 121.367L50.2236 121.07L49.895 121.049C46.2383 120.709 42.7347 119.273 39.8719 116.891L39.2228 116.325L38.5979 115.725C35.7388 112.857 33.9568 109.169 33.4169 105.234L33.3202 104.388L33.298 104.091L32.9707 104.069C29.314 103.729 25.8104 102.293 22.9476 99.9114L22.2985 99.345L21.6736 98.7454C17.6434 94.702 15.7994 89.0493 16.4757 83.4604L16.5941 82.6353L14.9854 80.638L14.8328 80.4692C8.02275 71.7033 4.49182 60.7305 5.05918 49.3526C6.30712 24.2466 28.0611 4.77932 53.4878 5.0019L54.4312 5.01917ZM91.0819 126.755C90.1326 126.755 89.2063 127.091 88.4396 127.727L88.1212 128.018L82.4798 133.678C80.8028 135.361 80.8028 137.912 82.476 139.591C83.299 140.41 84.3185 140.825 85.4405 140.825C86.4221 140.825 87.323 140.508 88.0755 139.883L88.3887 139.596L88.8155 139.166L88.8252 139.165L94.0426 133.934C95.6148 132.357 95.7131 130.016 94.3369 128.343L94.042 128.018C93.222 127.194 92.167 126.755 91.0819 126.755ZM19.2435 50.0642C18.8961 57.0313 20.7459 63.6751 24.4535 69.3723L24.6486 69.6619L27.3143 66.9884C30.5783 63.7094 34.9063 61.8458 39.4539 61.6379L40.309 61.6183C45.1664 61.6183 49.8356 63.5045 53.303 66.9877C56.3739 70.0688 58.2022 74.0952 58.5835 78.357L58.6018 78.6504L58.9382 78.6761C62.8904 79.0383 66.6341 80.6566 69.6031 83.3695L70.2273 83.9676C73.2983 87.0486 75.1265 91.0751 75.5078 95.3369L75.5274 95.6326L75.8625 95.656C79.8147 96.0181 83.5584 97.6364 86.5274 100.349L87.1516 100.947C90.2226 104.029 92.0508 108.055 92.4321 112.317L92.45 112.612L92.7868 112.636C96.7391 112.998 100.483 114.616 103.452 117.329L104.076 117.927C105.54 119.397 106.716 121.106 107.6 123.002L107.964 123.843L108.006 123.845C108.988 123.845 109.889 123.528 110.644 122.9L110.958 122.612C112.537 121.036 112.638 118.697 111.361 117.113L111.087 116.806L110.887 116.628L90.5679 95.2071L100.862 85.3801L118.587 104.065C120.265 105.748 121.331 106.503 122.063 106.78L122.311 106.858L122.498 106.884C122.551 106.888 122.618 106.89 122.709 106.89L123.618 106.878C124.085 106.869 124.473 106.865 124.931 106.865C126.052 106.865 127.069 106.451 127.883 105.632C129.461 104.056 129.562 101.717 128.285 100.133L128.012 99.8264L127.811 99.6481L107.492 78.2272L117.787 68.4L137.14 88.813C137.359 89.0685 139.335 90.0739 140.597 90.2272C142.246 90.4276 143.257 90.1817 144.297 89.1919L144.609 88.8636C146.321 87.0003 146.471 84.7282 145.108 83.0722L144.782 82.7155L112.42 49.4962C109.97 46.9798 106.176 46.8018 103.53 49.0029L103.142 49.3509L87.1503 64.7982C83.6739 68.2771 78.9761 70.1883 74.1576 70.1883C69.3293 70.1883 64.6346 68.2769 61.1636 64.7858C54.2071 57.8064 54.0332 46.4324 60.6419 39.2332L61.2142 38.6374L74.9791 25.2817L74.7972 25.1472C69.4458 21.3304 63.3527 19.6795 55.208 19.3234L54.0308 19.2813C35.7674 18.7724 20.1173 32.4868 19.2435 50.0642ZM74.1576 109.775C73.2082 109.775 72.2819 110.111 71.5153 110.747L71.1969 111.038L65.5555 116.698C63.8785 118.381 63.8785 120.932 65.5517 122.611C66.3747 123.43 67.3942 123.845 68.5162 123.845C69.4978 123.845 70.3987 123.528 71.1512 122.903L71.4644 122.616L71.8912 122.187L71.9026 122.186L77.1183 116.955C78.6905 115.377 78.7888 113.036 77.4126 111.363L77.1177 111.038C76.2977 110.214 75.2427 109.775 74.1576 109.775ZM57.2333 92.795C56.2838 92.795 55.3574 93.1312 54.5909 93.7674L54.2726 94.0584L48.6311 99.7184C46.9541 101.401 46.9541 103.952 48.6274 105.631C49.4504 106.451 50.4698 106.865 51.5919 106.865C52.5735 106.865 53.4743 106.548 54.2269 105.923L54.5401 105.636L54.9669 105.207L54.9799 105.204L60.194 99.9746C61.7662 98.3973 61.8645 96.0564 60.4882 94.3831L60.1933 94.0578C59.3734 93.2341 58.3184 92.795 57.2333 92.795ZM40.309 75.8151C39.3596 75.8151 38.4331 76.1513 37.6666 76.7875L37.3483 77.0785L31.7069 82.7385C30.0298 84.421 30.0298 86.9722 31.7031 88.6509C32.5261 89.4707 33.5455 89.885 34.6676 89.885C35.6491 89.885 36.5498 89.5682 37.3026 88.9429L37.6159 88.656L38.0427 88.2268L38.0544 88.2245L43.2697 82.9947C44.8419 81.4174 44.9402 79.0765 43.564 77.4032L43.269 77.0779C42.4491 76.2542 41.3941 75.8151 40.309 75.8151ZM117.718 19.2677L116.851 19.2812C106.35 19.5767 99.0847 21.8476 92.7916 27.8274L71.1969 48.7787C69.5199 50.4612 69.5199 53.0124 71.1932 54.6912C72.0162 55.5109 73.0356 55.9252 74.1576 55.9252C75.1379 55.9252 76.0481 55.6049 76.9089 54.8897L77.1824 54.6421L93.3023 39.0772C101.297 31.3575 114.05 31.3686 122.028 38.975L122.577 39.518L148.027 65.6503L148.247 65.225C150.54 60.5587 151.72 55.9349 151.671 51.1669L151.637 50.0639C150.791 33.0447 136.092 19.647 118.581 19.2754L117.718 19.2677Z" fill="white"/>
<path d="M54.4312 5.01917L54.6143 0.0225286L54.5685 0.0208502L54.5227 0.0200114L54.4312 5.01917ZM55.7698 5.06824L55.9961 0.0733643L55.9745 0.0723858L55.9529 0.0715938L55.7698 5.06824ZM83.5534 14.0013L86.5632 10.0087L86.5352 9.98761L86.5069 9.96689L83.5534 14.0013ZM84.5357 14.7419L87.6468 10.8276L87.5967 10.7878L87.5456 10.7493L84.5357 14.7419ZM85.4395 15.4602L82.3285 19.3745L85.4362 21.8445L88.5465 19.3777L85.4395 15.4602ZM86.3453 14.7419L83.28 10.7917L83.2591 10.8079L83.2383 10.8243L86.3453 14.7419ZM113.834 5.13701L113.567 0.14416L113.545 0.145361L113.522 0.146763L113.834 5.13701ZM115.161 5.06602L114.979 0.0693164L114.936 0.0708742L114.893 0.0731678L115.161 5.06602ZM116.45 5.01916L116.311 0.0211015L116.29 0.0216908L116.269 0.022459L116.45 5.01916ZM165.822 49.3523L160.828 49.6006L160.828 49.6013L165.822 49.3523ZM157.503 78.0619L161.576 80.9625L161.6 80.9285L161.624 80.8942L157.503 78.0619ZM157.329 78.3059L153.257 75.4053L151.585 77.7524L152.778 80.3755L157.329 78.3059ZM157.627 78.9595L162.219 76.982L162.199 76.9358L162.178 76.89L157.627 78.9595ZM156.022 97.3838L159.926 100.507L159.962 100.463L159.996 100.417L156.022 97.3838ZM155.554 97.9681L159.313 101.266L159.387 101.18L159.458 101.092L155.554 97.9681ZM155.056 98.5362L158.739 101.918L158.777 101.876L158.814 101.834L155.056 98.5362ZM154.623 99.0076L154.3 103.997L156.688 104.152L158.306 102.389L154.623 99.0076ZM154.588 99.0053L154.911 94.0157L152.552 93.8631L150.937 95.5895L154.588 99.0053ZM154.421 99.1838L157.937 102.739L158.006 102.671L158.073 102.6L154.421 99.1838ZM144.464 104.19L145.163 109.141L145.217 109.133L145.271 109.124L144.464 104.19ZM143.596 104.313L144.067 109.29L144.182 109.28L144.296 109.263L143.596 104.313ZM143.168 104.353L142.698 99.3753L138.498 99.7725L138.182 103.979L143.168 104.353ZM143.144 104.677L148.117 105.201L148.125 105.126L148.13 105.051L143.144 104.677ZM139.055 114.48L142.834 117.755L142.872 117.711L142.909 117.666L139.055 114.48ZM138.507 115.114L142.129 118.56L142.209 118.476L142.285 118.388L138.507 115.114ZM137.926 115.724L141.472 119.249L141.51 119.21L141.548 119.17L137.926 115.724ZM127.468 120.951L128.047 125.918L128.104 125.911L128.161 125.903L127.468 120.951ZM126.627 121.049L126.951 126.039L127.079 126.03L127.206 126.015L126.627 121.049ZM126.298 121.07L125.975 116.081L121.609 116.364L121.31 120.728L126.298 121.07ZM126.278 121.367L131.257 121.821L131.262 121.766L131.266 121.71L126.278 121.367ZM122.16 131.426L125.942 134.697L125.981 134.652L126.018 134.607L122.16 131.426ZM121.597 132.077L125.221 135.522L125.302 135.437L125.38 135.347L121.597 132.077ZM121.002 132.704L124.547 136.229L124.587 136.189L124.625 136.149L121.002 132.704ZM108.857 138.088L108.954 143.087L109.022 143.086L109.089 143.083L108.857 138.088ZM107.958 138.105L107.861 133.106L104.617 133.17L103.353 136.158L107.958 138.105ZM107.672 138.783L112.226 140.847L112.252 140.789L112.277 140.73L107.672 138.783ZM105.292 142.668L109.102 145.906L109.145 145.856L109.186 145.804L105.292 142.668ZM104.703 143.362L108.337 146.796L108.428 146.7L108.513 146.599L104.703 143.362ZM104.076 144.025L107.617 147.555L107.664 147.508L107.71 147.46L104.076 144.025ZM98.4358 149.684L94.8945 146.154L94.89 146.159L98.4358 149.684ZM72.4465 149.685L75.9924 146.16L75.9878 146.155L72.4465 149.685ZM67.2655 139.194L62.2977 139.761L62.3042 139.817L62.3119 139.874L67.2655 139.194ZM67.1689 138.347L62.1832 138.726L62.1904 138.82L62.2011 138.914L67.1689 138.347ZM67.1463 138.05L72.1319 137.671L71.8026 133.334L67.4615 133.059L67.1463 138.05ZM66.8194 138.029L66.3559 143.007L66.4299 143.014L66.5041 143.019L66.8194 138.029ZM56.7962 133.871L53.5087 137.638L53.553 137.677L53.5983 137.715L56.7962 133.871ZM56.1472 133.305L52.6856 136.913L52.7707 136.994L52.8596 137.072L56.1472 133.305ZM55.5222 132.705L51.9809 136.235L52.0203 136.275L52.0606 136.313L55.5222 132.705ZM50.3412 122.214L45.3734 122.781L45.3799 122.838L45.3876 122.894L50.3412 122.214ZM50.2446 121.367L45.2569 121.719L45.2645 121.827L45.2768 121.934L50.2446 121.367ZM50.2236 121.07L55.2112 120.719L54.9043 116.364L50.5474 116.081L50.2236 121.07ZM49.895 121.049L49.4316 126.027L49.5013 126.034L49.5713 126.039L49.895 121.049ZM39.8719 116.891L36.5844 120.659L36.6287 120.697L36.674 120.735L39.8719 116.891ZM39.2228 116.325L35.7613 119.933L35.8464 120.015L35.9353 120.092L39.2228 116.325ZM38.5979 115.725L35.0566 119.255L35.096 119.295L35.1363 119.333L38.5979 115.725ZM33.4169 105.234L28.4491 105.801L28.4556 105.858L28.4633 105.914L33.4169 105.234ZM33.3202 104.388L28.3342 104.761L28.3415 104.858L28.3525 104.954L33.3202 104.388ZM33.298 104.091L38.2841 103.718L37.9603 99.3933L33.6334 99.1024L33.298 104.091ZM32.9707 104.069L32.5073 109.048L32.5712 109.054L32.6353 109.058L32.9707 104.069ZM22.9476 99.9114L19.66 103.679L19.7044 103.717L19.7496 103.755L22.9476 99.9114ZM22.2985 99.345L18.837 102.953L18.9221 103.035L19.011 103.112L22.2985 99.345ZM21.6736 98.7454L18.1322 102.275L18.1717 102.315L18.212 102.353L21.6736 98.7454ZM16.4757 83.4604L11.5264 82.7502L11.5186 82.8049L11.5119 82.8598L16.4757 83.4604ZM16.5941 82.6353L21.5434 83.3456L21.8524 81.1928L20.4881 79.499L16.5941 82.6353ZM14.9854 80.638L18.8794 77.5017L18.7904 77.3911L18.6952 77.2858L14.9854 80.638ZM14.8328 80.4692L10.8844 83.5367L10.9984 83.6835L11.123 83.8214L14.8328 80.4692ZM5.05918 49.3526L10.053 49.6016L10.053 49.6008L5.05918 49.3526ZM53.4878 5.0019L53.5793 0.002738L53.5555 0.00230074L53.5316 0.00209188L53.4878 5.0019ZM88.4396 127.727L85.2463 123.88L85.1545 123.956L85.0665 124.036L88.4396 127.727ZM88.1212 128.018L84.7481 124.327L84.6621 124.406L84.5799 124.488L88.1212 128.018ZM82.4798 133.678L78.9385 130.148L82.4798 133.678ZM82.476 139.591L78.9347 143.12L78.9411 143.127L78.9475 143.133L82.476 139.591ZM88.0755 139.883L91.2706 143.729L91.3631 143.652L91.4519 143.57L88.0755 139.883ZM88.3887 139.596L91.7651 143.284L91.852 143.204L91.935 143.121L88.3887 139.596ZM88.8155 139.166L88.1474 134.211L86.4656 134.438L85.2693 135.642L88.8155 139.166ZM88.8252 139.165L89.4934 144.12L91.1703 143.894L92.3652 142.696L88.8252 139.165ZM94.0426 133.934L97.5827 137.465L97.584 137.464L94.0426 133.934ZM94.3369 128.343L98.1986 125.167L98.1222 125.074L98.0415 124.985L94.3369 128.343ZM94.042 128.018L97.7466 124.66L97.6681 124.573L97.5856 124.49L94.042 128.018ZM19.2435 50.0642L24.2373 50.3132L24.2374 50.3124L19.2435 50.0642ZM24.4535 69.3723L20.2628 72.0995L20.2843 72.1326L20.3064 72.1654L24.4535 69.3723ZM24.6486 69.6619L20.5015 72.455L23.8973 77.497L28.1894 73.1923L24.6486 69.6619ZM27.3143 66.9884L30.8551 70.5187L30.8579 70.5158L27.3143 66.9884ZM39.4539 61.6379L39.3398 56.6392L39.2827 56.6405L39.2256 56.6431L39.4539 61.6379ZM40.309 61.6183V56.6183H40.2519L40.1948 56.6196L40.309 61.6183ZM53.303 66.9877L49.7594 70.5152L49.7616 70.5174L53.303 66.9877ZM58.5835 78.357L63.5737 78.045L63.5695 77.9782L63.5636 77.9115L58.5835 78.357ZM58.6018 78.6504L53.6116 78.9625L53.8831 83.3051L58.2216 83.6359L58.6018 78.6504ZM58.9382 78.6761L59.3945 73.6969L59.3565 73.6935L59.3184 73.6906L58.9382 78.6761ZM69.6031 83.3695L73.0623 79.7593L73.0196 79.7183L72.9759 79.6784L69.6031 83.3695ZM70.2273 83.9676L73.7686 80.4378L73.728 80.3971L73.6865 80.3573L70.2273 83.9676ZM75.5078 95.3369L80.4968 95.0063L80.493 94.9488L80.4879 94.8914L75.5078 95.3369ZM75.5274 95.6326L70.5383 95.9632L70.8268 100.317L75.1792 100.62L75.5274 95.6326ZM75.8625 95.656L76.3188 90.6768L76.2648 90.6719L76.2107 90.6681L75.8625 95.656ZM86.5274 100.349L89.9866 96.7392L89.9439 96.6982L89.9002 96.6583L86.5274 100.349ZM87.1516 100.947L90.6929 97.4177L90.6523 97.377L90.6108 97.3372L87.1516 100.947ZM92.4321 112.317L97.4229 112.013L97.4186 111.942L97.4122 111.871L92.4321 112.317ZM92.45 112.612L87.4592 112.915L87.7249 117.287L92.0936 117.599L92.45 112.612ZM92.7868 112.636L93.2431 107.657L93.1933 107.652L93.1433 107.649L92.7868 112.636ZM103.452 117.329L106.911 113.719L106.868 113.678L106.825 113.638L103.452 117.329ZM104.076 117.927L107.617 114.398L107.577 114.357L107.535 114.317L104.076 117.927ZM107.6 123.002L112.189 121.016L112.161 120.952L112.132 120.889L107.6 123.002ZM107.964 123.843L103.375 125.829L104.62 128.704L107.75 128.838L107.964 123.843ZM108.006 123.845L107.792 128.84L107.899 128.845H108.006V123.845ZM110.644 122.9L113.84 126.745L113.932 126.668L114.021 126.587L110.644 122.9ZM110.958 122.612L114.335 126.299L114.415 126.226L114.491 126.15L110.958 122.612ZM111.361 117.113L115.254 113.975L115.174 113.876L115.089 113.781L111.361 117.113ZM111.087 116.806L114.816 113.475L114.624 113.26L114.408 113.068L111.087 116.806ZM110.887 116.628L107.259 120.069L107.406 120.224L107.566 120.366L110.887 116.628ZM90.5679 95.2071L87.1154 91.5904L83.5102 95.0319L86.9402 98.648L90.5679 95.2071ZM100.862 85.3801L104.49 81.9389L101.038 78.3001L97.4096 81.7634L100.862 85.3801ZM118.587 104.065L114.96 107.506L115.002 107.551L115.046 107.595L118.587 104.065ZM122.063 106.78L120.297 111.457L120.426 111.506L120.557 111.547L122.063 106.78ZM122.311 106.858L120.805 111.626L121.2 111.751L121.61 111.809L122.311 106.858ZM122.498 106.884L121.797 111.835L121.985 111.862L122.175 111.874L122.498 106.884ZM122.709 106.89L122.678 111.89L122.726 111.891L122.775 111.89L122.709 106.89ZM123.618 106.878L123.684 111.878L123.7 111.878L123.715 111.877L123.618 106.878ZM127.883 105.632L124.35 102.094L124.343 102.1L124.337 102.107L127.883 105.632ZM128.285 100.133L132.178 96.995L132.098 96.8961L132.014 96.8013L128.285 100.133ZM128.012 99.8264L131.74 96.4949L131.548 96.2799L131.332 96.0884L128.012 99.8264ZM127.811 99.6481L124.183 103.089L124.33 103.244L124.49 103.386L127.811 99.6481ZM107.492 78.2272L104.04 74.6105L100.435 78.052L103.865 81.6682L107.492 78.2272ZM117.787 68.4L121.415 64.9599L117.963 61.319L114.334 64.7833L117.787 68.4ZM137.14 88.813L140.936 85.5593L140.855 85.464L140.768 85.373L137.14 88.813ZM140.597 90.2272L139.994 95.1907L139.994 95.1907L140.597 90.2272ZM144.297 89.1919L147.743 92.8149L147.836 92.7268L147.924 92.6342L144.297 89.1919ZM144.609 88.8636L148.235 92.3059L148.263 92.2764L148.291 92.2464L144.609 88.8636ZM145.108 83.0722L148.969 79.8952L148.886 79.7936L148.797 79.6965L145.108 83.0722ZM144.782 82.7155L148.47 79.3398L148.418 79.2823L148.363 79.2265L144.782 82.7155ZM112.42 49.4962L108.838 52.9843L108.839 52.9851L112.42 49.4962ZM103.53 49.0029L100.333 45.1586L100.261 45.2181L100.192 45.2804L103.53 49.0029ZM103.142 49.3509L99.8036 45.6284L99.7345 45.6903L99.6678 45.7547L103.142 49.3509ZM87.1503 64.7982L83.6764 61.202L83.6447 61.2327L83.6135 61.2639L87.1503 64.7982ZM61.1636 64.7858L64.7093 61.2605L64.7049 61.2561L61.1636 64.7858ZM60.6419 39.2332L57.0359 35.7696L56.9968 35.8104L56.9586 35.852L60.6419 39.2332ZM61.2142 38.6374L57.7324 35.049L57.6692 35.1103L57.6082 35.1738L61.2142 38.6374ZM74.9791 25.2817L78.4609 28.8702L82.6908 24.7661L77.9522 21.2617L74.9791 25.2817ZM74.7972 25.1472L77.7702 21.1271L77.7356 21.1015L77.7006 21.0765L74.7972 25.1472ZM55.208 19.3234L55.4264 14.3282L55.4066 14.3273L55.3869 14.3266L55.208 19.3234ZM54.0308 19.2813L54.2097 14.2845L54.1898 14.2838L54.17 14.2832L54.0308 19.2813ZM71.5153 110.747L68.3219 106.9L68.2302 106.976L68.1422 107.057L71.5153 110.747ZM71.1969 111.038L67.8238 107.347L67.7378 107.426L67.6556 107.509L71.1969 111.038ZM65.5555 116.698L62.0141 113.169L65.5555 116.698ZM65.5517 122.611L62.0104 126.14L62.0168 126.147L62.0232 126.153L65.5517 122.611ZM71.1512 122.903L74.3463 126.749L74.4388 126.672L74.5276 126.591L71.1512 122.903ZM71.4644 122.616L74.8408 126.304L74.9277 126.224L75.0107 126.141L71.4644 122.616ZM71.8912 122.187L71.6152 117.194L69.6983 117.3L68.3449 118.662L71.8912 122.187ZM71.9026 122.186L72.1786 127.178L74.091 127.073L75.4434 125.716L71.9026 122.186ZM77.1183 116.955L80.6591 120.485L80.6596 120.484L77.1183 116.955ZM77.4126 111.363L81.2743 108.187L81.1979 108.094L81.1172 108.005L77.4126 111.363ZM77.1177 111.038L80.8223 107.68L80.7437 107.593L80.6612 107.51L77.1177 111.038ZM54.5909 93.7674L51.3973 89.9203L51.3055 89.9965L51.2174 90.077L54.5909 93.7674ZM54.2726 94.0584L50.8991 90.3679L50.8133 90.4464L50.7313 90.5287L54.2726 94.0584ZM48.6311 99.7184L52.1725 103.248L48.6311 99.7184ZM48.6274 105.631L45.0861 109.161L45.0925 109.167L45.0989 109.173L48.6274 105.631ZM54.2269 105.923L57.4219 109.769L57.5145 109.692L57.6033 109.611L54.2269 105.923ZM54.5401 105.636L57.9165 109.324L58.0033 109.244L58.0864 109.161L54.5401 105.636ZM54.9669 105.207L53.8833 100.325L52.4533 100.643L51.4206 101.682L54.9669 105.207ZM54.9799 105.204L56.0635 110.085L57.4893 109.768L58.5205 108.734L54.9799 105.204ZM60.194 99.9746L63.7346 103.505L63.7353 103.504L60.194 99.9746ZM60.4882 94.3831L64.35 91.2071L64.2736 91.1142L64.1928 91.0251L60.4882 94.3831ZM60.1933 94.0578L63.8979 90.6998L63.8194 90.6132L63.7369 90.5303L60.1933 94.0578ZM37.6666 76.7875L34.473 72.9404L34.3812 73.0166L34.2931 73.0971L37.6666 76.7875ZM37.3483 77.0785L33.9748 73.388L33.889 73.4664L33.807 73.5488L37.3483 77.0785ZM31.7069 82.7385L35.2482 86.2682H35.2482L31.7069 82.7385ZM31.7031 88.6509L28.1618 92.1807L28.1682 92.1871L28.1746 92.1935L31.7031 88.6509ZM37.3026 88.9429L40.4974 92.789L40.5899 92.7122L40.6786 92.631L37.3026 88.9429ZM37.6159 88.656L40.992 92.3441L41.0788 92.2647L41.1618 92.1812L37.6159 88.656ZM38.0427 88.2268L37.111 83.3143L35.5891 83.603L34.4969 84.7015L38.0427 88.2268ZM38.0544 88.2245L38.986 93.137L40.5039 92.8491L41.5948 91.7552L38.0544 88.2245ZM43.2697 82.9947L46.8101 86.5254L46.811 86.5245L43.2697 82.9947ZM43.564 77.4032L47.4257 74.2272L47.3493 74.1343L47.2685 74.0452L43.564 77.4032ZM43.269 77.0779L46.9736 73.7199L46.8951 73.6332L46.8126 73.5504L43.269 77.0779ZM117.718 19.2677L117.763 14.2679L117.701 14.2674L117.64 14.2683L117.718 19.2677ZM116.851 19.2812L116.773 14.2818L116.741 14.2823L116.71 14.2832L116.851 19.2812ZM92.7916 27.8274L89.3474 24.2028L89.3286 24.2207L89.3099 24.2388L92.7916 27.8274ZM71.1969 48.7787L67.7153 45.1901L67.6852 45.2193L67.6556 45.249L71.1969 48.7787ZM71.1932 54.6912L67.6518 58.2209L67.6582 58.2273L67.6646 58.2337L71.1932 54.6912ZM76.9089 54.8897L80.1043 58.7354L80.1858 58.6676L80.2644 58.5965L76.9089 54.8897ZM77.1824 54.6421L80.5379 58.3489L80.5976 58.2949L80.6555 58.239L77.1824 54.6421ZM93.3023 39.0772L96.7754 42.6742L96.7756 42.674L93.3023 39.0772ZM122.028 38.975L125.545 35.421L125.512 35.3883L125.478 35.3562L122.028 38.975ZM122.577 39.518L126.159 36.0295L126.127 35.9964L126.094 35.964L122.577 39.518ZM148.027 65.6503L144.445 69.1388L149.282 74.1059L152.468 67.9476L148.027 65.6503ZM148.247 65.225L152.688 67.5223L152.711 67.4766L152.734 67.4305L148.247 65.225ZM151.671 51.1669L156.67 51.1153L156.67 51.0658L156.668 51.0163L151.671 51.1669ZM151.637 50.0639L156.635 49.9134L156.634 49.8645L156.631 49.8157L151.637 50.0639ZM118.581 19.2754L118.687 14.2766L118.657 14.2759L118.626 14.2756L118.581 19.2754ZM54.248 10.0158L55.5866 10.0649L55.9529 0.0715938L54.6143 0.0225286L54.248 10.0158ZM55.5434 10.0631C65.4671 10.5128 73.6667 12.96 80.5998 18.0357L86.5069 9.96689C77.6133 3.45588 67.371 0.588819 55.9961 0.0733643L55.5434 10.0631ZM80.5435 17.9939L81.5258 18.7344L87.5456 10.7493L86.5632 10.0087L80.5435 17.9939ZM81.4247 18.6561L82.3285 19.3745L88.5506 11.546L87.6468 10.8276L81.4247 18.6561ZM88.5465 19.3777L89.4522 18.6594L83.2383 10.8243L82.3326 11.5427L88.5465 19.3777ZM89.4106 18.692C96.2642 13.3736 104.359 10.7394 114.146 10.1273L113.522 0.146763C102.209 0.854332 92.0587 3.97943 83.28 10.7917L89.4106 18.692ZM114.102 10.1299L115.428 10.0589L114.893 0.0731678L113.567 0.14416L114.102 10.1299ZM115.342 10.0627L116.632 10.0159L116.269 0.022459L114.979 0.0693164L115.342 10.0627ZM116.589 10.0172C139.869 9.36863 159.708 27.0649 160.828 49.6006L170.816 49.1041C169.409 20.8085 144.691 -0.769608 116.311 0.0211015L116.589 10.0172ZM160.828 49.6013C161.283 58.719 158.634 67.5898 153.383 75.2297L161.624 80.8942C168.049 71.547 171.385 60.529 170.816 49.1033L160.828 49.6013ZM153.431 75.1614L153.257 75.4053L161.402 81.2065L161.576 80.9625L153.431 75.1614ZM152.778 80.3755L153.075 81.0291L162.178 76.89L161.881 76.2364L152.778 80.3755ZM153.034 80.9371C155.211 85.9921 154.68 90.9005 152.047 94.3501L159.996 100.417C165.199 93.6011 165.561 84.742 162.219 76.982L153.034 80.9371ZM152.117 94.2603L151.65 94.8447L159.458 101.092L159.926 100.507L152.117 94.2603ZM151.796 94.6706L151.297 95.2387L158.814 101.834L159.313 101.266L151.796 94.6706ZM151.373 95.1546L150.94 95.6259L158.306 102.389L158.739 101.918L151.373 95.1546ZM154.946 94.018L154.911 94.0157L154.265 103.995L154.3 103.997L154.946 94.018ZM150.937 95.5895L150.77 95.768L158.073 102.6L158.24 102.421L150.937 95.5895ZM150.906 95.6282C148.93 97.5821 146.437 98.8004 143.656 99.2557L145.271 109.124C149.966 108.356 154.391 106.244 157.937 102.739L150.906 95.6282ZM143.764 99.2392L142.897 99.3617L144.296 109.263L145.163 109.141L143.764 99.2392ZM143.125 99.3348L142.698 99.3753L143.639 109.331L144.067 109.29L143.125 99.3348ZM138.182 103.979L138.158 104.303L148.13 105.051L148.154 104.727L138.182 103.979ZM138.172 104.152C137.892 106.807 136.865 109.282 135.202 111.295L142.909 117.666C145.862 114.094 147.637 109.754 148.117 105.201L138.172 104.152ZM135.277 111.206L134.728 111.839L142.285 118.388L142.834 117.755L135.277 111.206ZM134.884 111.667L134.303 112.278L141.548 119.17L142.129 118.56L134.884 111.667ZM134.38 112.199C132.302 114.289 129.621 115.601 126.775 115.999L128.161 125.903C133.135 125.207 137.831 122.911 141.472 119.249L134.38 112.199ZM126.89 115.985L126.049 116.083L127.206 126.015L128.047 125.918L126.89 115.985ZM126.304 116.059L125.975 116.081L126.622 126.06L126.951 126.039L126.304 116.059ZM121.31 120.728L121.29 121.025L131.266 121.71L131.287 121.413L121.31 120.728ZM121.299 120.914C121.052 123.616 120.016 126.167 118.302 128.246L126.018 134.607C129.035 130.947 130.832 126.487 131.257 121.821L121.299 120.914ZM118.378 128.156L117.815 128.807L125.38 135.347L125.942 134.697L118.378 128.156ZM117.974 128.632L117.378 129.259L124.625 136.149L125.221 135.522L117.974 128.632ZM117.456 129.179C115.081 131.567 111.917 132.94 108.624 133.093L109.089 143.083C114.848 142.815 120.386 140.414 124.547 136.229L117.456 129.179ZM108.759 133.089L107.861 133.106L108.056 143.105L108.954 143.087L108.759 133.089ZM103.353 136.158L103.067 136.836L112.277 140.73L112.564 140.053L103.353 136.158ZM103.118 136.719C102.648 137.755 102.073 138.694 101.398 139.532L109.186 145.804C110.413 144.282 111.424 142.616 112.226 140.847L103.118 136.719ZM101.482 139.431L100.892 140.124L108.513 146.599L109.102 145.906L101.482 139.431ZM101.069 139.927L100.442 140.591L107.71 147.46L108.337 146.796L101.069 139.927ZM100.535 140.495L94.8945 146.154L101.977 153.213L107.617 147.555L100.535 140.495ZM94.89 146.159C92.3669 148.696 88.9526 150.088 85.4405 150.088V160.088C91.5853 160.088 97.5607 157.656 101.982 153.209L94.89 146.159ZM85.4405 150.088C81.9281 150.088 78.514 148.696 75.9924 146.16L68.9007 153.21C73.3205 157.656 79.296 160.088 85.4405 160.088V150.088ZM75.9878 146.155C73.9148 144.076 72.6145 141.396 72.2191 138.514L62.3119 139.874C62.9964 144.862 65.2601 149.558 68.9052 153.215L75.9878 146.155ZM72.2333 138.627L72.1366 137.78L62.2011 138.914L62.2977 139.761L72.2333 138.627ZM72.1545 137.969L72.1319 137.671L62.1606 138.428L62.1832 138.726L72.1545 137.969ZM67.4615 133.059L67.1346 133.039L66.5041 143.019L66.831 143.04L67.4615 133.059ZM67.2828 133.05C64.622 132.803 62.0738 131.758 59.9941 130.028L53.5983 137.715C57.2442 140.748 61.7032 142.574 66.3559 143.007L67.2828 133.05ZM60.0837 130.104L59.4347 129.538L52.8596 137.072L53.5087 137.638L60.0837 130.104ZM59.6087 129.697L58.9838 129.097L52.0606 136.313L52.6856 136.913L59.6087 129.697ZM59.0635 129.175C56.9905 127.096 55.6901 124.416 55.2948 121.534L45.3876 122.894C46.0721 127.882 48.3357 132.578 51.9809 136.235L59.0635 129.175ZM55.3089 121.647L55.2123 120.8L45.2768 121.934L45.3734 122.781L55.3089 121.647ZM55.2322 121.016L55.2112 120.719L45.236 121.422L45.2569 121.719L55.2322 121.016ZM50.5474 116.081L50.2188 116.059L49.5713 126.039L49.8998 126.06L50.5474 116.081ZM50.3585 116.071C47.6977 115.823 45.1495 114.778 43.0698 113.048L36.674 120.735C40.3198 123.768 44.7788 125.594 49.4316 126.027L50.3585 116.071ZM43.1594 113.124L42.5104 112.558L35.9353 120.092L36.5844 120.659L43.1594 113.124ZM42.6844 112.717L42.0594 112.117L35.1363 119.333L35.7613 119.933L42.6844 112.717ZM42.1392 112.196C40.0662 110.116 38.7658 107.436 38.3705 104.555L28.4633 105.914C29.1477 110.902 31.4114 115.598 35.0566 119.255L42.1392 112.196ZM38.3846 104.667L38.288 103.821L28.3525 104.954L28.4491 105.801L38.3846 104.667ZM38.3063 104.014L38.2841 103.718L28.312 104.464L28.3342 104.761L38.3063 104.014ZM33.6334 99.1024L33.3061 99.0804L32.6353 109.058L32.9627 109.08L33.6334 99.1024ZM33.4342 99.0906C30.7734 98.8429 28.2252 97.7982 26.1455 96.0678L19.7496 103.755C23.3955 106.788 27.8545 108.614 32.5073 109.048L33.4342 99.0906ZM26.2351 96.1442L25.5861 95.5778L19.011 103.112L19.66 103.679L26.2351 96.1442ZM25.7601 95.7371L25.1351 95.1375L18.212 102.353L18.837 102.953L25.7601 95.7371ZM25.2149 95.2157C22.3046 92.2959 20.9409 88.1815 21.4395 84.0611L11.5119 82.8598C10.6579 89.9172 12.9822 97.1082 18.1322 102.275L25.2149 95.2157ZM21.425 84.1707L21.5434 83.3456L11.6448 81.9251L11.5264 82.7502L21.425 84.1707ZM20.4881 79.499L18.8794 77.5017L11.0914 83.7744L12.7001 85.7717L20.4881 79.499ZM18.6952 77.2858L18.5427 77.117L11.123 83.8214L11.2756 83.9902L18.6952 77.2858ZM18.7813 77.4017C12.7016 69.5759 9.5455 59.7786 10.053 49.6016L0.0653872 49.1035C-0.561852 61.6824 3.34389 73.8306 10.8844 83.5367L18.7813 77.4017ZM10.053 49.6008C11.1595 27.3403 30.5289 9.80112 53.444 10.0017L53.5316 0.00209188C25.5933 -0.242469 1.45472 21.153 0.0653481 49.1043L10.053 49.6008ZM53.3963 10.0011L54.3397 10.0183L54.5227 0.0200114L53.5793 0.002738L53.3963 10.0011ZM91.0819 121.755C88.9305 121.755 86.8825 122.522 85.2463 123.88L91.633 131.575C91.53 131.66 91.3346 131.755 91.0819 131.755V121.755ZM85.0665 124.036L84.7481 124.327L91.4943 131.709L91.8127 131.418L85.0665 124.036ZM84.5799 124.488L78.9385 130.148L86.0211 137.208L91.6626 131.548L84.5799 124.488ZM78.9385 130.148C75.3195 133.779 75.3136 139.487 78.9347 143.12L86.0174 136.061C86.0983 136.142 86.2217 136.348 86.2216 136.638C86.2214 136.928 86.098 137.131 86.0211 137.208L78.9385 130.148ZM78.9475 143.133C80.7047 144.883 82.9917 145.825 85.4405 145.825V135.825C85.5043 135.825 85.6215 135.839 85.7577 135.895C85.894 135.951 85.9763 136.02 86.0046 136.048L78.9475 143.133ZM85.4405 145.825C87.5565 145.825 89.5956 145.12 91.2706 143.729L84.8804 136.037C84.9452 135.983 85.0435 135.922 85.1669 135.878C85.289 135.834 85.3878 135.825 85.4405 135.825V145.825ZM91.4519 143.57L91.7651 143.284L85.0123 135.908L84.6991 136.195L91.4519 143.57ZM91.935 143.121L92.3618 142.691L85.2693 135.642L84.8425 136.071L91.935 143.121ZM89.4837 144.122L89.4934 144.12L88.1571 134.21L88.1474 134.211L89.4837 144.122ZM92.3652 142.696L97.5827 137.465L90.5026 130.403L85.2852 135.634L92.3652 142.696ZM97.584 137.464C100.96 134.077 101.217 128.837 98.1986 125.167L90.4752 131.519C90.3835 131.407 90.2883 131.194 90.3015 130.928C90.3149 130.658 90.4314 130.475 90.5013 130.405L97.584 137.464ZM98.0415 124.985L97.7466 124.66L90.3374 131.376L90.6323 131.701L98.0415 124.985ZM97.5856 124.49C95.8636 122.76 93.5476 121.755 91.0819 121.755V131.755C90.9459 131.755 90.818 131.727 90.7101 131.681C90.6024 131.635 90.5336 131.58 90.4984 131.545L97.5856 124.49ZM14.2497 49.8152C13.8492 57.8485 15.9886 65.5317 20.2628 72.0995L28.6442 66.645C25.5032 61.8185 23.9431 56.2141 24.2373 50.3132L14.2497 49.8152ZM20.3064 72.1654L20.5015 72.455L28.7957 66.8689L28.6006 66.5792L20.3064 72.1654ZM28.1894 73.1923L30.8551 70.5187L23.7736 63.458L21.1079 66.1316L28.1894 73.1923ZM30.8579 70.5158C33.2203 68.1426 36.3573 66.7847 39.6823 66.6326L39.2256 56.6431C33.4554 56.9069 27.9364 59.2762 23.7707 63.4609L30.8579 70.5158ZM39.568 66.6366L40.4231 66.617L40.1948 56.6196L39.3398 56.6392L39.568 66.6366ZM40.309 66.6183C43.866 66.6183 47.251 67.9954 49.7594 70.5152L56.8465 63.4602C52.4201 59.0136 46.4668 56.6183 40.309 56.6183V66.6183ZM49.7616 70.5174C51.9876 72.7507 53.3238 75.6776 53.6034 78.8026L63.5636 77.9115C63.0806 72.5129 60.7603 67.3868 56.8443 63.458L49.7616 70.5174ZM53.5932 78.6691L53.6116 78.9625L63.5921 78.3384L63.5737 78.045L53.5932 78.6691ZM58.2216 83.6359L58.558 83.6616L59.3184 73.6906L58.982 73.6649L58.2216 83.6359ZM58.4819 83.6552C61.3686 83.9197 64.0824 85.0979 66.2303 87.0606L72.9759 79.6784C69.1858 76.2152 64.4123 74.1568 59.3945 73.6969L58.4819 83.6552ZM66.1439 86.9798L66.7681 87.5778L73.6865 80.3573L73.0623 79.7593L66.1439 86.9798ZM66.6859 87.4973C68.9119 89.7306 70.2481 92.6575 70.5277 95.7825L80.4879 94.8914C80.0049 89.4927 77.6846 84.3667 73.7686 80.4378L66.6859 87.4973ZM70.5187 95.6676L70.5383 95.9632L80.5164 95.3019L80.4968 95.0063L70.5187 95.6676ZM75.1792 100.62L75.5143 100.644L76.2107 90.6681L75.8756 90.6447L75.1792 100.62ZM75.4062 100.635C78.2929 100.9 81.0067 102.078 83.1546 104.041L89.9002 96.6583C86.1101 93.1951 81.3366 91.1367 76.3188 90.6768L75.4062 100.635ZM83.0682 103.96L83.6924 104.558L90.6108 97.3372L89.9866 96.7392L83.0682 103.96ZM83.6103 104.477C85.8362 106.71 87.1724 109.637 87.452 112.762L97.4122 111.871C96.9292 106.473 94.6089 101.347 90.6929 97.4177L83.6103 104.477ZM87.4413 112.62L87.4592 112.915L97.4408 112.308L97.4229 112.013L87.4413 112.62ZM92.0936 117.599L92.4304 117.623L93.1433 107.649L92.8065 107.624L92.0936 117.599ZM92.3305 117.615C95.2172 117.88 97.931 119.058 100.079 121.02L106.825 113.638C103.034 110.175 98.2609 108.117 93.2431 107.657L92.3305 117.615ZM99.9925 120.94L100.617 121.538L107.535 114.317L106.911 113.719L99.9925 120.94ZM100.535 121.457C101.57 122.496 102.418 123.72 103.069 125.115L112.132 120.889C111.015 118.493 109.511 116.298 107.617 114.398L100.535 121.457ZM103.012 124.988L103.375 125.829L112.553 121.857L112.189 121.016L103.012 124.988ZM107.75 128.838L107.792 128.84L108.221 118.849L108.179 118.848L107.75 128.838ZM108.006 128.845C110.125 128.845 112.164 128.139 113.84 126.745L107.447 119.055C107.51 119.004 107.607 118.942 107.731 118.898C107.854 118.854 107.953 118.845 108.006 118.845V128.845ZM114.021 126.587L114.335 126.299L107.581 118.925L107.267 119.213L114.021 126.587ZM114.491 126.15C117.814 122.833 118.192 117.62 115.254 113.975L107.468 120.25C107.298 120.04 107.226 119.778 107.241 119.545C107.256 119.302 107.36 119.139 107.426 119.074L114.491 126.15ZM115.089 113.781L114.816 113.475L107.359 120.138L107.633 120.444L115.089 113.781ZM114.408 113.068L114.207 112.89L107.566 120.366L107.767 120.544L114.408 113.068ZM114.514 113.187L94.1955 91.7661L86.9402 98.648L107.259 120.069L114.514 113.187ZM94.0203 98.8237L104.315 88.9968L97.4096 81.7634L87.1154 91.5904L94.0203 98.8237ZM97.2347 88.8213L114.96 107.506L122.215 100.624L104.49 81.9389L97.2347 88.8213ZM115.046 107.595C116.782 109.336 118.49 110.775 120.297 111.457L123.829 102.102C124.082 102.198 124.066 102.245 123.715 101.977C123.383 101.723 122.87 101.279 122.128 100.535L115.046 107.595ZM120.557 111.547L120.805 111.626L123.817 102.09L123.569 102.012L120.557 111.547ZM121.61 111.809L121.797 111.835L123.199 101.934L123.012 101.907L121.61 111.809ZM122.175 111.874C122.366 111.886 122.542 111.889 122.678 111.89L122.74 101.89C122.721 101.89 122.72 101.89 122.732 101.891C122.743 101.891 122.775 101.892 122.821 101.895L122.175 111.874ZM122.775 111.89L123.684 111.878L123.552 101.879L122.643 101.891L122.775 111.89ZM123.715 111.877C124.157 111.869 124.511 111.865 124.931 111.865V101.865C124.434 101.865 124.014 101.87 123.522 101.879L123.715 111.877ZM124.931 111.865C127.377 111.865 129.672 110.925 131.429 109.157L124.337 102.107C124.373 102.07 124.463 101.996 124.606 101.937C124.748 101.879 124.868 101.865 124.931 101.865V111.865ZM131.415 109.17C134.738 105.853 135.116 100.64 132.178 96.995L124.392 103.271C124.223 103.06 124.15 102.799 124.165 102.565C124.181 102.322 124.284 102.16 124.35 102.094L131.415 109.17ZM132.014 96.8013L131.74 96.4949L124.283 103.158L124.557 103.464L132.014 96.8013ZM131.332 96.0884L131.132 95.9101L124.49 103.386L124.691 103.564L131.332 96.0884ZM131.439 96.2072L111.12 74.7862L103.865 81.6682L124.183 103.089L131.439 96.2072ZM110.945 81.8438L121.239 72.0166L114.334 64.7833L104.04 74.6105L110.945 81.8438ZM114.158 71.84L133.511 92.2531L140.768 85.373L121.415 64.9599L114.158 71.84ZM133.343 92.0668C133.85 92.6582 134.411 93.0233 134.504 93.0863C134.729 93.2382 134.953 93.3711 135.145 93.4786C135.535 93.6978 135.983 93.9209 136.443 94.126C137.248 94.4843 138.607 95.0221 139.994 95.1907L141.2 85.2637C141.281 85.2735 141.31 85.2826 141.278 85.2748C141.25 85.268 141.194 85.2528 141.11 85.2254C140.938 85.1691 140.728 85.0872 140.511 84.9908C140.293 84.8935 140.127 84.8078 140.045 84.7619C140.028 84.7521 140.022 84.7486 140.027 84.7515C140.031 84.7535 140.055 84.7683 140.095 84.7954C140.13 84.819 140.214 84.8763 140.323 84.9639C140.38 85.0091 140.46 85.0757 140.554 85.1623C140.643 85.2445 140.781 85.3783 140.936 85.5593L133.343 92.0668ZM139.994 95.1907C141.145 95.3306 142.528 95.3774 143.987 94.9807C145.532 94.5606 146.751 93.7583 147.743 92.8149L140.852 85.5689C140.809 85.6092 140.844 85.5692 140.952 85.5048C141.069 85.4351 141.212 85.3721 141.363 85.3311C141.506 85.2922 141.59 85.291 141.574 85.2914C141.549 85.2922 141.438 85.2926 141.2 85.2637L139.994 95.1907ZM147.924 92.6342L148.235 92.3059L140.983 85.4213L140.671 85.7496L147.924 92.6342ZM148.291 92.2464C151.363 88.9026 152.205 83.8273 148.969 79.8952L141.247 86.2493C141.199 86.1903 141.13 86.082 141.08 85.9268C141.031 85.7715 141.017 85.6181 141.028 85.4889C141.049 85.2196 141.15 85.2384 140.927 85.4809L148.291 92.2464ZM148.797 79.6965L148.47 79.3398L141.093 86.0912L141.42 86.448L148.797 79.6965ZM148.363 79.2265L116.002 46.0072L108.839 52.9851L141.2 86.2045L148.363 79.2265ZM116.003 46.008C111.734 41.6244 104.989 41.2867 100.333 45.1586L106.727 52.8473C107.077 52.5556 107.45 52.4558 107.785 52.4735C108.116 52.491 108.491 52.6282 108.838 52.9843L116.003 46.008ZM100.192 45.2804L99.8036 45.6284L106.48 53.0735L106.868 52.7255L100.192 45.2804ZM99.6678 45.7547L83.6764 61.202L90.6241 68.3944L106.615 52.9471L99.6678 45.7547ZM83.6135 61.2639C81.0822 63.797 77.6599 65.1883 74.1576 65.1883V75.1883C80.2924 75.1883 86.2655 72.7571 90.687 68.3325L83.6135 61.2639ZM74.1576 65.1883C70.6454 65.1883 67.2313 63.7971 64.7093 61.2605L57.6179 68.3111C62.0379 72.7567 68.0131 75.1883 74.1576 75.1883V65.1883ZM64.7049 61.2561C59.6481 56.1826 59.5149 47.8546 64.3253 42.6145L56.9586 35.852C48.5514 45.0102 48.7661 59.4303 57.6223 68.3156L64.7049 61.2561ZM64.2479 42.6969L64.8202 42.1011L57.6082 35.1738L57.0359 35.7696L64.2479 42.6969ZM64.696 42.2259L78.4609 28.8702L71.4973 21.6933L57.7324 35.049L64.696 42.2259ZM77.9522 21.2617L77.7702 21.1271L71.8241 29.1673L72.0061 29.3018L77.9522 21.2617ZM77.7006 21.0765C71.3108 16.5191 64.173 14.7106 55.4264 14.3282L54.9896 24.3187C62.5324 24.6485 67.5808 26.1416 71.8938 29.2179L77.7006 21.0765ZM55.3869 14.3266L54.2097 14.2845L53.8519 24.2781L55.0291 24.3202L55.3869 14.3266ZM54.17 14.2832C33.4127 13.7049 15.2693 29.3046 14.2497 49.816L24.2374 50.3124C24.9653 35.6689 38.1221 23.84 53.8915 24.2793L54.17 14.2832ZM74.1576 104.775C72.0062 104.775 69.9582 105.542 68.3219 106.9L74.7086 114.595C74.6057 114.68 74.4103 114.775 74.1576 114.775V104.775ZM68.1422 107.057L67.8238 107.347L74.57 114.729L74.8884 114.438L68.1422 107.057ZM67.6556 107.509L62.0141 113.169L69.0968 120.228L74.7382 114.568L67.6556 107.509ZM62.0141 113.169C58.3952 116.799 58.3893 122.507 62.0104 126.14L69.0931 119.081C69.174 119.162 69.2974 119.368 69.2972 119.658C69.2971 119.948 69.1737 120.151 69.0968 120.228L62.0141 113.169ZM62.0232 126.153C63.7803 127.903 66.0673 128.845 68.5162 128.845V118.845C68.58 118.845 68.6971 118.859 68.8333 118.915C68.9697 118.971 69.052 119.04 69.0802 119.068L62.0232 126.153ZM68.5162 128.845C70.6322 128.845 72.6712 128.14 74.3463 126.749L67.9561 119.057C68.0209 119.003 68.1192 118.942 68.2426 118.898C68.3646 118.854 68.4635 118.845 68.5162 118.845V128.845ZM74.5276 126.591L74.8408 126.304L68.088 118.928L67.7748 119.215L74.5276 126.591ZM75.0107 126.141L75.4375 125.711L68.3449 118.662L67.9182 119.091L75.0107 126.141ZM72.1672 127.179L72.1786 127.178L71.6265 117.194L71.6152 117.194L72.1672 127.179ZM75.4434 125.716L80.6591 120.485L73.5775 113.424L68.3617 118.656L75.4434 125.716ZM80.6596 120.484C84.0357 117.097 84.293 111.857 81.2743 108.187L73.5508 114.539C73.4592 114.428 73.364 114.214 73.3772 113.948C73.3906 113.678 73.5071 113.495 73.577 113.425L80.6596 120.484ZM81.1172 108.005L80.8223 107.68L73.4131 114.396L73.708 114.721L81.1172 108.005ZM80.6612 107.51C78.9393 105.78 76.6233 104.775 74.1576 104.775V114.775C74.0216 114.775 73.8937 114.747 73.7858 114.701C73.6781 114.655 73.6092 114.6 73.5741 114.565L80.6612 107.51ZM57.2333 87.795C55.082 87.795 53.0336 88.5619 51.3973 89.9203L57.7845 97.6146C57.6812 97.7004 57.4857 97.795 57.2333 97.795V87.795ZM51.2174 90.077L50.8991 90.3679L57.646 97.7489L57.9644 97.4579L51.2174 90.077ZM50.7313 90.5287L45.0898 96.1886L52.1725 103.248L57.8139 97.5882L50.7313 90.5287ZM45.0898 96.1886C41.4708 99.8195 41.465 105.528 45.0861 109.161L52.1687 102.101C52.2497 102.182 52.373 102.388 52.3729 102.678C52.3728 102.968 52.2493 103.171 52.1725 103.248L45.0898 96.1886ZM45.0989 109.173C46.856 110.924 49.143 111.865 51.5919 111.865V101.865C51.6556 101.865 51.7728 101.879 51.909 101.935C52.0453 101.991 52.1277 102.06 52.1559 102.088L45.0989 109.173ZM51.5919 111.865C53.7079 111.865 55.7469 111.16 57.4219 109.769L51.0318 102.077C51.0966 102.023 51.1949 101.962 51.3182 101.918C51.4403 101.874 51.5392 101.865 51.5919 101.865V111.865ZM57.6033 109.611L57.9165 109.324L51.1637 101.948L50.8505 102.235L57.6033 109.611ZM58.0864 109.161L58.5131 108.731L51.4206 101.682L50.9938 102.111L58.0864 109.161ZM56.0505 110.088L56.0635 110.085L53.8963 100.323L53.8833 100.325L56.0505 110.088ZM58.5205 108.734L63.7346 103.505L56.6534 96.4442L51.4393 101.673L58.5205 108.734ZM63.7353 103.504C67.1114 100.117 67.3687 94.8775 64.35 91.2071L56.6265 97.5591C56.5348 97.4477 56.4397 97.2343 56.4529 96.9678C56.4662 96.6981 56.5828 96.5151 56.6527 96.4449L63.7353 103.504ZM64.1928 91.0251L63.8979 90.6998L56.4887 97.4157L56.7836 97.7411L64.1928 91.0251ZM63.7369 90.5303C62.0149 88.8004 59.699 87.795 57.2333 87.795V97.795C57.0973 97.795 56.9693 97.7667 56.8615 97.721C56.7537 97.6754 56.6849 97.6205 56.6497 97.5852L63.7369 90.5303ZM40.309 70.8151C38.1577 70.8151 36.1093 71.582 34.473 72.9404L40.8602 80.6347C40.7569 80.7205 40.5614 80.8151 40.309 80.8151V70.8151ZM34.2931 73.0971L33.9748 73.388L40.7218 80.769L41.0401 80.478L34.2931 73.0971ZM33.807 73.5488L28.1655 79.2087L35.2482 86.2682L40.8896 80.6082L33.807 73.5488ZM28.1655 79.2087C24.5465 82.8396 24.5407 88.5477 28.1618 92.1807L35.2444 85.1212C35.3254 85.2024 35.4488 85.4082 35.4486 85.6983C35.4485 85.9884 35.325 86.1911 35.2482 86.2682L28.1655 79.2087ZM28.1746 92.1935C29.9317 93.9437 32.2187 94.885 34.6676 94.885V84.885C34.7314 84.885 34.8485 84.8988 34.9847 84.9552C35.121 85.0116 35.2034 85.0803 35.2316 85.1084L28.1746 92.1935ZM34.6676 94.885C36.7838 94.885 38.8225 94.1803 40.4974 92.789L34.1077 85.0967C34.1722 85.0432 34.2703 84.982 34.3937 84.9381C34.5159 84.8946 34.6148 84.885 34.6676 84.885V94.885ZM40.6786 92.631L40.992 92.3441L34.2399 84.9679L33.9265 85.2547L40.6786 92.631ZM41.1618 92.1812L41.5885 91.752L34.4969 84.7015L34.0701 85.1308L41.1618 92.1812ZM38.9744 93.1392L38.986 93.137L37.1227 83.3121L37.111 83.3143L38.9744 93.1392ZM41.5948 91.7552L46.8101 86.5254L39.7293 79.4641L34.5139 84.6939L41.5948 91.7552ZM46.811 86.5245C50.1871 83.1374 50.4444 77.8976 47.4257 74.2272L39.7022 80.5792C39.6106 80.4678 39.5154 80.2544 39.5286 79.9879C39.5419 79.7182 39.6585 79.5351 39.7284 79.465L46.811 86.5245ZM47.2685 74.0452L46.9736 73.7199L39.5645 80.4358L39.8594 80.7612L47.2685 74.0452ZM46.8126 73.5504C45.0906 71.8205 42.7747 70.8151 40.309 70.8151V80.8151C40.173 80.8151 40.0451 80.7868 39.9372 80.7411C39.8295 80.6955 39.7606 80.6406 39.7255 80.6053L46.8126 73.5504ZM117.64 14.2683L116.773 14.2818L116.929 24.2806L117.796 24.2671L117.64 14.2683ZM116.71 14.2832C105.451 14.6 96.8272 17.0954 89.3474 24.2028L96.2358 31.452C101.342 26.5998 107.25 24.5534 116.991 24.2792L116.71 14.2832ZM89.3099 24.2388L67.7153 45.1901L74.6786 52.3673L96.2733 31.416L89.3099 24.2388ZM67.6556 45.249C64.0366 48.8798 64.0308 54.5879 67.6518 58.2209L74.7345 51.1614C74.8154 51.2426 74.9388 51.4485 74.9387 51.7386C74.9386 52.0287 74.8151 52.2313 74.7382 52.3084L67.6556 45.249ZM67.6646 58.2337C69.4218 59.9839 71.7088 60.9252 74.1576 60.9252V50.9252C74.2214 50.9252 74.3386 50.939 74.4748 50.9954C74.6111 51.0518 74.6934 51.1205 74.7217 51.1486L67.6646 58.2337ZM74.1576 60.9252C76.361 60.9252 78.3897 60.1601 80.1043 58.7354L73.7135 51.044C73.6734 51.0773 73.7169 51.033 73.8419 50.9868C73.9708 50.939 74.089 50.9252 74.1576 50.9252V60.9252ZM80.2644 58.5965L80.5379 58.3489L73.8269 50.9353L73.5534 51.1829L80.2644 58.5965ZM80.6555 58.239L96.7754 42.6742L89.8293 35.4803L73.7093 51.0452L80.6555 58.239ZM96.7756 42.674C102.835 36.823 112.534 36.8312 118.578 42.5937L125.478 35.3562C115.567 25.9059 99.7585 25.892 89.8291 35.4805L96.7756 42.674ZM118.511 42.529L119.06 43.072L126.094 35.964L125.545 35.421L118.511 42.529ZM118.995 43.0064L144.445 69.1388L151.609 62.1619L126.159 36.0295L118.995 43.0064ZM152.468 67.9476L152.688 67.5223L143.806 62.9277L143.586 63.353L152.468 67.9476ZM152.734 67.4305C155.315 62.1794 156.729 56.7863 156.67 51.1153L146.671 51.2185C146.711 55.0836 145.766 58.9379 143.76 63.0196L152.734 67.4305ZM156.668 51.0163L156.635 49.9134L146.64 50.2145L146.673 51.3174L156.668 51.0163ZM156.631 49.8157C155.644 29.9551 138.595 14.699 118.687 14.2766L118.475 24.2743C133.59 24.5951 145.939 36.1344 146.644 50.3121L156.631 49.8157ZM118.626 14.2756L117.763 14.2679L117.673 24.2675L118.537 24.2752L118.626 14.2756Z" fill="#1E88E5"/>
</g>
</svg>
