<svg width="330" height="309" viewBox="0 0 330 309" fill="none" xmlns="http://www.w3.org/2000/svg">
<g opacity="0.1">
<path fill-rule="evenodd" clip-rule="evenodd" d="M103.163 5.03808L105.821 5.13551C126.969 6.09383 145.281 11.3705 160.995 22.8753L162.946 24.3459L164.741 25.7724L166.54 24.3459C182.062 12.3011 200.178 6.58249 221.129 5.27209L223.763 5.13111L226.324 5.03805C277.617 3.60893 321.86 42.6055 324.369 93.0772C325.386 113.475 319.443 133.223 307.849 150.09L307.504 150.575L308.094 151.873C313.574 164.597 312.687 178.267 304.907 188.461L303.978 189.621L302.989 190.749L302.129 191.685L302.06 191.681L301.729 192.035C296.246 197.456 289.378 200.762 281.954 201.977L280.232 202.22L279.382 202.301L279.334 202.943C278.579 210.101 275.798 216.866 271.214 222.412L270.124 223.67L268.971 224.882C263.293 230.593 255.968 234.175 248.204 235.262L246.534 235.456L245.881 235.499L245.84 236.089C245.173 243.404 242.36 250.366 237.663 256.064L236.545 257.356L235.362 258.601C228.873 265.129 220.232 268.875 211.244 269.293L209.46 269.328L208.891 270.673C207.629 273.459 206.053 276.045 204.165 278.389L202.995 279.766L201.75 281.083L190.55 292.321C183.655 299.256 174.332 303.052 164.743 303.052C155.154 303.052 145.831 299.256 138.939 292.323C133.261 286.627 129.722 279.304 128.65 271.49L128.458 269.808L128.413 269.217L127.764 269.176C120.502 268.5 113.545 265.649 107.86 260.919L106.571 259.795L105.33 258.604C99.652 252.907 96.1131 245.584 95.0409 237.77L94.8491 236.089L94.8075 235.499L94.155 235.456C86.8932 234.78 79.9355 231.93 74.2505 227.2L72.9615 226.075L71.7205 224.884C66.0428 219.188 62.5039 211.864 61.4317 204.051L61.2398 202.369L61.1958 201.78L60.5457 201.737C53.284 201.061 46.3263 198.21 40.6412 193.48L39.3523 192.355L38.1113 191.165C30.108 183.135 26.446 171.91 27.7891 160.811L28.0242 159.172L24.8296 155.206L24.5266 154.871C11.0027 137.463 3.99084 115.673 5.11753 93.0777C7.59575 43.221 50.796 4.56177 101.29 5.00377L103.163 5.03808ZM175.946 246.787C174.061 246.787 172.221 247.454 170.699 248.718L170.067 249.296L158.864 260.536C155.533 263.877 155.533 268.943 158.856 272.277C160.49 273.905 162.515 274.728 164.743 274.728C166.692 274.728 168.481 274.098 169.976 272.857L170.598 272.287L171.445 271.435L171.465 271.432L181.826 261.045C184.948 257.912 185.143 253.264 182.41 249.941L181.824 249.294C180.196 247.659 178.101 246.787 175.946 246.787ZM33.2856 94.4906C32.5957 108.326 36.2691 121.52 43.6319 132.834L44.0193 133.409L49.313 128.1C55.7949 121.588 64.3897 117.887 73.4205 117.474L75.1185 117.435C84.7647 117.435 94.0369 121.181 100.923 128.098C107.021 134.217 110.652 142.213 111.409 150.676L111.445 151.259L112.113 151.31C119.962 152.029 127.396 155.243 133.292 160.63L134.532 161.818C140.63 167.936 144.261 175.932 145.018 184.396L145.057 184.983L145.723 185.029C153.571 185.748 161.006 188.962 166.902 194.35L168.141 195.537C174.24 201.656 177.87 209.652 178.627 218.115L178.663 218.701L179.332 218.749C187.18 219.468 194.615 222.682 200.511 228.069L201.75 229.257C204.658 232.175 206.994 235.569 208.749 239.335L209.472 241.004L209.555 241.008C211.505 241.008 213.293 240.379 214.793 239.132L215.418 238.56C218.553 235.43 218.753 230.785 216.217 227.639L215.674 227.031L215.275 226.677L174.925 184.138L195.368 164.623L230.568 201.728C233.9 205.071 236.017 206.571 237.47 207.119L237.963 207.275L238.333 207.327C238.44 207.334 238.573 207.338 238.752 207.339L240.559 207.315C241.486 207.297 242.255 207.288 243.165 207.288C245.392 207.288 247.41 206.467 249.027 204.84C252.162 201.71 252.362 197.065 249.827 193.919L249.283 193.311L248.884 192.957L208.534 150.418L228.978 130.903L267.411 171.44C267.845 171.947 271.77 173.944 274.275 174.248C277.551 174.646 279.558 174.158 281.624 172.193L282.243 171.541C285.643 167.84 285.941 163.328 283.235 160.04L282.586 159.331L218.321 93.3626C213.455 88.3655 205.922 88.012 200.666 92.383L199.895 93.0741L168.138 123.75C161.235 130.659 151.906 134.454 142.337 134.454C132.749 134.454 123.426 130.658 116.533 123.726C102.718 109.866 102.373 87.2784 115.497 72.9819L116.633 71.7987L143.968 45.2763L143.607 45.0091C132.98 37.4294 120.88 34.1511 104.706 33.444L102.368 33.3603C66.0996 32.3498 35.0207 59.5844 33.2856 94.4906ZM142.337 213.067C140.452 213.067 138.612 213.735 137.09 214.998L136.457 215.576L125.254 226.816C121.924 230.157 121.924 235.224 125.247 238.557C126.881 240.185 128.906 241.008 131.134 241.008C133.083 241.008 134.872 240.379 136.367 239.137L136.989 238.568L137.836 237.715L137.859 237.714L148.216 227.325C151.339 224.193 151.534 219.544 148.801 216.221L148.215 215.575C146.587 213.939 144.492 213.067 142.337 213.067ZM108.728 179.348C106.842 179.348 105.002 180.015 103.48 181.279L102.848 181.857L91.6451 193.097C88.3148 196.438 88.3148 201.504 91.6376 204.838C93.272 206.466 95.2964 207.288 97.5246 207.288C99.474 207.288 101.263 206.659 102.757 205.418L103.379 204.848L104.227 203.995L104.253 203.99L114.607 193.605C117.729 190.473 117.925 185.824 115.192 182.501L114.606 181.855C112.978 180.22 110.882 179.348 108.728 179.348ZM75.1185 145.628C73.233 145.628 71.3932 146.296 69.8711 147.559L69.2389 148.137L58.0359 159.377C54.7056 162.718 54.7056 167.785 58.0284 171.118C59.6628 172.746 61.6872 173.569 63.9154 173.569C65.8646 173.569 67.6533 172.94 69.1482 171.698L69.7704 171.128L70.6179 170.276L70.6411 170.272L80.998 159.886C84.1202 156.753 84.3153 152.105 81.5823 148.782L80.9967 148.136C79.3684 146.5 77.2733 145.628 75.1185 145.628ZM228.841 33.3334L227.119 33.3602C206.267 33.947 191.838 38.4566 179.341 50.3317L136.457 91.9379C133.127 95.2791 133.127 100.345 136.45 103.679C138.084 105.307 140.109 106.13 142.337 106.13C144.284 106.13 146.091 105.494 147.801 104.073L148.344 103.582L180.355 72.6722C196.231 57.3419 221.558 57.3639 237.401 72.4691L238.49 73.5474L289.03 125.443L289.467 124.598C294.022 115.331 296.364 106.149 296.266 96.6805L296.2 94.4901C294.52 60.6925 265.33 34.0867 230.556 33.3488L228.841 33.3334Z" fill="white"/>
<path d="M103.163 5.03808L103.346 0.0414309L103.3 0.0397524L103.255 0.0389134L103.163 5.03808ZM105.821 5.13551L106.048 0.140637L106.026 0.139659L106.005 0.138867L105.821 5.13551ZM160.995 22.8753L164.005 18.8827L163.977 18.8616L163.949 18.8409L160.995 22.8753ZM162.946 24.3459L166.057 20.4317L166.007 20.3919L165.956 20.3533L162.946 24.3459ZM164.741 25.7724L161.63 29.6867L164.738 32.1567L167.848 29.69L164.741 25.7724ZM166.54 24.3459L163.474 20.3958L163.454 20.412L163.433 20.4284L166.54 24.3459ZM221.129 5.27209L220.862 0.279234L220.839 0.280435L220.817 0.281837L221.129 5.27209ZM223.763 5.13111L223.581 0.134402L223.538 0.13596L223.495 0.138254L223.763 5.13111ZM226.324 5.03805L226.185 0.0399927L226.163 0.0405819L226.142 0.04135L226.324 5.03805ZM324.369 93.0772L319.375 93.3255L319.375 93.3262L324.369 93.0772ZM307.849 150.09L311.922 152.991L311.946 152.957L311.97 152.923L307.849 150.09ZM307.504 150.575L303.431 147.674L301.76 150.021L302.952 152.644L307.504 150.575ZM308.094 151.873L312.686 149.895L312.667 149.849L312.646 149.803L308.094 151.873ZM304.907 188.461L308.811 191.584L308.847 191.54L308.881 191.494L304.907 188.461ZM303.978 189.621L307.737 192.919L307.812 192.833L307.883 192.745L303.978 189.621ZM302.989 190.749L306.672 194.131L306.71 194.089L306.747 194.047L302.989 190.749ZM302.129 191.685L301.806 196.675L304.194 196.829L305.812 195.067L302.129 191.685ZM302.06 191.681L302.383 186.691L300.024 186.539L298.409 188.265L302.06 191.681ZM301.729 192.035L305.244 195.591L305.313 195.522L305.38 195.451L301.729 192.035ZM281.954 201.977L282.654 206.928L282.708 206.92L282.762 206.911L281.954 201.977ZM280.232 202.22L280.703 207.198L280.817 207.187L280.931 207.171L280.232 202.22ZM279.382 202.301L278.911 197.323L274.712 197.72L274.396 201.927L279.382 202.301ZM279.334 202.943L284.306 203.467L284.314 203.392L284.32 203.317L279.334 202.943ZM271.214 222.412L274.993 225.686L275.031 225.642L275.068 225.598L271.214 222.412ZM270.124 223.67L273.747 227.116L273.827 227.032L273.903 226.944L270.124 223.67ZM268.971 224.882L272.517 228.407L272.556 228.368L272.594 228.328L268.971 224.882ZM248.204 235.262L248.783 240.228L248.84 240.222L248.897 240.214L248.204 235.262ZM246.534 235.456L246.858 240.446L246.985 240.438L247.113 240.423L246.534 235.456ZM245.881 235.499L245.557 230.509L241.192 230.792L240.892 235.156L245.881 235.499ZM245.84 236.089L250.819 236.542L250.825 236.487L250.828 236.431L245.84 236.089ZM237.663 256.064L241.445 259.335L241.483 259.29L241.521 259.245L237.663 256.064ZM236.545 257.356L240.169 260.802L240.25 260.716L240.328 260.627L236.545 257.356ZM235.362 258.601L238.908 262.126L238.947 262.087L238.986 262.046L235.362 258.601ZM211.244 269.293L211.342 274.292L211.409 274.291L211.477 274.288L211.244 269.293ZM209.46 269.328L209.363 264.329L206.119 264.392L204.855 267.381L209.46 269.328ZM208.891 270.673L213.445 272.737L213.472 272.679L213.496 272.621L208.891 270.673ZM204.165 278.389L207.976 281.626L208.018 281.576L208.06 281.525L204.165 278.389ZM202.995 279.766L206.629 283.201L206.72 283.105L206.806 283.004L202.995 279.766ZM201.75 281.083L205.292 284.613L205.338 284.566L205.384 284.518L201.75 281.083ZM190.55 292.321L187.008 288.791L187.004 288.796L190.55 292.321ZM138.939 292.323L142.485 288.798L142.48 288.794L138.939 292.323ZM128.65 271.49L123.682 272.057L123.689 272.113L123.697 272.169L128.65 271.49ZM128.458 269.808L123.473 270.187L123.48 270.281L123.491 270.375L128.458 269.808ZM128.413 269.217L133.399 268.838L133.07 264.501L128.729 264.227L128.413 269.217ZM127.764 269.176L127.301 274.154L127.375 274.161L127.449 274.166L127.764 269.176ZM107.86 260.919L104.572 264.687L104.616 264.725L104.662 264.763L107.86 260.919ZM106.571 259.795L103.109 263.403L103.194 263.484L103.283 263.562L106.571 259.795ZM105.33 258.604L101.788 262.134L101.828 262.173L101.868 262.212L105.33 258.604ZM95.0409 237.77L90.0732 238.337L90.0796 238.393L90.0874 238.45L95.0409 237.77ZM94.8491 236.089L89.8614 236.44L89.869 236.548L89.8813 236.655L94.8491 236.089ZM94.8075 235.499L99.7951 235.147L99.4881 230.792L95.1313 230.509L94.8075 235.499ZM94.155 235.456L93.6915 240.435L93.7613 240.441L93.8312 240.446L94.155 235.456ZM74.2505 227.2L70.9629 230.967L71.0073 231.006L71.0525 231.043L74.2505 227.2ZM72.9615 226.075L69.5 229.683L69.5851 229.765L69.674 229.842L72.9615 226.075ZM71.7205 224.884L68.1791 228.414L68.2186 228.454L68.2589 228.492L71.7205 224.884ZM61.4317 204.051L56.464 204.617L56.4704 204.674L56.4781 204.73L61.4317 204.051ZM61.2398 202.369L56.2538 202.742L56.2611 202.839L56.2721 202.936L61.2398 202.369ZM61.1958 201.78L66.1818 201.407L65.858 197.083L61.5312 196.792L61.1958 201.78ZM60.5457 201.737L60.0823 206.715L60.1463 206.721L60.2104 206.725L60.5457 201.737ZM40.6412 193.48L37.3537 197.247L37.3981 197.286L37.4433 197.324L40.6412 193.48ZM39.3523 192.355L35.8908 195.963L35.9759 196.045L36.0648 196.123L39.3523 192.355ZM38.1113 191.165L34.5699 194.694L34.6094 194.734L34.6497 194.773L38.1113 191.165ZM27.7891 160.811L22.8398 160.101L22.8319 160.155L22.8253 160.21L27.7891 160.811ZM28.0242 159.172L32.9735 159.883L33.2825 157.73L31.9182 156.036L28.0242 159.172ZM24.8296 155.206L28.7236 152.07L28.6345 151.959L28.5394 151.854L24.8296 155.206ZM24.5266 154.871L20.5781 157.938L20.6921 158.085L20.8168 158.223L24.5266 154.871ZM5.11753 93.0777L10.1113 93.3267L10.1114 93.3259L5.11753 93.0777ZM101.29 5.00377L101.381 0.00461149L101.357 0.00417421L101.333 0.00396513L101.29 5.00377ZM170.699 248.718L167.506 244.871L167.414 244.947L167.326 245.027L170.699 248.718ZM170.067 249.296L166.693 245.605L166.607 245.684L166.525 245.766L170.067 249.296ZM158.864 260.536L155.322 257.006L155.322 257.006L158.864 260.536ZM158.856 272.277L155.315 275.807L155.321 275.813L155.328 275.819L158.856 272.277ZM169.976 272.857L173.171 276.703L173.263 276.626L173.352 276.545L169.976 272.857ZM170.598 272.287L173.974 275.975L174.061 275.896L174.144 275.812L170.598 272.287ZM171.445 271.435L170.777 266.479L169.095 266.706L167.899 267.91L171.445 271.435ZM171.465 271.432L172.133 276.387L173.81 276.161L175.005 274.963L171.465 271.432ZM181.826 261.045L185.366 264.576L185.367 264.574L181.826 261.045ZM182.41 249.941L186.272 246.765L186.195 246.672L186.115 246.583L182.41 249.941ZM181.824 249.294L185.529 245.937L185.45 245.85L185.368 245.767L181.824 249.294ZM33.2856 94.4906L38.2794 94.7396L38.2795 94.7388L33.2856 94.4906ZM43.6319 132.834L39.4412 135.561L39.4627 135.594L39.4848 135.627L43.6319 132.834ZM44.0193 133.409L39.8722 136.202L43.268 141.244L47.5601 136.939L44.0193 133.409ZM49.313 128.1L52.8538 131.63L52.8566 131.627L49.313 128.1ZM73.4205 117.474L73.3064 112.476L73.2492 112.477L73.1921 112.479L73.4205 117.474ZM75.1185 117.435V112.435H75.0614L75.0044 112.437L75.1185 117.435ZM100.923 128.098L97.379 131.626L97.3813 131.628L100.923 128.098ZM111.409 150.676L116.399 150.364L116.395 150.297L116.389 150.231L111.409 150.676ZM111.445 151.259L106.455 151.571L106.727 155.913L111.065 156.244L111.445 151.259ZM112.113 151.31L112.57 146.33L112.532 146.327L112.494 146.324L112.113 151.31ZM133.292 160.63L136.752 157.02L136.709 156.979L136.665 156.939L133.292 160.63ZM134.532 161.818L138.073 158.288L138.033 158.247L137.991 158.207L134.532 161.818ZM145.018 184.396L150.007 184.065L150.003 184.007L149.998 183.95L145.018 184.396ZM145.057 184.983L140.068 185.313L140.357 189.667L144.709 189.971L145.057 184.983ZM145.723 185.029L146.179 180.05L146.125 180.045L146.071 180.041L145.723 185.029ZM166.902 194.35L170.361 190.739L170.318 190.698L170.274 190.659L166.902 194.35ZM168.141 195.537L171.682 192.008L171.642 191.967L171.6 191.927L168.141 195.537ZM178.627 218.115L183.618 217.812L183.614 217.741L183.607 217.67L178.627 218.115ZM178.663 218.701L173.672 219.004L173.938 223.376L178.307 223.688L178.663 218.701ZM179.332 218.749L179.788 213.77L179.738 213.765L179.688 213.761L179.332 218.749ZM200.511 228.069L203.97 224.459L203.927 224.418L203.884 224.378L200.511 228.069ZM201.75 229.257L205.292 225.727L205.251 225.686L205.209 225.647L201.75 229.257ZM208.749 239.335L213.338 237.349L213.31 237.285L213.281 237.222L208.749 239.335ZM209.472 241.004L204.883 242.99L206.127 245.865L209.257 246L209.472 241.004ZM209.555 241.008L209.341 246.003L209.448 246.008H209.555V241.008ZM214.793 239.132L217.99 242.977L218.082 242.9L218.17 242.819L214.793 239.132ZM215.418 238.56L218.795 242.247L218.874 242.174L218.951 242.098L215.418 238.56ZM216.217 227.639L220.11 224.501L220.03 224.402L219.946 224.307L216.217 227.639ZM215.674 227.031L219.402 223.699L219.21 223.484L218.995 223.293L215.674 227.031ZM215.275 226.677L211.648 230.118L211.795 230.273L211.955 230.415L215.275 226.677ZM174.925 184.138L171.473 180.521L167.868 183.963L171.298 187.579L174.925 184.138ZM195.368 164.623L198.996 161.182L195.544 157.543L191.916 161.006L195.368 164.623ZM230.568 201.728L226.94 205.169L226.983 205.214L227.026 205.258L230.568 201.728ZM237.47 207.119L235.704 211.797L235.833 211.845L235.964 211.887L237.47 207.119ZM237.963 207.275L236.457 212.043L236.852 212.167L237.262 212.225L237.963 207.275ZM238.333 207.327L237.632 212.278L237.821 212.305L238.011 212.317L238.333 207.327ZM238.752 207.339L238.721 212.339L238.77 212.339L238.818 212.339L238.752 207.339ZM240.559 207.315L240.625 212.315L240.64 212.315L240.655 212.314L240.559 207.315ZM249.027 204.84L245.495 201.302L245.488 201.309L245.481 201.315L249.027 204.84ZM249.827 193.919L253.719 190.782L253.64 190.683L253.555 190.588L249.827 193.919ZM249.283 193.311L253.011 189.98L252.819 189.765L252.604 189.573L249.283 193.311ZM248.884 192.957L245.257 196.398L245.404 196.553L245.564 196.695L248.884 192.957ZM208.534 150.418L205.082 146.802L201.477 150.243L204.907 153.859L208.534 150.418ZM228.978 130.903L232.606 127.463L229.154 123.822L225.525 127.286L228.978 130.903ZM267.411 171.44L271.207 168.186L271.125 168.091L271.039 168L267.411 171.44ZM274.275 174.248L273.672 179.212L273.672 179.212L274.275 174.248ZM281.624 172.193L285.07 175.815L285.163 175.727L285.251 175.635L281.624 172.193ZM282.243 171.541L285.87 174.983L285.898 174.953L285.925 174.923L282.243 171.541ZM283.235 160.04L287.095 156.863L287.012 156.761L286.923 156.664L283.235 160.04ZM282.586 159.331L286.275 155.956L286.222 155.898L286.168 155.842L282.586 159.331ZM218.321 93.3626L214.739 96.8507L214.74 96.8515L218.321 93.3626ZM200.666 92.383L197.469 88.5387L197.397 88.5983L197.328 88.6605L200.666 92.383ZM199.895 93.0741L196.557 89.3516L196.488 89.4135L196.421 89.478L199.895 93.0741ZM168.138 123.75L164.665 120.154L164.633 120.185L164.602 120.216L168.138 123.75ZM116.533 123.726L120.078 120.2L120.074 120.196L116.533 123.726ZM115.497 72.9819L111.891 69.5183L111.852 69.559L111.813 69.6006L115.497 72.9819ZM116.633 71.7987L113.151 68.2103L113.088 68.2716L113.027 68.3351L116.633 71.7987ZM143.968 45.2763L147.45 48.8648L151.68 44.7607L146.941 41.2562L143.968 45.2763ZM143.607 45.0091L146.58 40.989L146.545 40.9634L146.51 40.9384L143.607 45.0091ZM104.706 33.444L104.924 28.4487L104.904 28.4479L104.885 28.4472L104.706 33.444ZM102.368 33.3603L102.547 28.3635L102.527 28.3627L102.507 28.3622L102.368 33.3603ZM137.09 214.998L133.896 211.151L133.805 211.227L133.717 211.308L137.09 214.998ZM136.457 215.576L133.084 211.885L132.998 211.964L132.916 212.047L136.457 215.576ZM125.254 226.816L121.713 223.286L121.713 223.286L125.254 226.816ZM125.247 238.557L121.706 242.087L121.712 242.094L121.718 242.1L125.247 238.557ZM136.367 239.137L139.562 242.983L139.654 242.906L139.743 242.825L136.367 239.137ZM136.989 238.568L140.365 242.256L140.452 242.176L140.535 242.093L136.989 238.568ZM137.836 237.715L137.56 232.723L135.643 232.829L134.29 234.19L137.836 237.715ZM137.859 237.714L138.135 242.706L140.047 242.6L141.4 241.244L137.859 237.714ZM148.216 227.325L151.757 230.855L151.758 230.855L148.216 227.325ZM148.801 216.221L152.662 213.045L152.586 212.952L152.505 212.863L148.801 216.221ZM148.215 215.575L151.92 212.217L151.841 212.13L151.759 212.047L148.215 215.575ZM103.48 181.279L100.287 177.432L100.195 177.508L100.107 177.588L103.48 181.279ZM102.848 181.857L99.4747 178.166L99.3889 178.245L99.3068 178.327L102.848 181.857ZM91.6451 193.097L95.1864 196.626L95.1864 196.626L91.6451 193.097ZM91.6376 204.838L88.0963 208.368L88.1027 208.374L88.1091 208.38L91.6376 204.838ZM102.757 205.418L105.952 209.264L106.045 209.187L106.134 209.106L102.757 205.418ZM103.379 204.848L106.756 208.536L106.843 208.456L106.926 208.373L103.379 204.848ZM104.227 203.995L103.143 199.114L101.713 199.432L100.681 200.471L104.227 203.995ZM104.253 203.99L105.336 208.871L106.762 208.554L107.793 207.52L104.253 203.99ZM114.607 193.605L118.148 197.136L118.149 197.135L114.607 193.605ZM115.192 182.501L119.053 179.325L118.977 179.233L118.896 179.143L115.192 182.501ZM114.606 181.855L118.31 178.497L118.232 178.411L118.149 178.328L114.606 181.855ZM69.8711 147.559L66.6774 143.712L66.5856 143.788L66.4976 143.869L69.8711 147.559ZM69.2389 148.137L65.8655 144.447L65.7797 144.525L65.6976 144.607L69.2389 148.137ZM58.0359 159.377L61.5772 162.907L61.5772 162.907L58.0359 159.377ZM58.0284 171.118L54.4871 174.648L54.4935 174.654L54.4999 174.661L58.0284 171.118ZM69.1482 171.698L72.343 175.544L72.4355 175.467L72.5242 175.386L69.1482 171.698ZM69.7704 171.128L73.1465 174.816L73.2333 174.737L73.3163 174.654L69.7704 171.128ZM70.6179 170.276L69.6863 165.363L68.1643 165.652L67.0721 166.751L70.6179 170.276ZM70.6411 170.272L71.5728 175.184L73.0906 174.896L74.1815 173.802L70.6411 170.272ZM80.998 159.886L84.5384 163.417L84.5393 163.416L80.998 159.886ZM81.5823 148.782L85.444 145.606L85.3677 145.513L85.2869 145.424L81.5823 148.782ZM80.9967 148.136L84.7013 144.778L84.6228 144.691L84.5403 144.608L80.9967 148.136ZM228.841 33.3334L228.886 28.3336L228.825 28.3331L228.763 28.334L228.841 33.3334ZM227.119 33.3602L227.041 28.3608L227.01 28.3613L226.978 28.3622L227.119 33.3602ZM179.341 50.3317L175.897 46.7071L175.878 46.725L175.86 46.7431L179.341 50.3317ZM136.457 91.9379L132.976 88.3493L132.946 88.3785L132.916 88.4081L136.457 91.9379ZM136.45 103.679L132.909 107.209L132.915 107.215L132.921 107.222L136.45 103.679ZM147.801 104.073L150.996 107.919L151.077 107.851L151.156 107.78L147.801 104.073ZM148.344 103.582L151.699 107.289L151.759 107.235L151.817 107.179L148.344 103.582ZM180.355 72.6722L183.829 76.2691L183.829 76.269L180.355 72.6722ZM237.401 72.4691L240.917 68.9151L240.884 68.8824L240.851 68.8503L237.401 72.4691ZM238.49 73.5474L242.072 70.0589L242.04 70.0259L242.007 69.9934L238.49 73.5474ZM289.03 125.443L285.448 128.931L290.286 133.898L293.471 127.74L289.03 125.443ZM289.467 124.598L293.908 126.895L293.932 126.849L293.955 126.803L289.467 124.598ZM296.266 96.6805L301.266 96.6289L301.266 96.5794L301.264 96.5299L296.266 96.6805ZM296.2 94.4901L301.198 94.3396L301.197 94.2907L301.194 94.2419L296.2 94.4901ZM230.556 33.3488L230.662 28.3499L230.631 28.3492L230.601 28.349L230.556 33.3488ZM102.98 10.0347L105.638 10.1322L106.005 0.138867L103.346 0.0414309L102.98 10.0347ZM105.595 10.1304C126.017 11.0558 143.307 16.1226 158.042 26.9097L163.949 18.8409C147.254 6.61846 127.921 1.13184 106.048 0.140637L105.595 10.1304ZM157.986 26.8678L159.936 28.3385L165.956 20.3533L164.005 18.8827L157.986 26.8678ZM159.835 28.2602L161.63 29.6867L167.852 21.8582L166.057 20.4317L159.835 28.2602ZM167.848 29.69L169.647 28.2634L163.433 20.4284L161.634 21.8549L167.848 29.69ZM169.605 28.2961C184.164 16.9982 201.252 11.525 221.441 10.2623L220.817 0.281837C199.103 1.63994 179.959 7.60396 163.474 20.3958L169.605 28.2961ZM221.396 10.2649L224.03 10.124L223.495 0.138254L220.862 0.279234L221.396 10.2649ZM223.944 10.1278L226.505 10.0348L226.142 0.04135L223.581 0.134402L223.944 10.1278ZM226.463 10.0361C275.206 8.67805 317.009 45.7337 319.375 93.3255L329.362 92.829C326.71 39.4773 280.028 -1.46019 226.185 0.0399927L226.463 10.0361ZM319.375 93.3262C320.334 112.57 314.735 131.245 303.729 147.258L311.97 152.923C324.15 135.202 330.437 114.38 329.362 92.8282L319.375 93.3262ZM303.776 147.19L303.431 147.674L311.577 153.475L311.922 152.991L303.776 147.19ZM302.952 152.644L303.543 153.942L312.646 149.803L312.056 148.505L302.952 152.644ZM303.502 153.85C308.399 165.222 307.428 176.917 300.932 185.427L308.881 191.494C317.946 179.618 318.748 163.972 312.686 149.895L303.502 153.85ZM301.002 185.337L300.074 186.498L307.883 192.745L308.811 191.584L301.002 185.337ZM300.22 186.324L299.23 187.452L306.747 194.047L307.737 192.919L300.22 186.324ZM299.306 187.368L298.446 188.304L305.812 195.067L306.672 194.131L299.306 187.368ZM302.452 186.696L302.383 186.691L301.738 196.67L301.806 196.675L302.452 186.696ZM298.409 188.265L298.077 188.619L305.38 195.451L305.712 195.097L298.409 188.265ZM298.213 188.48C293.515 193.124 287.613 195.984 281.147 197.043L282.762 206.911C291.142 205.539 298.977 201.787 305.244 195.591L298.213 188.48ZM281.255 197.026L279.533 197.269L280.931 207.171L282.654 206.928L281.255 197.026ZM279.761 197.242L278.911 197.323L279.853 207.278L280.703 207.198L279.761 197.242ZM274.396 201.927L274.348 202.569L284.32 203.317L284.368 202.675L274.396 201.927ZM274.362 202.419C273.707 208.627 271.3 214.46 267.36 219.226L275.068 225.598C280.296 219.272 283.452 211.574 284.306 203.467L274.362 202.419ZM267.435 219.138L266.346 220.395L273.903 226.944L274.993 225.686L267.435 219.138ZM266.502 220.223L265.349 221.435L272.594 228.328L273.747 227.116L266.502 220.223ZM265.425 221.356C260.529 226.282 254.211 229.373 247.511 230.31L248.897 240.214C257.725 238.978 266.057 234.904 272.517 228.407L265.425 221.356ZM247.626 230.295L245.956 230.49L247.113 240.423L248.783 240.228L247.626 230.295ZM246.211 230.467L245.557 230.509L246.204 240.488L246.858 240.446L246.211 230.467ZM240.892 235.156L240.852 235.746L250.828 236.431L250.869 235.841L240.892 235.156ZM240.861 235.635C240.283 241.968 237.85 247.976 233.804 252.884L241.521 259.245C246.869 252.756 250.063 244.839 250.819 236.542L240.861 235.635ZM233.88 252.794L232.763 254.086L240.328 260.627L241.445 259.335L233.88 252.794ZM232.922 253.911L231.738 255.156L238.986 262.046L240.169 260.802L232.922 253.911ZM231.816 255.076C226.22 260.705 218.767 263.938 211.012 264.299L211.477 274.288C221.698 273.812 231.525 269.552 238.908 262.126L231.816 255.076ZM211.147 264.294L209.363 264.329L209.558 274.327L211.342 274.292L211.147 264.294ZM204.855 267.381L204.286 268.726L213.496 272.621L214.065 271.275L204.855 267.381ZM204.337 268.61C203.241 271.028 201.883 273.251 200.271 275.253L208.06 281.525C210.223 278.839 212.017 275.89 213.445 272.737L204.337 268.61ZM200.355 275.152L199.185 276.529L206.806 283.004L207.976 281.626L200.355 275.152ZM199.361 276.332L198.116 277.649L205.384 284.518L206.629 283.201L199.361 276.332ZM198.209 277.554L187.008 288.791L194.091 295.85L205.292 284.613L198.209 277.554ZM187.004 288.796C181.058 294.776 173.015 298.052 164.743 298.052V308.052C175.648 308.052 186.252 303.736 194.096 295.846L187.004 288.796ZM164.743 298.052C156.471 298.052 148.428 294.776 142.485 288.798L135.393 295.849C143.234 303.736 153.838 308.052 164.743 308.052V298.052ZM142.48 288.794C137.589 283.886 134.531 277.57 133.604 270.81L123.697 272.169C124.913 281.037 128.934 289.368 135.398 295.853L142.48 288.794ZM133.618 270.923L133.426 269.241L123.491 270.375L123.682 272.057L133.618 270.923ZM133.444 269.43L133.399 268.838L123.428 269.595L123.473 270.187L133.444 269.43ZM128.729 264.227L128.079 264.186L127.449 274.166L128.098 274.207L128.729 264.227ZM128.228 264.197C121.962 263.614 115.96 261.154 111.058 257.076L104.662 264.763C111.13 270.145 119.043 273.386 127.301 274.154L128.228 264.197ZM111.147 257.152L109.858 256.027L103.283 263.562L104.572 264.687L111.147 257.152ZM110.032 256.187L108.791 254.996L101.868 262.212L103.109 263.403L110.032 256.187ZM108.871 255.074C103.979 250.166 100.922 243.851 99.9945 237.09L90.0874 238.45C91.3041 247.317 95.3246 255.649 101.788 262.134L108.871 255.074ZM100.009 237.203L99.8168 235.522L89.8813 236.655L90.0732 238.337L100.009 237.203ZM99.8367 235.737L99.7951 235.147L89.8198 235.85L89.8614 236.44L99.8367 235.737ZM95.1313 230.509L94.4787 230.467L93.8312 240.446L94.4837 240.488L95.1313 230.509ZM94.6184 230.478C88.3526 229.895 82.3504 227.435 77.4484 223.356L71.0525 231.043C77.5207 236.425 85.4337 239.666 93.6915 240.435L94.6184 230.478ZM77.538 223.433L76.2491 222.308L69.674 229.842L70.9629 230.967L77.538 223.433ZM76.4231 222.467L75.182 221.276L68.2589 228.492L69.5 229.683L76.4231 222.467ZM75.2618 221.355C70.3702 216.447 67.313 210.131 66.3853 203.371L56.4781 204.73C57.6949 213.598 61.7154 221.929 68.1791 228.414L75.2618 221.355ZM66.3995 203.484L66.2076 201.802L56.2721 202.936L56.464 204.617L66.3995 203.484ZM66.2259 201.996L66.1818 201.407L56.2097 202.154L56.2538 202.742L66.2259 201.996ZM61.5312 196.792L60.8811 196.748L60.2104 206.725L60.8604 206.769L61.5312 196.792ZM61.0092 196.758C54.7434 196.175 48.7412 193.715 43.8392 189.637L37.4433 197.324C43.9115 202.705 51.8245 205.946 60.0823 206.715L61.0092 196.758ZM43.9288 189.713L42.6399 188.588L36.0648 196.123L37.3537 197.247L43.9288 189.713ZM42.8139 188.747L41.5728 187.557L34.6497 194.773L35.8908 195.963L42.8139 188.747ZM41.6526 187.635C34.7692 180.729 31.5875 171.042 32.7529 161.412L22.8253 160.21C21.3045 172.778 25.4468 185.541 34.5699 194.694L41.6526 187.635ZM32.7384 161.521L32.9735 159.883L23.0749 158.462L22.8398 160.101L32.7384 161.521ZM31.9182 156.036L28.7236 152.07L20.9355 158.342L24.1302 162.309L31.9182 156.036ZM28.5394 151.854L28.2364 151.519L20.8168 158.223L21.1197 158.558L28.5394 151.854ZM28.4751 151.803C15.6816 135.336 9.04451 114.721 10.1113 93.3267L0.123732 92.8287C-1.06284 116.624 6.32387 139.59 20.5781 157.938L28.4751 151.803ZM10.1114 93.3259C12.4481 46.3146 53.2637 9.58356 101.246 10.0036L101.333 0.00396513C48.3282 -0.460023 2.74335 40.1273 0.123693 92.8295L10.1114 93.3259ZM101.198 10.0029L103.072 10.0372L103.255 0.0389134L101.381 0.00461149L101.198 10.0029ZM175.946 241.787C172.859 241.787 169.898 242.885 167.506 244.871L173.892 252.565C174.545 252.023 175.263 251.787 175.946 251.787V241.787ZM167.326 245.027L166.693 245.605L173.44 252.987L174.072 252.409L167.326 245.027ZM166.525 245.766L155.322 257.006L162.405 264.065L173.608 252.826L166.525 245.766ZM155.322 257.006C150.05 262.295 150.044 270.519 155.315 275.807L162.397 268.747C161.022 267.368 161.016 265.458 162.405 264.065L155.322 257.006ZM155.328 275.819C157.896 278.378 161.188 279.728 164.743 279.728V269.728C163.842 269.728 163.085 269.432 162.385 268.734L155.328 275.819ZM164.743 279.728C167.827 279.728 170.754 278.711 173.171 276.703L166.781 269.011C166.209 269.486 165.558 269.728 164.743 269.728V279.728ZM173.352 276.545L173.974 275.975L167.221 268.599L166.599 269.169L173.352 276.545ZM174.144 275.812L174.992 274.959L167.899 267.91L167.052 268.763L174.144 275.812ZM172.114 276.39L172.133 276.387L170.796 266.477L170.777 266.479L172.114 276.39ZM175.005 274.963L185.366 264.576L178.286 257.514L167.925 267.901L175.005 274.963ZM185.367 264.574C190.293 259.632 190.647 252.085 186.272 246.765L178.548 253.117C179.639 254.443 179.603 256.192 178.284 257.515L185.367 264.574ZM186.115 246.583L185.529 245.937L178.12 252.652L178.705 253.299L186.115 246.583ZM185.368 245.767C182.838 243.225 179.482 241.787 175.946 241.787V251.787C176.72 251.787 177.555 252.092 178.281 252.822L185.368 245.767ZM28.2918 94.2416C27.5487 109.143 31.5118 123.377 39.4412 135.561L47.8226 130.106C41.0264 119.663 37.6427 107.509 38.2794 94.7396L28.2918 94.2416ZM39.4848 135.627L39.8722 136.202L48.1664 130.616L47.779 130.041L39.4848 135.627ZM47.5601 136.939L52.8538 131.63L45.7723 124.569L40.4786 129.879L47.5601 136.939ZM52.8566 131.627C58.4369 126.021 65.8406 122.826 73.6488 122.469L73.1921 112.479C62.9388 112.948 53.1529 117.155 45.7694 124.572L52.8566 131.627ZM73.5346 122.473L75.2326 122.434L75.0044 112.437L73.3064 112.476L73.5346 122.473ZM75.1185 122.435C83.4643 122.435 91.4524 125.672 97.379 131.626L104.466 124.571C96.6215 116.69 86.0651 112.435 75.1185 112.435V122.435ZM97.3813 131.628C102.635 136.899 105.773 143.795 106.429 151.122L116.389 150.231C115.53 140.63 111.407 131.535 104.464 124.568L97.3813 131.628ZM106.419 150.988L106.455 151.571L116.436 150.947L116.399 150.364L106.419 150.988ZM111.065 156.244L111.733 156.295L112.494 146.324L111.826 146.273L111.065 156.244ZM111.657 156.289C118.44 156.91 124.845 159.684 129.92 164.321L136.665 156.939C129.948 150.801 121.484 147.147 112.57 146.33L111.657 156.289ZM129.833 164.24L131.073 165.428L137.991 158.207L136.752 157.02L129.833 164.24ZM130.991 165.347C136.244 170.618 139.383 177.515 140.038 184.841L149.998 183.95C149.139 174.35 145.017 165.254 138.073 158.288L130.991 165.347ZM140.029 184.726L140.068 185.313L150.046 184.652L150.007 184.065L140.029 184.726ZM144.709 189.971L145.374 190.017L146.071 180.041L145.405 179.995L144.709 189.971ZM145.266 190.008C152.049 190.63 158.454 193.403 163.529 198.041L170.274 190.659C163.557 184.521 155.093 180.867 146.179 180.05L145.266 190.008ZM163.442 197.96L164.682 199.148L171.6 191.927L170.361 190.739L163.442 197.96ZM164.6 199.067C169.853 204.338 172.992 211.234 173.647 218.561L183.607 217.67C182.749 208.069 178.626 198.974 171.682 192.008L164.6 199.067ZM173.637 218.418L173.672 219.004L183.654 218.398L183.618 217.812L173.637 218.418ZM178.307 223.688L178.975 223.736L179.688 213.761L179.019 213.714L178.307 223.688ZM178.876 223.728C185.658 224.349 192.063 227.123 197.138 231.76L203.884 224.378C197.166 218.24 188.702 214.586 179.788 213.77L178.876 223.728ZM197.052 231.679L198.291 232.867L205.209 225.647L203.97 224.459L197.052 231.679ZM198.209 232.787C200.688 235.274 202.695 238.183 204.217 241.447L213.281 237.222C211.292 232.956 208.629 229.076 205.292 225.727L198.209 232.787ZM204.16 241.32L204.883 242.99L214.06 239.019L213.338 237.349L204.16 241.32ZM209.257 246L209.341 246.003L209.77 236.013L209.686 236.009L209.257 246ZM209.555 246.008C212.642 246.008 215.569 244.99 217.99 242.977L211.597 235.287C211.018 235.768 210.368 236.008 209.555 236.008V246.008ZM218.17 242.819L218.795 242.247L212.041 234.873L211.416 235.445L218.17 242.819ZM218.951 242.098C223.829 237.227 224.307 229.708 220.11 224.501L212.324 230.777C213.199 231.861 213.276 233.633 211.885 235.021L218.951 242.098ZM219.946 224.307L219.402 223.699L211.945 230.362L212.489 230.971L219.946 224.307ZM218.995 223.293L218.596 222.939L211.955 230.415L212.353 230.769L218.995 223.293ZM218.903 223.236L178.553 180.697L171.298 187.579L211.648 230.118L218.903 223.236ZM178.378 187.754L198.821 168.239L191.916 161.006L171.473 180.521L178.378 187.754ZM191.741 168.064L226.94 205.169L234.195 198.287L198.996 161.182L191.741 168.064ZM227.026 205.258C230.417 208.659 233.175 210.842 235.704 211.797L239.236 202.441C238.859 202.299 237.383 201.483 234.109 198.198L227.026 205.258ZM235.964 211.887L236.457 212.043L239.469 202.507L238.976 202.351L235.964 211.887ZM237.262 212.225L237.632 212.278L239.035 202.377L238.664 202.324L237.262 212.225ZM238.011 212.317C238.255 212.333 238.496 212.338 238.721 212.339L238.783 202.339C238.72 202.339 238.681 202.338 238.658 202.337C238.635 202.337 238.637 202.336 238.656 202.338L238.011 212.317ZM238.818 212.339L240.625 212.315L240.493 202.316L238.686 202.34L238.818 212.339ZM240.655 212.314C241.557 212.297 242.293 212.288 243.165 212.288V202.288C242.217 202.288 241.415 202.298 240.462 202.316L240.655 212.314ZM243.165 212.288C246.717 212.288 250.013 210.94 252.573 208.365L245.481 201.315C244.807 201.993 244.068 202.288 243.165 202.288V212.288ZM252.56 208.379C257.439 203.508 257.917 195.989 253.719 190.782L245.934 197.057C246.808 198.142 246.886 199.913 245.495 201.302L252.56 208.379ZM253.555 190.588L253.011 189.98L245.555 196.643L246.098 197.251L253.555 190.588ZM252.604 189.573L252.205 189.219L245.564 196.695L245.962 197.049L252.604 189.573ZM252.512 189.516L212.162 146.977L204.907 153.859L245.257 196.398L252.512 189.516ZM211.987 154.035L232.43 134.519L225.525 127.286L205.082 146.802L211.987 154.035ZM225.349 134.343L263.782 174.88L271.039 168L232.606 127.463L225.349 134.343ZM263.614 174.694C264.148 175.317 264.762 175.725 264.932 175.839C265.234 176.043 265.556 176.236 265.864 176.409C266.486 176.758 267.237 177.134 268.033 177.488C269.507 178.144 271.664 178.968 273.672 179.212L274.879 169.285C274.697 169.263 274.322 169.184 273.762 169C273.229 168.826 272.652 168.598 272.101 168.353C271.547 168.106 271.079 167.868 270.765 167.692C270.689 167.649 270.63 167.615 270.586 167.588C270.541 167.56 270.521 167.547 270.523 167.549C270.525 167.55 270.536 167.558 270.556 167.572C270.575 167.586 270.609 167.611 270.654 167.647C270.706 167.688 270.94 167.875 271.207 168.186L263.614 174.694ZM273.672 179.212C275.636 179.451 277.676 179.486 279.715 178.932C281.84 178.354 283.565 177.247 285.07 175.815L278.178 168.57C277.617 169.104 277.305 169.224 277.091 169.282C276.792 169.364 276.19 169.444 274.879 169.285L273.672 179.212ZM285.251 175.635L285.87 174.983L278.617 168.098L277.998 168.75L285.251 175.635ZM285.925 174.923C290.685 169.743 291.674 162.427 287.095 156.863L279.374 163.217C280.207 164.229 280.601 165.938 278.561 168.158L285.925 174.923ZM286.923 156.664L286.275 155.956L278.898 162.707L279.546 163.415L286.923 156.664ZM286.168 155.842L221.903 89.8736L214.74 96.8515L279.005 162.82L286.168 155.842ZM221.903 89.8744C215.22 83.0101 204.734 82.4968 197.469 88.5387L203.863 96.2274C207.11 93.5271 211.691 93.7209 214.739 96.8507L221.903 89.8744ZM197.328 88.6605L196.557 89.3516L203.233 96.7967L204.004 96.1056L197.328 88.6605ZM196.421 89.478L164.665 120.154L171.612 127.346L203.369 96.6703L196.421 89.478ZM164.602 120.216C158.643 126.179 150.59 129.454 142.337 129.454V139.454C153.222 139.454 163.826 135.139 171.675 127.284L164.602 120.216ZM142.337 129.454C134.065 129.454 126.022 126.179 120.078 120.2L112.987 127.251C120.829 135.138 131.432 139.454 142.337 139.454V129.454ZM120.074 120.196C108.159 108.242 107.854 88.7006 119.18 76.3632L111.813 69.6006C96.891 85.8562 97.2771 111.489 112.991 127.255L120.074 120.196ZM119.103 76.4455L120.239 75.2624L113.027 68.3351L111.891 69.5183L119.103 76.4455ZM120.115 75.3872L147.45 48.8648L140.487 41.6878L113.151 68.2103L120.115 75.3872ZM146.941 41.2562L146.58 40.989L140.634 49.0291L140.995 49.2964L146.941 41.2562ZM146.51 40.9384C134.845 32.6181 121.7 29.1822 104.924 28.4487L104.487 38.4392C120.06 39.12 131.115 42.2407 140.704 49.0797L146.51 40.9384ZM104.885 28.4472L102.547 28.3635L102.189 38.3571L104.527 38.4408L104.885 28.4472ZM102.507 28.3622C63.7448 27.2822 30.1727 56.4023 28.2918 94.2424L38.2795 94.7388C39.8687 62.7666 68.4543 37.4173 102.229 38.3583L102.507 28.3622ZM142.337 208.067C139.25 208.067 136.288 209.166 133.896 211.151L140.283 218.846C140.936 218.304 141.654 218.067 142.337 218.067V208.067ZM133.717 211.308L133.084 211.885L139.83 219.267L140.463 218.689L133.717 211.308ZM132.916 212.047L121.713 223.286L128.796 230.346L139.999 219.106L132.916 212.047ZM121.713 223.286C116.441 228.576 116.435 236.799 121.706 242.087L128.788 235.028C127.413 233.648 127.407 231.739 128.796 230.346L121.713 223.286ZM121.718 242.1C124.287 244.658 127.579 246.008 131.134 246.008V236.008C130.232 236.008 129.476 235.712 128.775 235.015L121.718 242.1ZM131.134 246.008C134.218 246.008 137.145 244.991 139.562 242.983L133.171 235.291C132.6 235.766 131.949 236.008 131.134 236.008V246.008ZM139.743 242.825L140.365 242.256L133.612 234.88L132.99 235.449L139.743 242.825ZM140.535 242.093L141.382 241.24L134.29 234.19L133.442 235.043L140.535 242.093ZM138.112 242.707L138.135 242.706L137.583 232.721L137.56 232.723L138.112 242.707ZM141.4 241.244L151.757 230.855L144.676 223.795L134.318 234.184L141.4 241.244ZM151.758 230.855C156.684 225.913 157.038 218.365 152.662 213.045L144.939 219.397C146.03 220.723 145.993 222.473 144.675 223.795L151.758 230.855ZM152.505 212.863L151.92 212.217L144.511 218.933L145.096 219.579L152.505 212.863ZM151.759 212.047C149.228 209.506 145.872 208.067 142.337 208.067V218.067C143.111 218.067 143.945 218.373 144.672 219.102L151.759 212.047ZM108.728 174.348C105.64 174.348 102.679 175.446 100.287 177.432L106.674 185.126C107.326 184.585 108.044 184.348 108.728 184.348V174.348ZM100.107 177.588L99.4747 178.166L106.222 185.547L106.854 184.969L100.107 177.588ZM99.3068 178.327L88.1038 189.567L95.1864 196.626L106.389 185.386L99.3068 178.327ZM88.1038 189.567C82.8315 194.856 82.8256 203.08 88.0963 208.368L95.179 201.308C93.8039 199.929 93.7981 198.019 95.1864 196.626L88.1038 189.567ZM88.1091 208.38C90.6776 210.939 93.9696 212.288 97.5246 212.288V202.288C96.6233 202.288 95.8664 201.993 95.1662 201.295L88.1091 208.38ZM97.5246 212.288C100.608 212.288 103.536 211.272 105.952 209.264L99.5623 201.572C98.9903 202.047 98.3395 202.288 97.5246 202.288V212.288ZM106.134 209.106L106.756 208.536L100.003 201.16L99.3809 201.73L106.134 209.106ZM106.926 208.373L107.773 207.52L100.681 200.471L99.8331 201.323L106.926 208.373ZM105.311 208.877L105.336 208.871L103.169 199.109L103.143 199.114L105.311 208.877ZM107.793 207.52L118.148 197.136L111.067 190.075L100.712 200.459L107.793 207.52ZM118.149 197.135C123.075 192.193 123.429 184.646 119.053 179.325L111.33 185.677C112.42 187.003 112.384 188.753 111.066 190.076L118.149 197.135ZM118.896 179.143L118.31 178.497L110.901 185.213L111.487 185.859L118.896 179.143ZM118.149 178.328C115.619 175.786 112.263 174.348 108.728 174.348V184.348C109.502 184.348 110.336 184.653 111.062 185.383L118.149 178.328ZM75.1185 140.628C72.0312 140.628 69.0694 141.726 66.6774 143.712L73.0647 151.406C73.717 150.865 74.4349 150.628 75.1185 150.628V140.628ZM66.4976 143.869L65.8655 144.447L72.6124 151.828L73.2445 151.25L66.4976 143.869ZM65.6976 144.607L54.4945 155.847L61.5772 162.907L72.7803 151.667L65.6976 144.607ZM54.4945 155.847C49.2223 161.137 49.2164 169.36 54.4871 174.648L61.5698 167.589C60.1947 166.209 60.1889 164.3 61.5772 162.907L54.4945 155.847ZM54.4999 174.661C57.0684 177.219 60.3604 178.569 63.9154 178.569V168.569C63.0141 168.569 62.2572 168.273 61.557 167.576L54.4999 174.661ZM63.9154 178.569C66.9993 178.569 69.926 177.552 72.343 175.544L65.9533 167.852C65.3806 168.328 64.7299 168.569 63.9154 168.569V178.569ZM72.5242 175.386L73.1465 174.816L66.3944 167.44L65.7721 168.01L72.5242 175.386ZM73.3163 174.654L74.1637 173.801L67.0721 166.751L66.2246 167.603L73.3163 174.654ZM71.5496 175.188L71.5728 175.184L69.7094 165.359L69.6863 165.363L71.5496 175.188ZM74.1815 173.802L84.5384 163.417L77.4576 156.355L67.1007 166.741L74.1815 173.802ZM84.5393 163.416C89.4653 158.473 89.8195 150.926 85.444 145.606L77.7206 151.958C78.8111 153.284 78.775 155.034 77.4567 156.356L84.5393 163.416ZM85.2869 145.424L84.7013 144.778L77.2921 151.494L77.8777 152.14L85.2869 145.424ZM84.5403 144.608C82.0099 142.066 78.6539 140.628 75.1185 140.628V150.628C75.8927 150.628 76.7269 150.934 77.4531 151.663L84.5403 144.608ZM228.763 28.334L227.041 28.3608L227.197 38.3596L228.919 38.3328L228.763 28.334ZM226.978 28.3622C205.367 28.9703 189.581 33.7045 175.897 46.7071L182.785 53.9563C194.096 43.2088 207.167 38.9237 227.26 38.3583L226.978 28.3622ZM175.86 46.7431L132.976 88.3493L139.939 95.5265L182.823 53.9203L175.86 46.7431ZM132.916 88.4081C127.644 93.6977 127.638 101.921 132.909 107.209L139.991 100.149C138.616 98.7699 138.61 96.8605 139.999 95.4676L132.916 88.4081ZM132.921 107.222C135.49 109.78 138.782 111.13 142.337 111.13V101.13C141.436 101.13 140.679 100.834 139.978 100.137L132.921 107.222ZM142.337 111.13C145.507 111.13 148.433 110.049 150.996 107.919L144.605 100.228C143.749 100.939 143.06 101.13 142.337 101.13V111.13ZM151.156 107.78L151.699 107.289L144.988 99.8749L144.445 100.367L151.156 107.78ZM151.817 107.179L183.829 76.2691L176.882 69.0753L144.871 99.9848L151.817 107.179ZM183.829 76.269C197.769 62.8074 220.042 62.8266 233.95 76.0878L240.851 68.8503C223.074 51.9013 194.693 51.8765 176.882 69.0755L183.829 76.269ZM233.884 76.0231L234.973 77.1014L242.007 69.9934L240.917 68.9151L233.884 76.0231ZM234.908 77.0359L285.448 128.931L292.612 121.954L242.072 70.0589L234.908 77.0359ZM293.471 127.74L293.908 126.895L285.026 122.301L284.589 123.145L293.471 127.74ZM293.955 126.803C298.796 116.952 301.373 107.001 301.266 96.6289L291.267 96.7321C291.355 105.298 289.247 113.71 284.98 122.392L293.955 126.803ZM301.264 96.5299L301.198 94.3396L291.203 94.6407L291.269 96.831L301.264 96.5299ZM301.194 94.2419C299.373 57.6029 267.833 29.1387 230.662 28.3499L230.45 38.3476C262.827 39.0347 289.668 63.7822 291.207 94.7384L301.194 94.2419ZM230.601 28.349L228.886 28.3336L228.796 38.3332L230.511 38.3486L230.601 28.349Z" fill="#1E88E5"/>
</g>
</svg>
