<?xml version="1.0" encoding="utf-8"?>
<!-- Generator: Adobe Illustrator 28.1.0, SVG Export Plug-In . SVG Version: 6.00 Build 0)  -->
<svg version="1.1" id="Layer_1" xmlns="http://www.w3.org/2000/svg" xmlns:xlink="http://www.w3.org/1999/xlink" x="0px" y="0px"
	 viewBox="0 0 1673.9 346.2" style="enable-background:new 0 0 1673.9 346.2;" xml:space="preserve">
<style type="text/css">
	.st0{fill:#FFFFFF;}
	.st1{fill:#00954C;}
</style>
<g>
	<rect class="st0" width="1673.9" height="346.2"/>
	<polygon class="st1" points="1500.3,173.3 1419.9,173.3 1419.9,86.6 1506.5,0 0,0 0,346.2 1159.4,346.2 1372.7,132.9 1372.7,217.3 
		1456,217.3 1326.8,346.2 1673.9,346.2 1673.9,0 	"/>
	<path class="st0" d="M262.2,141.2c0.8,0,35.8-0.3,35.8,0v67.2c-0.1,10.9,2,18.1,11.8,18.1c10.1,0,11.8-6.9,11.6-18.1
		c0-0.2,0-65.2,0-67.3c0-0.2,35.5,0,36.1,0c0,28.3,0.3,73.7,0,73.9c0,25.4-21.8,43.2-47.3,43.2c-26.3,0-47.8-17.9-47.9-43.4
		C262.1,214.8,262.3,141.5,262.2,141.2"/>
	<path class="st0" d="M666.9,147.3c0,0-15.7-9.6-38.1-9.2c-45,0.7-44.8,35.8-44.8,37.1c-0.8,20.7,15.9,30.9,18.3,32.1
		c6.8,3.6,19.5,7.2,20.3,7.4c8.5,1.6,9.5,7.1,9.4,8.4c-0.5,8.9-15.3,6.5-18.3,6.2c-7-0.9-23.3-6.5-23.9-7.7
		c-0.1-0.4-8.7,25.8-8.7,25.8s19.7,12.2,41.6,11.3c47.4-2.1,46.5-37.3,46.6-38.8c1.4-23.9-24.1-32.3-25-32.8
		c-0.9-0.6-13-3.9-14.5-4.5c-4.6-1.9-10.4-3.1-10.3-8.8c0.1-6.3,8.2-6.9,14.5-6c13.5,2.1,23.3,6.6,23.3,6.6L666.9,147.3z"/>
	<polygon class="st0" points="167.4,87.2 167.4,255.3 258.1,255.3 258.1,219.3 206.6,219.3 206.6,87.2 	"/>
	<path class="st0" d="M463.8,224.5c-10.7,36.5-46.5,34.1-46.5,34.1c-51.9-0.8-49.6-62.1-49.6-62.1c2.8-63.4,50.5-58.1,50.5-58.1
		c40.5-0.2,45.4,33.4,45.4,33.4l-28,12.5l-4.6-8.4c-5.2-8.7-12.7-7.3-12.7-7.3c-13.1,0.9-12.7,30.7-12.7,30.7s0,28.7,12.3,29.5
		c-0.3,0,7.6,1.5,13.4-7.2l4.6-8.7C436,213.2,463.8,224.5,463.8,224.5"/>
	<path class="st0" d="M570.9,140.8h-37.4v11.5c0,0-9.4-13.6-26.9-14c0,0-33-1.7-35.4,57.7c0,0-3.3,58.1,31.9,62.9
		c0,0,18.6,3.1,30.6-15.7l0.1,12.1h37.1L570.9,140.8z M520.8,224.8c-9.3,0.3-13.8-11.6-13.8-25.9c0-14.3,5.4-25.9,13.8-25.9
		c8.8-0.3,13.9,11.6,13.9,25.9C534.7,213.2,529.9,224.8,520.8,224.8"/>
</g>
</svg>
