<svg width="46" height="46" viewBox="0 0 46 46" fill="none" xmlns="http://www.w3.org/2000/svg">
<g id="&#208;&#161;&#208;&#187;&#208;&#190;&#208;&#185;_x0020_1">
<path id="Vector" fill-rule="evenodd" clip-rule="evenodd" d="M19.2072 10.2304V18.5853C19.2072 19.0437 19.44 19.5056 19.7133 19.8635C19.849 20.0415 20.036 20.2531 20.2511 20.3395C20.3463 20.3783 20.4891 20.3836 20.5632 20.4259C20.8382 20.5845 20.7448 22.6437 20.7448 22.9082C20.7448 23.7491 20.0289 23.832 19.3518 23.8267L7.82183 23.8214C6.59989 23.8214 5.37795 24.5619 5.37795 25.8859V27.6136C5.37795 27.6418 5.35503 27.6648 5.32682 27.6648H2.06125C1.03327 27.6648 0 28.6979 0 29.7257V37.601C0 38.0383 0.280359 38.3186 0.717648 38.3186C1.68392 38.3186 1.4353 37.1109 1.4353 36.448V31.0709C1.4353 30.3181 1.26073 29.0998 2.35043 29.0998H9.84253C10.3451 29.0998 10.7577 29.5124 10.7577 30.0148V43.6517C10.7577 44.1541 10.3451 44.5667 9.84253 44.5667H2.35043C0.278596 44.5667 2.5197 39.9564 0.717648 39.9564C0.282122 39.9564 0 40.2367 0 40.674V43.939C0 44.9669 1.03327 46 2.06125 46H10.1299C11.1579 46 12.193 44.9669 12.193 43.939V29.7257C12.193 28.6979 11.1597 27.6648 10.1299 27.6648H6.86438C6.83617 27.6648 6.81325 27.6418 6.81325 27.6136C6.81325 27.1535 6.70393 25.9176 7.01602 25.5615C7.24701 25.2988 7.7372 25.2724 8.06164 25.2583C8.86745 25.223 9.705 25.2583 10.5143 25.2583L19.738 25.26C22.6227 25.26 22.1818 22.7178 22.1818 20.6991C22.1818 20.6709 22.2048 20.648 22.233 20.648C22.4992 20.648 24.0209 20.551 24.2096 20.7273C24.3048 20.8155 24.4494 21.2703 24.5182 21.4131C24.8567 22.1131 25.1935 22.5944 25.7383 23.1462C25.9164 23.326 26.1245 23.3877 26.1245 23.6751V26.845C26.1245 26.8732 26.1016 26.8961 26.0734 26.8961C22.6562 26.8961 20.4362 26.7427 17.8248 29.3537C16.4301 30.7483 15.3668 32.8092 15.3668 34.8155V45.2825C15.3668 45.7197 15.6472 46 16.0845 46H45.2823C45.7196 46 46 45.7197 46 45.2825V34.8155C46 30.8258 42.0697 26.8961 38.0794 26.8961H35.2935C35.2653 26.8961 35.2423 26.8732 35.2423 26.845V23.6751C35.2423 23.4036 35.4081 23.3648 35.5809 23.1938C35.5967 23.1779 35.6144 23.162 35.6285 23.1462C36.5436 22.2206 36.6318 21.7922 37.1678 20.6762C37.1766 20.6586 37.1943 20.648 37.2137 20.648C38.0724 20.648 39.9026 20.8173 40.6467 20.5475C41.4508 20.2566 42.1561 19.4721 42.1561 18.5853V10.2304C42.1561 4.95199 37.2101 0.00499809 31.9292 0.00499809C29.51 0.00499809 27.5951 -0.12899 25.3557 0.990517C21.8874 2.72355 19.2055 6.25308 19.2055 10.2304H19.2072ZM22.2806 10.3256V13.7829C22.2806 13.8111 22.2577 13.834 22.2295 13.834C21.6053 13.834 21.3214 13.7846 20.7042 13.9292C20.6884 13.9327 20.6743 13.9292 20.6601 13.9186C20.6478 13.908 20.6408 13.8939 20.6408 13.8781C20.6408 9.46351 20.4838 6.70265 24.0403 3.58566C26.8792 1.09806 32.2589 0.791298 35.5703 2.43618C37.9454 3.61563 39.9026 5.95866 40.4404 8.57672C40.7948 10.2992 40.719 12.1292 40.719 13.8798C40.719 13.8957 40.712 13.9098 40.6996 13.9204C40.6873 13.931 40.6714 13.9345 40.6556 13.931C40.0384 13.7864 39.7545 13.8358 39.1303 13.8358C39.1021 13.8358 39.0792 13.8128 39.0792 13.7846C39.0792 11.0978 39.4177 9.54637 38.157 7.05172C37.9278 6.59863 37.3001 5.49852 36.6283 5.89167C36.4131 6.01684 36.2033 6.33242 36.2033 6.58276C36.2033 6.8049 36.3814 7.02704 36.5084 7.19805C37.8326 8.99984 37.6439 11.1913 37.6439 13.3051C37.6439 13.328 37.6298 13.3474 37.6086 13.3545C37.5875 13.3615 37.5646 13.3545 37.5504 13.3351C37.2436 12.8926 37.2419 12.5611 36.6353 12.376C36.2809 12.2684 35.8559 12.2173 35.5315 12.1027C35.1048 11.9529 34.4841 11.2794 34.1703 10.9656C33.9693 10.7646 33.599 10.2287 33.435 10.1088C33.2745 9.99065 32.9801 9.99594 32.7914 9.99594C32.772 9.99594 32.7544 9.9977 32.735 10.0012C32.5393 10.0435 32.3347 10.3609 32.2272 10.5143C31.9415 10.9198 31.6682 11.2847 31.3173 11.6391C29.6334 13.3333 26.0716 13.8375 23.7635 13.8375C23.7353 13.8375 23.7124 13.8146 23.7124 13.7864C23.7124 10.9744 23.3791 8.51854 25.5479 6.35005C27.2195 4.67872 28.8893 4.51476 31.1604 4.51476C31.7669 4.51476 32.3841 4.59233 32.9748 4.72985C33.4509 4.84092 33.6378 4.94493 34.0486 5.15121C34.2884 5.27109 34.5458 5.28167 34.8103 5.28167C35.2741 5.28167 35.3358 4.7228 35.3358 4.37196C35.3358 3.6121 32.4405 3.07791 31.8322 3.07791C28.7906 3.07791 26.8086 2.98271 24.4952 5.29577C23.2134 6.57748 22.2771 8.49739 22.2771 10.3256H22.2806ZM20.6425 18.2962C20.6425 14.8777 20.341 15.2691 23.767 15.2691C23.7952 15.2691 23.8182 15.292 23.8182 15.3202V19.1618C23.8182 19.19 23.7952 19.2129 23.767 19.2129C23.5977 19.2129 23.4285 19.2164 23.2592 19.2217C22.4693 19.2482 20.6425 19.5056 20.6425 18.2962ZM39.8074 19.2112H37.5981C37.5698 19.2112 37.5469 19.1882 37.5469 19.16V15.3184C37.5469 15.2902 37.5698 15.2673 37.5981 15.2673C41.0241 15.2673 40.7226 14.8777 40.7226 18.2944C40.7226 18.7969 40.31 19.2094 39.8074 19.2094V19.2112ZM25.2534 17.9118V15.3184C25.2534 15.2902 25.2764 15.2673 25.3046 15.2673C27.5492 15.2673 30.6155 14.31 32.3047 12.8062C32.5657 12.5735 32.7597 12.3037 33.0559 12.1063C33.0735 12.0939 33.0964 12.0939 33.1141 12.108C33.4703 12.3689 33.7841 12.7356 34.1703 13.016C34.7292 13.425 35.3605 13.7141 36.064 13.73C36.0922 13.73 36.1134 13.7529 36.1134 13.7811C36.1134 17.39 36.8469 21.3849 32.9483 23.2714C31.9203 23.7685 30.7636 23.9166 29.644 23.6962C26.8333 23.1444 25.2534 20.6709 25.2534 17.9101V17.9118ZM27.6215 24.5848C28.2193 24.7241 28.7853 25.0114 29.42 25.1525C30.448 25.3817 31.4443 25.3129 32.4564 25.0273C32.8972 24.9021 33.2992 24.6888 33.7453 24.5848C33.7612 24.5813 33.7753 24.5848 33.7894 24.5936C33.8017 24.6042 33.8088 24.6183 33.8088 24.6342C33.8088 25.3411 33.83 26.0498 33.8176 26.7568C33.8035 27.4779 33.3874 27.6224 32.906 28.1037C32.2818 28.7279 31.4108 29.7786 30.7125 30.2476C30.6949 30.2599 30.6737 30.2599 30.6561 30.2476C29.9578 29.7804 29.0885 28.7296 28.4626 28.1037C28.2492 27.8904 27.7467 27.4708 27.6197 27.2134C27.4452 26.8555 27.5598 25.0661 27.5598 24.6342C27.5598 24.6183 27.5669 24.6042 27.5792 24.5936C27.5915 24.583 27.6074 24.5795 27.6233 24.5848H27.6215ZM20.7448 37.5993V39.9035C20.7448 39.9317 20.7219 39.9547 20.6937 39.9547H16.8515C16.8233 39.9547 16.8004 39.9317 16.8004 39.9035C16.8004 36.5609 16.2573 32.9802 18.8546 30.3815C21.0833 28.1531 23.4355 28.3276 26.3608 28.3276C26.6799 28.3276 27.2054 29.0082 27.4293 29.2303C27.8137 29.6146 30.2206 32.1675 30.4903 32.1675C31.3279 32.1675 31.2962 31.8695 31.871 31.2948L33.8881 29.2779C34.1015 29.0646 34.5265 28.5445 34.7768 28.414C35.1401 28.2236 36.7817 28.3259 37.2137 28.3259C41.5389 28.3259 44.5647 31.3512 44.5647 35.6758V39.9018C44.5647 39.93 44.5418 39.9529 44.5136 39.9529H40.6714C40.6432 39.9529 40.6203 39.93 40.6203 39.9018C40.6203 39.2865 40.8354 37.4459 40.3593 37.0263C40.2306 36.9152 40.0684 36.8782 39.9026 36.8782C39.4671 36.8782 39.185 37.1585 39.185 37.5958V44.5103C39.185 44.5385 39.1621 44.5614 39.1339 44.5614H22.2295C22.2012 44.5614 22.1783 44.5385 22.1783 44.5103V37.5958C22.1783 36.6314 20.743 36.6314 20.743 37.5958L20.7448 37.5993ZM16.8515 41.3897H20.6937C20.7219 41.3897 20.7448 41.4127 20.7448 41.4409V44.5138C20.7448 44.542 20.7219 44.5649 20.6937 44.5649H16.8515C16.8233 44.5649 16.8004 44.542 16.8004 44.5138V41.4409C16.8004 41.4127 16.8233 41.3897 16.8515 41.3897ZM40.6714 41.3897H44.5136C44.5418 41.3897 44.5647 41.4127 44.5647 41.4409V44.5138C44.5647 44.542 44.5418 44.5649 44.5136 44.5649H40.6714C40.6432 44.5649 40.6203 44.542 40.6203 44.5138V41.4409C40.6203 41.4127 40.6432 41.3897 40.6714 41.3897Z" fill="#3E8DB1"/>
</g>
</svg>
