<svg width="49" height="46" viewBox="0 0 49 46" fill="none" xmlns="http://www.w3.org/2000/svg">
<g id="&#208;&#161;&#208;&#187;&#208;&#190;&#208;&#185;_x0020_1">
<path id="Vector" fill-rule="evenodd" clip-rule="evenodd" d="M28.5251 25.1252C28.1774 25.0416 25.1853 25.1608 24.74 25.1717C23.5505 25.2011 22.3488 25.2491 21.1623 25.2491C20.1818 25.3312 19.9225 26.3101 19.9225 27.1588C19.9225 27.1867 19.8996 27.2099 19.8722 27.2099C19.009 27.2099 17.5389 27.2517 17.3102 28.339V29.4294C17.3529 29.8708 17.4017 30.3308 17.3102 30.7645L17.3086 44.6777C17.5328 45.638 18.1672 45.9648 19.1158 45.9601C23.154 45.9384 27.1907 45.9864 31.2244 45.9864C31.7292 45.9137 32.1562 45.7231 32.1562 45.1346C32.1562 44.4686 31.5767 44.3137 31.0262 44.3137H18.9053C18.8779 44.3137 18.855 44.2905 18.855 44.2626V28.9028C18.855 28.8749 18.8779 28.8517 18.9053 28.8517H19.8707C19.8981 28.8517 19.921 28.8749 19.921 28.9028C19.921 29.513 19.7319 31.1687 20.1772 31.6055C20.3266 31.7511 20.5279 31.7929 20.7292 31.7929C21.3697 31.7929 21.5375 31.3298 21.5375 30.7552V26.8336C21.5375 26.8057 21.5604 26.7824 21.5878 26.7824H30.1691C31.049 26.7824 31.839 27.3849 32.1836 28.1903C32.542 29.0283 32.3636 30.5771 32.3636 31.5172C32.3636 33.842 32.3636 36.1653 32.3636 38.4901C32.3636 38.5071 32.356 38.5211 32.3438 38.5304C32.33 38.5396 32.3163 38.5427 32.2995 38.5396C31.9793 38.4529 31.6514 38.2283 31.3373 38.0936C30.7608 37.8473 30.1447 37.7776 29.5225 37.7776H21.5848C21.5573 37.7776 21.5345 37.7544 21.5345 37.7265C21.5345 37.2758 21.5604 36.8235 21.5741 36.3728C21.5939 35.7285 21.7159 33.856 20.7262 33.856C20.2306 33.856 19.9179 34.3113 19.9179 34.7853V40.9945C19.9179 41.8929 20.5584 42.6859 21.4765 42.6859H38.3173C38.9578 42.6859 39.275 41.3322 38.3081 41.1618L34.1341 41.1541C34.1158 41.1541 34.1006 41.1448 34.0914 41.1293C34.0823 41.1138 34.0823 41.0952 34.0899 41.0797C34.6389 40.0281 35.255 39.4194 36.4949 39.4194H44.8611C44.8886 39.4194 44.9114 39.4426 44.9114 39.4705V41.1045C44.9114 41.1324 44.8886 41.1556 44.8611 41.1556H41.535C40.8701 41.1556 40.5834 42.6874 41.7501 42.6874H45.0746C45.8478 42.6874 46.4181 41.8371 46.4181 41.1045V28.9028C46.4181 28.8749 46.441 28.8517 46.4685 28.8517H47.5421C47.5695 28.8517 47.5924 28.8749 47.5924 28.9028V44.2626C47.5924 44.2905 47.5695 44.3137 47.5421 44.3137H35.528C35.0751 44.3137 34.3263 44.3958 34.2089 44.9565C34.1494 45.243 34.2927 45.641 34.523 45.8176C34.9149 46.1181 44.9633 45.9477 46.3983 45.9849H47.1151C47.6595 45.9648 48.3168 45.8827 48.7026 45.4459C48.8551 45.274 48.942 45.0277 48.9969 44.814V30.5012C48.9847 30.3401 48.9878 30.1806 48.9969 30.0226L49 28.1516C48.6599 27.2517 47.2462 27.2099 46.4685 27.2099C46.441 27.2099 46.4181 27.1867 46.4181 27.1588C46.4181 25.9012 46.3739 25.8717 45.4452 25.2878C44.274 24.9889 42.5812 25.0849 41.3551 25.102C41.1035 25.1051 40.8503 25.1066 40.5987 25.1066C39.1774 25.1051 37.7027 25.0369 36.289 25.1655C35.4121 25.2445 34.1311 25.4365 33.5684 26.2125C33.454 26.3705 33.3732 26.5455 33.3228 26.736C33.3167 26.7577 33.3 26.7716 33.2786 26.7732C33.2557 26.7747 33.2374 26.7623 33.2283 26.7422C33.181 26.6245 33.1292 26.5068 33.0681 26.3952C32.3499 25.071 29.7985 25.1391 28.5556 25.1391C28.5419 25.1391 28.5297 25.1345 28.5205 25.1252H28.5251ZM21.5878 39.4178H30.0623C30.5671 39.4178 31.0216 39.6362 31.4272 39.9212C31.8649 40.2279 32.0144 40.6228 32.2523 41.0797C32.2599 41.0952 32.2599 41.1138 32.2507 41.1293C32.2416 41.1448 32.2263 41.1541 32.208 41.1541H21.5894C21.5619 41.1541 21.539 41.1308 21.539 41.103V39.4689C21.539 39.4411 21.5619 39.4178 21.5894 39.4178H21.5878ZM33.9801 38.4885C33.9801 36.2009 33.9801 33.9133 33.9801 31.6257C33.9801 30.6886 33.8002 29.132 34.1616 28.2988C34.5261 27.4593 35.226 26.7809 36.1746 26.7809H44.8626C44.8901 26.7809 44.913 26.8041 44.913 26.832V37.7265C44.913 37.7544 44.8901 37.7776 44.8626 37.7776C43.3086 37.7776 41.7531 37.7404 40.1976 37.7404C39.2018 37.7404 38.2029 37.7466 37.2086 37.7869C36.6718 37.8086 35.8239 37.8287 35.313 37.9759C34.8463 38.1106 34.4651 38.4235 34.0426 38.5381C34.0274 38.5427 34.0121 38.5396 33.9984 38.5288C33.9862 38.5195 33.9786 38.5056 33.9786 38.4885H33.9801ZM37.2482 29.8306H42.3967C43.4505 29.8306 43.2202 28.2988 42.505 28.2988H37.2482C36.2463 28.2988 36.2097 29.8306 37.2482 29.8306ZM37.1415 35.6046H42.2899C43.2583 35.6046 43.696 33.9628 41.8614 33.9628H37.57C35.9642 33.9628 36.4217 35.6046 37.1415 35.6046ZM37.3565 32.7718H42.0764C43.5725 32.7718 43.3056 31.13 42.2915 31.13H37.358C36.1868 31.13 36.2143 32.7718 37.358 32.7718H37.3565ZM12.2227 0.00154883C11.7728 0.00154883 11.3367 0.551385 11.3367 0.988156C11.3367 1.54729 11.9314 1.95773 12.3279 2.25665L14.1259 3.7141C14.3165 3.86744 14.3699 3.98205 14.6185 4.0502C14.6414 4.0564 14.6551 4.07653 14.6551 4.09976V4.27323C14.6551 4.30111 14.6338 4.32435 14.6063 4.32435C13.2018 4.35687 9.87875 6.01258 8.67704 6.82262L7.4128 7.69616C7.01019 8.00438 6.64724 8.35596 6.25074 8.66728L4.68759 10.2688C4.20111 10.9146 3.67651 11.5435 3.2068 12.1986C2.63035 13.0009 2.18047 13.8961 1.74431 14.7821C-0.337334 19.0026 -0.502036 24.6001 0.963504 29.0515C1.79006 31.5621 3.1519 33.8653 4.92092 35.806C5.08715 35.9887 5.2122 36.1916 5.38453 36.3697C7.2542 38.2949 10.0374 40.1195 12.5674 40.9698C13.0005 41.1154 13.7706 41.4205 14.2022 41.453C15.2209 41.5289 15.8111 39.9212 14.4096 39.4209C13.8468 39.2196 13.2765 39.0492 12.7122 38.8525C11.8658 38.5582 11.1308 38.1927 10.3591 37.7281C9.78267 37.3811 9.23519 37.028 8.71211 36.6005C8.35526 36.3093 8.00756 36.0089 7.64003 35.7177L6.18821 34.2432C5.59955 33.4719 5.0841 32.936 4.57627 32.0686C2.81335 29.0546 1.95782 26.4061 1.95782 22.8531C1.95782 17.3036 4.78367 11.8439 9.33737 8.76176C10.7328 7.81697 12.6116 6.85669 14.2525 6.46948C14.2723 6.46484 14.2937 6.47258 14.3059 6.48962C14.3181 6.50665 14.3181 6.52989 14.3059 6.54692C14.1351 6.80558 13.9444 7.05029 13.7264 7.26868C13.3512 7.6466 12.0168 9.03745 12.0168 9.54392C12.0168 9.89395 12.2883 10.2641 12.5811 10.4299C13.0386 10.6901 13.4854 10.4934 13.8255 10.1387L17.6289 5.88247C18.1306 5.22422 18.1276 5.55567 18.1276 4.61708C18.1276 4.26084 17.1516 3.56697 16.8816 3.34858L14.0344 1.05321C13.49 0.605594 12.9745 0 12.2197 0L12.2227 0.00154883ZM18.7406 12.3969V21.9904C18.7406 22.4937 19.0853 23.0621 19.6267 23.0621H28.4763C29.6582 23.0621 29.6582 21.0889 28.4763 21.0889H20.8177C20.7902 21.0889 20.7674 21.0657 20.7674 21.0378V12.4821C20.7674 10.9239 18.7406 10.8651 18.7406 12.3953V12.3969ZM36.562 23.581H38.8586C39.9307 23.581 40.4904 21.5226 38.2639 21.5226C37.4434 21.5226 35.9382 21.2825 35.6637 22.345C35.5097 22.9413 35.9398 23.581 36.562 23.581ZM34.6542 17.0635C34.6542 17.5979 35.0781 18.1353 35.6256 18.1353C36.0328 18.1353 37.0469 17.7512 37.4709 17.6087C38.2227 17.3562 38.7229 17.3036 38.7229 16.3712C38.7229 15.7563 38.2212 15.4713 37.6676 15.4713C37.3336 15.4713 35.3374 16.128 35.0583 16.3263C34.8738 16.4564 34.6542 16.8312 34.6542 17.062V17.0635ZM20.0171 5.0492C20.0171 5.97695 21.783 6.67548 22.0423 4.69452C22.1307 4.02077 22.3 3.30676 22.3 2.62992C22.3 1.76102 20.5203 1.0625 20.2733 2.89787C20.1772 3.60878 20.0171 4.33054 20.0171 5.05075V5.0492ZM26.3139 6.95117C26.3139 7.61717 26.7165 8.02451 27.3707 8.02451C28.0417 8.02451 28.2826 7.28882 28.5678 6.80248C29.0147 6.04045 30.0212 4.55667 28.6471 4.1261C28.1927 3.9836 27.7763 4.20509 27.511 4.57526C27.3127 4.8525 26.3154 6.7111 26.3154 6.95117H26.3139ZM23.247 31.9494C23.247 32.5999 23.703 32.7702 24.2703 32.7702H28.9903C30.1767 32.7702 30.2408 31.1285 28.9903 31.1285H24.0553C23.5642 31.1285 23.247 31.4506 23.247 31.9494ZM23.247 34.7822C23.247 35.2809 23.5642 35.6031 24.0553 35.6031H29.097C30.1904 35.6031 30.2697 33.9613 28.7752 33.9613H24.3771C23.8265 33.9613 23.247 34.1162 23.247 34.7822ZM23.247 28.8997C23.247 29.2838 23.3675 29.829 23.8403 29.829H29.3105C29.9754 29.829 30.2621 28.2972 29.0955 28.2972H23.8403C23.61 28.2972 23.247 28.6658 23.247 28.8997ZM31.4196 11.2724C31.4196 11.6317 31.6346 11.9849 31.9457 12.1537C32.3819 12.3907 32.8516 12.2157 33.2146 11.9276C33.4357 11.751 33.6461 11.559 33.8657 11.3793C34.1189 11.1717 34.8311 10.6746 34.9714 10.3896C35.0659 10.1991 35.0644 9.92648 35.0644 9.71739C35.0644 9.39833 34.828 9.0994 34.5474 8.97395C34.0914 8.7695 33.6034 8.99873 33.2466 9.2961L31.8481 10.4639C31.5889 10.7164 31.4196 10.8759 31.4196 11.2724Z" fill="#3E8DB1"/>
</g>
</svg>
