<svg width="37" height="36" viewBox="0 0 37 36" fill="none" xmlns="http://www.w3.org/2000/svg">
<g id="Group">
<path id="Vector" d="M26.7851 14.8121H25.8101L25.7668 14.8229C20.1232 15.1249 15.7036 19.7746 15.7036 25.406C15.7036 31.0482 20.134 35.6979 25.7993 36H26.7959H26.8067C32.5262 35.7626 36.9999 31.113 36.9999 25.406C36.9999 19.7099 32.5154 15.0494 26.7851 14.8121ZM27.0992 24.9853V22.7629C28.2582 22.709 29.3956 22.504 30.4897 22.148C30.7605 23.065 30.923 24.0251 30.9555 24.9853H27.0992ZM31.378 20.1738C30.8255 18.9224 30.0456 17.7464 29.1032 16.7324C30.598 17.207 31.9521 18.0593 33.0353 19.2136C32.5154 19.5804 31.9521 19.9041 31.378 20.1738ZM29.9806 20.7347C29.049 21.0368 28.0849 21.2094 27.11 21.2634V16.8834C28.3341 17.9514 29.3198 19.2676 29.9806 20.7347ZM32.6779 31.9652C31.6705 32.9253 30.4464 33.6481 29.1248 34.0797C29.9373 33.195 30.6197 32.2133 31.1505 31.1453C31.6813 31.3827 32.1904 31.6523 32.6779 31.9652ZM27.0992 28.6856V26.4956H30.9122C30.8255 27.445 30.6197 28.362 30.3056 29.2466C29.2765 28.923 28.1933 28.7395 27.0992 28.6856ZM27.0992 30.196C27.9874 30.2391 28.8649 30.3901 29.7098 30.6275C29.0707 31.8681 28.1716 32.9901 27.0992 33.9286V30.196ZM31.7354 29.7536C32.1145 28.7072 32.3421 27.6068 32.4395 26.4848H35.4292C35.2451 28.0599 34.6493 29.5487 33.6961 30.8217C33.0678 30.4117 32.4179 30.0557 31.7354 29.7536ZM31.9087 21.5978C32.6345 21.2634 33.3169 20.8642 33.9777 20.4003C34.8876 21.7704 35.4076 23.3455 35.4834 24.9853H32.4829C32.4395 23.8309 32.2445 22.6874 31.9087 21.5978ZM17.2201 24.9961C17.296 23.2915 17.8484 21.6625 18.8233 20.2601C19.4299 20.7024 20.069 21.1016 20.7298 21.4252C20.3615 22.5795 20.1557 23.777 20.1124 24.9961H17.2201ZM21.5206 31.2963C22.0297 32.2888 22.6688 33.1951 23.4162 34.0257C22.203 33.6158 21.0764 32.9469 20.1449 32.0839C20.5782 31.7818 21.0439 31.5229 21.5206 31.2963ZM25.5935 26.4956V28.7072C24.467 28.7827 23.3729 28.9985 22.3113 29.3545C21.9755 28.4375 21.7589 27.4881 21.6722 26.4956H25.5935ZM20.1557 26.4956C20.2532 27.6715 20.5023 28.8259 20.914 29.9155C20.2857 30.2175 19.6791 30.5627 19.1158 30.9511C18.1084 29.6457 17.4801 28.1246 17.2851 26.4956H20.1557ZM22.9288 30.7354C23.7845 30.4549 24.6836 30.2823 25.5935 30.2175V34.0257C24.4995 33.098 23.5895 31.976 22.9288 30.7354ZM25.5935 16.7863V21.231C24.5969 21.1555 23.6112 20.9397 22.6688 20.6053C23.3404 19.1597 24.3478 17.8543 25.5935 16.7863ZM25.5935 22.7521V24.9961H21.6289C21.6614 23.982 21.8347 22.9895 22.1272 22.0293C23.2429 22.4177 24.402 22.6658 25.5935 22.7521ZM23.4271 16.7863C22.5496 17.7572 21.813 18.8468 21.2822 20.012C20.7623 19.7423 20.2532 19.4294 19.7766 19.0842C20.7948 18.0485 22.0514 17.2502 23.4271 16.7863Z" fill="#3E8DB1"/>
<path id="Vector_2" d="M11.5443 9.42883H8.96625C8.61962 9.42883 8.32715 9.77403 8.32715 10.2163C8.32715 10.6587 8.60878 11.0039 8.96625 11.0039H11.5443C11.891 11.0039 12.1834 10.6587 12.1834 10.2163C12.1834 9.77403 11.891 9.42883 11.5443 9.42883Z" fill="#3E8DB1"/>
<path id="Vector_3" d="M17.9677 9.42883H15.3896C15.043 9.42883 14.7505 9.77403 14.7505 10.2163C14.7505 10.6587 15.0321 11.0039 15.3896 11.0039H17.9677C18.3143 11.0039 18.6068 10.6587 18.6068 10.2163C18.6068 9.77403 18.3252 9.42883 17.9677 9.42883Z" fill="#3E8DB1"/>
<path id="Vector_4" d="M24.4023 9.42883H21.8242C21.4775 9.42883 21.1851 9.77403 21.1851 10.2163C21.1851 10.6587 21.4667 11.0039 21.8242 11.0039H24.4023C24.7489 11.0039 25.0414 10.6587 25.0414 10.2163C25.0414 9.77403 24.7489 9.42883 24.4023 9.42883Z" fill="#3E8DB1"/>
<path id="Vector_5" d="M13.8082 20.1091C13.2015 20.1091 12.5949 20.0983 11.9883 20.1091C10.8943 20.1199 10.3093 20.9398 10.6884 21.9647C11.0567 22.968 11.4359 23.9712 11.8583 25.1256C11.5659 24.9206 11.4142 24.8127 11.2734 24.7049C9.45357 23.3671 7.62291 22.0402 5.82474 20.6701C5.31563 20.2817 4.68734 20.0659 4.04823 20.0983C3.22497 20.1415 2.40173 20.1091 1.58931 20.1091V1.56429H32.5155V14.5316C32.5155 14.9631 32.8622 15.3084 33.2955 15.3084C33.7288 15.3084 34.0754 14.9631 34.0754 14.5316C34.0754 10.2056 34.0754 5.87954 34.0754 1.55349C34.0754 0.690443 33.3821 0 32.5155 0C30.4466 0 28.3668 0 26.2978 0C18.0544 0 9.81103 0 1.55681 0C0.419419 0 0.0511041 0.539423 0.0511041 1.49957L0.0077987 20.0228C-0.0680275 21.134 0.40859 21.641 1.45932 21.641C2.34757 21.6518 3.2358 21.6087 4.11322 21.6626C4.40569 21.6842 4.69818 21.792 4.93649 21.9647C6.78881 23.2916 8.60862 24.6617 10.4393 26.0102C11.1001 26.4957 11.7175 27.0351 12.4216 27.4342C12.7249 27.6069 13.234 27.5961 13.5698 27.4666C14.0248 27.2832 14.0898 26.7977 13.949 26.3338C13.8731 26.0965 13.7756 25.8592 13.689 25.6326C13.2015 24.3273 12.7141 23.0327 12.205 21.6518C12.8007 21.6518 13.3207 21.6626 13.8298 21.6518C14.3173 21.641 14.6314 21.3821 14.6314 20.875C14.6206 20.3356 14.2956 20.1091 13.8082 20.1091Z" fill="#3E8DB1"/>
</g>
</svg>
