<svg width="42" height="46" viewBox="0 0 42 46" fill="none" xmlns="http://www.w3.org/2000/svg">
<g id="&#208;&#161;&#208;&#187;&#208;&#190;&#208;&#185;_x0020_1">
<path id="Vector" fill-rule="evenodd" clip-rule="evenodd" d="M32.9825 15.3926L32.1237 13.9803C30.8263 14.9324 29.3048 15.4064 27.6852 15.4064C26.1937 15.4064 24.4519 14.9126 23.2747 13.9902C23.1646 13.9033 23.0565 13.8184 22.9444 13.7394V15.7817H23.4589C25.7792 15.7817 27.8954 17.9998 27.5811 20.3049C27.4649 21.166 27.2447 21.9798 26.6481 22.6474C25.6331 23.7851 24.4599 24.2454 22.9444 24.2592V26.7558C22.9444 27.06 22.8883 27.3484 22.8803 27.6486H23.589C25.3608 27.6486 26.578 29.8568 25.8173 31.4232C25.551 31.9703 25.1286 32.4285 24.576 32.7011C24.2877 32.8433 23.9654 32.9559 23.6371 32.9836H23.3628C22.5119 32.9045 22.2116 31.996 22.9724 31.6306C23.2247 31.5101 23.6331 31.4982 23.9354 31.3758C24.3758 31.198 24.56 30.88 24.56 30.4119C24.56 29.1971 23.6871 29.0747 22.6801 29.0707C22.6401 29.4361 22.5139 29.8193 22.4239 30.1768L21.7352 32.2606C21.591 32.6241 21.4569 32.9816 20.9904 32.9816C20.4479 32.9816 20.2757 32.6517 20.1055 32.2034C19.7151 31.1782 19.4308 30.1334 19.1786 29.0687C18.0735 29.0727 16.9523 29.209 15.9293 28.6994C14.638 28.0575 13.9293 26.3944 14.3957 25.0374C14.5859 24.4843 14.694 24.3105 15.0544 23.8582C15.9833 22.6929 17.5489 22.7679 18.9063 22.7699V17.2019C17.9613 17.2098 17.0965 17.3697 16.3998 18.0532C16.3377 18.1144 16.2756 18.1835 16.2196 18.2507C15.7511 18.8018 15.603 19.5069 15.603 20.212C15.603 20.8836 16.6841 22.3986 15.2066 22.3986C14.4998 22.3986 14.1835 21.0298 14.1335 20.5202C14.0114 19.2501 14.4338 17.988 15.3147 17.0517C16.3557 15.9476 17.4608 15.7857 18.9063 15.7817V13.7394C18.7802 13.8302 18.6621 13.927 18.5379 14.0198C16.1555 15.8034 12.5439 15.8034 10.0674 14.2035C9.4027 13.7749 8.86816 13.2535 8.34163 12.6728C8.03332 12.333 7.82511 11.9064 7.49878 11.5864C7.37865 11.4679 7.23251 11.3869 7.10838 11.2664C6.20947 10.4013 5.79305 9.39791 5.62488 8.17923C5.53479 7.52939 5.02828 7.08103 4.73999 6.51612C4.49975 6.04603 4.27752 5.28164 4.21346 4.74834V4.13405C4.28153 3.73902 4.50775 3.4941 4.93218 3.49212C5.18844 3.49212 5.67493 3.64223 5.9412 3.70939C7.18246 4.02344 8.5118 4.377 9.79309 4.47576C11.1565 4.58242 12.662 4.49354 14.0374 4.48959C15.4448 4.48564 16.7161 5.16115 17.1485 6.53983C17.4829 7.60642 17.5309 8.31551 18.9083 8.33922V7.1146C18.634 7.02177 18.3597 6.77882 18.1575 6.57735L17.619 5.88407C17.2346 5.31324 17.0244 4.47774 17.0244 3.79235C17.0244 2.21813 17.8552 1.06265 19.2506 0.371334C19.8072 0.0967839 20.5059 0 21.1245 0C23.2707 0 24.8363 1.9416 24.8363 3.98394C24.8363 4.9498 23.9534 6.7966 22.9504 7.1146V8.33922C23.6131 8.32341 24.1336 8.08442 24.4459 7.48396C24.6101 7.16793 24.6101 6.82425 24.7262 6.49045C24.8263 6.20602 25.0025 5.9374 25.1726 5.68852C25.7953 4.77796 26.8203 4.48959 27.8854 4.49156C29.2487 4.49354 30.7383 4.58045 32.0896 4.47379C33.3629 4.37305 34.6822 4.02344 35.9155 3.71137C36.1657 3.64816 36.7423 3.47829 36.9786 3.49607C37.383 3.5257 37.5852 3.79037 37.6432 4.17553V4.72858C37.5551 5.48705 37.0747 6.78277 36.5982 7.37335C36.398 7.62025 36.2638 7.8474 36.2138 8.16145C36.1737 8.41625 36.1677 8.65722 36.1077 8.91399C36.0056 9.36236 35.8014 9.7969 35.5751 10.1959C35.1727 10.9129 34.9085 11.0452 34.3599 11.5805L33.7733 12.3449C33.3989 12.8347 32.9765 13.289 32.502 13.686L39.1728 14.1028C39.1968 14.1048 39.2168 14.1166 39.2288 14.1364C39.2408 14.1561 39.2428 14.1798 39.2328 14.2016L36.2839 20.6011C36.2718 20.6248 36.2498 20.6406 36.2238 20.6426C36.1978 20.6446 36.1737 20.6308 36.1597 20.609L35.1687 18.9815L31.5751 21.1088C31.5411 21.1285 31.497 21.1186 31.477 21.0851L29.3669 17.6166C29.3468 17.5831 29.3569 17.5396 29.3909 17.5199L32.9865 15.3926H32.9825ZM36.4 25.2705L36.7023 23.396C36.7063 23.3703 36.7243 23.3486 36.7503 23.3407C36.7764 23.3328 36.8024 23.3387 36.8224 23.3565L41.9776 28.2056C41.9956 28.2214 42.0016 28.2431 41.9996 28.2668C41.9956 28.2905 41.9816 28.3083 41.9596 28.3182L35.5331 31.3481C35.5091 31.36 35.481 31.356 35.461 31.3402C35.439 31.3244 35.429 31.2987 35.433 31.273L35.7353 29.4006L31.5951 28.7507C31.5571 28.7448 31.5311 28.7093 31.5371 28.6698L32.1817 24.6759C32.1877 24.6384 32.2238 24.6127 32.2638 24.6187L36.404 25.2685L36.4 25.2705ZM32.5821 35.0042L34.0356 33.7598C34.0556 33.742 34.0816 33.7381 34.1077 33.7479C34.1337 33.7578 34.1497 33.7796 34.1517 33.8052L34.9405 40.7895C34.9425 40.8132 34.9345 40.8349 34.9165 40.8507C34.8985 40.8665 34.8764 40.8724 34.8524 40.8665L27.9534 39.1125C27.9274 39.1066 27.9074 39.0869 27.9014 39.0612C27.8954 39.0355 27.9034 39.0098 27.9234 38.9921L29.3749 37.7497L26.6261 34.6269C26.6001 34.5973 26.6041 34.5538 26.6341 34.5281L29.7292 31.8775C29.7593 31.8518 29.8033 31.8557 29.8293 31.8854L32.5781 35.0081L32.5821 35.0042ZM23.3148 40.0389L25.2387 40.0073C25.2667 40.0073 25.2887 40.0191 25.3028 40.0429C25.3148 40.0666 25.3148 40.0922 25.2988 40.1159L21.3528 45.9684C21.3408 45.9881 21.3187 46 21.2947 46C21.2707 46 21.2507 45.9901 21.2367 45.9704L17.0945 40.2522C17.0785 40.2305 17.0765 40.2048 17.0885 40.1811C17.1005 40.1574 17.1245 40.1436 17.1505 40.1436L19.0745 40.112L19.0044 35.976C19.0044 35.9384 19.0344 35.9048 19.0745 35.9048L23.1726 35.8377C23.2106 35.8377 23.2447 35.8673 23.2447 35.9068L23.3148 40.0429V40.0389ZM12.9363 38.0183L14.4298 39.2133C14.4518 39.2311 14.4598 39.2548 14.4538 39.2824C14.4478 39.3081 14.4298 39.3278 14.4038 39.3357L7.56885 41.3168C7.54482 41.3228 7.5228 41.3188 7.50478 41.305C7.48676 41.2892 7.47675 41.2694 7.47876 41.2457L8.03131 34.2378C8.03332 34.2121 8.04933 34.1904 8.07336 34.1785C8.09738 34.1687 8.12541 34.1726 8.14543 34.1884L9.64094 35.3854L12.2816 32.1718C12.3056 32.1421 12.3517 32.1362 12.3817 32.1619L15.5649 34.7099C15.595 34.7336 15.599 34.779 15.5749 34.8086L12.9343 38.0222L12.9363 38.0183ZM6.30157 29.8884L6.66794 31.751C6.67394 31.7767 6.66393 31.8024 6.64191 31.8182C6.61989 31.834 6.59386 31.8379 6.56984 31.8281L0.0432437 29.0115C0.0212214 29.0016 0.00720728 28.9838 0.00120121 28.9601C-0.00280283 28.9364 0.00320324 28.9147 0.0192194 28.8969L5.00826 23.878C5.02828 23.8582 5.05431 23.8523 5.08033 23.8602C5.10636 23.8681 5.12438 23.8878 5.12838 23.9135L5.49475 25.7761L9.61091 24.99C9.64895 24.9821 9.68699 25.0078 9.69299 25.0453L10.4738 29.0174C10.4818 29.0549 10.4558 29.0924 10.4177 29.1003L6.30157 29.8865V29.8884ZM6.51378 19.4536L5.57884 21.1127C5.56682 21.1364 5.5428 21.1483 5.51477 21.1483C5.48674 21.1483 5.46472 21.1325 5.45271 21.1088L2.28951 14.8119C2.2795 14.7902 2.2795 14.7684 2.29152 14.7467C2.30353 14.725 2.32155 14.7131 2.34557 14.7112L9.43673 14.0317C9.46476 14.0297 9.48879 14.0396 9.5028 14.0633C9.51681 14.085 9.51882 14.1127 9.5048 14.1344L8.57186 15.7936L12.2376 17.8003C12.2716 17.8181 12.2836 17.8616 12.2656 17.8951L10.2756 21.4307C10.2556 21.4643 10.2135 21.4761 10.1795 21.4584L6.51378 19.4516V19.4536ZM17.601 32.1402C17.601 31.5061 19.0424 31.1229 19.0424 32.3969C19.0424 32.7228 18.6801 32.944 18.3758 32.9796H18.1856C17.7491 32.9223 17.599 32.5293 17.599 32.1402H17.601ZM20.9323 30.0366C20.9784 29.7028 21.1145 29.3709 21.1706 29.0411C21.4669 27.3345 21.5009 25.9638 21.5029 24.2552H20.3438V25.0828C20.3438 25.8077 20.5079 29.2722 20.9323 30.0366ZM31.1126 17.9939L31.9555 19.3805L35.5491 17.2532C35.5831 17.2335 35.6252 17.2433 35.6472 17.2769L36.0636 17.9623L37.3029 15.2721L34.3139 15.0845L34.7303 15.7698C34.7503 15.8034 34.7403 15.8469 34.7063 15.8666L31.1106 17.9959L31.1126 17.9939ZM18.9664 27.6446C18.9584 27.301 18.9023 26.9691 18.9023 26.6235V24.2552H17.2827C16.4318 24.2552 15.7271 25.1085 15.7271 25.9164C15.7271 26.4181 15.9533 26.9 16.3357 27.2279C16.9343 27.7434 18.1836 27.6486 18.9664 27.6427V27.6446ZM20.3438 7.65185V22.7699H21.5029V7.64593C21.2987 7.66173 21.1225 7.73679 20.9143 7.71901L20.3458 7.65185H20.3438ZM22.9444 17.2019V22.7699H23.1986C26.9324 22.7699 27.3188 17.2591 22.9444 17.2019ZM36.0356 5.1888C35.7934 5.27571 35.473 5.34089 35.2448 5.3962C34.3019 5.62729 33.3489 5.91567 32.3679 5.91172C30.8724 5.90382 29.3749 5.89197 27.8794 5.90777C27.1987 5.91567 26.5801 6.07171 26.2517 6.70772C26.0175 7.16201 25.9875 7.69728 25.7572 8.1417C25.3728 8.87844 24.6721 9.46309 23.8593 9.68234C23.6271 9.74555 23.2147 9.80678 22.9464 9.8206C22.9384 10.2334 22.8763 11.5963 23.0185 11.8234C23.1125 11.9735 23.6291 12.3607 23.7872 12.5088C24.3438 13.0342 25.2387 13.4885 25.9774 13.7018C26.7362 13.9191 27.2367 13.9171 28.0115 13.9171C28.8523 13.9171 30.7182 13.3799 31.3669 12.7123C30.8203 12.732 29.8193 12.817 29.521 12.493C29.1506 12.0921 29.3048 11.4521 29.8393 11.3138C29.9875 11.2763 30.3058 11.2901 30.466 11.2882C30.8203 11.2842 31.1707 11.2704 31.521 11.225C32.3799 11.1124 33.2208 10.8161 33.7893 10.1386C33.9435 9.95689 34.1077 9.76727 34.2318 9.56383C34.3399 9.38606 34.424 9.19644 34.5161 9.01078C34.3479 9.05423 34.2198 9.14114 34.0416 9.20237C33.0906 9.53223 32.1236 9.50062 31.1306 9.50062C30.0315 9.50062 29.9314 8.23256 30.8804 8.03899C30.9805 8.01924 31.0826 8.00541 31.1847 7.99948C32.0676 7.94418 32.518 8.11602 33.467 7.83949C34.0456 7.6716 34.7623 7.25879 35.1527 6.80055C35.5852 6.2949 35.8654 5.81493 36.0336 5.18485L36.0356 5.1888ZM5.82909 5.1967C5.86713 5.32904 5.89115 5.47125 5.9352 5.59766C6.08134 6.01443 6.42569 6.50625 6.72199 6.83808C7.14041 7.30422 7.82511 7.68346 8.42972 7.85727C8.88217 7.98763 9.20049 8.01924 9.67497 8.01726C10.1014 8.01529 10.6099 7.9501 11.0223 8.05479C11.9092 8.27996 11.7951 9.50457 10.716 9.50457C9.91722 9.50457 9.16446 9.52827 8.37566 9.36038C8.17146 9.31693 7.95123 9.25965 7.75704 9.18854C7.58686 9.12731 7.48676 9.05028 7.33261 9.01275C7.50278 9.34656 7.58286 9.5579 7.85914 9.88973C8.13742 10.2216 8.27356 10.3835 8.63793 10.6324C9.31461 11.0966 10.0393 11.2289 10.8442 11.2625C11.2466 11.2803 12.0794 11.2289 12.3757 11.5272C12.5018 11.6555 12.5419 11.8274 12.5419 12.0012C12.5419 12.9157 11.2065 12.7478 10.4918 12.7162C10.8201 13.0125 11.5569 13.374 11.8852 13.5043C13.9253 14.3102 16.4658 13.9784 18.0975 12.4792C18.2536 12.335 18.7401 11.9755 18.8362 11.8195C18.9764 11.5884 18.9143 10.2393 18.9063 9.82258C18.2977 9.79887 17.6871 9.63296 17.1685 9.31496C15.1385 8.06862 16.5459 5.91172 13.9073 5.90974C12.4097 5.90777 10.9142 5.90382 9.41872 5.91369C8.79609 5.91764 6.61188 5.48508 5.83309 5.19868L5.82909 5.1967ZM21.1846 6.22182C22.4319 6.22182 23.4048 4.88067 23.3408 3.70742C23.1746 0.695264 18.614 0.728842 18.5039 3.75482C18.4779 4.45008 18.6941 4.92215 19.1185 5.45348C19.633 6.09936 20.3998 6.22182 21.1826 6.22182H21.1846ZM33.2708 26.0803L33.0126 27.6762L37.1527 28.3261C37.1908 28.332 37.2168 28.3676 37.2108 28.4051L37.0827 29.1952L39.7854 27.9192L37.6172 25.8788L37.4891 26.6689C37.4831 26.7064 37.447 26.7321 37.409 26.7262L33.2688 26.0763L33.2708 26.0803ZM29.6572 33.6413L28.4199 34.7L31.1667 37.8228C31.1927 37.8524 31.1887 37.8958 31.1607 37.9215L30.5481 38.4469L33.449 39.1837L33.1167 36.2466L32.504 36.77C32.474 36.7957 32.43 36.7917 32.4039 36.7641L29.6552 33.6413H29.6572ZM21.9634 37.1413L20.3237 37.169L20.3938 41.305C20.3938 41.3425 20.3638 41.3761 20.3237 41.3761L19.5129 41.3899L21.2547 43.7937L22.9144 41.3326L22.1035 41.3465C22.0655 41.3465 22.0315 41.3168 22.0315 41.2773L21.9614 37.1413H21.9634ZM13.7891 34.9429L12.5158 33.9237L9.87518 37.1354C9.85115 37.165 9.80511 37.169 9.77507 37.1453L9.14644 36.6416L8.91421 39.5866L11.7871 38.7531L11.1585 38.2494C11.1284 38.2257 11.1244 38.1803 11.1485 38.1506L13.7891 34.937V34.9429ZM8.95825 28.0752L8.64594 26.4892L4.52978 27.2753C4.49174 27.2832 4.4537 27.2575 4.44769 27.22L4.29354 26.4339L2.19542 28.5433L4.94019 29.7285L4.78604 28.9423C4.77803 28.9048 4.80405 28.8673 4.84209 28.8594L8.95825 28.0733V28.0752ZM9.73303 19.7518L10.5278 18.3376L6.86213 16.3308C6.8281 16.311 6.81609 16.2696 6.8341 16.236L7.2285 15.5368L4.24549 15.8232L5.57683 18.4719L5.96923 17.7727C5.98725 17.7391 6.03129 17.7273 6.06533 17.745L9.73103 19.7518H9.73303Z" fill="#3E8DB1"/>
</g>
</svg>
