<svg width="39" height="46" viewBox="0 0 39 46" fill="none" xmlns="http://www.w3.org/2000/svg">
<path id="Vector" fill-rule="evenodd" clip-rule="evenodd" d="M2.64316 6.11599C1.9411 6.11599 1.27248 6.39985 0.775187 6.90189C0.277897 7.40606 0 8.0818 0 8.79356V43.3224C0 44.0342 0.279987 44.7121 0.775187 45.2141C1.27248 45.7183 1.93901 46 2.64316 46H30.4935C31.1955 46 31.8642 45.7161 32.3594 45.2141C32.8567 44.7099 33.1346 44.0342 33.1346 43.3224V42.9072C33.1346 42.8797 33.1429 42.8564 33.1596 42.8373C33.4605 42.4687 33.6548 42.026 33.728 41.5536L38.9683 7.43783C39.077 6.73454 38.9035 6.02066 38.4898 5.4466C38.0761 4.87253 37.4597 4.48699 36.7639 4.37684L9.24583 0.0321314C8.55213 -0.078022 7.84799 0.0977998 7.28174 0.51723C6.7155 0.936661 6.33522 1.56157 6.22866 2.26697L5.65197 6.02278C5.64361 6.07786 5.59765 6.11599 5.54332 6.11599H2.64316ZM7.09369 5.98889L7.63068 2.4894C7.68083 2.16318 7.85634 1.87508 8.11962 1.6802C8.3808 1.48531 8.70675 1.40269 9.02853 1.45353L36.5466 5.79824C36.8684 5.84908 37.1526 6.02702 37.3448 6.29393C37.537 6.56084 37.6185 6.88918 37.5684 7.21541L33.3539 34.65C33.3456 34.7072 33.2954 34.7474 33.2369 34.7432C33.1805 34.7389 33.1366 34.6902 33.1366 34.633V8.79356C33.1366 8.0818 32.8567 7.40394 32.3615 6.90189C31.8642 6.39773 31.1976 6.11599 30.4956 6.11599H7.20235C7.16891 6.11599 7.14175 6.10328 7.11877 6.07786C7.09787 6.05244 7.08952 6.02278 7.09369 5.98889ZM30.4935 7.55434C30.8194 7.55434 31.1287 7.68568 31.3564 7.91869C31.5863 8.15171 31.7158 8.46522 31.7158 8.79356V43.3224C31.7158 43.6529 31.5863 43.9643 31.3564 44.1973C31.1266 44.4303 30.8173 44.5617 30.4935 44.5617H2.64316C2.3172 44.5617 2.00796 44.4303 1.77812 44.1973C1.54829 43.9643 1.41874 43.6508 1.41874 43.3224V8.79356C1.41874 8.4631 1.54829 8.15171 1.77812 7.91869C2.00796 7.68568 2.3172 7.55434 2.64316 7.55434H30.4935ZM3.22194 36.5967C3.22194 36.9568 3.51446 37.2534 3.86967 37.2534H17.6663C18.2388 37.2534 18.4875 35.94 17.5828 35.94H3.70251C3.46431 35.94 3.22194 36.3743 3.22194 36.5967ZM3.22194 32.7583C3.22194 33.1184 3.51446 33.415 3.86967 33.415H17.6663C18.2263 33.415 18.5126 32.1016 17.5828 32.1016H3.70251C3.46431 32.1016 3.22194 32.5359 3.22194 32.7583ZM3.22194 28.8351C3.22194 29.2291 3.45596 29.5765 3.86967 29.5765H17.4992C18.3579 29.5765 18.6672 28.1763 17.0771 28.1763H4.28965C3.90101 28.1763 3.22194 28.3225 3.22194 28.833V28.8351ZM3.22194 24.9967C3.22194 25.5305 3.53953 25.7381 4.03891 25.7381H17.4992C18.3475 25.7381 18.6567 24.3379 17.1628 24.3379H4.29174C3.9031 24.3379 3.22403 24.4841 3.22403 24.9946L3.22194 24.9967ZM3.22194 40.4351C3.22194 40.7953 3.51446 41.0918 3.86967 41.0918H29.6974C30.5457 41.0918 30.5457 39.7785 29.6974 39.7785H3.70251C3.46431 39.7785 3.22194 40.2127 3.22194 40.4351ZM3.22194 21.1604C3.22194 21.5777 3.54162 21.9018 3.95325 21.9018H29.6138C30.4684 21.9018 30.8111 20.5016 29.2774 20.5016H4.29174C3.88429 20.5016 3.22403 20.6266 3.22403 21.1583L3.22194 21.1604ZM19.1227 25.2551V36.5141C19.1227 36.8848 19.3797 37.2555 19.7704 37.2555H29.6974C30.0881 37.2555 30.3451 36.8848 30.3451 36.5141V25.2551C30.3451 24.5307 29.9335 24.3421 29.2753 24.3421H20.1904C19.5343 24.3421 19.1206 24.5307 19.1206 25.2551H19.1227ZM20.6125 25.7424H28.8574C28.918 25.7424 28.9661 25.7911 28.9661 25.8525V35.832C28.9661 35.8934 28.918 35.9421 28.8574 35.9421H20.6125C20.5519 35.9421 20.5038 35.8913 20.5038 35.832V25.8525C20.5038 25.7911 20.554 25.7424 20.6125 25.7424Z" fill="#3E8DB1"/>
</svg>
