<svg width="75" height="51" viewBox="0 0 75 51" fill="none" xmlns="http://www.w3.org/2000/svg">
<path fill-rule="evenodd" clip-rule="evenodd" d="M0.228026 0.870946C0.0168672 1.43471 -0.0621217 11.44 0.0528423 23.1054L0.261655 44.314L4.75855 44.5543C8.76508 44.7681 9.37744 45.0347 10.3699 47.0007C13.0719 52.3517 21.092 52.3277 23.8027 46.9607L24.9367 44.7144H38.974H53.0114L54.1454 46.9607C56.8537 52.3229 64.8753 52.3517 67.5735 47.0095C68.4361 45.3014 69.3378 44.7561 71.6207 44.5631L74.5581 44.314L74.7795 36.2811L75 28.2482L69.2729 19.0637L63.5458 9.87924L56.7723 9.64861L49.9996 9.41798L49.7658 4.84376L49.532 0.269539L25.072 0.0581254C5.76976 -0.109244 0.531468 0.0621289 0.228026 0.870946ZM46.7947 15.8853V28.6982H24.8968H2.99889V15.8853V3.07237H24.8968H46.7947V15.8853ZM62.4157 14.2453C63.1806 15.7083 62.9202 15.8236 58.338 16.0471L53.4423 16.2857V23.0926V29.8995L62.6316 30.1253L71.8209 30.3503V32.6342C71.8209 34.2446 71.3595 35.0415 70.2568 35.3369C69.3965 35.5668 68.6926 36.1834 68.6926 36.7063C68.6926 37.2293 69.3965 37.8459 70.2568 38.0757C71.1225 38.3079 71.8209 39.168 71.8209 40.0033C71.8209 42.3168 68.8373 41.9116 67.7416 39.4491C66.7351 37.1868 63.4426 35.1047 60.8719 35.1047C58.3013 35.1047 55.0088 37.1868 54.0023 39.4491C53.4571 40.6751 52.4436 41.5112 51.5035 41.5112C49.9762 41.5112 49.923 41.0283 49.923 27.0966V12.6821H55.7611C60.7507 12.6821 61.7174 12.9095 62.4157 14.2453ZM67.3694 22.0916C68.3727 23.7436 69.4536 25.5455 69.7711 26.0956C70.2161 26.866 68.7184 27.0966 63.2643 27.0966H56.1795V23.0926V19.0885H60.8618C65.4275 19.0885 65.5902 19.1638 67.3694 22.0916ZM46.7947 36.7063V41.5112H35.8661H24.9367L23.8027 39.2649C22.6272 36.937 19.664 35.1047 17.0761 35.1047C14.4883 35.1047 11.525 36.937 10.3496 39.2649C9.39543 41.1548 8.72207 41.5112 6.10683 41.5112H2.99889V36.7063V31.9015H24.8968H46.7947V36.7063ZM20.2044 39.9096C21.0647 40.7905 21.7685 42.2319 21.7685 43.1128C21.7685 45.1757 19.0907 47.9176 17.0761 47.9176C15.0615 47.9176 12.3837 45.1757 12.3837 43.1128C12.3837 42.2319 13.0876 40.7905 13.9478 39.9096C14.8081 39.0287 16.2158 38.3079 17.0761 38.3079C17.9364 38.3079 19.3441 39.0287 20.2044 39.9096ZM64.0002 39.9096C64.8605 40.7905 65.5643 42.2319 65.5643 43.1128C65.5643 43.9937 64.8605 45.4351 64.0002 46.316C63.1399 47.1969 61.7322 47.9176 60.8719 47.9176C60.0117 47.9176 58.6039 47.1969 57.7437 46.316C56.8834 45.4351 56.1795 43.9937 56.1795 43.1128C56.1795 42.2319 56.8834 40.7905 57.7437 39.9096C58.6039 39.0287 60.0117 38.3079 60.8719 38.3079C61.7322 38.3079 63.1399 39.0287 64.0002 39.9096Z" fill="black"/>
</svg>
