<svg width="46" height="66" viewBox="0 0 46 66" fill="none" xmlns="http://www.w3.org/2000/svg">
<path fill-rule="evenodd" clip-rule="evenodd" d="M18.9202 0.0718216C11.2941 0.77124 4.68961 5.99549 2.24375 13.263C1.51982 15.4141 1.25009 17.1463 1.25038 19.6438C1.25096 23.7888 2.53248 27.7249 4.95253 31.0153C6.7767 33.4954 10.161 36.3228 11.3037 36.3214C11.9901 36.3206 12.5549 35.8689 12.6759 35.2244C12.8278 34.4148 12.5333 33.9677 11.2408 33.0451C6.76075 29.8476 4.17988 24.8747 4.18162 19.4435C4.18394 11.9854 9.28013 5.41092 16.5802 3.44811C17.9075 3.09123 18.2576 3.05831 20.7132 3.05831C23.1687 3.05831 23.5188 3.09123 24.8461 3.44811C29.4003 4.67264 33.2785 7.78312 35.3944 11.9083C36.7944 14.6378 37.3336 17.1164 37.2031 20.2226C37.0652 23.5081 36.1489 26.2115 34.2024 29.0777C33.6903 29.8317 33.3297 30.5179 33.3297 30.7386C33.3297 31.5691 34.0098 32.2617 34.8229 32.2593C35.3348 32.2578 35.8981 31.7959 36.605 30.7981C40.841 24.8193 41.3745 16.7195 37.9508 10.3633C36.0682 6.86777 32.8991 3.77919 29.3737 2.00389C26.3839 0.498173 22.3668 -0.244316 18.9202 0.0718216ZM18.3929 8.11346C14.7853 8.92324 11.8332 11.236 10.2818 14.4681C9.55175 15.9888 9.27419 17.058 9.16383 18.7737C9.01258 21.1257 9.67284 23.9549 10.5598 24.7557C11.1342 25.2741 11.8307 25.2883 12.4189 24.7935C13.0359 24.2743 13.0604 23.841 12.5583 22.3363C11.4879 19.1296 12.2687 15.764 14.6333 13.3906C16.1474 11.8709 18.657 10.8028 20.7132 10.8028C21.8265 10.8028 23.3435 11.2016 24.6161 11.8291C26.7447 12.8783 28.3541 14.8399 29.0644 17.251C29.4623 18.6014 29.4029 20.7165 28.9256 22.1816C28.4403 23.6719 28.4458 24.0033 28.9648 24.559C29.5411 25.1761 30.369 25.1926 30.962 24.5992C32.1478 23.4125 32.6571 19.2272 31.9443 16.5259C31.3541 14.2889 29.6936 11.786 27.8611 10.3712C26.7415 9.50679 24.9671 8.60942 23.686 8.25964C22.4609 7.92523 19.5855 7.84576 18.3929 8.11346ZM19.8855 14.2892C18.3136 14.499 16.6991 15.552 15.8235 16.9382C14.9693 18.2903 14.9982 17.8754 14.9158 30.0286L14.84 41.2109L10.997 39.5593C6.4014 37.5843 5.89166 37.4203 4.65524 37.5196C2.19183 37.7173 0.211188 39.7072 0.0123695 42.1843C-0.0643447 43.1408 0.223225 44.4416 0.668138 45.1509C1.18048 45.9678 1.94806 46.6907 8.31838 52.3577L14.9125 58.2236V61.126C14.9125 64.3616 15.0144 64.8545 15.764 65.2421C16.3389 65.5394 16.6271 65.528 17.1887 65.1856C17.9074 64.7474 17.9862 64.2462 17.9326 60.4627C17.8891 57.3887 17.8623 57.0936 17.5953 56.7433C17.4358 56.5339 14.2708 53.6757 10.5619 50.3915C6.85313 47.1075 3.67406 44.2611 3.49728 44.0661C2.12832 42.5572 3.60169 39.9651 5.52491 40.4992C5.78275 40.5708 8.21266 41.5777 10.9245 42.7368C13.6363 43.8959 15.997 44.8871 16.1708 44.9394C16.3444 44.9918 16.7217 44.9362 17.0098 44.8159C17.9971 44.4033 17.9578 44.9576 17.9578 31.4407C17.9578 19.3655 17.9594 19.2969 18.2654 18.6649C19.1489 16.84 21.8781 16.6769 23.0067 18.3816L23.396 18.9695L23.4685 26.9775C23.5385 34.7133 23.5509 34.9963 23.8294 35.3041C23.9881 35.4792 24.2358 35.6857 24.3801 35.7629C24.5244 35.8402 26.7112 36.2284 29.2397 36.6257C34.6331 37.4734 35.3273 37.6217 36.6036 38.2005C40.5669 39.9975 43.0355 43.8913 43.0431 48.3572C43.0481 51.3391 42.4537 53.3275 40.3356 57.415C39.5074 59.0134 38.4324 61.116 37.9466 62.0874C36.9605 64.06 36.9389 64.3152 37.6945 65.0709C38.0756 65.452 38.2025 65.4958 38.7236 65.4259C39.0504 65.382 39.4347 65.2269 39.5774 65.0813C40.2329 64.4127 44.6438 55.5802 45.1412 53.9404C46.3586 49.9273 46.2801 46.0371 44.9158 42.76C43.5602 39.5035 40.5386 36.5286 37.3298 35.2912C35.8708 34.7285 34.5783 34.4556 30.103 33.7651L26.5138 33.2115L26.5127 26.6088C26.5121 22.7923 26.4486 19.6086 26.3623 19.0637C25.8689 15.9503 23.0434 13.8673 19.8855 14.2892Z" fill="black"/>
</svg>
