<svg width="28" height="29" viewBox="0 0 28 29" fill="none" xmlns="http://www.w3.org/2000/svg">
<g id="Group">
<path id="Vector" d="M14 0.19043C6.26799 0.19043 0 6.45842 0 14.1904C0 21.9224 6.26799 28.1904 14 28.1904C21.732 28.1904 28 21.9224 28 14.1904C28 6.45842 21.732 0.19043 14 0.19043ZM19.3411 7.32005L17.4047 7.32091C15.8862 7.32091 15.5926 8.04246 15.5926 9.10116V11.4357H19.2136L19.2119 15.0922H15.5929V24.4755H11.8161V15.0922H8.65895V11.4357H11.8161V8.73909C11.8161 5.60968 13.7282 3.90534 16.5196 3.90534L19.3413 3.90963V7.32005H19.3411Z" fill="white"/>
</g>
</svg>
