<svg width="28" height="29" viewBox="0 0 28 29" fill="none" xmlns="http://www.w3.org/2000/svg">
<g id="Group">
<g id="Group_2">
<path id="Vector" d="M14.531 9.83511C14.531 7.89445 13.3741 4.87646 11.1435 4.87646C10.4423 4.87646 9.69098 5.2265 9.25959 5.76588C8.80186 6.33275 8.66895 7.05803 8.66895 7.76097C8.66895 9.56557 9.71676 12.5563 12.0307 12.5563C12.7024 12.5563 13.4262 12.2347 13.8588 11.803C14.4772 11.1811 14.531 10.3206 14.531 9.83511Z" fill="white"/>
<path id="Vector_2" d="M13.0782 16.9229C12.864 16.896 12.7294 16.896 12.4607 16.896C12.218 16.896 10.7655 16.949 9.6366 17.3288C9.04538 17.5431 7.32471 18.1904 7.32471 20.1036C7.32471 22.0176 9.1803 23.3934 12.0574 23.3934C14.6397 23.3934 16.0114 22.1508 16.0114 20.4823C16.0112 19.1036 15.1237 18.3786 13.0782 16.9229Z" fill="white"/>
<path id="Vector_3" d="M14 0.19043C6.26799 0.19043 0 6.45842 0 14.1904C0 21.9224 6.26799 28.1904 14 28.1904C21.732 28.1904 28 21.9224 28 14.1904C28 6.45842 21.732 0.19043 14 0.19043ZM10.7385 24.5225C6.8383 24.5225 4.95693 22.664 4.95693 20.6684C4.95693 19.6988 5.44016 18.3253 7.02707 17.3814C8.69361 16.3571 10.9539 16.2233 12.1647 16.14C11.7869 15.6553 11.3581 15.1434 11.3581 14.3082C11.3581 13.8507 11.4927 13.5809 11.6257 13.2572C11.3295 13.2847 11.035 13.311 10.7657 13.311C7.91619 13.311 6.30265 11.1805 6.30265 9.07882C6.30265 7.8408 6.86666 6.46529 8.02275 5.46818C9.55638 4.20152 11.652 3.85779 13.1054 3.85779H18.4041L16.6553 4.95659H14.9894C15.6075 5.46818 16.8965 6.54607 16.8965 8.5953C16.8965 10.5881 15.7685 11.5339 14.6396 12.4222C14.2893 12.772 13.8857 13.1492 13.8857 13.743C13.8857 14.3345 14.2896 14.6576 14.5846 14.9022L15.5537 15.655C16.7373 16.6516 17.8132 17.5682 17.8126 19.4295C17.8123 21.9637 15.3635 24.5225 10.7385 24.5225ZM22.3441 13.861V16.5719H21.0133V13.861H18.3227V12.5156H21.0133V9.82128H22.3441V12.5156H25.0476V13.861H22.3441Z" fill="white"/>
</g>
</g>
</svg>
