<svg width="24" height="24" viewBox="0 0 24 24" fill="none" xmlns="http://www.w3.org/2000/svg">
<g id="cil:media-play">
<path id="Vector" d="M20.8312 11.0262L6.20039 2.31746C6.02961 2.21581 5.83495 2.16122 5.63621 2.15924C5.43748 2.15725 5.24176 2.20796 5.06899 2.30618C4.89622 2.40441 4.75255 2.54665 4.6526 2.71844C4.55266 2.89022 4.5 3.08542 4.5 3.28416V20.3533C4.50023 20.5503 4.55213 20.7437 4.65052 20.9144C4.74891 21.085 4.89035 21.2268 5.0607 21.3257C5.23105 21.4246 5.42436 21.477 5.62133 21.4778C5.81829 21.4786 6.01201 21.4277 6.18314 21.3301L20.8139 12.9699C20.9846 12.8723 21.1268 12.7317 21.2262 12.562C21.3257 12.3924 21.3789 12.1997 21.3807 12.003C21.3824 11.8064 21.3326 11.6128 21.2362 11.4414C21.1397 11.27 21.0001 11.1269 20.8311 11.0264L20.8312 11.0262ZM6 19.7071V3.94379L19.5114 11.9863L6 19.7071Z" fill="white"/>
</g>
</svg>
