<svg width="28" height="29" viewBox="0 0 28 29" fill="none" xmlns="http://www.w3.org/2000/svg">
<g id="Frame 613708">
<path id="Vector" d="M14 0.19043C6.2692 0.19043 0 6.45963 0 14.1904C0 21.9212 6.2692 28.1904 14 28.1904C21.7308 28.1904 28 21.9212 28 14.1904C28 6.45963 21.7308 0.19043 14 0.19043ZM20.3922 11.1061C20.3984 11.2439 20.4014 11.3824 20.4014 11.5214C20.4014 15.7676 17.1693 20.6641 11.2586 20.6643H11.2588H11.2586C9.44385 20.6643 7.75516 20.1324 6.33307 19.2208C6.5845 19.2505 6.84042 19.2653 7.09955 19.2653C8.60516 19.2653 9.99072 18.7517 11.0907 17.8897C9.68396 17.8637 8.49792 16.9346 8.08862 15.6578C8.28452 15.6954 8.48596 15.7159 8.69254 15.7159C8.98584 15.7159 9.26996 15.6764 9.53998 15.6027C8.06961 15.3083 6.96198 14.0089 6.96198 12.4528C6.96198 12.4383 6.96198 12.4253 6.9624 12.4118C7.39542 12.6526 7.89059 12.7974 8.41782 12.8136C7.55499 12.2379 6.98782 11.2538 6.98782 10.1389C6.98782 9.55011 7.14697 8.99854 7.42297 8.52365C9.00763 10.468 11.3759 11.7468 14.0466 11.8812C13.9915 11.6458 13.963 11.4005 13.963 11.1484C13.963 9.37451 15.4022 7.93533 17.1768 7.93533C18.1011 7.93533 18.936 8.32605 19.5224 8.95068C20.2545 8.80627 20.9419 8.53882 21.5629 8.17075C21.3226 8.92078 20.8133 9.55011 20.1498 9.94809C20.7998 9.87033 21.4193 9.69794 21.9951 9.44202C21.565 10.0865 21.0197 10.6526 20.3922 11.1061Z" fill="white"/>
</g>
</svg>
