<svg width="21" height="19" viewBox="0 0 21 19" fill="none" xmlns="http://www.w3.org/2000/svg">
<path d="M20.5898 10.1289C19.6055 5.34766 15.7383 2.46484 11.625 2.00781V1.375C11.625 0.777344 11.0977 0.25 10.5 0.25C9.86719 0.25 9.375 0.777344 9.375 1.375V2.00781C5.22656 2.46484 1.39453 5.34766 0.375 10.1289C0.304688 10.4805 0.65625 10.9023 1.04297 10.5508C2.87109 8.61719 4.80469 8.6875 6.59766 11.8516C6.77344 12.168 7.125 12.1328 7.30078 11.8516C8.00391 10.5859 8.88281 9.25 10.5 9.25C12.5391 9.25 13.5938 11.6758 13.6641 11.8516C13.8398 12.1328 14.1914 12.168 14.3672 11.8516C16.1602 8.6875 18.1289 8.61719 19.957 10.5508C20.3086 10.9023 20.6602 10.4805 20.5898 10.1289ZM9.375 10.8672V15.4375C9.375 15.7539 9.09375 16 8.8125 16C8.53125 16 8.32031 15.8242 8.25 15.6484C8.07422 15.0508 7.40625 14.7344 6.84375 14.9453C6.24609 15.1562 5.92969 15.7891 6.14062 16.3867C6.52734 17.5117 7.61719 18.25 8.8125 18.25C10.3594 18.25 11.625 16.9844 11.625 15.4375V10.8672C11.2734 10.5859 10.9219 10.375 10.5 10.375C10.043 10.4102 9.69141 10.5508 9.375 10.8672Z" fill="#cccccc"/>
</svg>
