<svg width="27" height="25" viewBox="0 0 27 25" fill="none" xmlns="http://www.w3.org/2000/svg">
<path d="M17.5551 1.00001H9.44486C8.67112 0.998775 7.91071 1.20141 7.24015 1.58745C6.56959 1.9735 6.01256 2.52934 5.6251 3.19907L1.59014 10.2267C1.20353 10.8963 1 11.6558 1 12.429C1 13.2023 1.20353 13.9619 1.59014 14.6315L5.6251 21.6591C6.01223 22.3296 6.56902 22.8864 7.23951 23.2736C7.91001 23.6608 8.6706 23.8647 9.44486 23.8648H17.5551C18.3294 23.8647 19.09 23.6608 19.7605 23.2736C20.431 22.8864 20.9878 22.3296 21.3749 21.6591L25.4099 14.6315C25.7965 13.9619 26 13.2023 26 12.429C26 11.6558 25.7965 10.8963 25.4099 10.2267L21.3749 3.19907C20.9874 2.52934 20.4304 1.9735 19.7599 1.58745C19.0893 1.20141 18.3289 0.998775 17.5551 1.00001V1.00001Z" stroke="white" stroke-width="2" stroke-linecap="round" stroke-linejoin="round"/>
<path d="M13.5 11.6391V17.9269" stroke="white" stroke-width="2" stroke-linecap="round" stroke-linejoin="round"/>
<path d="M14.5112 7.65564C14.5112 8.20792 14.0635 8.65564 13.5112 8.65564C12.9589 8.65564 12.5112 8.20792 12.5112 7.65564C12.5112 7.10335 12.9589 6.65564 13.5112 6.65564C14.0635 6.65564 14.5112 7.10335 14.5112 7.65564Z" fill="white"/>
<path d="M14.5112 7.65564C14.5112 8.20792 14.0635 8.65564 13.5112 8.65564C12.9589 8.65564 12.5112 8.20792 12.5112 7.65564C12.5112 7.10335 12.9589 6.65564 13.5112 6.65564C14.0635 6.65564 14.5112 7.10335 14.5112 7.65564Z" stroke="white"/>
</svg>
