<svg width="27" height="27" viewBox="0 0 27 27" fill="none" xmlns="http://www.w3.org/2000/svg">
<path d="M20.5692 19.3136C20.022 20.6091 19.2031 21.7721 18.1679 22.7241C17.1327 23.676 15.9053 24.3948 14.5685 24.8318C13.2318 25.2688 11.8169 25.4139 10.4192 25.2572C9.02164 25.1006 7.6739 24.6459 6.46707 23.9238L1 25.372L2.54478 19.5308C1.60794 17.4805 1.40609 15.1701 1.97321 12.9885C2.54032 10.8069 3.84178 8.88721 5.65848 7.55273" stroke="white" stroke-width="2" stroke-linecap="round" stroke-linejoin="round"/>
<path d="M26 20.7618L24.4553 14.9206C25.4273 12.7752 25.5986 10.3526 24.9384 8.09167C24.2781 5.83078 22.8299 3.88117 20.856 2.59606C18.8821 1.31095 16.5133 0.775318 14.1785 1.08627C11.8438 1.39723 9.69771 2.53417 8.12902 4.29111C6.56032 6.04804 5.67283 8.30875 5.62733 10.6637C5.58182 13.0185 6.38132 15.3119 7.88096 17.1281C9.38061 18.9443 11.4812 20.1633 13.8022 20.5642C16.1231 20.9651 18.5109 20.5215 20.533 19.3136L26 20.7618Z" stroke="white" stroke-width="2" stroke-linecap="round" stroke-linejoin="round"/>
<path d="M12.6101 7.74579C12.7807 7.37828 13.0424 7.06046 13.3704 6.82252C13.7127 6.57229 14.0999 6.39001 14.5109 6.2855C14.951 6.16336 15.4058 6.10242 15.8626 6.10444C16.4515 6.09767 17.0366 6.19996 17.5884 6.40616C18.066 6.59453 18.4832 6.90955 18.7952 7.31734C19.1161 7.75555 19.2798 8.28919 19.2598 8.83195C19.2728 9.19431 19.1983 9.55446 19.0426 9.88192C18.9133 10.146 18.7304 10.3803 18.5056 10.5698C18.2901 10.7459 18.0644 10.9091 17.8297 11.0586C17.5521 11.2276 17.3289 11.3724 17.1599 11.4991C17.0021 11.6059 16.8718 11.7486 16.7798 11.9155L16.7013 12.0663C16.7013 12.3077 16.6651 12.5672 16.6651 12.6698C16.6651 12.7723 16.1462 12.8206 15.5126 12.8206C15.1213 12.8512 14.7278 12.8165 14.3479 12.718C14.3479 12.6698 14.3479 12.3077 14.2997 11.9155L14.366 11.6198C14.4307 11.33 14.5585 11.0581 14.7402 10.8233C14.9431 10.5752 15.1933 10.3701 15.4763 10.2198C15.7562 10.0661 16.0208 9.88632 16.2668 9.68281C16.4198 9.53867 16.5202 9.34745 16.5519 9.13967C16.5836 8.93189 16.5449 8.71949 16.4418 8.53628C16.358 8.41573 16.2434 8.31986 16.1099 8.25869C15.971 8.19812 15.821 8.16731 15.6694 8.1682C15.543 8.166 15.4175 8.19068 15.3013 8.2406C15.1937 8.28934 15.097 8.35937 15.0171 8.44649C14.9373 8.5336 14.8759 8.63598 14.8367 8.74746L14.8005 8.86212C14.8005 9.00694 14.2333 9.12763 13.5937 9.12763C13.4538 9.14258 13.3123 9.12926 13.1777 9.08848C13.0431 9.04769 12.918 8.98028 12.8099 8.89022C12.7018 8.80016 12.613 8.6893 12.5486 8.56423C12.4842 8.43916 12.4456 8.30244 12.4351 8.16216L12.6101 7.74579ZM14.4626 13.7801C14.7903 13.5403 15.1917 13.4229 15.597 13.4482C16.0041 13.424 16.407 13.5412 16.7375 13.7801C16.8707 13.8881 16.977 14.0255 17.0482 14.1815C17.1194 14.3375 17.1535 14.5078 17.1478 14.6792C17.1535 14.8497 17.1194 15.0192 17.0482 15.1742C16.9769 15.3292 16.8706 15.4655 16.7375 15.5722C16.3992 15.793 16.004 15.9105 15.6001 15.9105C15.1961 15.9105 14.8009 15.793 14.4626 15.5722C14.3284 15.4664 14.2213 15.3304 14.15 15.1751C14.0786 15.0199 14.0452 14.8499 14.0523 14.6792C14.0489 14.5116 14.0842 14.3456 14.1554 14.1938C14.2265 14.0421 14.3317 13.9088 14.4626 13.8042V13.7801Z" fill="white"/>
</svg>
