<svg width="27" height="24" viewBox="0 0 27 24" fill="none" xmlns="http://www.w3.org/2000/svg">
<path d="M20.4451 2.52417H25.9998" stroke="white" stroke-width="2" stroke-linecap="round" stroke-linejoin="round"/>
<path d="M1 2.52417H12.4996" stroke="white" stroke-width="2" stroke-linecap="round" stroke-linejoin="round"/>
<path d="M18.986 4.04825C19.8278 4.04825 20.5102 3.36588 20.5102 2.52413C20.5102 1.68237 19.8278 1 18.986 1C18.1443 1 17.4619 1.68237 17.4619 2.52413C17.4619 3.36588 18.1443 4.04825 18.986 4.04825Z" fill="white" stroke="white" stroke-width="2" stroke-linecap="round" stroke-linejoin="round"/>
<path d="M20.4451 21.3048H25.9998" stroke="white" stroke-width="2" stroke-linecap="round" stroke-linejoin="round"/>
<path d="M1 21.3048H12.4996" stroke="white" stroke-width="2" stroke-linecap="round" stroke-linejoin="round"/>
<path d="M18.986 22.8289C19.8278 22.8289 20.5102 22.1465 20.5102 21.3048C20.5102 20.463 19.8278 19.7806 18.986 19.7806C18.1443 19.7806 17.4619 20.463 17.4619 21.3048C17.4619 22.1465 18.1443 22.8289 18.986 22.8289Z" fill="white" stroke="white" stroke-width="2" stroke-linecap="round" stroke-linejoin="round"/>
<path d="M6.55475 11.9144H1" stroke="white" stroke-width="2" stroke-linecap="round" stroke-linejoin="round"/>
<path d="M26.0001 11.9144H14.5005" stroke="white" stroke-width="2" stroke-linecap="round" stroke-linejoin="round"/>
<path d="M8.01387 13.4386C8.85562 13.4386 9.538 12.7563 9.538 11.9145C9.538 11.0728 8.85562 10.3904 8.01387 10.3904C7.17212 10.3904 6.48975 11.0728 6.48975 11.9145C6.48975 12.7563 7.17212 13.4386 8.01387 13.4386Z" fill="white" stroke="white" stroke-width="2" stroke-linecap="round" stroke-linejoin="round"/>
</svg>
