<svg width="120" height="120" viewBox="0 0 120 120" fill="none" xmlns="http://www.w3.org/2000/svg">
<path d="M112.9 31.7C113.7 30.9 114.1 29.8 114.1 28.6C114.1 26.2 112.1 24.2 109.7 24.2C107.3 24.2 105.3 26.2 105.3 28.6C105.3 31 107.3 33 109.7 33C110.1 33 110.4 32.9 110.7 32.9C115.1 41.2 117.5 50.5 117.5 60C117.5 91.7 91.7 117.6 59.9 117.6C28.1 117.6 2.4 91.7 2.4 60C2.4 28.3 28.3 2.4 60 2.4C71.4 2.4 82.3 5.7 91.8 11.9C92.4 12.3 93.1 12.1 93.5 11.6C93.9 11 93.7 10.3 93.2 9.9C83.3 3.4 71.8 0 60 0C26.9 0 0 26.9 0 60C0 93.1 26.9 120 60 120C93.1 120 120 93.1 120 60C120 50.1 117.5 40.3 112.9 31.7Z" fill="#14182A"/>
<path d="M60 10.4C32.6 10.4 10.4 32.7 10.4 60C10.4 69.6 13.1 78.9 18.3 86.9C18.6 87.4 19.3 87.6 19.9 87.2C20.4 86.9 20.6 86.2 20.2 85.6C15.2 77.9 12.6 69 12.6 59.9C12.6 33.8 33.8 12.5 60 12.5C86.2 12.5 107.4 33.7 107.4 59.9C107.4 86.1 86.1 107.4 60 107.4C52.7 107.4 45.7 105.8 39.2 102.6C38.6 102.3 38 102.6 37.7 103.1C37.4 103.7 37.7 104.3 38.2 104.6C45 107.9 52.4 109.6 60 109.6C87.4 109.6 109.6 87.3 109.6 60C109.6 32.7 87.4 10.4 60 10.4Z" fill="#F8F8F8"/>
<path d="M86.9 57.7C86.4 57.2 85.5 57.0999 85 57.5999C84.5 58.0999 84.4 58.9 84.9 59.5C86 60.7 86.7 62.2999 86.7 64V66.6999C86.7 68.8999 84.9 70.6999 82.7 70.6999H37.3C35.1 70.6999 33.3 68.8999 33.3 66.6999V64C33.3 60.2999 36.3 57.2999 40 57.2999H73C73.7 57.2999 74.3 56.7 74.3 56C74.3 55.2999 73.7 54.7 73 54.7H40C39.8 54.7 39.5 54.7 39.3 54.7L43.9 43.7999C44.5 42.2999 46 41.2999 47.6 41.2999H79C79.7 41.2999 80.3 40.7 80.3 40C80.3 39.3 79.7 38.7 79 38.7H47.5C44.8 38.7 42.4 40.2999 41.4 42.7999L36.1 55.5C36.1 55.5 36.1 55.4999 36.1 55.5999C32.9 57.0999 30.7 60.2999 30.7 64.0999V66.8V76C30.7 78.9 33.1 81.3 36 81.3C38.9 81.3 41.3 78.9 41.3 76V73.3H78.7V76C78.7 78.9 81.1 81.3 84 81.3C86.9 81.3 89.3 78.9 89.3 76V66.5999V64C89.4 61.7 88.5 59.4 86.9 57.7ZM38.6 76C38.6 77.5 37.4 78.6999 35.9 78.6999C34.4 78.6999 33.2 77.5 33.2 76V72C34.3 72.7999 35.7 73.3 37.2 73.3H38.5V76H38.6ZM84 78.6999C82.5 78.6999 81.3 77.5 81.3 76V73.3H82.6C84.1 73.3 85.5 72.7999 86.6 72V76C86.7 77.5 85.5 78.6999 84 78.6999ZM48 62.7C48.7 62.7 49.3 63.2999 49.3 64C49.3 64.7 48.7 65.3 48 65.3H40C39.3 65.3 38.7 64.7 38.7 64C38.7 63.2999 39.3 62.7 40 62.7H48ZM72.9 62.7H80.9C81.6 62.7 82.2 63.2999 82.2 64C82.2 64.7 81.6 65.3 80.9 65.3H72.9C72.2 65.3 71.6 64.7 71.6 64C71.5 63.2999 72.1 62.7 72.9 62.7Z" fill="#14182A"/>
</svg>
