<svg width="120" height="120" viewBox="0 0 120 120" fill="none" xmlns="http://www.w3.org/2000/svg">
<path d="M50.9408 2.41217C50.4407 1.4267 49.6404 0.638322 48.4399 0.244135C46.139 -0.54424 43.6381 0.638323 42.8378 2.9049C42.0375 5.17148 43.238 7.63515 45.5388 8.42352C47.8397 9.2119 50.3406 8.02934 51.1409 5.76276C51.241 5.46712 51.341 5.07293 51.341 4.77729C60.6445 3.39763 70.2481 4.28456 79.1514 7.33951C109.163 17.7855 124.869 50.3059 114.365 79.7715C103.861 109.237 70.8483 124.807 40.9371 114.361C11.0259 103.915 -4.78006 71.4935 5.72388 42.028C9.52531 31.4835 16.2278 22.3186 25.3312 15.6174C25.8314 15.2233 25.9315 14.4349 25.5313 13.9421C25.1312 13.4494 24.3309 13.3509 23.8307 13.7451C14.4271 20.7419 7.42452 30.2024 3.42302 41.2396C-7.58111 71.9863 8.82505 105.788 40.0368 116.628C71.2485 127.468 105.561 111.306 116.565 80.5598C127.57 49.8132 111.263 16.0116 80.0518 5.17148C70.6482 1.91943 60.6445 0.933963 50.9408 2.41217Z" fill="#14182A"/>
<path d="M76.5 14.7783C50.7 5.81281 22.3 19.2118 13.2 44.6305C10 53.4975 9.5 63.0542 11.7 72.2167C11.8 72.8079 12.5 73.202 13.1 73.0049C13.7 72.9064 14.1 72.2167 13.9 71.6256C11.8 62.8571 12.3 53.7931 15.3 45.2217C24 21.0837 51.1 8.27586 75.8 16.8473C100.5 25.4187 113.4 52.1182 104.7 76.3547C96 100.591 68.9 113.399 44.3 104.828C37.4 102.463 31.3 98.6207 26.3 93.4975C25.9 93.1034 25.1 93.0049 24.7 93.4975C24.3 93.8916 24.2 94.5813 24.7 95.0739C30 100.394 36.4 104.433 43.6 106.897C69.4 115.862 97.8 102.463 106.9 77.0443C116 51.6256 102.3 23.7438 76.5 14.7783Z" fill="#F8F8F8"/>
<path d="M82.4 44.7291L57 33.6946C55.7 33.1035 54.2 33.6946 53.7 34.9754L52.7 37.2414C52.1 38.5222 52.7 40.0001 54 40.4927L52.4 44.138C51.7 45.8129 51.7 47.6848 52.5 49.2611L57 58.7193L56.4 60.0001L46.2 63.0542C44.5 63.5469 43 64.8276 42.3 66.5025L40.7 70.1478C39.4 69.5567 37.9 70.1478 37.4 71.4286L36.4 73.6946C35.8 74.9754 36.4 76.4533 37.7 76.9459L63 87.9804C64.3 88.5715 65.8 87.9804 66.3 86.6996L67.3 84.4336C67.9 83.1528 67.3 81.6749 66 81.1823L67.6 77.537C68.3 75.8621 68.3 73.9902 67.5 72.4139L63 62.9557L63.6 61.6749L73.7 58.5222C75.4 58.0296 76.9 56.7488 77.6 55.074L79.2 51.4286C80.5 52.0198 82 51.4286 82.5 50.1478L83.5 47.8818C84.2 46.7981 83.7 45.3203 82.4 44.7291ZM64 85.7143L38.6 74.6799L39.6 72.4139L65 83.4483L64 85.7143ZM63 59.3104C62.3 59.5075 61.7 60.0001 61.4 60.6897L60.8 61.9705C60.5 62.6602 60.5 63.3498 60.8 64.0395L65.3 73.4976C65.8 74.4828 65.8 75.5666 65.3 76.5518L63.7 80.1971L43 71.1331L44.6 67.4877C45 66.5025 45.9 65.7143 46.9 65.4188L57 62.3646C57.7 62.1675 58.3 61.6749 58.6 60.9853L59.2 59.7045C59.5 59.0148 59.5 58.3252 59.2 57.6355L56 50.8375L70.2 57.1429L63 59.3104ZM75.4 54.1873C75.1 54.9754 74.5 55.5666 73.8 55.9607L54.4 47.5863C54.2 46.7981 54.3 45.9114 54.6 45.2217L56.2 41.5764L77 50.5419L75.4 54.1873ZM80.4 49.2611L54.9 38.2267L55.9 35.9607L81.3 46.9951L80.4 49.2611ZM57.6 63.8424C58.4 64.5321 59.3 65.3203 60.1 66.0099L57.9 68.2759C57.2 67.5863 56.4 66.8966 55.6 66.207L57.6 63.8424ZM54.1 68.67C54.9 69.3597 55.8 70.1478 56.6 70.8375L54.4 73.1035C53.7 72.4138 52.9 71.7242 52.1 71.0345L54.1 68.67Z" fill="#14182A"/>
</svg>
