<?xml version="1.0" encoding="utf-8"?>
<!-- Generator: Adobe Illustrator 22.0.1, SVG Export Plug-In . SVG Version: 6.00 Build 0)  -->
<svg version="1.1" id="Layer_1" xmlns="http://www.w3.org/2000/svg" xmlns:xlink="http://www.w3.org/1999/xlink" x="0px" y="0px"
	 viewBox="0 0 198.5 52" style="enable-background:new 0 0 198.5 52;" xml:space="preserve">
<style type="text/css">
	.st0{fill:#004778;}
	.st1{fill:none;stroke:#004778;stroke-width:1.9475;stroke-linecap:round;stroke-miterlimit:10;}
	.st2{fill:#DD1A22;}
</style>
<path class="st0" d="M33.6,32.4H32l0.3-1.6l0.4-2.1H18.5c0-0.3,1.4-0.9,2.8-1.2L32,24.9c0.5-0.1,0.9-0.2,1.4-0.3l0.4-2.5l0.1-0.5
	l0.3-0.3l10-9.1c-0.5-5.5-6.1-7.6-16.9-7.6c-11.6,0-17.2,3-19.1,11.6h13c0.6-2.2,2.4-3.5,5.7-3.5c3.2,0,4.4,0.6,4.4,1.7
	c0,1.5-1.8,2.3-4.7,3.1l-5.3,1.5C14.6,21,5.8,24.5,4.1,35.7l-0.2,1.3H40l0.8-4.6H33.6z"/>
<path class="st0" d="M68.9,23.5h-2.6l3-17.6H53.3L35.1,22.4l-1.5,8.7h19.6l-1,6H64l1-6h6.8C70.3,28.9,69.3,26.3,68.9,23.5z
	 M54.5,23.5h-8l0-0.3l9.2-8.4H56L54.5,23.5z"/>
<line class="st1" x1="86.9" y1="12.5" x2="86.9" y2="21"/>
<line class="st1" x1="86.9" y1="21" x2="82.7" y2="26.2"/>
<path class="st2" d="M136.2,36.9h7.9l1.5-8.7h12.1c5.6,0,9.1-1.4,11.2-3.8c2.1-2.4,3-5.7,3-9.8c0-5.7-3.1-8.6-10.9-8.6h-23.2
	l-3.3,18.7h2.2h1.5l-0.3,1.5L136.2,36.9z M148,14.4h8.2c2,0,2.8,0.7,2.8,2.1c0,0.7-0.2,1.5-0.7,2.2c-0.5,0.7-1.4,1.4-3.1,1.4H147
	L148,14.4z"/>
<path class="st2" d="M175.6,27.8L179.4,6h-11.2c3.3,1.5,4.9,4.3,4.9,8.6c0,4.7-1.1,8.2-3.3,10.7c-1.5,1.6-3.5,2.8-6,3.5l-1.4,8.2h31
	l1.6-9.1H175.6z"/>
<polygon class="st2" points="134.9,36.9 136.8,26.1 124.8,26.1 122.9,36.9 "/>
<path class="st0" d="M99.1,5.9l-1.6,9.2h18.5l0,0.3c-4.2,2.9-8,5.3-11,8.2c-0.5,5.2-3.5,8.8-6.2,11.1c-0.2,0.8-0.3,1.5-0.5,2.4H114
	c1.5-9.7,7.3-13,11.5-16.1c2.7-2,3.9-4.9,4.8-9.6l1-5.5H99.1z"/>
<path class="st0" d="M103.7,22.5c0-0.1,0-0.2,0-0.4c0-0.3,0-0.7,0-1.1c0,0,0,0,0,0c0,0,0,0,0,0c0-1.6-0.2-3.1-0.7-4.6h-5.2
	c0.6,1.4,0.9,3,0.9,4.6c0,0,0,0,0,0c0,0.4,0,0.9-0.1,1.3c0,0.1,0,0.3-0.1,0.4c0,0.3-0.1,0.6-0.1,0.9c0,0.2-0.1,0.3-0.1,0.5
	c-0.1,0.3-0.1,0.5-0.2,0.8c0,0.1-0.1,0.3-0.2,0.4c-0.1,0.3-0.2,0.5-0.3,0.8c-0.1,0.1-0.1,0.3-0.2,0.4c-0.1,0.3-0.3,0.5-0.4,0.8
	c-0.1,0.1-0.1,0.2-0.2,0.3c-0.2,0.3-0.4,0.6-0.6,0.8c0,0.1-0.1,0.1-0.1,0.2c-0.5,0.7-1.1,1.3-1.8,1.8c-2,1.7-4.6,2.7-7.5,2.7
	C80.4,32.9,75,27.6,75,21c0-6.6,5.3-11.9,11.9-11.9c3.8,0,7.2,1.8,9.4,4.6l1.1-5.9c-2.9-2.3-6.5-3.6-10.4-3.6
	c-9.3,0-16.9,7.6-16.9,16.9c0,9.3,7.6,16.9,16.9,16.9c2.7,0,5.2-0.6,7.5-1.8v0c0.1-0.1,0.2-0.1,0.3-0.2c1-0.5,1.9-1.1,2.8-1.8
	c0-0.1,0-0.1,0-0.2c3.2-2.7,5.6-6.7,6.1-11c0,0,0,0,0,0C103.7,22.8,103.7,22.6,103.7,22.5z"/>
<g>
	<g>
		<path class="st2" d="M5.8,47.2l-2-4.8h2.1L7,45.5l1.1-3.1h2.1l1.1,3.1l1.1-3.1h1.8l-1.8,4.8h-2.1L9.1,44l-1.2,3.2H5.8z"/>
		<path class="st2" d="M20.1,45.6L20.1,45.6l2-0.1c0,0.2,0.1,0.6,1.2,0.6h0c1.1,0,1.2-0.2,1.2-0.5v0c0-0.2-0.1-0.4-1-0.4l-0.9,0
			c-2.1,0-2.6-0.8-2.6-1.5v-0.1c0-0.7,0.4-1.5,3-1.5h0.4c2.4,0,3,0.8,3,1.5v0.1h-2c0-0.2-0.1-0.5-1.2-0.5h0c-1,0-1.1,0.1-1.1,0.4v0
			c0,0.2,0.2,0.4,1,0.4l0.9,0c2.2,0,2.7,0.5,2.7,1.5v0.1c0,0.9-0.5,1.6-3.2,1.6h-0.4C20.4,47.3,20.1,46.3,20.1,45.6z"/>
		<path class="st2" d="M32.9,47.2V46l3.2-2.3h-3.2v-1.3h6v1.1l-3.4,2.3h3.4v1.3H32.9z"/>
		<path class="st2" d="M46,47.4h1.1c0.2,0,0.2-0.1,0.2-0.2c0-0.1-0.1-0.2-0.2-0.5l-2.3-4.4H47l1.5,3.2l1.5-3.2h2l-2.5,5.1
			c-0.5,0.9-0.9,1.3-1.8,1.3H46V47.4z"/>
		<path class="st2" d="M57.9,45.6L57.9,45.6l2-0.1c0,0.2,0.1,0.6,1.2,0.6h0c1.1,0,1.2-0.2,1.2-0.5v0c0-0.2-0.1-0.4-1-0.4l-0.9,0
			c-2.1,0-2.6-0.8-2.6-1.5v-0.1c0-0.7,0.4-1.5,3-1.5h0.4c2.4,0,3,0.8,3,1.5v0.1h-2c0-0.2-0.1-0.5-1.2-0.5h0c-1,0-1.1,0.1-1.1,0.4v0
			c0,0.2,0.2,0.4,1,0.4l0.9,0c2.2,0,2.7,0.5,2.7,1.5v0.1c0,0.9-0.5,1.6-3.2,1.6h-0.4C58.2,47.3,57.9,46.3,57.9,45.6z"/>
		<path class="st2" d="M72.6,47.2c-0.9,0-1.2-0.5-1.2-1.4v-2.1h-0.9v-1.3h0.9V41h2v1.4h0.9v1.3h-0.9v1.7c0,0.3,0.1,0.4,0.4,0.4h0.5
			v1.3H72.6z"/>
		<path class="st2" d="M80.8,47.2v-6.6h2v3.7l1.9-1.9H87l-2.3,2.2l2.5,2.6h-2.3L82.8,45v2.2H80.8z"/>
		<path class="st2" d="M96,47.3c-2.8,0-3.4-1.4-3.4-2.5v-0.2c0-1.1,0.7-2.4,3.4-2.4h0.6c2.9,0,3.4,1.3,3.4,2.4v0.2
			c0,1.1-0.5,2.5-3.4,2.5H96z M98.1,44.8L98.1,44.8c0-0.6-0.4-1.3-1.7-1.3h0c-1.3,0-1.7,0.6-1.7,1.2v0c0,0.6,0.4,1.2,1.7,1.2
			C97.7,46,98.1,45.4,98.1,44.8z"/>
		<path class="st0" d="M122.4,40.6v6.6h-2v-0.7c-0.1,0.2-0.8,0.8-2.4,0.8h-0.1c-2.1,0-3-1.1-3-2.5v-0.2c0-1.3,0.8-2.4,2.9-2.4h0.1
			c1.5,0,2.2,0.6,2.4,0.8v-2.5H122.4z M120.4,44.8c0-0.6-0.6-1.2-1.8-1.2h0c-1.2,0-1.6,0.6-1.6,1.2v0c0,0.6,0.4,1.2,1.6,1.2h0
			C119.8,46.1,120.4,45.4,120.4,44.8L120.4,44.8z"/>
		<path class="st0" d="M132.3,47.3c-2.8,0-3.4-1.4-3.4-2.5v-0.2c0-1.1,0.7-2.4,3.4-2.4h0.6c2.9,0,3.4,1.3,3.4,2.4v0.2
			c0,1.1-0.5,2.5-3.4,2.5H132.3z M134.3,44.8L134.3,44.8c0-0.6-0.4-1.3-1.7-1.3h0c-1.3,0-1.7,0.6-1.7,1.2v0c0,0.6,0.4,1.2,1.7,1.2
			C133.9,46,134.3,45.4,134.3,44.8z"/>
		<path class="st0" d="M153.4,47.3h-0.1c-1.6,0-2.2-0.7-2.2-1.6v-0.1c0-0.9,0.6-1.3,2-1.4l2.2-0.2c0.2,0,0.3-0.1,0.3-0.2
			c0-0.2-0.1-0.4-1.2-0.4h0c-1.2,0-1.2,0.4-1.3,0.5h-1.8v0c0-0.6,0.2-1.6,2.9-1.6h0.5c2.8,0,2.9,0.9,2.9,1.5v1.8
			c0,0.1,0,0.2,0.2,0.2h0.3v1.3h-1.6c-0.4,0-0.7-0.2-0.8-0.7C155.5,46.8,154.8,47.3,153.4,47.3z M155.6,44.9l-1.9,0.3
			c-0.5,0.1-0.7,0.2-0.7,0.4v0c0,0.3,0.2,0.5,0.9,0.5c1.1,0,1.7-0.6,1.7-1.1V44.9z"/>
		<path class="st0" d="M171,47.2h-2v-0.8c-0.2,0.2-0.9,0.9-2.3,0.9h-0.1c-1.6,0-2.3-1-2.3-1.9v-3h2v2.4c0,0.7,0.4,1.2,1.2,1.2
			c0.9,0,1.4-0.5,1.4-1.3v-2.3h2V47.2z"/>
		<path class="st0" d="M179.5,47.2c-0.9,0-1.2-0.5-1.2-1.4v-2.1h-0.9v-1.3h0.9V41h2v1.4h0.9v1.3h-0.9v1.7c0,0.3,0.1,0.4,0.4,0.4h0.5
			v1.3H179.5z"/>
		<path class="st0" d="M189.8,47.3h-0.1c-1.6,0-2.2-0.7-2.2-1.6v-0.1c0-0.9,0.6-1.3,2-1.4l2.2-0.2c0.2,0,0.3-0.1,0.3-0.2
			c0-0.2-0.1-0.4-1.2-0.4h0c-1.2,0-1.2,0.4-1.3,0.5h-1.8v0c0-0.6,0.2-1.6,2.9-1.6h0.5c2.8,0,2.9,0.9,2.9,1.5v1.8
			c0,0.1,0,0.2,0.2,0.2h0.3v1.3h-1.6c-0.4,0-0.7-0.2-0.8-0.7C191.8,46.8,191.2,47.3,189.8,47.3z M191.9,44.9l-1.9,0.3
			c-0.5,0.1-0.7,0.2-0.7,0.4v0c0,0.3,0.2,0.5,0.9,0.5c1.1,0,1.7-0.6,1.7-1.1V44.9z"/>
	</g>
</g>
</svg>
