<svg id="Layer_1" data-name="Layer 1" xmlns="http://www.w3.org/2000/svg" viewBox="0 0 70.3 54.6"><title>Futer_logo_2407_mob_webversion</title><path d="M20.9,27.6a19.2,19.2,0,0,1,31.9,0h9.1a27.3,27.3,0,0,0-50.1,0Z" transform="translate(-1.7 -11.1)" style="fill:#989fa7"/><path d="M53.6,47.9a19.3,19.3,0,0,1-33.5,0H11.3a27.3,27.3,0,0,0,51.1,0Z" transform="translate(-1.7 -11.1)" style="fill:#989fa7"/><path d="M38.4,40.2a.1.1,0,0,0,.1-.1V24a1.3,1.3,0,0,0-1.3-1.3A1.2,1.2,0,0,0,36,24V39.6l-7.6,9.3a1.3,1.3,0,0,0,.2,1.8,1.1,1.1,0,0,0,.8.3,1.2,1.2,0,0,0,.9-.5l7.9-9.7h.1a.3.3,0,0,1,.1-.2Z" transform="translate(-1.7 -11.1)" style="fill:#989fa7"/><path d="M30.8,39.4l1.7-9.5H25.3l-10,9-.7,4h9.8l-.6,3.2h5.9l.5-3.2h1.6l2.9-3.5Zm-10.3,0,5.3-4.8L25,39.4Z" transform="translate(-1.7 -11.1)" style="fill:#989fa7"/><path d="M13.3,43.4h0v-.5h0v-.7H11.7s.3-1.5,1.5-1.8h0l.7-.2.3-1.8h.1l7.7-7c-1.2-1.4-3.8-2-8.1-2C7.8,29.3,5.1,30.8,4,35h6.5c.4-1.2,1.5-1.9,3.2-1.9s2.6.2,2.6,1.2-1.3,1.5-2.7,1.9l-2.8.8C7,38,2.6,40,1.7,45.7v.4H20.5l.4-2.1H13.2Z" transform="translate(-1.7 -11.1)" style="fill:#989fa7"/><path d="M65.3,42.9l1.3-7.6H63.2a4.1,4.1,0,0,1,1.1,1.9h0c0,.3.1.7.1,1.1a6.7,6.7,0,0,1-.6,3h0a6.5,6.5,0,0,1-2.7,2.3L60.7,46H71.4l.5-3.1Z" transform="translate(-1.7 -11.1)" style="fill:#c3c6cb"/><polygon points="49 31.6 45.6 31.6 45 34.9 48.4 34.9 49 31.6" style="fill:#c3c6cb"/><path d="M59.9,35.4H52l-1.1,6.3h1.3L51.5,46h2.7l.5-3h3.7a5,5,0,0,0,3.9-1.3,5.1,5.1,0,0,0,1-3.4C63.3,36.4,62.3,35.4,59.9,35.4Zm-.8,4.3a1.2,1.2,0,0,1-1.1.5H55.2l.3-2h2.9c.7,0,.9.3.9.7A1.1,1.1,0,0,1,59.1,39.7Z" transform="translate(-1.7 -11.1)" style="fill:#c3c6cb"/><path d="M40.6,29.9l-.8,4.4h9.9v.5l-.8.6c-4.4,3-7.6,5.1-8.5,10.7h5.2v-.2l.7-3.9v-.4h3.4l1.2-6.9v-.4h5.4c.2-.5.3-1.1.5-1.8l.4-2.6Z" transform="translate(-1.7 -11.1)" style="fill:#989fa7"/></svg>