<svg width="21" height="20" viewBox="0 0 21 20" fill="none" xmlns="http://www.w3.org/2000/svg">
<g id="plus">
<path id="Vector" d="M18 8.125H12.375V2.5C12.375 1.80977 11.8152 1.25 11.125 1.25H9.875C9.18477 1.25 8.625 1.80977 8.625 2.5V8.125H3C2.30977 8.125 1.75 8.68477 1.75 9.375V10.625C1.75 11.3152 2.30977 11.875 3 11.875H8.625V17.5C8.625 18.1902 9.18477 18.75 9.875 18.75H11.125C11.8152 18.75 12.375 18.1902 12.375 17.5V11.875H18C18.6902 11.875 19.25 11.3152 19.25 10.625V9.375C19.25 8.68477 18.6902 8.125 18 8.125Z" fill="#007889"/>
</g>
</svg>
