<svg width="7" height="4" viewBox="0 0 7 4" fill="none" xmlns="http://www.w3.org/2000/svg">
<path id="Vector" d="M6.90403 0.0976641C6.84434 0.0351305 6.76338 0 6.67897 0C6.59455 0 6.51359 0.0351305 6.4539 0.0976641L5.46478 1.12068L3.4924 3.18718L0.540663 0.0976641C0.480727 0.0363671 0.400148 0.00228771 0.316393 0.00281761C0.232638 0.0033475 0.152457 0.0384465 0.0932323 0.100497C0.0340075 0.162548 0.000511572 0.246553 5.81121e-06 0.334304C-0.000499949 0.422056 0.0320252 0.506478 0.0905305 0.569274L3.2727 3.90227C3.3324 3.9648 3.41336 3.99993 3.49777 3.99993C3.58218 3.99993 3.66314 3.9648 3.72284 3.90227L6.90403 0.569274C6.96372 0.506731 6.99725 0.421911 6.99725 0.333469C6.99725 0.245027 6.96372 0.160207 6.90403 0.0976641Z" fill="#D5C9B3"/>
</svg>
