<svg width="19" height="18" viewBox="0 0 19 18" fill="none" xmlns="http://www.w3.org/2000/svg">
<g id="arrow-right">
<path id="Vector" d="M11.0823 15.6481L10.3018 16.4285C9.97134 16.759 9.43696 16.759 9.11001 16.4285L2.27563 9.59768C1.94517 9.26721 1.94517 8.73284 2.27563 8.40588L9.11001 1.57151C9.44048 1.24104 9.97485 1.24104 10.3018 1.57151L11.0823 2.35198C11.4163 2.68596 11.4092 3.23088 11.0682 3.55784L6.83189 7.59377L16.9358 7.59377C17.4034 7.59377 17.7795 7.96994 17.7795 8.43752V9.56252C17.7795 10.0301 17.4034 10.4063 16.9358 10.4063L6.83189 10.4063L11.0682 14.4422C11.4127 14.7692 11.4198 15.3141 11.0823 15.6481Z" fill="#007889"/>
</g>
</svg>
