<svg width="8" height="16" viewBox="0 0 8 16" fill="none" xmlns="http://www.w3.org/2000/svg">
<g clip-path="url(#clip0_1_36)">
<path d="M7.69883 0.500095H5.77906C5.29799 0.473116 4.8168 0.550897 4.36786 0.728202C3.91893 0.905508 3.51267 1.17823 3.17641 1.52801C2.84016 1.87779 2.58171 2.29651 2.41846 2.75602C2.25521 3.21552 2.19095 3.70513 2.22999 4.19192V5.89352H0.301996C0.221902 5.89352 0.145088 5.92577 0.088453 5.98318C0.0318178 6.04059 0 6.11846 0 6.19965V8.66531C0 8.7465 0.0318178 8.82436 0.088453 8.88177C0.145088 8.93918 0.221902 8.97143 0.301996 8.97143H2.23164V15.194C2.23164 15.2752 2.26346 15.353 2.32009 15.4104C2.37673 15.4678 2.45354 15.5001 2.53364 15.5001H5.05081C5.13091 15.5001 5.20772 15.4678 5.26436 15.4104C5.32099 15.353 5.35281 15.2752 5.35281 15.194V8.97143H7.60831C7.64797 8.97143 7.68724 8.96351 7.72388 8.94813C7.76052 8.93274 7.79381 8.91019 7.82185 8.88177C7.8499 8.85334 7.87214 8.8196 7.88732 8.78246C7.9025 8.74531 7.91031 8.70551 7.91031 8.66531V6.19965C7.91031 6.11846 7.87849 6.04059 7.82185 5.98318C7.76522 5.92577 7.68841 5.89352 7.60831 5.89352H5.35199V4.45049C5.35199 3.75734 5.51656 3.40534 6.40609 3.40534H7.69883C7.77878 3.40512 7.85538 3.37277 7.91184 3.31538C7.9683 3.258 8 3.18026 8 3.09922V0.80872C8.00033 0.768379 7.99278 0.728372 7.9778 0.690996C7.96282 0.653621 7.9407 0.619616 7.91272 0.590935C7.88473 0.562254 7.85142 0.539464 7.81472 0.523875C7.77801 0.508285 7.73863 0.500204 7.69883 0.500095Z" fill="#353740"/>
</g>
<defs>
<clipPath id="clip0_1_36">
<rect width="8" height="15" fill="white" transform="translate(0 0.5)"/>
</clipPath>
</defs>
</svg>
