<svg width="15" height="16" viewBox="0 0 15 16" fill="none" xmlns="http://www.w3.org/2000/svg">
<g id="IMAGE" clip-path="url(#clip0_1_392)">
<g id="Group">
<g id="Group_2">
<g id="Group_3">
<path id="Vector" d="M14.7485 7.27801L12.4751 4.83647V2.01725C12.4751 1.77239 12.3845 1.53756 12.2233 1.36442C12.0621 1.19127 11.8434 1.09401 11.6154 1.09401C11.3874 1.09401 11.1688 1.19127 11.0076 1.36442C10.8463 1.53756 10.7558 1.77239 10.7558 2.01725V2.98568L9.0635 1.17256C8.64262 0.739983 8.08253 0.498535 7.49998 0.498535C6.91742 0.498535 6.35733 0.739983 5.93645 1.17256L0.252464 7.27801C0.0911658 7.45124 0.000549316 7.68618 0.000549316 7.93116C0.000549316 8.17614 0.0911658 8.41109 0.252464 8.58432C0.413762 8.75755 0.63253 8.85487 0.86064 8.85487C1.08875 8.85487 1.30752 8.75755 1.46882 8.58432L7.15281 2.47994C7.24698 2.385 7.3713 2.33215 7.50048 2.33215C7.62965 2.33215 7.75397 2.385 7.84815 2.47994L13.5321 8.5854C13.6934 8.75863 13.9122 8.85594 14.1403 8.85594C14.3684 8.85594 14.5872 8.75863 14.7485 8.5854C14.9098 8.41217 15.0004 8.17722 15.0004 7.93224C15.0004 7.68726 14.9098 7.45124 14.7485 7.27801Z" fill="#353740"/>
<path id="Vector_2" d="M7.80006 4.23284C7.76081 4.19003 7.71402 4.15603 7.66242 4.13282C7.61081 4.10961 7.55543 4.09766 7.49948 4.09766C7.44354 4.09766 7.38814 4.10961 7.33654 4.13282C7.28494 4.15603 7.23815 4.19003 7.1989 4.23284L2.19923 9.60121C2.15989 9.64363 2.12875 9.69399 2.1076 9.74939C2.08645 9.80479 2.0757 9.86414 2.07599 9.92402V13.8408C2.07599 14.0593 2.11606 14.2756 2.19391 14.4774C2.27175 14.6793 2.38585 14.8626 2.52968 15.0171C2.67352 15.1716 2.84428 15.2941 3.03221 15.3777C3.22014 15.4613 3.42157 15.5044 3.62499 15.5044H6.10077V11.3874H8.89518V15.5044H11.37C11.7808 15.5044 12.1748 15.3291 12.4653 15.0171C12.7558 14.7051 12.919 14.282 12.919 13.8408V9.92617C12.9193 9.86629 12.9086 9.80692 12.8874 9.75151C12.8663 9.6961 12.8351 9.64574 12.7957 9.60336L7.80006 4.23284Z" fill="#353740"/>
</g>
</g>
</g>
</g>
<defs>
<clipPath id="clip0_1_392">
<rect width="15" height="15" fill="white" transform="translate(0 0.5)"/>
</clipPath>
</defs>
</svg>
