<svg width="15" height="16" viewBox="0 0 15 16" fill="none" xmlns="http://www.w3.org/2000/svg">
<g id="IMAGE">
<path id="Vector" d="M12.5 2.375H2.5C2.15438 2.375 1.875 2.655 1.875 3V13C1.875 13.345 2.15438 13.625 2.5 13.625H12.5C12.8456 13.625 13.125 13.345 13.125 13V3C13.125 2.655 12.8456 2.375 12.5 2.375ZM5.21187 11.9606H3.54187V6.59187H5.21187V11.9606ZM4.37687 5.85875C3.84187 5.85875 3.40937 5.425 3.40937 4.89125C3.40937 4.3575 3.84125 3.92375 4.37687 3.92375C4.91062 3.92375 5.34437 4.35688 5.34437 4.89125C5.34437 5.42563 4.91062 5.85875 4.37687 5.85875ZM11.4612 11.9606H9.79312V9.35C9.79312 8.7275 9.78188 7.92688 8.92563 7.92688C8.05688 7.92688 7.925 8.60563 7.925 9.30625V11.9612H6.25812V6.5925H7.85812V7.32625H7.88125C8.10312 6.90437 8.64812 6.45937 9.45875 6.45937C11.1487 6.45937 11.4606 7.57062 11.4606 9.01687L11.4612 11.9606Z" fill="#353740"/>
</g>
</svg>
