<svg width="15" height="16" viewBox="0 0 15 16" fill="none" xmlns="http://www.w3.org/2000/svg">
<g id="IMAGE" clip-path="url(#clip0_1_38)">
<path id="Vector" d="M10.3127 0.5H4.68734C3.44425 0.500221 2.25214 0.994109 1.37314 1.87306C0.494136 2.75201 0.000221447 3.94406 0 5.18708L0 10.8121C-1.97303e-08 12.0553 0.493817 13.2475 1.37284 14.1266C2.25186 15.0058 3.44411 15.4998 4.68734 15.5H10.3127C11.5557 15.4998 12.7479 15.0059 13.6269 14.1269C14.5059 13.248 14.9998 12.0559 15 10.8129V5.18708C14.9998 3.94406 14.5059 2.75201 13.6269 1.87306C12.7479 0.994109 11.5557 0.500221 10.3127 0.5ZM13.5943 10.8121C13.5934 11.6821 13.2474 12.5162 12.6322 13.1314C12.0169 13.7466 11.1827 14.0927 10.3127 14.0935H4.68734C3.81727 14.0927 2.98308 13.7466 2.36785 13.1314C1.75261 12.5162 1.40659 11.6821 1.4057 10.8121V5.18708C1.40681 4.3172 1.75293 3.48328 2.36814 2.86826C2.98336 2.25324 3.81741 1.90734 4.68734 1.90646H10.3127C11.1827 1.90734 12.0169 2.25335 12.6322 2.86855C13.2474 3.48375 13.5934 4.31789 13.5943 5.18792V10.8121Z" fill="#353740"/>
<g id="Group">
<path id="Vector_2" d="M7.5004 4.25C6.75868 4.25 6.0336 4.46993 5.41688 4.88199C4.80017 5.29404 4.3195 5.87971 4.03565 6.56493C3.75181 7.25015 3.67754 8.00416 3.82224 8.73159C3.96695 9.45901 4.32412 10.1272 4.8486 10.6517C5.37307 11.1761 6.0413 11.5332 6.76876 11.6779C7.49623 11.8226 8.25028 11.7484 8.93554 11.4645C9.6208 11.1807 10.2065 10.7001 10.6186 10.0834C11.0307 9.46671 11.2506 8.74168 11.2506 8C11.2506 7.50755 11.1536 7.0199 10.9651 6.56493C10.7767 6.10996 10.5004 5.69657 10.1522 5.34835C9.80396 5.00013 9.39054 4.72391 8.93554 4.53545C8.48054 4.347 7.99288 4.25 7.5004 4.25ZM7.5004 10.3469C7.03686 10.3469 6.58374 10.2094 6.19832 9.95192C5.81291 9.69441 5.51251 9.3284 5.33513 8.90018C5.15774 8.47195 5.11132 8.00074 5.20175 7.54614C5.29219 7.09154 5.5154 6.67396 5.84317 6.34621C6.17094 6.01846 6.58854 5.79525 7.04317 5.70483C7.4978 5.6144 7.96903 5.66082 8.39728 5.83819C8.82553 6.01557 9.19156 6.31595 9.44909 6.70134C9.70661 7.08674 9.84407 7.53983 9.84407 8.00334C9.84319 8.62462 9.59598 9.22019 9.15665 9.6595C8.71731 10.0988 8.12171 10.346 7.5004 10.3469Z" fill="#353740"/>
</g>
<g id="Group_2">
<path id="Vector_3" d="M11.5313 4.46788C11.8071 4.46788 12.0307 4.24427 12.0307 3.96844C12.0307 3.6926 11.8071 3.46899 11.5313 3.46899C11.2554 3.46899 11.0318 3.6926 11.0318 3.96844C11.0318 4.24427 11.2554 4.46788 11.5313 4.46788Z" fill="#353740"/>
</g>
</g>
<defs>
<clipPath id="clip0_1_38">
<rect width="15" height="15" fill="white" transform="translate(0 0.5)"/>
</clipPath>
</defs>
</svg>
