<svg width="24" height="24" viewBox="0 0 24 24" fill="none" xmlns="http://www.w3.org/2000/svg">
<g id="IMAGE" clip-path="url(#clip0_1_50)">
<g id="Group">
<path id="Vector" d="M23.9948 9.17483C23.9923 9.14721 23.9868 9.11995 23.9784 9.09354C23.973 9.06985 23.9655 9.04669 23.9559 9.02436C23.9448 9.0026 23.9314 8.98202 23.9161 8.96297C23.9005 8.94092 23.8825 8.92063 23.8625 8.90243C23.8565 8.89725 23.853 8.88946 23.847 8.88341L19.9994 5.89487V2.79823C19.9994 2.4799 19.873 2.17461 19.6479 1.94952C19.4229 1.72443 19.1176 1.59797 18.7993 1.59797H14.4642L12.7289 0.250708C12.5205 0.0882339 12.2638 0 11.9996 0C11.7353 0 11.4787 0.0882339 11.2703 0.250708L9.53412 1.59797H5.19893C4.88065 1.59797 4.5754 1.72443 4.35034 1.94952C4.12528 2.17461 3.99885 2.4799 3.99885 2.79823V5.89487L0.153037 8.88255C0.14612 8.8886 0.143526 8.89552 0.137474 8.90157C0.117381 8.9203 0.0994042 8.94118 0.0838677 8.96383C0.0685439 8.98288 0.0552166 9.00345 0.0440954 9.02523C0.0344869 9.04755 0.0269616 9.0707 0.0216154 9.09441C0.0132428 9.12054 0.00773454 9.1475 0.00518769 9.17483C0.00518769 9.18347 0 9.19039 0 9.19904V22.8014C0.000741054 23.0557 0.0831859 23.3031 0.235175 23.507C0.235175 23.507 0.235175 23.5148 0.240363 23.5183C0.245551 23.5217 0.249009 23.5252 0.253332 23.5295C0.364265 23.6754 0.507283 23.7938 0.671309 23.8755C0.835336 23.9572 1.01597 24.0001 1.19922 24.0008H22.7999C22.9842 24.0005 23.166 23.9576 23.331 23.8754C23.496 23.7932 23.6398 23.6739 23.751 23.5269C23.751 23.5269 23.7588 23.5217 23.7614 23.5174C23.764 23.5131 23.7614 23.5096 23.7674 23.5062C23.9194 23.3022 24.0019 23.0549 24.0026 22.8005V9.19904C24 9.19039 23.9957 9.18261 23.9948 9.17483ZM11.7579 0.881968C11.8258 0.828095 11.9099 0.798774 11.9965 0.798774C12.0832 0.798774 12.1673 0.828095 12.2352 0.881968L13.1577 1.59884H10.8388L11.7579 0.881968ZM1.29606 23.2L11.7579 15.0715C11.8258 15.0176 11.9099 14.9883 11.9965 14.9883C12.0832 14.9883 12.1673 15.0176 12.2352 15.0715L22.697 23.2H1.29606ZM23.1959 22.5766L12.7254 14.448C12.517 14.2857 12.2603 14.1975 11.9961 14.1975C11.7319 14.1975 11.4753 14.2857 11.2668 14.448L0.798905 22.5757V9.80782L7.35356 14.8985C7.39477 14.9335 7.44264 14.9597 7.49427 14.9757C7.5459 14.9917 7.60022 14.997 7.65397 14.9914C7.70771 14.9858 7.75977 14.9693 7.807 14.9431C7.85422 14.9168 7.89565 14.8813 7.92877 14.8386C7.96188 14.7958 7.98602 14.7469 7.99971 14.6946C8.0134 14.6423 8.01636 14.5878 8.00842 14.5343C8.00048 14.4809 7.9818 14.4296 7.95351 14.3835C7.92522 14.3375 7.88789 14.2977 7.84379 14.2664L1.18625 9.09527L3.99885 6.90748V9.99892C4.00363 10.1018 4.04785 10.1988 4.12232 10.2699C4.19679 10.341 4.29578 10.3807 4.39873 10.3807C4.50168 10.3807 4.60068 10.341 4.67514 10.2699C4.74961 10.1988 4.79383 10.1018 4.79862 9.99892V2.79823C4.79862 2.69205 4.84079 2.59021 4.91587 2.51512C4.99094 2.44004 5.09276 2.39786 5.19893 2.39786H18.7993C18.9055 2.39786 19.0073 2.44004 19.0824 2.51512C19.1575 2.59021 19.1997 2.69205 19.1997 2.79823V9.99892C19.2044 10.1018 19.2487 10.1988 19.3231 10.2699C19.3976 10.341 19.4966 10.3807 19.5995 10.3807C19.7025 10.3807 19.8015 10.341 19.876 10.2699C19.9504 10.1988 19.9946 10.1018 19.9994 9.99892V6.90748L22.8137 9.09441L16.1424 14.2751C16.0983 14.3063 16.061 14.3461 16.0327 14.3922C16.0044 14.4382 15.9857 14.4895 15.9777 14.543C15.9698 14.5964 15.9728 14.651 15.9865 14.7032C16.0002 14.7555 16.0243 14.8045 16.0574 14.8472C16.0905 14.8899 16.1319 14.9255 16.1792 14.9517C16.2264 14.978 16.2785 14.9944 16.3322 15C16.3859 15.0056 16.4403 15.0003 16.4919 14.9843C16.5435 14.9684 16.5914 14.9421 16.6326 14.9072L23.1994 9.80522V22.5757L23.1959 22.5766Z" fill="#D5C9B3"/>
<path id="Vector_2" d="M16.7995 9.59943V7.99966C16.7997 7.05007 16.5183 6.12175 15.9909 5.33211C15.4635 4.54247 14.7139 3.92697 13.8368 3.56346C12.9596 3.19995 11.9944 3.10475 11.0632 3.2899C10.1319 3.47505 9.27652 3.93224 8.60509 4.60364C7.93366 5.27504 7.47639 6.13051 7.2911 7.06184C7.1058 7.99317 7.20081 8.95855 7.56411 9.83587C7.92741 10.7132 8.54269 11.4631 9.33212 11.9907C10.1215 12.5182 11.0497 12.7998 11.9991 12.7998C12.0532 12.8023 12.1072 12.7939 12.1579 12.7749C12.2087 12.7559 12.255 12.7269 12.2942 12.6895C12.3333 12.6521 12.3645 12.6072 12.3858 12.5574C12.4071 12.5076 12.418 12.454 12.418 12.3999C12.418 12.3457 12.4071 12.2922 12.3858 12.2424C12.3645 12.1926 12.3333 12.1477 12.2942 12.1103C12.255 12.0729 12.2087 12.0438 12.1579 12.0249C12.1072 12.0059 12.0532 11.9974 11.9991 11.9999C11.2081 11.9999 10.4348 11.7653 9.77702 11.3258C9.11927 10.8862 8.60661 10.2615 8.30388 9.5305C8.00115 8.79955 7.92195 7.99522 8.07628 7.21924C8.23061 6.44326 8.61154 5.73048 9.17091 5.17102C9.73028 4.61157 10.443 4.23058 11.2188 4.07623C11.9947 3.92188 12.7989 4.0011 13.5298 4.30388C14.2606 4.60665 14.8853 5.11937 15.3248 5.77722C15.7643 6.43506 15.9988 7.20848 15.9988 7.99966V9.59943C15.9988 9.81168 15.9145 10.0152 15.7645 10.1653C15.6144 10.3154 15.4109 10.3997 15.1987 10.3997C14.9864 10.3997 14.7829 10.3154 14.6328 10.1653C14.4828 10.0152 14.3984 9.81168 14.3984 9.59943V7.99966C14.3937 7.8968 14.3494 7.79975 14.275 7.72865C14.2005 7.65755 14.1015 7.61788 13.9986 7.61788C13.8956 7.61788 13.7966 7.65755 13.7221 7.72865C13.6477 7.79975 13.6035 7.8968 13.5987 7.99966C13.5988 8.31627 13.5051 8.62582 13.3294 8.88916C13.1536 9.1525 12.9037 9.35779 12.6113 9.47907C12.3189 9.60035 11.9971 9.63217 11.6866 9.5705C11.3761 9.50884 11.0908 9.35646 10.8669 9.13264C10.643 8.90883 10.4905 8.62363 10.4287 8.31311C10.3669 8.00259 10.3985 7.68072 10.5196 7.38819C10.6407 7.09566 10.8459 6.84562 11.1091 6.66971C11.3723 6.49379 11.6817 6.39989 11.9983 6.39989C12.0524 6.40241 12.1064 6.39392 12.1571 6.37496C12.2078 6.356 12.2541 6.32694 12.2933 6.28956C12.3324 6.25217 12.3636 6.20723 12.3849 6.15745C12.4062 6.10767 12.4172 6.05409 12.4172 5.99995C12.4172 5.9458 12.4062 5.89222 12.3849 5.84244C12.3636 5.79266 12.3324 5.74773 12.2933 5.71034C12.2541 5.67295 12.2078 5.6439 12.1571 5.62494C12.1064 5.60597 12.0524 5.59749 11.9983 5.6C11.6077 5.59953 11.223 5.69438 10.8774 5.87632C10.5318 6.05827 10.2358 6.32181 10.0151 6.64408C9.79442 6.96635 9.65571 7.33761 9.61099 7.72565C9.56627 8.11368 9.6169 8.50677 9.75849 8.87081C9.90008 9.23484 10.1284 9.55881 10.4235 9.81462C10.7186 10.0704 11.0717 10.2503 11.4522 10.3387C11.8326 10.4272 12.2288 10.4214 12.6065 10.3219C12.9841 10.2225 13.3319 10.0324 13.6194 9.76805C13.6639 10.1735 13.8617 10.5465 14.1725 10.8106C14.4832 11.0747 14.8832 11.2098 15.2904 11.1882C15.6976 11.1666 16.0812 10.99 16.3623 10.6946C16.6434 10.3991 16.8007 10.0073 16.8021 9.59943H16.7995Z" fill="#D5C9B3"/>
</g>
</g>
<defs>
<clipPath id="clip0_1_50">
<rect width="24" height="24" fill="white"/>
</clipPath>
</defs>
</svg>
