<svg width="24" height="24" viewBox="0 0 24 24" fill="none" xmlns="http://www.w3.org/2000/svg">
<g id="IMAGE" clip-path="url(#clip0_1_56)">
<path id="Vector" d="M23.3707 18.5157L18.5133 15.276C18.2157 15.0784 17.8545 15.0004 17.5019 15.0576C17.1493 15.1148 16.8313 15.3031 16.6115 15.5847L15.1963 17.4004C15.1082 17.517 14.9809 17.5978 14.8379 17.6278C14.6949 17.6578 14.5459 17.6351 14.4183 17.5638L14.1495 17.4151C12.5623 16.5484 11.1307 15.4231 9.91363 14.0855C8.5768 12.8674 7.45152 11.4357 6.58373 9.84884L6.43764 9.58167C6.36598 9.45449 6.3427 9.30568 6.37209 9.16268C6.40148 9.01968 6.48156 8.89212 6.59757 8.80352L8.41293 7.38901C8.69434 7.16903 8.88242 6.85098 8.93963 6.49837C8.99684 6.14576 8.91896 5.78455 8.72154 5.48685L5.48501 0.629444C5.28464 0.326328 4.97509 0.112206 4.62081 0.0316749C4.26654 -0.0488561 3.89486 0.0104126 3.58319 0.197137L1.55603 1.4223C0.916693 1.79681 0.44729 2.40451 0.246378 3.11781C-0.484955 5.78342 0.0648413 10.3806 6.84134 17.1609C12.2312 22.5509 16.2441 24.0009 19.0017 24.0009C19.6363 24.0035 20.2684 23.9209 20.881 23.7553C21.5941 23.5557 22.202 23.0874 22.5771 22.4489L23.7986 20.4188C23.986 20.1075 24.046 19.7359 23.9663 19.3814C23.8866 19.0269 23.6733 18.7168 23.3707 18.5157ZM23.1113 20.0072L21.8925 22.0391C21.6225 22.4997 21.1848 22.8381 20.671 22.9832C18.2107 23.6585 13.9118 23.0991 7.4067 16.5937C0.901638 10.0883 0.345791 5.79033 1.01748 3.32964C1.16499 2.81496 1.5057 2.37722 1.96838 2.10794L3.99986 0.888829C4.13485 0.807775 4.29587 0.781865 4.44945 0.816485C4.60304 0.851105 4.73739 0.943592 4.82456 1.07472L6.58028 3.71699L8.05764 5.93213C8.14289 6.06119 8.17644 6.21763 8.15161 6.37031C8.12679 6.52299 8.0454 6.66072 7.92365 6.75611L6.10828 8.17062C5.84058 8.37529 5.65569 8.66967 5.58756 8.99972C5.51944 9.32978 5.57265 9.67333 5.73743 9.96729L5.88179 10.2267C6.78341 11.8836 7.95497 13.3786 9.34828 14.6501C10.6198 16.043 12.1145 17.2145 13.7709 18.1163L14.0302 18.2607C14.3241 18.4255 14.6676 18.4787 14.9976 18.4106C15.3276 18.3424 15.6219 18.1575 15.8265 17.8898L17.2408 16.0741C17.3363 15.9525 17.474 15.8712 17.6266 15.8464C17.7792 15.8215 17.9355 15.855 18.0646 15.9401L22.9238 19.1789C23.0558 19.2661 23.1489 19.4012 23.1834 19.5557C23.2179 19.7102 23.1911 19.8721 23.1087 20.0072H23.1113Z" fill="#D5C9B3"/>
<path id="Vector_2" d="M16.3988 11.2012H17.9989V13.201C17.9991 13.2801 18.0226 13.3574 18.0666 13.4231C18.1106 13.4888 18.173 13.54 18.2461 13.5702C18.3191 13.6005 18.3995 13.6084 18.4771 13.593C18.5546 13.5776 18.6259 13.5396 18.6819 13.4837L20.964 11.2012H22.7984C23.1166 11.2012 23.4218 11.0747 23.6469 10.8497C23.8719 10.6246 23.9983 10.3194 23.9983 10.0011V6.00136C23.9983 5.68307 23.8719 5.37782 23.6469 5.15276C23.4218 4.9277 23.1166 4.80127 22.7984 4.80127H16.4014C16.0832 4.80127 15.778 4.9277 15.553 5.15276C15.3279 5.37782 15.2015 5.68307 15.2015 6.00136V10.0011C15.2015 10.3189 15.3276 10.6238 15.552 10.8487C15.7765 11.0737 16.081 11.2005 16.3988 11.2012ZM15.9986 6.00136C15.9986 5.89519 16.0407 5.79336 16.1158 5.71829C16.1909 5.64321 16.2927 5.60104 16.3988 5.60104H22.7958C22.902 5.60104 23.0038 5.64321 23.0788 5.71829C23.1539 5.79336 23.1961 5.89519 23.1961 6.00136V10.0011C23.1961 10.1072 23.1539 10.2091 23.0788 10.2841C23.0038 10.3592 22.902 10.4014 22.7958 10.4014H20.7963C20.6902 10.4016 20.5886 10.4439 20.5136 10.519L18.7968 12.2361V10.8043C18.7968 10.7517 18.7865 10.6997 18.7664 10.6511C18.7462 10.6025 18.7168 10.5584 18.6796 10.5212C18.6424 10.4841 18.5983 10.4546 18.5497 10.4345C18.5012 10.4143 18.4491 10.404 18.3966 10.404H16.3971C16.3445 10.404 16.2925 10.3936 16.2439 10.3735C16.1954 10.3534 16.1512 10.3239 16.1141 10.2867C16.0769 10.2496 16.0474 10.2054 16.0273 10.1569C16.0072 10.1083 15.9968 10.0562 15.9968 10.0037V6.00395L15.9986 6.00136Z" fill="#D5C9B3"/>
<path id="Vector_3" d="M17.1993 8.40152H19.1953C19.2494 8.40404 19.3034 8.39555 19.3541 8.37659C19.4048 8.35763 19.4511 8.32858 19.4903 8.2912C19.5294 8.25382 19.5606 8.20889 19.5819 8.15911C19.6032 8.10934 19.6142 8.05577 19.6142 8.00163C19.6142 7.94749 19.6032 7.89392 19.5819 7.84415C19.5606 7.79437 19.5294 7.74945 19.4903 7.71207C19.4511 7.67469 19.4048 7.64563 19.3541 7.62667C19.3034 7.60771 19.2494 7.59924 19.1953 7.60175H17.1958C17.1418 7.59924 17.0877 7.60771 17.037 7.62667C16.9863 7.64563 16.94 7.67469 16.9009 7.71207C16.8617 7.74945 16.8306 7.79437 16.8093 7.84415C16.788 7.89392 16.777 7.94749 16.777 8.00163C16.777 8.05577 16.788 8.10934 16.8093 8.15911C16.8306 8.20889 16.8617 8.25382 16.9009 8.2912C16.94 8.32858 16.9863 8.35763 17.037 8.37659C17.0877 8.39555 17.1418 8.40404 17.1958 8.40152H17.1993Z" fill="#D5C9B3"/>
<path id="Vector_4" d="M20.7989 8.40152H21.9988C22.0529 8.40404 22.1069 8.39555 22.1576 8.37659C22.2083 8.35763 22.2546 8.32858 22.2937 8.2912C22.3329 8.25382 22.3641 8.20889 22.3854 8.15911C22.4066 8.10934 22.4176 8.05577 22.4176 8.00163C22.4176 7.94749 22.4066 7.89392 22.3854 7.84415C22.3641 7.79437 22.3329 7.74945 22.2937 7.71207C22.2546 7.67469 22.2083 7.64563 22.1576 7.62667C22.1069 7.60771 22.0529 7.59924 21.9988 7.60175H20.7989C20.7449 7.59924 20.6908 7.60771 20.6401 7.62667C20.5894 7.64563 20.5431 7.67469 20.504 7.71207C20.4648 7.74945 20.4336 7.79437 20.4123 7.84415C20.391 7.89392 20.3801 7.94749 20.3801 8.00163C20.3801 8.05577 20.391 8.10934 20.4123 8.15911C20.4336 8.20889 20.4648 8.25382 20.504 8.2912C20.5431 8.32858 20.5894 8.35763 20.6401 8.37659C20.6908 8.39555 20.7449 8.40404 20.7989 8.40152Z" fill="#D5C9B3"/>
</g>
<defs>
<clipPath id="clip0_1_56">
<rect width="24" height="24" fill="white"/>
</clipPath>
</defs>
</svg>
