<svg width="15" height="16" viewBox="0 0 15 16" fill="none" xmlns="http://www.w3.org/2000/svg">
<g id="IMAGE">
<path id="Vector" d="M13.4956 5.00188C13.3519 4.46563 12.93 4.0425 12.3944 3.89813C11.4156 3.62938 7.49999 3.625 7.49999 3.625C7.49999 3.625 3.58499 3.62063 2.60562 3.8775C2.08062 4.02063 1.64687 4.45313 1.50187 4.98875C1.24374 5.9675 1.24124 7.9975 1.24124 7.9975C1.24124 7.9975 1.23874 10.0375 1.49499 11.0063C1.63874 11.5419 2.06062 11.965 2.59687 12.1094C3.58562 12.3781 7.49062 12.3825 7.49062 12.3825C7.49062 12.3825 11.4062 12.3869 12.385 12.1306C12.92 11.9869 13.3437 11.5644 13.4894 11.0288C13.7481 10.0506 13.75 8.02126 13.75 8.02126C13.75 8.02126 13.7625 5.98063 13.4956 5.00188ZM6.24749 9.87813L6.25062 6.12813L9.50499 8.00625L6.24749 9.87813Z" fill="#353740"/>
</g>
</svg>
