<?xml version="1.0" encoding="utf-8"?>
<!-- Generator: Adobe Illustrator 22.0.1, SVG Export Plug-In . SVG Version: 6.00 Build 0)  -->
<svg version="1.1" baseProfile="tiny" id="Layer_1" xmlns="http://www.w3.org/2000/svg" xmlns:xlink="http://www.w3.org/1999/xlink"
	 x="0px" y="0px" viewBox="0 0 527.2 612.3" xml:space="preserve">
<g>
	<path fill="#FFFFFF" d="M265.2,179.4c14.5,0,29,0.5,43.5-0.1c21-0.9,31.5,13.4,35.1,28.9c0.5,2.1,1,4.3,1,6.4
		c0.1,23.5,0.3,47,0,70.5c-0.1,8.2-7.5,14.3-15.7,14.2c-7.9-0.1-13.9-6-14.1-14.5c-0.3-13.8-0.1-27.7-0.2-41.5c-0.1-6-0.2-12-0.9-18
		c-0.3-2.2-2.4-4.2-3.6-6.2c-0.8,2.2-2.4,4.3-2.4,6.5c-0.2,24.8-0.1,49.7-0.1,74.5c0,5.5,0.1,11,0,16.5c-0.1,5.6-3.1,8.7-8.7,8.8
		c-22.7,0.1-45.3,0.1-68,0c-6,0-8.8-3.2-8.8-9.6c0-29.7,0-59.3-0.2-89c0-2.5-1.8-5.1-2.7-7.6c-1.2,2.5-3.3,5-3.4,7.6
		c-0.5,16.5-0.5,33-0.7,49.5c0,2.7,0,5.3-0.1,8c-0.4,9.2-6.1,15.1-14.5,15.1c-8.6,0-15.3-6.6-15.5-15.6c-0.2-9.5-0.1-19-0.1-28.5
		c0-12.5,0-25,0.1-37.5c0.1-8.7,2.4-16.8,7.2-24.1c5.9-9.2,14.4-14.2,25.4-14.2C233.5,179.4,249.3,179.4,265.2,179.4
		C265.2,179.4,265.2,179.4,265.2,179.4z"/>
	<path fill="#FFFFFF" d="M352,222.6c1.8,0,3.4,0,5,0c18,0,36,0.6,54-0.2c18.7-0.8,26.1,12.8,26.7,24.8c0.8,16.3,0.4,32.6,0.2,49
		c-0.1,6.5-5.2,11.1-11.3,10.9c-5.6-0.2-9.5-4.4-9.7-11.2c-0.3-13.2-0.3-26.3-0.6-39.5c0-2.1-1-4.1-1.5-6.1c-0.7,0-1.4,0.1-2.1,0.1
		c-0.3,2.1-0.8,4.2-0.9,6.3c-0.1,20.2,0,40.3-0.1,60.5c0,6.5-1.5,8.2-7.8,8.2c-15,0-30,0-45,0c-5.5,0-7.4-1.7-7.4-7.1
		c-0.1-30.8,0-61.6,0-92.5C351.5,224.9,351.8,223.9,352,222.6z"/>
	<path fill="#FFFFFF" d="M115.3,250.3c-0.6,1.9-1.6,3.7-1.6,5.6c-0.3,11.6-0.4,23.3-0.6,34.9c0,2,0.1,4-0.1,6
		c-0.4,6-4.3,10-9.6,10.2c-5.6,0.2-11.2-4.1-11.3-9.8c-0.2-17.1-0.8-34.3,0.3-51.4c1-15.5,10.8-23.3,26.2-23.3
		c18.2,0,36.3,0.1,54.5-0.1c3.7,0,5.3,0.8,5.3,4.9c-0.2,30.1-0.1,60.3-0.1,90.4c0,6-1.7,7.6-7.9,7.6c-14.8,0.1-29.6,0.1-44.5,0
		c-6.3,0-7.8-1.7-7.8-8.2c0-20,0-40,0-59.9c0-2.3-0.5-4.6-0.8-6.8C116.7,250.4,116,250.4,115.3,250.3z"/>
	<path fill="#FFFFFF" d="M264.6,169.3c-22.5-0.1-40.5-18.3-40.5-40.9c0.1-22.5,18.3-40.7,40.6-40.8c22.8-0.1,41.2,18.6,41,41.5
		C305.6,151.5,287.3,169.3,264.6,169.3z"/>
	<path fill="#FFFFFF" d="M177,186.4c0.1,16-12.4,28.7-28.2,28.8c-16.2,0.1-29.3-12.7-29.2-28.5c0.1-16.1,12.9-28.9,28.9-28.9
		C164.3,157.9,176.9,170.5,177,186.4z"/>
	<path fill="#FFFFFF" d="M381.7,215.3c-16,0-28.6-12.4-28.8-28.2c-0.1-16.2,12.5-29.1,28.5-29.1c15.9,0,28.7,12.5,28.8,28.3
		C410.3,202.5,397.8,215.2,381.7,215.3z"/>
</g>
</svg>
